<svg width="28" height="28" viewBox="0 0 28 28" fill="none" xmlns="http://www.w3.org/2000/svg">
<g opacity="0.5">
<path d="M14.4072 8.27417C14.8732 8.27417 15.251 7.89641 15.251 7.43042C15.251 6.96443 14.8732 6.58667 14.4072 6.58667C13.9412 6.58667 13.5635 6.96443 13.5635 7.43042C13.5635 7.89641 13.9412 8.27417 14.4072 8.27417Z" fill="#E85F25"/>
<path d="M20.2207 5.75136L19.6638 5.60792C19.5954 5.39912 19.5108 5.19599 19.4107 5.00042L19.706 4.51104C19.8498 4.27524 19.9098 3.99774 19.8761 3.72357C19.8424 3.44941 19.717 3.19468 19.5204 3.00073L18.8369 2.31729C18.643 2.12061 18.3882 1.99525 18.1141 1.96155C17.8399 1.92785 17.5624 1.9878 17.3266 2.13167L16.8372 2.42698C16.6417 2.32686 16.4385 2.24223 16.2297 2.17386L16.0863 1.61698C16.0195 1.34971 15.8653 1.11241 15.6482 0.942738C15.4312 0.773068 15.1637 0.680745 14.8882 0.68042H13.9263C13.6508 0.680745 13.3833 0.773068 13.1662 0.942738C12.9492 1.11241 12.795 1.34971 12.7282 1.61698L12.5847 2.17386C12.3759 2.24223 12.1728 2.32686 11.9772 2.42698L11.4879 2.13167C11.2514 1.98982 10.9744 1.93104 10.7008 1.96467C10.4271 1.99831 10.1726 2.12242 9.97754 2.31729L9.2941 3.00073C9.09742 3.19468 8.97205 3.44941 8.93836 3.72357C8.90466 3.99774 8.96461 4.27524 9.10848 4.51104L9.40379 5.00042C9.30367 5.19599 9.21903 5.39912 9.15066 5.60792L8.59379 5.75136C8.32652 5.81819 8.08922 5.97236 7.91955 6.18942C7.74987 6.40648 7.65755 6.67398 7.65723 6.94948V7.91136C7.65755 8.18686 7.74987 8.45436 7.91955 8.67142C8.08922 8.88848 8.32652 9.04265 8.59379 9.10948L9.15066 9.25292C9.21903 9.46172 9.30367 9.66485 9.40379 9.86042L9.10848 10.3498C8.96461 10.5856 8.90466 10.8631 8.93836 11.1373C8.97205 11.4114 9.09742 11.6662 9.2941 11.8601L9.97754 12.5435C10.1715 12.7402 10.4262 12.8656 10.7004 12.8993C10.9745 12.933 11.252 12.873 11.4879 12.7292L11.9772 12.4339C12.1728 12.534 12.3759 12.6186 12.5847 12.687L12.7282 13.2439C12.795 13.5111 12.9492 13.7484 13.1662 13.9181C13.3833 14.0878 13.6508 14.1801 13.9263 14.1804H14.8882C15.1637 14.1801 15.4312 14.0878 15.6482 13.9181C15.8653 13.7484 16.0195 13.5111 16.0863 13.2439L16.2297 12.687C16.4385 12.6186 16.6417 12.534 16.8372 12.4339L17.3266 12.7292C17.5624 12.873 17.8399 12.933 18.1141 12.8993C18.3882 12.8656 18.643 12.7402 18.8369 12.5435L19.5204 11.8601C19.717 11.6662 19.8424 11.4114 19.8761 11.1373C19.9098 10.8631 19.8498 10.5856 19.706 10.3498L19.4107 9.86042C19.5108 9.66485 19.5954 9.46172 19.6638 9.25292L20.2207 9.10948C20.4879 9.04265 20.7252 8.88848 20.8949 8.67142C21.0646 8.45436 21.1569 8.18686 21.1572 7.91136V6.94948C21.1569 6.67398 21.0646 6.40648 20.8949 6.18942C20.7252 5.97236 20.4879 5.81819 20.2207 5.75136ZM14.4072 9.96167C13.9066 9.96167 13.4172 9.81321 13.0009 9.53508C12.5847 9.25694 12.2602 8.86161 12.0687 8.39909C11.8771 7.93656 11.8269 7.42761 11.9246 6.9366C12.0223 6.44558 12.2634 5.99456 12.6174 5.64056C12.9714 5.28655 13.4224 5.04548 13.9134 4.94781C14.4044 4.85014 14.9134 4.90027 15.3759 5.09185C15.8384 5.28343 16.2337 5.60787 16.5119 6.02413C16.79 6.44039 16.9385 6.92979 16.9385 7.43042C16.9365 8.10115 16.6692 8.74384 16.1949 9.21812C15.7206 9.6924 15.078 9.95971 14.4072 9.96167Z" fill="#E85F25"/>
<path d="M5.96973 6.94948V7.91136C5.96866 8.40045 6.09105 8.88189 6.32557 9.3111C6.56008 9.7403 6.89912 10.1034 7.31129 10.3667C7.27976 10.5111 7.26 10.6578 7.25223 10.8054H3.43848C2.76775 10.8035 2.12505 10.5361 1.65078 10.0619C1.1765 9.58759 0.909185 8.9449 0.907227 8.27417V6.58667C0.909185 5.91594 1.1765 5.27325 1.65078 4.79897C2.12505 4.32469 2.76775 4.05738 3.43848 4.05542H7.25223C7.26 4.20303 7.27976 4.34976 7.31129 4.49417C6.89912 4.75747 6.56008 5.12054 6.32557 5.54974C6.09105 5.97895 5.96866 6.46039 5.96973 6.94948Z" fill="#E85F25"/>
<path d="M27.9072 6.58667V8.27417C27.9053 8.9449 27.638 9.58759 27.1637 10.0619C26.6894 10.5361 26.0467 10.8035 25.376 10.8054H21.5622C21.5544 10.6578 21.5347 10.5111 21.5032 10.3667C21.9153 10.1034 22.2544 9.7403 22.4889 9.3111C22.7234 8.88189 22.8458 8.40045 22.8447 7.91136V6.94948C22.8458 6.46039 22.7234 5.97895 22.4889 5.54974C22.2544 5.12054 21.9153 4.75747 21.5032 4.49417C21.5347 4.34976 21.5544 4.20303 21.5622 4.05542H25.376C26.0467 4.05738 26.6894 4.32469 27.1637 4.79897C27.638 5.27325 27.9053 5.91594 27.9072 6.58667Z" fill="#E85F25"/>
<path d="M11.0322 19.2429H13.5635V24.3054H11.0322V19.2429Z" fill="#E85F25"/>
<path d="M15.251 19.2429H17.7822V24.3054H15.251V19.2429Z" fill="#E85F25"/>
<path d="M26.2197 12.4085V24.3054H19.4697V18.3992C19.4691 18.1756 19.38 17.9614 19.2219 17.8033C19.0638 17.6452 18.8496 17.5561 18.626 17.5554H10.1885C9.9649 17.5561 9.75066 17.6452 9.59257 17.8033C9.43447 17.9614 9.34537 18.1756 9.34473 18.3992V24.3054H2.59473V12.4085C2.87216 12.4667 3.15502 12.495 3.43848 12.4929H7.66566C7.78673 12.6996 7.93422 12.8897 8.10441 13.0582L8.77941 13.7332C9.12544 14.0807 9.55336 14.3355 10.0237 14.4741C10.4941 14.6127 10.9918 14.6307 11.471 14.5264C11.7343 14.9385 12.0974 15.2776 12.5266 15.5121C12.9558 15.7466 13.4372 15.869 13.9263 15.8679H14.8882C15.3773 15.869 15.8587 15.7466 16.2879 15.5121C16.7171 15.2776 17.0802 14.9385 17.3435 14.5264C17.8226 14.6327 18.3208 14.6157 18.7916 14.477C19.2623 14.3383 19.6902 14.0824 20.035 13.7332L20.71 13.0582C20.8802 12.8897 21.0277 12.6996 21.1488 12.4929H25.376C25.6594 12.495 25.9423 12.4667 26.2197 12.4085Z" fill="#E85F25"/>
<path d="M26.2197 27.6804H2.59473C2.37095 27.6804 2.15634 27.5915 1.99811 27.4333C1.83987 27.2751 1.75098 27.0604 1.75098 26.8367C1.75098 26.6129 1.83987 26.3983 1.99811 26.24C2.15634 26.0818 2.37095 25.9929 2.59473 25.9929H26.2197C26.4435 25.9929 26.6581 26.0818 26.8163 26.24C26.9746 26.3983 27.0635 26.6129 27.0635 26.8367C27.0635 27.0604 26.9746 27.2751 26.8163 27.4333C26.6581 27.5915 26.4435 27.6804 26.2197 27.6804Z" fill="#E85F25"/>
</g>
</svg>
