<svg width="23" height="28" viewBox="0 0 23 28" fill="none" xmlns="http://www.w3.org/2000/svg">
<g opacity="0.5">
<path d="M14.8824 3.38042H8.11765C7.75883 3.38042 7.4147 3.23819 7.16098 2.98501C6.90725 2.73184 6.76471 2.38846 6.76471 2.03042C6.76471 1.67238 6.90725 1.329 7.16098 1.07583C7.4147 0.822652 7.75883 0.68042 8.11765 0.68042H14.8824C15.2412 0.68042 15.5853 0.822652 15.839 1.07583C16.0928 1.329 16.2353 1.67238 16.2353 2.03042C16.2353 2.38846 16.0928 2.73184 15.839 2.98501C15.5853 3.23819 15.2412 3.38042 14.8824 3.38042Z" fill="#E85F25"/>
<path d="M11.5 4.73042C9.22552 4.73042 7.00211 5.40342 5.11095 6.66431C3.21978 7.92519 1.7458 9.71734 0.875391 11.8141C0.004983 13.9109 -0.222756 16.2181 0.220974 18.4441C0.664704 20.67 1.75997 22.7147 3.36828 24.3195C4.97658 25.9243 7.02568 27.0172 9.25646 27.4599C11.4872 27.9027 13.7995 27.6754 15.9009 26.8069C18.0022 25.9384 19.7983 24.4676 21.0619 22.5806C22.3255 20.6935 23 18.475 23 16.2054C22.9964 13.1632 21.7837 10.2465 19.6278 8.09531C17.4719 5.94411 14.5489 4.73399 11.5 4.73042ZM15.2882 19.0404C15.1622 19.2081 14.9988 19.3442 14.8109 19.4379C14.6231 19.5316 14.4159 19.5804 14.2059 19.5804C13.9131 19.5804 13.6283 19.4857 13.3941 19.3104L10.6882 17.2854C10.5202 17.1597 10.3838 16.9966 10.2899 16.8092C10.196 16.6217 10.1471 16.415 10.1471 16.2054V12.8304C10.1471 12.4724 10.2896 12.129 10.5433 11.8758C10.7971 11.6227 11.1412 11.4804 11.5 11.4804C11.8588 11.4804 12.203 11.6227 12.4567 11.8758C12.7104 12.129 12.8529 12.4724 12.8529 12.8304V15.5304L15.0176 17.1504C15.1598 17.2568 15.2795 17.3901 15.3701 17.5426C15.4606 17.6951 15.5201 17.864 15.5452 18.0395C15.5704 18.215 15.5606 18.3937 15.5165 18.5655C15.4724 18.7372 15.3948 18.8986 15.2882 19.0404Z" fill="#E85F25"/>
</g>
</svg>
