<svg width="28" height="28" viewBox="0 0 28 28" fill="none" xmlns="http://www.w3.org/2000/svg">
<g opacity="0.5">
<path d="M12.927 20.8077H14.9014C15.6123 20.8077 16.2821 20.9771 16.8759 21.2755V15.5982C18.6944 14.555 19.8377 12.6183 19.8377 10.4986C19.8377 8.15697 18.4427 6.03869 16.2836 5.10204C15.9785 4.96998 15.6266 4.99944 15.3477 5.18058C15.0693 5.36173 14.9014 5.67051 14.9014 6.00187V9.51678C14.9014 10.0583 14.4587 10.4986 13.9142 10.4986C13.3697 10.4986 12.927 10.0583 12.927 9.51678V6.00187C12.927 5.67051 12.7591 5.36173 12.4807 5.18058C12.2018 4.99944 11.8504 4.96998 11.5448 5.10204C9.38571 6.03869 7.99073 8.15697 7.99073 10.4986C7.99073 12.6183 9.13396 14.555 10.9525 15.5982V21.2755C11.5463 20.9771 12.2161 20.8077 12.927 20.8077Z" fill="#E85F25"/>
<path d="M24.7739 9.51678H23.7368C23.2397 4.56253 19.0247 0.68042 13.9142 0.68042C8.80373 0.68042 4.58869 4.56253 4.09161 9.51678H3.05451C1.42111 9.51678 0.0927734 10.8378 0.0927734 12.4622V14.4259C0.0927734 16.0503 1.42111 17.3713 3.05451 17.3713H5.029C5.57396 17.3713 6.01624 16.9315 6.01624 16.3895V10.4986C6.01624 6.1678 9.55947 2.64406 13.9142 2.64406C18.2689 2.64406 21.8122 6.1678 21.8122 10.4986V19.335C21.8122 21.9491 19.7459 24.086 17.1529 24.2303C16.7673 23.3727 15.9055 22.7713 14.9014 22.7713H12.927C11.566 22.7713 10.4588 23.8724 10.4588 25.2259C10.4588 26.5793 11.566 27.6804 12.927 27.6804H14.9014C15.9168 27.6804 16.79 27.0663 17.1682 26.193C20.8427 26.0388 23.7867 23.0266 23.7867 19.335V17.3713H24.7739C26.4073 17.3713 27.7356 16.0503 27.7356 14.4259V12.4622C27.7356 10.8378 26.4073 9.51678 24.7739 9.51678Z" fill="#E85F25"/>
</g>
</svg>
