<svg width="197" height="160" viewBox="0 0 197 160" fill="none" xmlns="http://www.w3.org/2000/svg">
<g opacity="0.5">
<path d="M116.892 30.6618C89.6504 30.6618 67.4871 52.7949 67.4871 80.0002C67.4871 107.205 89.6504 129.338 116.892 129.338C144.134 129.338 166.297 107.205 166.297 80.0002C166.297 52.7949 144.134 30.6618 116.892 30.6618ZM140.189 85.7639H111.121V45.3059H122.664V74.2364H140.189V85.7639Z" fill="url(#paint0_linear_5789_15473)"/>
<path d="M117.113 0.0002963C99.5369 -0.0469663 83.2775 5.5623 70.0485 15.102H26.3657C19.4788 15.102 13.8962 20.6775 13.8962 27.5548C13.8962 34.4325 19.4791 40.0075 26.3657 40.0075H47.4989C43.4724 46.9609 40.467 54.5763 38.679 62.649H12.4695C5.58295 62.6494 0 68.2245 0 75.1021C0 81.9798 5.58295 87.5549 12.4695 87.5549H37.1422C37.8871 95.4969 39.7948 103.1 42.6936 110.196H33.787C26.9001 110.196 21.3176 115.772 21.3176 122.649C21.3176 129.527 26.9005 135.102 33.787 135.102H58.8176C73.4125 150.438 94.0336 160 116.892 160C161.134 160 197 124.183 197 80.0005C197 35.7992 161.373 0.119413 117.113 0.0002963ZM116.892 140.866C83.2856 140.866 55.9445 113.562 55.9445 80.0002C55.9445 46.4387 83.2856 19.1344 116.892 19.1344C150.499 19.1344 177.84 46.4387 177.84 80.0002C177.84 113.562 150.499 140.866 116.892 140.866Z" fill="url(#paint1_linear_5789_15473)"/>
</g>
<defs>
<linearGradient id="paint0_linear_5789_15473" x1="98.5" y1="0" x2="98.5" y2="184.444" gradientUnits="userSpaceOnUse">
<stop stop-color="#FF972B"/>
<stop offset="1" stop-color="#FAF0EB"/>
</linearGradient>
<linearGradient id="paint1_linear_5789_15473" x1="98.5" y1="0" x2="98.5" y2="184.444" gradientUnits="userSpaceOnUse">
<stop stop-color="#FF972B"/>
<stop offset="1" stop-color="#FAF0EB"/>
</linearGradient>
</defs>
</svg>
