<svg xmlns="http://www.w3.org/2000/svg" width="206" height="117" viewBox="0 0 206 117" fill="none">
    <path d="M167.215 15.9179C166.309 10.7142 164.403 5.76007 163.739 0.00211844C168.199 2.55101 171.576 5.04498 175.455 9.40806C176.027 10.2564 176.588 11.1242 177.129 11.9807C176.423 12.889 175.497 13.5971 174.432 14.2306C174.912 15.5961 175.354 16.9391 175.735 18.2985C177.051 17.6338 178.276 16.813 179.299 15.8493C181.025 19.229 182.462 22.7521 183.547 26.4351C182.294 28.1567 179.895 28.7241 177.886 29.4216C178.041 30.8579 178.138 32.2606 178.185 33.6602C180.565 33.17 182.848 32.3121 184.679 31.0252C185.63 35.5241 186.062 40.2029 185.927 44.9682C183.526 46.9746 180.095 47.04 176.934 47.1317C176.638 48.5409 176.284 49.9165 175.891 51.2697C178.703 51.4687 182.419 51.1792 185.546 49.98C184.982 54.8603 183.837 59.5349 182.195 63.9485C178.858 66.1399 174.176 64.7836 170.374 63.8318C169.637 65.0639 168.841 66.2622 168.026 67.4494C171.221 68.6461 176.01 69.5466 180.008 69.083C177.837 73.6056 175.114 77.7835 171.923 81.5614C167.761 82.7587 162.511 80.1423 158.992 77.67C157.93 78.6112 156.838 79.5606 155.71 80.4375C158.994 82.8254 162.936 84.7905 167.636 85.8464C167.725 85.8718 167.825 85.8778 167.925 85.8838C163.985 89.7475 159.535 93.058 154.694 95.7017C150.185 95.4813 145.668 91.8639 143.008 88.3075C141.675 88.9108 140.354 89.4948 138.997 90.0062C139.063 90.0705 139.118 90.1542 139.165 90.2073C141.949 93.7308 145.366 96.7397 149.053 98.4282C144.836 100.215 140.387 101.506 135.779 102.264C134.703 101.928 133.616 101.3 132.501 100.45C130.399 98.7959 128.371 96.2522 126.779 93.3127C122.01 94.0816 117.238 94.2273 112.546 93.6945L113.038 89.5234C116.92 89.9775 120.935 89.8868 124.958 89.3344C123.597 85.7254 122.929 81.947 123.165 78.8458C123.36 76.4457 124.005 74.565 125.241 73.2322C127.978 73.3362 130.645 73.1144 133.268 72.6086C132.343 77.3064 134.191 81.9999 136.559 86.423C137.885 85.9198 139.204 85.3859 140.494 84.8102C138.274 81.1194 135.941 75.7839 138.162 71.2643C141.065 70.2729 143.82 68.9108 146.435 67.2086C147.171 71.182 149.527 74.4589 152.493 77.6215C153.609 76.764 154.687 75.8841 155.749 74.9428C153.064 72.2794 150.143 68.5466 150.502 64.2469C152.638 62.4758 154.617 60.4842 156.415 58.311C158.096 61.4568 160.921 63.6061 164.187 65.6211C165.018 64.4952 165.772 63.3245 166.517 62.1231C163.639 60.5133 160.223 57.9969 159.388 54.329C160.967 51.9517 162.375 49.4233 163.55 46.7604C165.77 48.793 168.628 49.7183 171.768 50.6504C172.169 49.3279 172.542 47.9634 172.846 46.5848C170.239 45.9862 167.023 44.8284 165.239 42.3999C166.24 39.4552 166.999 36.3453 167.484 33.1285C169.433 33.969 171.674 34.3045 174.045 34.1454C174.018 32.7569 173.921 31.3543 173.786 29.9292C172.016 29.9435 169.708 29.7246 167.948 28.7346C168.142 25.842 168.088 22.9747 167.803 20.194C169.116 20.2527 170.463 20.0723 171.789 19.7499C171.416 18.4211 170.994 17.0893 170.513 15.7239C169.57 15.9225 168.306 16.0919 167.215 15.9179Z" fill="#FFE4D9"/>
    <path d="M30.5404 9.41709C34.1835 5.31936 37.3833 2.87624 41.4403 0.482164L42.2756 -9.72748e-05C41.7014 4.88217 39.7935 10.55 38.7909 15.9464C37.7291 16.0362 36.6171 15.9945 35.4819 15.733C35.0205 17.0872 34.5786 18.4302 34.2061 19.759C35.5319 20.0814 36.8987 20.2505 38.1922 20.2031C37.9263 22.9725 37.8835 25.8593 38.0772 28.7519C36.3932 29.8278 34.2844 29.8539 32.2399 29.9464C32.1044 31.3715 32.0077 32.7742 31.961 34.1739C33.9114 34.1874 36.417 33.9064 38.542 33.1457C39.0265 36.3626 39.786 39.4725 40.7868 42.4172C39.1757 44.8755 36.0053 45.7994 33.156 46.6156C33.4599 47.9942 33.8332 49.3586 34.2536 50.67C36.8645 50.0691 40.1753 48.8051 42.4643 46.7584C43.6503 49.4407 45.0388 51.9802 46.6074 54.3381C45.794 57.864 42.4328 60.2968 39.4852 62.1539C40.2306 63.3553 41.0037 64.5148 41.8156 65.6519C44.6198 64.0847 47.8524 61.519 49.591 58.3396C51.4091 60.5016 53.3878 62.4932 55.5128 64.2449C56.1814 68.1843 52.9574 72.0659 50.2771 74.9603C51.3386 75.9015 52.4164 76.7814 53.5331 77.6389C56.1313 75.051 58.8106 71.3026 59.5715 67.2372C62.1748 68.9199 64.9603 70.2903 67.8444 71.293C70.198 75.0107 67.6958 81.0397 65.5314 84.8276C66.8222 85.4033 68.1405 85.9372 69.4671 86.4405C71.6786 82.5995 73.5757 77.5413 72.7582 72.626C75.3618 73.1431 78.0476 73.3537 80.7654 73.2609C82.0011 74.5936 82.666 76.4631 82.8409 78.8745C83.0967 81.9644 82.4291 85.7429 81.068 89.3519C85.0907 89.9043 89.1059 89.995 92.9878 89.5409L93.46 93.7232C88.7882 94.2448 83.9966 94.1103 79.2384 93.3608C77.635 96.281 75.607 98.8246 73.5248 100.467C72.4102 101.318 71.3223 101.946 70.2471 102.282C65.6392 101.523 61.1863 100.235 56.9689 98.448C60.5487 96.7438 64.6174 93.8767 67.0097 90.0349C65.6719 89.5122 64.3311 88.9395 63.018 88.3249C60.3609 91.4389 56.0284 95.2353 51.3089 95.7327C46.4672 93.0889 42.0176 89.7784 38.0775 85.9147C42.0062 85.5372 47.1818 83.4297 50.2922 80.4684C49.1643 79.5915 48.0722 78.642 46.9996 77.6814C43.7873 79.9504 38.5786 82.5432 34.0797 81.5923C30.8883 77.8144 28.1848 73.6252 25.9946 69.1139C29.6613 69.7942 34.2173 68.951 37.9759 67.4802C37.161 66.2931 36.385 65.0835 35.6477 63.8515C32.3139 64.9992 27.4163 65.9102 23.8072 63.9793C22.1655 59.5657 21.0207 54.8911 20.4564 50.0108C23.2718 51.2085 26.8013 51.5796 30.1415 51.3087C29.7181 49.9473 29.3642 48.5717 29.0686 47.1624C26.3333 47.2653 22.5802 46.9198 20.0946 44.9878C19.9838 40.83 20.5112 35.8892 21.3123 31.0365C23.1544 32.3429 25.4257 33.1813 27.8299 33.6581C27.8766 32.2584 27.9733 30.8557 28.1088 29.4307C26.2771 28.9497 23.8822 28.0764 22.4476 26.4441C23.533 22.7612 24.989 19.2269 26.7157 15.8471C27.7188 16.822 28.9439 17.6429 30.2794 18.2963C30.6601 16.9369 31.1021 15.5939 31.5829 14.2285C30.6953 13.723 29.6112 12.9218 28.8658 11.9898C29.4073 11.1332 29.9682 10.2654 30.5404 9.41709Z" fill="#FFE4D9"/>

    <path d="M47.0657 99.0909C45.1974 99.0909 43.1854 99.2346 41.3171 99.2346C38.2991 99.2346 35.7122 98.3723 33.4127 96.0729C31.5444 94.2046 30.1073 92.1925 28.8139 89.8931C28.6701 89.4619 28.8138 89.0308 28.3827 88.5996C28.0953 88.3122 28.0953 88.0248 28.0953 87.5936C28.0953 86.1565 27.9515 84.7193 28.3827 83.2822C29.3887 80.2641 30.8259 77.3898 32.8379 74.9467C35.281 71.9286 38.5865 71.3538 42.0357 71.0663C46.4909 70.6352 50.3712 72.3598 53.9641 74.6592C54.3952 74.9467 54.8264 75.3778 55.1138 75.809C55.6887 75.809 55.6887 76.3838 55.9761 76.6712C55.9761 76.6712 55.9761 76.815 56.1198 76.9587C56.551 76.9587 56.5509 77.3898 56.6947 77.6773C56.6947 77.6773 56.6947 77.821 56.8384 77.9647C57.2695 78.2521 57.557 78.6833 57.557 79.2581C58.4193 81.5576 58.8504 83.857 58.563 86.3002C58.2755 88.8871 57.1258 91.0428 55.6886 93.0548C55.5449 93.3423 55.4012 93.6297 55.2575 93.7734C55.2575 94.2046 54.8264 94.3483 54.5389 94.492C53.1018 95.498 51.6646 96.6477 50.0837 97.51C49.3652 97.9411 48.6466 98.2286 48.0717 98.516C47.7843 98.8035 47.4969 98.9472 47.0657 98.9472V99.0909Z" fill="#010000"/>
    <path d="M47.0605 99.0901C47.0605 99.0901 47.6354 98.6589 48.0666 98.6589C47.9228 99.0901 47.7791 99.8087 47.0605 99.0901Z" fill="#FEFEFE"/>
    <path d="M55.1146 75.9529C55.1146 75.9529 54.2523 75.2344 53.9648 74.8032C54.5397 74.8032 54.9709 75.3781 55.1146 75.9529Z" fill="#FCFCFC"/>
    <path d="M28.2355 87.7358C28.2355 87.7358 28.3792 88.3107 28.5229 88.7418C27.8044 88.5981 27.9481 88.167 28.2355 87.7358Z" fill="#FEFEFE"/>
    <path d="M57.701 79.4021C57.701 79.4021 57.1261 78.5398 56.9824 78.1086C57.5573 78.2524 57.8447 78.6835 57.701 79.4021Z" fill="#FCFCFC"/>
    <path d="M56.1201 76.9602C56.1201 76.9602 55.5452 76.3853 55.2578 76.0979C55.9764 76.0979 56.1201 76.3853 56.1201 76.9602Z" fill="#FCFCFC"/>
    <path d="M54.6816 94.637C54.6816 94.637 55.1128 94.2059 55.4002 93.9185C55.4002 94.4933 55.1128 94.637 54.6816 94.637Z" fill="#FCFCFC"/>
    <path d="M56.8346 77.8196C56.8346 77.8196 56.5472 77.3885 56.2598 77.1011C56.6909 77.1011 56.9783 77.2448 56.8346 77.8196Z" fill="#FCFCFC"/>
    <path d="M53.9654 85.152C54.9714 84.7208 56.1211 84.4334 56.9834 83.2837V84.146C56.9834 84.146 56.1211 85.152 55.69 85.5831C53.1031 88.7449 50.0851 91.4755 47.2108 94.3498C46.061 95.4995 45.0551 96.9367 43.3305 97.5115C43.1867 97.5115 43.043 97.5115 42.8993 97.5115C42.3244 97.5115 41.6059 97.799 41.4621 97.3678C41.1747 96.793 42.037 96.5055 42.3244 96.0744C43.043 95.3558 43.9053 94.6372 44.6239 93.7749C47.0671 91.4755 49.2228 88.8886 51.8097 86.7329C52.0971 86.5891 52.2408 86.3017 52.5283 86.158C52.9594 85.7269 53.3906 85.4394 53.9654 85.152Z" fill="#FDFDFD"/>
    <path d="M50.223 86.1568C51.229 85.8694 52.235 85.4382 53.241 85.4382C53.241 85.8694 52.8099 86.0131 52.5224 86.3005C49.9356 88.3125 47.9235 90.7557 45.4804 92.9114C45.1929 93.1989 44.9055 93.4863 44.4744 93.7737C43.7558 94.4923 43.1809 95.3546 42.3186 95.9295C42.1749 96.0732 41.8875 96.3606 41.7438 96.3606C41.1689 96.3606 40.7378 96.648 40.594 97.2229C40.594 97.2229 40.4503 97.2229 40.3066 97.3666C39.7317 97.3666 39.1569 97.0792 38.582 97.0792C38.582 96.2169 39.3006 95.9295 39.8755 95.4983C42.7498 92.4803 45.9115 89.8934 48.9295 87.0191C49.3607 86.588 49.7918 86.3005 50.223 86.0131V86.1568Z" fill="#FDFDFD"/>
    <path d="M47.348 86.7322C48.0666 86.5885 48.9289 86.4447 49.6475 86.301C49.2163 87.4507 48.2103 88.1693 47.348 88.8879C44.9048 90.8999 42.7491 93.1994 40.4497 95.3551C40.3059 95.4988 40.0185 95.6425 39.8748 95.7863C39.3 96.0737 39.0125 96.7923 38.2939 97.0797C37.5754 97.0797 37.1442 96.7923 36.5693 96.5048C36.5693 95.4988 37.5754 95.0677 38.1502 94.4928C38.5814 94.0617 39.0125 93.7742 39.4437 93.3431C40.5934 92.3371 41.5994 91.1874 42.7491 90.1814C43.6114 89.4628 44.4737 88.7442 45.336 88.1693C45.6234 88.0256 45.7671 87.7382 46.0546 87.5945C46.4857 87.307 46.7731 87.0196 47.2043 86.8759L47.348 86.7322Z" fill="#FDFDFD"/>
    <path d="M44.0484 86.8763C44.9107 86.8763 45.9167 86.7326 46.779 86.5889C46.9227 87.1637 46.4915 87.1637 46.2041 87.3074C45.9167 87.4512 45.773 87.7386 45.4855 87.8823C44.6232 88.4572 43.7609 89.3195 42.8987 89.8943C41.7489 90.9003 40.7429 92.0501 39.5932 93.0561C38.5872 93.7746 37.8686 94.7807 37.0063 95.4992C36.7189 95.7867 36.4315 96.0741 36.0003 95.7867C35.5692 95.4992 35.138 95.0681 34.8506 94.7807C34.8506 94.2058 35.138 93.9184 35.5692 93.6309C37.2937 91.7626 39.4495 90.3255 41.3178 88.6009C42.1801 87.8823 43.1861 87.1637 44.1921 86.7326L44.0484 86.8763Z" fill="#FDFDFD"/>
    <path d="M57.1238 85.0073V86.5882C56.549 87.8816 55.2555 88.4565 54.537 89.6062C53.0998 91.1871 51.6627 92.768 49.9381 94.0614C49.0758 94.78 48.5009 95.786 47.7823 96.5046C47.4949 96.792 47.0638 97.0794 46.7763 97.2231C46.0578 97.6543 45.4829 97.6543 44.6206 97.6543C44.0457 97.3668 44.4769 97.0794 44.6206 96.792C45.4829 95.6423 46.6326 94.9237 47.6386 93.9177C50.3692 91.0434 53.0998 88.3128 55.8304 85.4385C56.2615 85.2947 56.4053 84.5762 57.1238 84.8636V85.0073Z" fill="#FDFDFD"/>
    <path d="M41.4613 83.5686C41.4613 83.5686 41.7487 84.4309 41.7487 84.862C42.0362 85.5806 41.4613 85.868 41.0302 86.2992C40.7427 86.5866 40.3116 86.8741 40.0241 87.1615C38.0121 88.5986 36.1438 90.1795 34.1318 91.7604C33.7007 92.0478 33.4133 92.6227 32.6947 92.479C32.1198 92.1915 31.9761 91.6167 31.5449 91.0418C31.6886 90.1795 32.5509 90.0358 32.9821 89.4609C33.5569 88.8861 34.2755 88.4549 34.8504 88.0238C36.2876 86.7303 37.8684 85.4369 39.593 84.4309C40.1679 84.1435 40.599 83.4249 41.4613 83.5686Z" fill="#FDFDFD"/>
    <path d="M34.27 94.2038C34.27 94.2038 33.1203 93.4852 32.9766 92.7667C35.1323 90.7547 37.4318 88.8864 39.8749 87.1618C40.5935 86.8743 40.8809 85.7246 41.8869 85.8683C41.8869 86.5869 42.3181 87.0181 43.0367 87.0181C42.8929 88.0241 41.7432 88.1678 41.1683 88.7426C39.1563 90.3235 37.1443 91.9044 35.4197 93.7727C35.1323 94.0601 34.8449 94.4913 34.27 94.2038Z" fill="#FDFDFD"/>
    <path d="M29.6719 86.3014C29.6719 86.3014 29.6719 85.2954 29.8156 84.8643C30.103 84.5768 30.2467 84.1457 30.5342 84.002C33.5522 81.9899 36.1391 79.6905 39.3008 77.9659C39.5883 77.8222 40.0194 77.391 40.4505 77.6785C40.4505 78.2533 40.738 78.6845 40.738 79.2593C40.3068 80.1216 39.4445 80.2653 38.7259 80.8402C37.7199 81.5588 36.5702 82.2774 35.7079 82.996C34.1271 84.1457 32.6899 85.1517 31.109 86.1577C30.6779 86.4451 30.2467 87.02 29.6719 86.1577V86.3014Z" fill="#FDFDFD"/>
    <path d="M40.8845 79.9784C40.8845 79.9784 40.8845 80.5532 40.8845 80.8406C41.0282 81.4155 40.597 81.7029 40.3096 81.9904C38.8724 83.1401 37.2916 84.0024 35.8544 85.0084C34.2735 86.1581 32.8364 87.4516 31.1118 88.3139C30.8244 88.3139 30.6807 88.745 30.2495 88.6013C30.1058 88.1701 29.8184 87.5953 29.8184 87.0204C30.6807 86.0144 31.9741 85.4395 32.9801 84.721C33.8424 84.0024 34.7047 83.5712 35.567 82.8527C36.573 81.9904 37.7227 81.4155 38.585 80.6969C39.0162 80.4095 39.4473 80.1221 39.8785 79.8346C40.1659 79.6909 40.597 79.5472 40.7407 79.9784H40.8845Z" fill="#FDFDFD"/>
    <path d="M41.1732 81.7026C41.1732 81.7026 41.3169 82.5649 41.4606 82.996C41.1732 83.8583 40.3109 84.1458 39.5923 84.5769C37.8678 85.5829 36.4306 86.8764 34.8497 88.1698C33.8437 88.8884 32.9814 89.7507 31.9754 90.3255C31.688 90.4692 31.5443 90.7567 31.1131 90.613C30.8257 90.1818 30.5382 89.7507 30.3945 89.1758C30.9694 88.1698 31.9754 87.7386 32.8377 87.1638C33.8437 86.4452 34.706 85.5829 35.712 85.008C37.2929 84.002 38.8738 82.996 40.3109 81.8463C40.4546 81.8463 40.5984 81.5589 40.8858 81.7026H41.1732Z" fill="#FCFCFC"/>
    <path d="M29.8184 84.4338C29.9621 83.5715 30.1058 82.5655 30.6806 81.847C31.3992 80.8409 32.549 80.1224 33.555 79.5475C35.4233 78.3978 37.2916 77.2481 39.1599 76.242C39.4473 76.0983 39.7347 75.8109 40.1659 76.0983C40.1659 76.5295 40.3096 76.8169 40.4533 77.248C40.3096 77.6792 39.8785 77.8229 39.4473 78.1103C36.2856 79.9787 33.4112 82.4218 30.3932 84.4338C30.2495 84.4338 30.1058 84.865 29.8184 84.7213V84.4338Z" fill="#FDFDFD"/>
    <path d="M50.6531 95.3557C49.6471 96.0743 48.6411 96.9366 47.3477 96.9366C47.9225 95.7868 49.0722 94.9246 49.7908 94.0623C51.3717 92.6251 52.8088 91.0442 54.3897 89.6071C54.9646 88.7448 55.6832 88.1699 56.4018 87.4513C56.5455 87.3076 56.8329 87.0202 56.9766 87.4513C56.6892 88.6011 56.258 89.6071 55.5394 90.4694C54.246 92.3377 52.5214 93.7748 50.7968 95.212L50.6531 95.3557Z" fill="#FEFDFD"/>
    <path d="M40.0238 74.0841C40.0238 74.0841 40.0238 74.9464 40.1675 75.3776C40.1675 75.665 39.8801 75.8087 39.5927 75.9524C37.0058 77.5333 34.2752 78.9705 31.832 80.8388C31.5446 80.9825 31.4009 81.2699 30.9697 81.1262C31.1134 80.1202 31.6883 79.2579 32.4069 78.5393C34.5626 76.8147 37.1495 75.665 39.4489 74.0841C39.5927 74.0841 39.7364 73.9404 40.0238 74.0841Z" fill="#FDFCFC"/>
    <path d="M32.5479 77.8208C33.6976 76.0962 34.8473 74.3716 37.1467 73.9405C37.7216 73.9405 38.2965 73.9405 38.7276 73.7968C39.015 73.7968 39.3025 73.6531 39.4462 73.7968C39.5899 74.0842 39.4462 74.2279 39.1588 74.3716C37.2905 75.6651 35.1347 76.8148 33.1227 78.1083C32.979 78.1083 32.5479 78.3957 32.5479 77.9645V77.8208Z" fill="#FDFCFC"/>
    <path d="M55.8263 85.5818C52.3771 89.4621 48.7843 93.1987 44.9039 96.6479C44.6165 96.7916 43.8979 97.079 44.4728 97.6539C44.1854 97.6539 43.7542 97.6539 43.4668 97.6539C44.7602 96.5042 46.0537 95.2107 47.3471 94.061C50.0777 91.3304 52.8083 88.4561 55.5389 85.5818C55.8263 85.5818 55.8263 85.5818 55.8263 85.8692V85.5818Z" fill="#444142"/>
    <path d="M39.7344 95.6425C43.0398 92.4807 46.3453 89.319 49.6507 86.1572C49.7944 86.1572 49.9382 86.1572 50.2256 86.1572C49.7945 87.1632 48.7885 87.7381 48.0699 88.4567C45.3393 90.7561 42.7524 93.4867 40.0218 95.9299C39.7344 95.9299 39.7344 95.9299 39.7344 95.6425Z" fill="#343131"/>
    <path d="M29.8184 84.4306C33.2675 81.9874 36.7167 79.2568 40.4533 77.1011C40.4533 77.2448 40.4533 77.5322 40.4533 77.6759C38.1539 78.9694 35.8544 80.5502 33.8424 82.1311C32.549 83.1371 31.1118 83.9994 29.8184 85.0054C29.8184 84.8617 29.8184 84.718 29.8184 84.5743V84.4306Z" fill="#2C2929"/>
    <path d="M30.9691 81.1273C33.8434 78.9716 37.1488 77.247 40.1669 75.3787C40.1669 75.5224 40.1669 75.8098 40.1669 75.9535C36.8614 77.6781 33.6997 79.6901 30.6816 81.8459C30.6816 81.5584 30.6816 81.271 30.9691 81.1273Z" fill="#292627"/>
    <path d="M32.5519 77.8195C32.5519 77.8195 32.6956 77.9632 32.8393 77.9632C34.9951 76.6698 37.2945 75.2326 39.594 73.7955C39.1628 73.7955 39.0191 73.7955 38.8754 73.7955C39.3065 73.5081 39.8814 73.2206 40.0251 74.0829C37.7257 75.5201 35.4262 76.8135 33.1268 78.2507C32.9831 78.2507 32.6956 78.6818 32.4082 78.5381C32.4082 78.2507 32.4082 77.9632 32.5519 77.8195Z" fill="#252122"/>
    <path d="M40.0189 87.3079C37.7195 89.1762 35.2763 90.9008 32.9769 92.7691C32.9769 92.7691 32.8332 92.6254 32.6895 92.4817C35.1326 90.7571 37.2883 88.6014 39.7315 87.0205C40.0189 87.0205 40.0189 87.0205 40.0189 87.3079Z" fill="#343232"/>
    <path d="M34.2754 94.2046C34.2754 94.2046 35.1377 93.7735 35.4251 93.486C37.1497 91.6177 39.1617 90.1806 41.1737 88.7434C41.4612 88.7434 41.4612 88.7434 41.4612 88.8871C39.4492 90.6117 37.2934 92.0489 35.4251 94.0609C35.1377 94.3483 34.8503 94.492 34.8503 94.9232C34.5628 94.9232 34.4191 94.492 34.4191 94.2046H34.2754Z" fill="#3D3B3B"/>
    <path d="M35.9947 85.1506C34.1264 86.444 32.4018 87.8811 30.5335 89.1746C30.3898 89.1746 30.2461 88.8872 30.2461 88.7434C32.1144 87.45 33.839 86.1566 35.7073 85.0068C35.9947 85.0068 35.9947 85.0068 35.9947 85.1506Z" fill="#444242"/>
    <path d="M35.7111 83.1399C33.8428 84.577 31.8307 86.0142 29.8187 87.3077C29.8187 87.0202 29.3876 86.8765 29.5313 86.4454C29.9624 87.0202 30.2499 86.4454 30.5373 86.4454C32.1182 85.2956 33.8427 84.2896 35.4236 83.1399C35.4236 83.1399 35.7111 83.1399 35.7111 83.4273V83.1399Z" fill="#343132"/>
    <path d="M50.6523 95.3559C52.0895 93.6313 53.6704 92.0504 55.395 90.6133C55.395 91.3319 54.9638 91.6193 54.6764 92.0504C53.8141 92.4816 53.3829 93.4876 52.5206 93.9187C52.2332 94.781 51.5146 95.2122 50.6523 95.3559Z" fill="#3B3838"/>
    <path d="M36.0003 85.1494C36.0003 85.1494 35.8566 85.1494 35.7129 85.0057C37.2938 83.856 38.8746 82.85 40.5992 81.7003C40.8867 81.5566 41.0304 81.2691 41.0304 80.9817C41.3178 81.2691 41.1741 81.5566 41.0304 81.844C39.3058 82.9937 37.7249 84.2872 35.8566 85.2932L36.0003 85.1494Z" fill="#4A4949"/>
    <path d="M36.002 95.93C36.8642 95.93 37.2954 94.924 37.8702 94.4928C38.4451 94.0617 39.02 93.4868 39.5948 93.0557C39.5948 93.0557 39.7386 93.0557 39.8823 93.3431C38.8763 94.3491 37.5828 95.2114 36.7205 96.3611C36.4331 96.2174 36.1457 96.3611 36.002 95.93Z" fill="#3C393A"/>
    <path d="M31.2578 90.6111C32.5513 89.8925 33.5573 88.7427 34.8507 88.0242C34.8507 88.0242 35.1381 88.0242 35.1381 88.3116C33.9884 89.3176 32.8387 90.1799 31.5452 91.1859C31.5452 91.0422 31.4015 90.8985 31.2578 90.6111Z" fill="#393737"/>
    <path d="M49.9383 94.206C49.076 95.212 48.2137 96.0743 47.3514 97.0803C47.2077 97.3677 46.9202 97.3677 46.6328 97.3677C47.7825 96.3617 48.5011 95.0683 49.7945 94.0623C49.7945 94.0623 49.9383 94.0623 50.082 94.3497L49.9383 94.206Z" fill="#474444"/>
    <path d="M43.611 97.51C43.611 97.51 43.611 97.51 43.611 97.6537C42.6049 97.6537 41.4552 97.9411 40.4492 97.3663C40.4492 97.3663 40.4492 97.3663 40.4492 97.2226C40.8804 96.7914 41.3115 96.504 41.8864 96.2166C42.0301 96.2166 42.1738 95.9291 42.4612 95.7854C42.4612 95.7854 42.7487 95.7854 42.7487 96.0728C42.3175 96.504 42.0301 96.9351 41.5989 97.3663C42.3175 97.6537 43.0361 97.3663 43.7547 97.3663L43.611 97.51Z" fill="#524F4F"/>
    <path d="M56.8377 87.5949C56.8377 87.5949 56.1191 88.026 55.8317 88.3135C55.4005 88.7446 54.9694 89.3195 54.5383 89.7506C54.5383 89.7506 54.3945 89.7506 54.3945 89.4632C55.1131 88.3135 56.1191 87.4512 57.1251 86.5889C57.1251 86.8763 57.2688 87.3074 56.9814 87.5949H56.8377Z" fill="#423E3F"/>
    <path d="M41.4593 89.0325C41.4593 89.0325 41.3156 89.0325 41.1719 88.8888C41.7467 88.1702 42.609 88.0265 43.0402 87.3079C43.3276 87.3079 43.7588 87.1642 44.0462 87.0205C43.3276 87.8828 42.3216 88.4577 41.4593 89.0325Z" fill="#535151"/>
    <path d="M40.8815 79.9779C40.8815 79.9779 40.1629 79.9779 39.8755 80.2653C39.4443 80.409 39.1569 80.6964 38.8694 80.9839C38.8694 80.9839 38.7257 80.9839 38.582 80.6964L40.7378 79.2593C40.7378 79.2593 41.1689 79.6904 41.0252 79.9779H40.8815Z" fill="#464444"/>
    <path d="M40.0218 87.306C40.0218 87.306 39.8781 87.1622 39.7344 87.0185C40.3092 86.2999 41.459 86.0125 41.7464 84.8628C42.1775 85.1502 41.7464 85.5814 41.8901 85.8688C41.0278 86.1562 40.7404 86.8748 40.0218 87.306Z" fill="#444040"/>
    <path d="M52.5273 93.9169C52.5273 93.9169 53.6771 92.336 54.6831 92.0486C53.9645 92.7672 53.6771 93.7732 52.5273 93.9169Z" fill="#EEE8E8"/>
    <path d="M39.4453 84.4332C39.4453 84.4332 40.7387 83.4272 41.3136 82.9961C41.3136 83.1398 41.3136 83.4272 41.3136 83.571C40.7387 84.0021 40.1639 84.2895 39.7328 84.7207C39.7328 84.7207 39.589 84.7207 39.4453 84.577V84.4332Z" fill="#3C3A3A"/>
    <path d="M39.7368 95.6416C39.7368 95.6416 39.8805 95.7853 40.0242 95.929C39.5931 96.5039 39.0182 96.6476 38.7308 97.3662C38.5871 97.3662 38.4434 97.3662 38.4434 97.0787C38.8745 96.6476 39.4494 96.2165 39.8805 95.7853L39.7368 95.6416Z" fill="#413D3D"/>
    <path d="M55.8324 85.58C55.8324 85.58 55.6886 85.4363 55.5449 85.2925C55.9761 84.8614 56.5509 84.574 56.9821 84.1428V84.8614C56.9821 84.8614 56.2635 85.4363 55.8324 85.58Z" fill="#6D6969"/>
    <path d="M52.5273 86.1566C52.5273 86.1566 52.9585 85.7255 53.2459 85.4381C53.3896 85.1506 53.6771 85.1506 53.9645 85.1506C53.6771 85.5818 53.2459 86.0129 52.8148 86.3004C52.8148 86.3004 52.6711 86.3004 52.5273 86.0129V86.1566Z" fill="#484444"/>
    <path d="M46.2051 87.3074C46.2051 87.3074 46.6362 86.8763 46.9237 86.5889C47.0674 86.5889 47.3548 86.5889 47.4985 86.5889C47.2111 86.8763 46.9237 87.3074 46.4925 87.4512C46.4925 87.4512 46.3488 87.4512 46.2051 87.3074Z" fill="#3E383A"/>
    <path d="M52.5266 86.1572L52.814 86.4447C49.796 88.7441 47.6402 91.6184 44.7659 94.0616C44.4785 94.0616 44.4785 94.0616 44.4785 93.9179C47.2091 91.4747 49.5086 88.4567 52.5266 86.3009V86.1572Z" fill="#2A2828"/>
    <path d="M44.48 93.7743C44.48 93.7743 44.6237 93.7743 44.7674 93.918C44.1925 94.6366 43.4739 95.3552 42.6117 96.0738C42.6117 96.0738 42.4679 95.9301 42.3242 95.7863C43.0428 95.0678 43.7614 94.3492 44.48 93.6306V93.7743Z" fill="#3E3C3C"/>
    <path d="M41.8864 96.3603C41.8864 96.3603 41.0241 97.0789 40.4492 97.3663C40.5929 96.6477 41.0241 96.2166 41.8864 96.3603Z" fill="#BCB8B9"/>
    <path d="M39.7328 93.1994C39.7328 93.1994 39.589 93.0557 39.4453 92.912C40.595 91.906 41.601 90.9 42.7508 89.7502C43.0382 89.7502 43.0382 89.7502 43.0382 89.894C41.8885 90.9 40.8825 91.906 39.7328 93.0557V93.1994Z" fill="#282727"/>
    <path d="M43.0374 90.1791C43.0374 90.1791 42.8937 90.1791 42.75 90.0354L45.3369 87.8796C45.3369 87.8796 45.6243 87.8796 45.6243 88.0233C44.762 88.7419 43.8997 89.4605 43.0374 90.1791Z" fill="#363535"/>
    <path d="M45.7679 88.0228C45.7679 88.0228 45.6242 88.0228 45.4805 87.8791L46.199 87.3042C46.199 87.3042 46.3428 87.3042 46.4865 87.4479C46.199 87.5916 46.0553 87.7353 45.7679 88.0228Z" fill="#363233"/>
    <path d="M54.2474 89.4624C54.2474 89.4624 54.2473 89.6061 54.3911 89.7498C52.9539 91.3307 51.5167 92.7679 49.9359 94.205C49.9359 94.205 49.7922 94.0613 49.6484 93.9176C51.2293 92.4804 52.6665 90.8996 54.2474 89.4624Z" fill="#2E2D2D"/>
    <path d="M39.4448 84.4306C39.4448 84.4306 39.5885 84.4306 39.7322 84.5743C38.0076 85.5803 36.5705 86.8737 34.9896 88.1672C34.9896 88.1672 34.8459 88.0235 34.7021 87.8798C36.1393 86.5863 37.5765 85.2929 39.4448 84.2869V84.4306Z" fill="#2D2B2B"/>
    <path d="M38.5835 80.6938C38.5835 80.6938 38.7272 80.8376 38.8709 80.9813C37.8649 81.6998 36.8589 82.4184 35.8529 83.137C35.8529 83.137 35.7091 82.9933 35.5654 82.8496C36.5714 82.131 37.5775 81.4124 38.5835 80.6938Z" fill="#332F30"/>
    <path d="M193.65 56.0841C193.65 56.0841 193.363 56.8027 193.363 57.2339C193.219 57.5213 193.363 57.9524 193.076 58.0961C192.788 58.671 192.644 59.1021 192.644 59.677C192.213 60.683 192.213 61.689 191.638 62.5513C191.495 62.9825 191.207 63.2699 191.063 63.5573C190.632 64.2759 190.489 65.1382 189.77 65.7131C189.483 66.1442 189.195 66.5754 189.195 67.0065C189.195 67.4377 188.908 68.0125 188.477 68.2999C188.477 68.2999 188.333 68.8748 188.045 69.0185C187.758 69.0185 187.902 69.306 187.902 69.4497C187.471 70.1682 187.183 71.1743 186.465 71.8928C186.465 71.8928 186.177 72.6114 185.746 72.8988C185.746 72.8988 185.602 73.4737 185.171 73.6174C185.171 73.6174 185.171 73.6174 185.027 73.7611C184.74 74.336 184.165 74.7672 183.734 75.1983C183.447 75.4857 183.015 75.6294 183.015 76.0606C182.441 77.4977 181.291 76.9229 180.141 76.9229C179.566 76.7792 178.848 76.9229 178.273 76.6355C177.411 76.348 176.979 75.9169 176.836 75.0546C176.548 73.7611 175.83 72.6114 175.398 71.318C174.536 68.8748 173.961 66.2879 173.53 63.5573C173.386 63.1262 173.53 62.695 173.386 62.2639C172.955 61.2579 173.386 60.2519 173.099 59.2459C173.099 56.3716 172.955 53.4972 173.099 50.7666C173.674 47.6049 174.392 44.5869 177.842 43.1497C178.848 42.7186 179.71 42.5749 180.716 42.1437C181.291 41.8563 181.866 42.1437 182.441 42H185.602C185.602 42 186.321 42 186.608 42.2874C187.471 42.4311 188.477 42.4312 189.339 42.8623C190.776 43.2934 191.782 44.4432 192.644 45.5929C193.65 47.1738 193.938 49.0421 193.938 50.9104C193.938 51.4852 193.938 52.2038 193.938 52.7787C193.65 53.2098 193.938 53.7847 193.65 54.2158V54.3595C193.363 54.7907 193.65 55.2218 193.507 55.653L193.65 56.0841Z" fill="#020000"/>
    <path d="M194.223 51.3419C194.079 49.4736 193.648 47.749 192.93 46.0244C194.511 47.6053 194.511 49.3299 194.223 51.3419Z" fill="#FCFCFC"/>
    <path d="M173.238 51.1965C173.238 54.0708 173.238 56.9451 173.238 59.6757C172.806 58.0949 173.094 56.514 173.094 54.9331C173.094 53.6397 172.806 52.49 173.238 51.1965Z" fill="#FCFCFC"/>
    <path d="M191.494 62.6945C191.925 61.6885 192.069 60.6825 192.644 59.6765C192.644 60.97 192.644 62.2634 191.638 63.2694C191.351 63.1257 191.494 62.8383 191.351 62.5508L191.494 62.6945Z" fill="#FCFCFC"/>
    <path d="M190.053 66.0011C190.34 65.2825 190.771 64.4202 191.059 63.7016C191.346 63.5579 191.49 63.7016 191.634 63.9891C191.346 64.8514 191.059 65.7137 190.053 66.0011Z" fill="#FCFCFC"/>
    <path d="M180.426 77.2087C181.432 77.065 182.582 77.6399 183.3 76.3464C182.869 77.6399 182.438 77.7836 180.426 77.2087Z" fill="#FCFCFC"/>
    <path d="M186.607 72.179C187.039 71.3167 187.47 70.4544 188.045 69.7358C187.757 70.5981 187.613 71.7479 186.607 72.179Z" fill="#FCFCFC"/>
    <path d="M191.637 63.9879C191.637 63.9879 191.35 63.8441 191.062 63.7004C191.062 63.413 191.206 62.9819 191.494 62.8381C191.781 62.9819 191.781 63.2693 191.781 63.5567C191.637 63.5567 191.637 63.8441 191.637 63.9879Z" fill="#C6C1C1"/>
    <path d="M183.877 75.4853C183.877 75.4853 184.596 74.4792 185.17 74.0481C185.17 74.7667 184.596 75.1978 183.877 75.4853Z" fill="#FCFCFC"/>
    <path d="M186.321 75.4834C186.321 75.4834 186.034 76.3457 185.603 76.4894C185.603 76.0583 185.89 75.7708 186.321 75.4834Z" fill="#FCFCFC"/>
    <path d="M188.62 68.5874C188.62 68.5874 189.051 67.7251 189.339 67.2939C189.339 67.8688 189.339 68.3 188.62 68.5874Z" fill="#FCFCFC"/>
    <path d="M194.656 53.065C194.656 53.065 194.512 52.059 194.368 51.4841C194.656 52.059 194.512 52.4901 194.656 53.065Z" fill="#FCFCFC"/>
    <path d="M182.584 42.4308C182.584 42.4308 181.434 42.4308 180.859 42.5745C181.434 42.1433 182.009 42.4308 182.584 42.4308Z" fill="#FCFCFC"/>
    <path d="M185.885 73.1842C185.885 73.1842 186.316 72.4657 186.603 72.1782C186.891 72.8968 186.46 73.0405 185.885 73.1842Z" fill="#FCFCFC"/>
    <path d="M193.934 54.6474C193.934 54.6474 193.934 53.6414 194.221 53.2102C194.077 53.6414 194.652 54.3599 193.934 54.6474Z" fill="#FCFCFC"/>
    <path d="M193.646 56.0827C193.646 56.0827 193.646 55.2205 193.79 54.7893C193.79 55.2205 193.934 55.6516 193.646 56.0827Z" fill="#FCFCFC"/>
    <path d="M185.314 73.9039C185.314 73.9039 185.602 73.329 185.889 73.1853C185.889 73.6164 185.889 73.9039 185.314 73.9039Z" fill="#FCFCFC"/>
    <path d="M186.75 42.7175C186.75 42.7175 186.032 42.7175 185.744 42.43C186.032 42.43 186.606 41.9989 186.75 42.7175Z" fill="#FCFCFC"/>
    <path d="M173.527 62.6943C173.527 62.6943 173.527 63.5566 173.671 63.9878C173.383 63.5566 173.527 63.1255 173.527 62.6943Z" fill="#FCFCFC"/>
    <path d="M193.217 58.2368C193.217 58.2368 193.217 57.5182 193.504 57.3745C193.648 57.8057 193.648 58.0931 193.217 58.2368Z" fill="#FCFCFC"/>
    <path d="M188.186 69.304L188.617 68.5854C188.617 68.5854 188.617 69.304 188.186 69.304Z" fill="#FCFCFC"/>
    <path d="M183.732 44.0118C183.732 44.0118 185.169 44.0118 185.888 44.0118C188.618 44.7303 190.056 46.7423 190.343 50.1915C190.774 54.7904 189.337 58.8145 187.469 62.8385C185.6 66.7188 183.301 70.4554 179.852 73.186C179.277 73.6172 178.558 74.3357 177.983 74.3357C176.977 74.3357 177.552 73.186 177.265 72.4674C175.397 65.8565 174.534 59.1019 174.822 52.2035C174.822 50.3352 175.54 48.4669 176.403 46.7423C176.834 45.7363 177.696 45.1615 178.702 44.874C180.283 44.2992 182.008 43.7243 183.732 43.868V44.0118Z" fill="#FEFEFE"/>
    <path d="M186.75 52.7761C188.331 55.0755 186.75 58.9558 183.589 60.1056C181.72 60.6804 179.708 59.0995 179.421 56.8001C179.421 56.5127 179.421 56.3689 179.421 56.0815C179.421 55.9378 179.421 55.6504 179.421 55.5066C179.421 54.3569 179.852 53.2072 180.427 52.0575C181.289 50.1892 183.158 49.4706 184.882 50.1892C185.313 50.4766 185.601 50.764 185.888 51.1952C185.888 51.1952 186.032 51.3389 186.176 51.4826C186.463 51.9138 186.75 52.3449 186.894 52.9198L186.75 52.7761Z" fill="#020101"/>
    <path d="M178.703 52.7785C177.697 53.4971 176.978 54.5031 175.541 55.0779C176.26 53.7845 177.553 53.3533 178.415 52.6348C178.703 52.6348 178.703 52.6348 178.703 52.9222V52.7785Z" fill="#373434"/>
    <path d="M178.269 54.6455C177.694 55.3641 176.975 55.6515 176.257 56.2264C176.113 56.3701 175.825 56.3701 175.682 56.2264C175.682 56.2264 175.682 55.7952 175.825 55.7952C176.544 55.3641 177.119 54.7892 178.125 54.7892L178.269 54.6455Z" fill="#393535"/>
    <path d="M177.836 57.0888C177.836 57.0888 176.83 57.9511 176.255 58.2385C176.112 58.2385 175.824 58.5259 175.68 58.2385C175.537 57.9511 175.68 57.8074 175.968 57.6636C176.543 57.3762 176.83 56.5139 177.549 56.6576C177.836 56.6576 177.836 56.6576 177.836 56.9451V57.0888Z" fill="#3A3838"/>
    <path d="M178.7 49.4733C177.981 50.0482 177.119 50.7667 176.401 51.3416C176.401 51.3416 176.401 51.1979 176.257 51.0542C176.832 50.3356 177.838 49.9045 178.556 49.3296C178.844 49.3296 178.844 49.3296 178.844 49.4733H178.7Z" fill="#3B3939"/>
    <path d="M178.556 48.0348C177.838 48.6096 177.119 49.1845 176.401 49.4719C176.401 49.4719 176.401 49.3282 176.257 49.1845C176.975 48.7533 177.694 48.1785 178.413 47.7473C178.7 47.7473 178.7 47.7473 178.7 47.891L178.556 48.0348Z" fill="#474645"/>
    <path d="M178.704 46.8835C178.704 46.8835 177.41 48.0332 176.404 47.8895C177.123 47.4583 177.841 47.0272 178.56 46.7397C178.847 46.7397 178.847 46.7397 178.847 46.8835H178.704Z" fill="#4C4849"/>
    <path d="M177.409 59.3885C177.409 59.3885 176.69 60.1071 176.259 60.3945C176.259 60.3945 175.972 60.5382 175.828 60.3945C175.828 60.2508 175.828 60.1071 175.828 59.9634C176.259 59.6759 176.547 59.2448 176.978 59.1011C177.265 59.1011 177.265 59.1011 177.265 59.3885H177.409Z" fill="#312F2F"/>
    <path d="M177.553 61.111C177.553 61.111 176.69 62.117 175.828 62.117C176.116 61.3984 176.69 61.111 177.265 60.9673C177.553 60.9673 177.553 60.9673 177.553 61.111Z" fill="#322F2F"/>
    <path d="M177.841 64.4186C177.841 64.4186 176.979 64.9934 176.404 65.5683C176.404 64.706 176.979 64.5623 177.267 64.1311C177.554 64.1311 177.841 63.9874 177.841 64.4186Z" fill="#3C393A"/>
    <path d="M177.55 62.9818C177.55 62.9818 176.832 63.7003 176.257 63.9878C176.257 63.1255 176.832 62.9818 177.263 62.6943C177.55 62.6943 177.55 62.6943 177.55 62.9818Z" fill="#3C3A39"/>
    <path d="M177.408 59.3866C177.408 59.3866 177.264 59.2429 177.12 59.0992C177.551 58.5243 178.126 58.2369 178.845 57.5183C178.557 58.5243 177.839 58.8117 177.408 59.2429V59.3866Z" fill="#464444"/>
    <path d="M177.84 51.6278C177.84 51.6278 176.69 52.4901 175.828 53.2087C176.259 52.059 176.978 51.9153 177.553 51.4841C177.84 51.4841 177.84 51.4841 177.84 51.7716V51.6278Z" fill="#1A1819"/>
    <path d="M177.841 51.626C177.841 51.626 177.697 51.4823 177.554 51.3386C178.129 50.7637 178.703 50.4763 179.566 50.0452C178.991 50.9075 178.272 51.1949 177.697 51.626H177.841Z" fill="#3B3838"/>
    <path d="M177.841 57.0894C177.841 57.0894 177.697 56.9457 177.554 56.802C178.129 56.3708 178.847 55.9397 179.422 55.5085C179.422 55.6523 179.422 55.9397 179.422 56.0834C178.703 56.0834 178.416 56.802 177.841 56.9457V57.0894Z" fill="#474545"/>
    <path d="M178.704 46.8862C178.704 46.8862 178.561 46.8862 178.417 46.7425C178.992 46.3114 179.567 45.8802 180.142 45.5928C180.429 45.5928 180.429 45.5928 180.429 45.8802C179.854 46.3113 179.279 46.5988 178.848 47.0299L178.704 46.8862Z" fill="#5C5859"/>
    <path d="M177.553 62.9806C177.553 62.9806 177.409 62.8369 177.266 62.6932C177.697 62.262 178.128 61.9746 178.559 61.5435C178.415 62.1183 177.984 62.5495 177.409 62.9806H177.553Z" fill="#565454"/>
    <path d="M177.553 61.1142C177.553 61.1142 177.409 61.1142 177.266 60.9704C177.697 60.5393 178.128 60.2519 178.703 60.1082C178.415 60.683 178.128 60.9704 177.553 61.2579V61.1142Z" fill="#484645"/>
    <path d="M178.416 67.2935C178.416 67.2935 178.129 67.8684 177.841 67.8684C177.841 67.8684 177.554 67.8684 177.554 67.7247C177.554 67.4373 177.841 67.1498 178.129 67.0061C178.272 67.0061 178.416 67.0061 178.416 67.2935Z" fill="#767374"/>
    <path d="M178.704 52.7776C178.704 52.7776 178.561 52.6339 178.417 52.4901C178.704 52.2027 178.992 51.7716 179.279 51.4841C179.279 51.4841 179.423 51.6279 179.567 51.7716C179.423 52.2027 179.136 52.6339 178.704 52.7776Z" fill="#767575"/>
    <path d="M178.704 49.4722C178.704 49.4722 178.561 49.4722 178.417 49.3285C178.704 48.8974 179.279 48.7537 179.567 48.3225C179.854 48.3225 179.854 48.3225 179.854 48.6099C179.423 48.8974 178.992 49.1848 178.704 49.4722Z" fill="#676465"/>
    <path d="M178.558 48.0333C178.558 48.0333 178.414 48.0333 178.271 47.8895C178.558 47.4584 178.989 47.171 179.42 46.8835C179.708 46.8835 179.708 46.8835 179.708 47.0273C179.277 47.3147 178.989 47.6021 178.558 47.8895V48.0333Z" fill="#605C5C"/>
    <path d="M177.843 69.734C177.556 68.8717 178.13 68.5843 178.562 68.2969C178.274 68.728 178.13 69.1592 177.843 69.734Z" fill="#7E7D7D"/>
    <path d="M177.551 65.8562C177.551 65.8562 177.982 65.1376 178.27 65.425C178.557 65.8562 177.982 65.9999 177.695 66.2873C177.551 66.2873 177.407 65.9999 177.407 65.8562H177.551Z" fill="#7F7C7C"/>
    <path d="M179.708 47.0304C179.708 47.0304 179.565 47.0303 179.421 46.8866C179.708 46.5992 180.139 46.3118 180.714 45.8806C180.427 46.5992 180.139 46.8866 179.708 47.1741V47.0304Z" fill="#7A7778"/>
    <path d="M186.75 52.7775C186.75 52.7775 186.031 51.9152 186.031 51.3403C186.606 51.6278 186.606 52.2026 186.75 52.7775Z" fill="#302B2B"/>
    <path d="M177.84 64.4193C177.84 64.4193 177.553 64.1319 177.266 64.1319C177.697 63.9882 177.984 63.7008 178.415 63.4133C178.415 63.9882 177.984 64.1319 177.697 64.2756L177.84 64.4193Z" fill="#4A4647"/>
    <path d="M185.887 51.1947C185.887 51.1947 185.168 50.6199 184.881 50.1887C185.456 50.1887 185.743 50.6199 185.887 51.1947Z" fill="#302B2B"/>
    <path d="M180.424 45.5922L180.137 45.3047C180.137 45.3047 180.712 44.8736 181.143 44.5862C181.143 45.161 180.712 45.3048 180.424 45.4485V45.5922Z" fill="#8A8788"/>
    <path d="M179.277 53.782C179.277 53.782 178.99 54.3568 178.702 54.5006L178.559 54.3568C178.559 54.0694 178.846 54.0694 179.277 53.9257V53.782Z" fill="#878586"/>
    <path d="M177.55 65.8554C177.55 65.8554 177.837 66.1428 177.837 66.2865C177.694 66.2865 177.55 66.7177 177.406 66.4303C177.119 66.1428 177.406 65.9991 177.694 65.7117L177.55 65.8554Z" fill="#444242"/>
    <path d="M179.996 48.4672C179.996 48.4672 179.853 48.3235 179.709 48.1798C179.853 48.0361 179.996 47.6049 180.284 47.8923C180.571 48.1798 180.284 48.3235 179.996 48.4672Z" fill="#A29EA0"/>
    <path d="M182.727 56.2262C182.727 54.789 183.158 53.783 184.164 52.777C184.595 52.3458 184.739 52.4896 185.026 52.777C186.463 54.3579 186.032 57.2322 184.164 58.3819C183.589 58.8131 183.158 58.5256 182.87 57.9507C182.727 57.3759 182.87 56.801 182.727 56.3699V56.2262Z" fill="#FCFCFC"/>
</svg>