<svg width="169" height="169" viewBox="0 0 169 169" fill="none" xmlns="http://www.w3.org/2000/svg">
<g opacity="0.5">
<path d="M84.5 47.5312C87.4168 47.5312 89.7812 45.1668 89.7812 42.25C89.7812 39.3332 87.4168 36.9688 84.5 36.9688C81.5832 36.9688 79.2188 39.3332 79.2188 42.25C79.2188 45.1668 81.5832 47.5312 84.5 47.5312Z" fill="url(#paint0_linear_5789_15454)"/>
<path d="M120.888 31.7403L117.402 30.8425C116.974 29.5355 116.445 28.2641 115.818 27.04L117.666 23.9769C118.567 22.5009 118.942 20.7639 118.731 19.0479C118.52 17.3318 117.735 15.7374 116.504 14.5234L112.227 10.2456C111.013 9.01453 109.418 8.22984 107.702 8.01893C105.986 7.80801 104.249 8.18326 102.773 9.08375L99.71 10.9322C98.4859 10.3055 97.2145 9.77575 95.9075 9.34781L95.0097 5.86219C94.5914 4.18925 93.6264 2.70393 92.2677 1.64192C90.9091 0.579905 89.2347 0.00203341 87.5103 0H81.4897C79.7653 0.00203341 78.0909 0.579905 76.7323 1.64192C75.3736 2.70393 74.4086 4.18925 73.9903 5.86219L73.0925 9.34781C71.7855 9.77575 70.5141 10.3055 69.29 10.9322L66.2269 9.08375C64.7471 8.19587 63.0131 7.82796 61.3003 8.03847C59.5875 8.24899 57.9942 9.02584 56.7734 10.2456L52.4956 14.5234C51.2645 15.7374 50.4798 17.3318 50.2689 19.0479C50.058 20.7639 50.4333 22.5009 51.3338 23.9769L53.1822 27.04C52.5555 28.2641 52.0257 29.5355 51.5978 30.8425L48.1122 31.7403C46.4393 32.1586 44.9539 33.1237 43.8919 34.4823C42.8299 35.8409 42.252 37.5152 42.25 39.2397V45.2603C42.252 46.9848 42.8299 48.6591 43.8919 50.0177C44.9539 51.3763 46.4393 52.3414 48.1122 52.7597L51.5978 53.6575C52.0257 54.9645 52.5555 56.2359 53.1822 57.46L51.3338 60.5231C50.4333 61.9991 50.058 63.7361 50.2689 65.4521C50.4798 67.1682 51.2645 68.7626 52.4956 69.9766L56.7734 74.2544C57.9874 75.4855 59.5818 76.2702 61.2979 76.4811C63.0139 76.692 64.7509 76.3167 66.2269 75.4163L69.29 73.5678C70.5141 74.1945 71.7855 74.7243 73.0925 75.1522L73.9903 78.6378C74.4086 80.3108 75.3736 81.7961 76.7323 82.8581C78.0909 83.9201 79.7653 84.498 81.4897 84.5H87.5103C89.2347 84.498 90.9091 83.9201 92.2677 82.8581C93.6264 81.7961 94.5914 80.3108 95.0097 78.6378L95.9075 75.1522C97.2145 74.7243 98.4859 74.1945 99.71 73.5678L102.773 75.4163C104.249 76.3167 105.986 76.692 107.702 76.4811C109.418 76.2702 111.013 75.4855 112.227 74.2544L116.504 69.9766C117.735 68.7626 118.52 67.1682 118.731 65.4521C118.942 63.7361 118.567 61.9991 117.666 60.5231L115.818 57.46C116.445 56.2359 116.974 54.9645 117.402 53.6575L120.888 52.7597C122.561 52.3414 124.046 51.3763 125.108 50.0177C126.17 48.6591 126.748 46.9848 126.75 45.2603V39.2397C126.748 37.5152 126.17 35.8409 125.108 34.4823C124.046 33.1237 122.561 32.1586 120.888 31.7403ZM84.5 58.0938C81.3664 58.0938 78.3032 57.1645 75.6977 55.4236C73.0922 53.6827 71.0615 51.2082 69.8623 48.3131C68.6631 45.4181 68.3493 42.2324 68.9607 39.159C69.572 36.0857 71.081 33.2626 73.2968 31.0468C75.5126 28.831 78.3357 27.322 81.409 26.7107C84.4824 26.0993 87.6681 26.4131 90.5631 27.6123C93.4582 28.8115 95.9327 30.8422 97.6736 33.4477C99.4145 36.0532 100.344 39.1164 100.344 42.25C100.331 46.4483 98.6583 50.4711 95.6897 53.4397C92.7211 56.4083 88.6982 58.0815 84.5 58.0938Z" fill="url(#paint1_linear_5789_15454)"/>
<path d="M31.6875 39.2397V45.2603C31.6808 48.3216 32.4469 51.3352 33.9148 54.0216C35.3827 56.7081 37.5048 58.9807 40.0847 60.6287C39.8873 61.5326 39.7637 62.4511 39.715 63.375H15.8438C11.6455 63.3627 7.6227 61.6896 4.65407 58.7209C1.68545 55.7523 0.012261 51.7295 0 47.5312V36.9688C0.012261 32.7705 1.68545 28.7477 4.65407 25.7791C7.6227 22.8104 11.6455 21.1373 15.8438 21.125H39.715C39.7637 22.0489 39.8873 22.9674 40.0847 23.8713C37.5048 25.5193 35.3827 27.7919 33.9148 30.4784C32.4469 33.1648 31.6808 36.1783 31.6875 39.2397Z" fill="url(#paint2_linear_5789_15454)"/>
<path d="M169 36.9688V47.5312C168.988 51.7295 167.315 55.7523 164.346 58.7209C161.377 61.6896 157.355 63.3627 153.156 63.375H129.285C129.236 62.4511 129.113 61.5326 128.915 60.6287C131.495 58.9807 133.617 56.7081 135.085 54.0216C136.553 51.3352 137.319 48.3216 137.312 45.2603V39.2397C137.319 36.1783 136.553 33.1648 135.085 30.4784C133.617 27.7919 131.495 25.5193 128.915 23.8713C129.113 22.9674 129.236 22.0489 129.285 21.125H153.156C157.355 21.1373 161.377 22.8104 164.346 25.7791C167.315 28.7477 168.988 32.7705 169 36.9688Z" fill="url(#paint3_linear_5789_15454)"/>
<path d="M63.375 116.188H79.2188V147.875H63.375V116.188Z" fill="url(#paint4_linear_5789_15454)"/>
<path d="M89.7812 116.188H105.625V147.875H89.7812V116.188Z" fill="url(#paint5_linear_5789_15454)"/>
<path d="M158.438 73.4094V147.875H116.188V110.906C116.183 109.507 115.626 108.166 114.636 107.176C113.647 106.187 112.306 105.629 110.906 105.625H58.0938C56.6943 105.629 55.3534 106.187 54.3638 107.176C53.3743 108.166 52.8165 109.507 52.8125 110.906V147.875H10.5625V73.4094C12.2991 73.7732 14.0695 73.9502 15.8438 73.9375H42.3028C43.0606 75.2313 43.9838 76.4208 45.0491 77.4759L49.2741 81.7009C51.4399 83.8758 54.1184 85.4706 57.0626 86.3382C60.0069 87.2057 63.1221 87.3182 66.1213 86.6653C67.7693 89.2452 70.0419 91.3673 72.7284 92.8352C75.4148 94.3031 78.4284 95.0692 81.4897 95.0625H87.5103C90.5716 95.0692 93.5852 94.3031 96.2716 92.8352C98.9581 91.3673 101.231 89.2452 102.879 86.6653C105.878 87.3309 108.996 87.2247 111.943 86.3564C114.889 85.4882 117.567 83.8863 119.726 81.7009L123.951 77.4759C125.016 76.4208 125.939 75.2313 126.697 73.9375H153.156C154.93 73.9502 156.701 73.7732 158.438 73.4094Z" fill="url(#paint6_linear_5789_15454)"/>
<path d="M158.438 169H10.5625C9.16183 169 7.81852 168.444 6.82809 167.453C5.83767 166.463 5.28125 165.119 5.28125 163.719C5.28125 162.318 5.83767 160.975 6.82809 159.984C7.81852 158.994 9.16183 158.438 10.5625 158.438H158.438C159.838 158.438 161.181 158.994 162.172 159.984C163.162 160.975 163.719 162.318 163.719 163.719C163.719 165.119 163.162 166.463 162.172 167.453C161.181 168.444 159.838 169 158.438 169Z" fill="url(#paint7_linear_5789_15454)"/>
</g>
<defs>
<linearGradient id="paint0_linear_5789_15454" x1="84.5" y1="0" x2="84.5" y2="169" gradientUnits="userSpaceOnUse">
<stop stop-color="#C2A89D"/>
<stop offset="1" stop-color="#FAF0EB"/>
</linearGradient>
<linearGradient id="paint1_linear_5789_15454" x1="84.5" y1="0" x2="84.5" y2="169" gradientUnits="userSpaceOnUse">
<stop stop-color="#C2A89D"/>
<stop offset="1" stop-color="#FAF0EB"/>
</linearGradient>
<linearGradient id="paint2_linear_5789_15454" x1="84.5" y1="0" x2="84.5" y2="169" gradientUnits="userSpaceOnUse">
<stop stop-color="#C2A89D"/>
<stop offset="1" stop-color="#FAF0EB"/>
</linearGradient>
<linearGradient id="paint3_linear_5789_15454" x1="84.5" y1="0" x2="84.5" y2="169" gradientUnits="userSpaceOnUse">
<stop stop-color="#C2A89D"/>
<stop offset="1" stop-color="#FAF0EB"/>
</linearGradient>
<linearGradient id="paint4_linear_5789_15454" x1="84.5" y1="0" x2="84.5" y2="169" gradientUnits="userSpaceOnUse">
<stop stop-color="#C2A89D"/>
<stop offset="1" stop-color="#FAF0EB"/>
</linearGradient>
<linearGradient id="paint5_linear_5789_15454" x1="84.5" y1="0" x2="84.5" y2="169" gradientUnits="userSpaceOnUse">
<stop stop-color="#C2A89D"/>
<stop offset="1" stop-color="#FAF0EB"/>
</linearGradient>
<linearGradient id="paint6_linear_5789_15454" x1="84.5" y1="0" x2="84.5" y2="169" gradientUnits="userSpaceOnUse">
<stop stop-color="#C2A89D"/>
<stop offset="1" stop-color="#FAF0EB"/>
</linearGradient>
<linearGradient id="paint7_linear_5789_15454" x1="84.5" y1="0" x2="84.5" y2="169" gradientUnits="userSpaceOnUse">
<stop stop-color="#C2A89D"/>
<stop offset="1" stop-color="#FAF0EB"/>
</linearGradient>
</defs>
</svg>
