<svg width="140" height="153" viewBox="0 0 140 153" fill="none" xmlns="http://www.w3.org/2000/svg">
<g opacity="0.5">
<path d="M139.864 139.705C139.767 139.041 139.611 138.415 139.398 137.81C137.863 131.87 134.347 121.045 132.754 116.199C132.579 115.359 132.307 114.539 131.957 113.777C131.957 113.757 131.957 113.757 131.957 113.757C130.985 111.647 129.392 109.888 127.43 108.716C127.314 108.638 127.061 108.501 126.731 108.325C126.595 108.266 126.459 108.188 126.322 108.13C122.456 106.293 110.585 101.525 110.585 101.525C104.64 98.9464 98.5012 96.7382 92.2257 94.4912C91.0991 99.1806 80.4716 130.307 78.7816 134.625L77.441 105.707C77.8881 105.023 78.1987 104.241 78.5486 103.499L82.9781 94.6864C79.8501 97.3047 75.1681 98.9655 69.9417 98.9655C64.8321 98.9655 60.2472 97.3828 57.1191 94.8623L61.471 103.499C61.8207 104.241 62.1315 105.023 62.5784 105.707L61.2379 134.624C59.5282 130.306 48.8815 99.1609 47.7741 94.4715C41.4988 96.7185 35.3594 98.9264 29.4144 101.506C29.4144 101.506 17.5437 106.293 13.6775 108.11C13.5415 108.168 13.4055 108.227 13.2695 108.305C12.9392 108.462 12.6866 108.598 12.5701 108.696C10.6078 109.888 9.01471 111.647 8.0433 113.757V113.776C7.69359 114.538 7.42159 115.359 7.24674 116.199C5.65362 121.045 2.13711 131.85 0.602276 137.809C0.388565 138.415 0.233139 139.06 0.135998 139.705C0.0388567 140.271 0 140.877 0 141.463C0 147.833 5.12906 152.991 11.4627 152.991H22.4008C38.0599 152.991 53.7191 153.011 69.3783 152.991C69.592 152.991 69.7863 152.991 70 152.991C70.2137 152.991 70.408 152.991 70.6217 152.991C86.2809 152.991 101.94 152.991 117.599 152.991H128.537C134.871 152.991 140 147.833 140 141.463C140 140.877 139.942 140.272 139.864 139.705Z" fill="url(#paint0_linear_5789_15460)"/>
<path d="M99.9197 40.9346C99.9197 38.9025 100.308 31.5167 100.308 29.8168C100.328 13.3453 87.0386 0 70.6604 0C70.6409 0 70.6217 0 70.6023 0C70.5828 0 70.5632 0 70.5438 0C70.3495 0 70.1747 0 69.9804 0C69.7861 0 69.6114 0 69.4171 0C69.3975 0 69.3783 0 69.3587 0C69.3392 0 69.32 0 69.3004 0C52.9224 0 39.6334 13.3648 39.6334 29.8363C39.6334 31.5362 40.022 38.9025 40.022 40.9541C39.3032 40.9932 32.6587 39.391 33.3775 47.3825C34.8929 64.3425 41.3237 61.0599 41.518 61.0599C44.6848 71.2789 49.6001 77.805 54.4183 81.9668C61.9371 88.4538 69.2227 89.1572 69.3585 89.1572C69.5724 89.1572 69.7667 89.177 69.9802 89.177C70.1745 89.177 70.3884 89.177 70.6021 89.1572C70.7186 89.1572 77.9654 88.4538 85.4453 82.0452C90.2825 77.9029 95.2367 71.3573 98.4231 61.0601C98.6174 61.0601 105.048 64.3427 106.564 47.3827C107.283 39.3714 100.638 40.9736 99.9197 40.9346Z" fill="url(#paint1_linear_5789_15460)"/>
</g>
<defs>
<linearGradient id="paint0_linear_5789_15460" x1="70" y1="0" x2="70" y2="176.375" gradientUnits="userSpaceOnUse">
<stop stop-color="#FF972B"/>
<stop offset="1" stop-color="#FAF0EB"/>
</linearGradient>
<linearGradient id="paint1_linear_5789_15460" x1="70" y1="0" x2="70" y2="176.375" gradientUnits="userSpaceOnUse">
<stop stop-color="#FF972B"/>
<stop offset="1" stop-color="#FAF0EB"/>
</linearGradient>
</defs>
</svg>
