<svg width="174" height="174" viewBox="0 0 174 174" fill="none" xmlns="http://www.w3.org/2000/svg">
<g opacity="0.5">
<path d="M130.513 63.396C141.986 67.4367 155.269 64.8709 164.446 55.6941C172.211 47.9294 175.242 37.2257 173.542 27.166C172.855 23.1062 167.831 21.5497 164.919 24.4608L153.527 35.8493L140.062 33.9373L138.148 20.4697L149.539 9.08118C152.452 6.1694 150.896 1.14311 146.835 0.457305C136.775 -1.24123 126.071 1.79187 118.307 9.5556C109.13 18.7324 106.563 32.0128 110.603 43.4852L94.2099 59.8776L114.121 79.788L130.513 63.396Z" fill="url(#paint0_linear_5789_15448)"/>
<path d="M43.4835 110.603C32.0104 106.564 18.7301 109.13 9.55411 118.306C1.78953 126.071 -1.24227 136.775 0.458339 146.834C1.1445 150.894 6.16919 152.451 9.08103 149.54L20.4728 138.151L33.9381 140.063L35.8524 153.531L24.4606 164.919C21.5481 167.831 23.1043 172.857 27.1652 173.543C37.2251 175.241 47.929 172.208 55.6929 164.444C64.8709 155.267 67.4375 141.985 63.396 130.511L79.7901 114.117L59.8799 94.2069L43.4835 110.603Z" fill="url(#paint1_linear_5789_15448)"/>
<path d="M130.517 110.603L63.3977 43.4856C67.4375 32.0128 64.8703 18.7324 55.6933 9.55594C47.9294 1.79221 37.2254 -1.24089 27.1655 0.457644C23.1046 1.14311 21.5485 6.16974 24.461 9.08118L35.8528 20.4697L33.9384 33.937L20.4732 35.849L9.08137 24.4605C6.16953 21.5494 1.14484 23.1058 0.458679 27.1656C-1.24193 37.2253 1.78987 47.9294 9.55445 55.6938C18.7314 64.8706 32.0138 67.4364 43.4875 63.3957L110.604 130.511C106.562 141.984 109.129 155.266 118.307 164.444C126.071 172.208 136.775 175.241 146.834 173.542C150.895 172.857 152.452 167.83 149.539 164.919L138.147 153.53L140.062 140.063L153.527 138.151L164.919 149.539C167.83 152.45 172.855 150.894 173.541 146.834C175.242 136.774 172.21 126.07 164.446 118.306C155.27 109.13 141.989 106.564 130.517 110.603Z" fill="url(#paint2_linear_5789_15448)"/>
</g>
<defs>
<linearGradient id="paint0_linear_5789_15448" x1="87" y1="0" x2="87" y2="174" gradientUnits="userSpaceOnUse">
<stop stop-color="#FFA684"/>
<stop offset="1" stop-color="#FAF0EB"/>
</linearGradient>
<linearGradient id="paint1_linear_5789_15448" x1="87" y1="0" x2="87" y2="174" gradientUnits="userSpaceOnUse">
<stop stop-color="#FFA684"/>
<stop offset="1" stop-color="#FAF0EB"/>
</linearGradient>
<linearGradient id="paint2_linear_5789_15448" x1="87" y1="0" x2="87" y2="174" gradientUnits="userSpaceOnUse">
<stop stop-color="#FFA684"/>
<stop offset="1" stop-color="#FAF0EB"/>
</linearGradient>
</defs>
</svg>
