<svg width="184" height="191" viewBox="0 0 184 191" fill="none" xmlns="http://www.w3.org/2000/svg">
<g opacity="0.5">
<path d="M161.246 81.3684L144.224 67.0732L140.366 45.1717C139.895 42.4973 137.573 40.5478 134.86 40.5478H112.639L95.6176 26.2515C93.5393 24.506 90.5087 24.506 88.4304 26.2515L71.4085 40.547H49.1883C46.4752 40.547 44.1535 42.4969 43.6824 45.1709L39.824 67.0725L22.8021 81.3676C20.7234 83.1131 20.1975 86.1001 21.5539 88.4521L32.664 107.712L28.8056 129.614C28.3344 132.288 29.8496 134.915 32.3994 135.844L53.2797 143.45L64.3898 162.71C65.7465 165.062 68.5937 166.1 71.1435 165.171L92.0239 157.564L112.904 165.171C115.403 166.094 118.3 165.08 119.658 162.71L130.768 143.45L151.648 135.844C154.198 134.915 155.713 132.288 155.242 129.614L151.384 107.712L162.494 88.4521C163.851 86.1008 163.325 83.1139 161.246 81.3684ZM112.739 109.235L96.0634 126.306C95.0131 127.381 93.5751 127.988 92.0727 127.99C92.0704 127.99 92.0682 127.99 92.0656 127.99C90.5658 127.99 89.1289 127.387 88.0778 126.316L71.3187 109.245C69.1547 107.041 69.1856 103.498 71.388 101.332C73.5912 99.166 77.1306 99.1978 79.2942 101.402L86.4748 108.716V68.0577C86.4748 64.9674 88.978 62.462 92.0656 62.462C95.1532 62.462 97.6564 64.9674 97.6564 68.0577V108.667L104.743 101.412C106.902 99.2022 110.442 99.1619 112.65 101.323C114.858 103.483 114.897 107.025 112.739 109.235Z" fill="url(#paint0_linear_5789_15467)"/>
<path d="M168.64 58.9919C169.586 58.9919 170.544 58.7513 171.422 58.2458L180.566 52.9821C183.242 51.4415 184.164 48.0206 182.624 45.3418C181.085 42.6629 177.667 41.7408 174.991 43.2814L165.847 48.5451C163.171 50.0858 162.249 53.5066 163.789 56.1855C164.823 57.9851 166.704 58.9919 168.64 58.9919Z" fill="url(#paint1_linear_5789_15467)"/>
<path d="M3.49729 52.9821L12.6406 58.2458C13.5191 58.7517 14.4773 58.9919 15.4229 58.9919C17.3581 58.9919 19.2404 57.9847 20.2743 56.1855C21.8136 53.5066 20.8923 50.0858 18.2157 48.5451L9.07248 43.2814C6.39596 41.7404 2.97809 42.6633 1.43874 45.3418C-0.100977 48.0206 0.820394 51.4415 3.49729 52.9821Z" fill="url(#paint2_linear_5789_15467)"/>
<path d="M14.3521 106.289L4.15738 108.999C1.17299 109.792 -0.60378 112.856 0.188629 115.843C0.853567 118.349 3.11488 120.004 5.58864 120.004C6.06349 120.004 6.54654 119.943 7.02698 119.815L17.2217 117.106C20.2061 116.313 21.9829 113.249 21.1905 110.262C20.398 107.275 17.3354 105.497 14.3521 106.289Z" fill="url(#paint3_linear_5789_15467)"/>
<path d="M55.5864 17.5435C56.5716 19.4904 58.5377 20.6122 60.5787 20.6122C61.4278 20.6122 62.2906 20.4178 63.1002 20.0071C65.855 18.6108 66.9571 15.244 65.562 12.4868L60.7964 3.06928C59.4013 0.311721 56.0367 -0.79175 53.2826 0.605308C50.5279 2.00162 49.4257 5.36837 50.8208 8.12555L55.5864 17.5435Z" fill="url(#paint4_linear_5789_15467)"/>
<path d="M120.938 20.0075C121.748 20.4178 122.61 20.6125 123.46 20.6125C125.5 20.6125 127.467 19.4904 128.452 17.5439L133.217 8.12592C134.612 5.36874 133.51 2.00199 130.755 0.605681C128.001 -0.790258 124.637 0.312467 123.242 3.06965L118.476 12.4876C117.082 15.2444 118.184 18.6115 120.938 20.0075Z" fill="url(#paint5_linear_5789_15467)"/>
<path d="M39.9291 161.829C37.1747 160.433 33.8105 161.536 32.4154 164.293L27.6497 173.711C26.2546 176.468 27.3568 179.835 30.1116 181.231C30.9211 181.641 31.7836 181.836 32.633 181.836C34.6737 181.836 36.6402 180.714 37.6249 178.767L42.3906 169.349C43.786 166.592 42.6839 163.225 39.9291 161.829Z" fill="url(#paint6_linear_5789_15467)"/>
<path d="M92.0238 169.252C88.9362 169.252 86.433 171.757 86.433 174.847V185.404C86.433 188.495 88.9362 191 92.0238 191C95.1115 191 97.6147 188.495 97.6147 185.404V174.847C97.6147 171.757 95.1115 169.252 92.0238 169.252Z" fill="url(#paint7_linear_5789_15467)"/>
<path d="M151.648 164.293C150.253 161.535 146.889 160.432 144.134 161.829C141.379 163.225 140.277 166.592 141.672 169.349L146.438 178.767C147.423 180.714 149.389 181.836 151.43 181.836C152.279 181.836 153.141 181.642 153.951 181.231C156.706 179.835 157.808 176.468 156.413 173.711L151.648 164.293Z" fill="url(#paint8_linear_5789_15467)"/>
<path d="M179.843 108.998L169.648 106.289C166.665 105.496 163.602 107.274 162.81 110.261C162.018 113.248 163.794 116.312 166.779 117.105L176.973 119.815C177.454 119.943 177.936 120.004 178.411 120.004C180.885 120.004 183.146 118.348 183.811 115.843C184.604 112.856 182.827 109.792 179.843 108.998Z" fill="url(#paint9_linear_5789_15467)"/>
</g>
<defs>
<linearGradient id="paint0_linear_5789_15467" x1="92" y1="0" x2="92" y2="214.425" gradientUnits="userSpaceOnUse">
<stop offset="0.376594" stop-color="#C2A89D"/>
<stop offset="1" stop-color="#FAF0EB"/>
</linearGradient>
<linearGradient id="paint1_linear_5789_15467" x1="92" y1="0" x2="92" y2="214.425" gradientUnits="userSpaceOnUse">
<stop offset="0.376594" stop-color="#C2A89D"/>
<stop offset="1" stop-color="#FAF0EB"/>
</linearGradient>
<linearGradient id="paint2_linear_5789_15467" x1="92" y1="0" x2="92" y2="214.425" gradientUnits="userSpaceOnUse">
<stop offset="0.376594" stop-color="#C2A89D"/>
<stop offset="1" stop-color="#FAF0EB"/>
</linearGradient>
<linearGradient id="paint3_linear_5789_15467" x1="92" y1="0" x2="92" y2="214.425" gradientUnits="userSpaceOnUse">
<stop offset="0.376594" stop-color="#C2A89D"/>
<stop offset="1" stop-color="#FAF0EB"/>
</linearGradient>
<linearGradient id="paint4_linear_5789_15467" x1="92" y1="0" x2="92" y2="214.425" gradientUnits="userSpaceOnUse">
<stop offset="0.376594" stop-color="#C2A89D"/>
<stop offset="1" stop-color="#FAF0EB"/>
</linearGradient>
<linearGradient id="paint5_linear_5789_15467" x1="92" y1="0" x2="92" y2="214.425" gradientUnits="userSpaceOnUse">
<stop offset="0.376594" stop-color="#C2A89D"/>
<stop offset="1" stop-color="#FAF0EB"/>
</linearGradient>
<linearGradient id="paint6_linear_5789_15467" x1="92" y1="0" x2="92" y2="214.425" gradientUnits="userSpaceOnUse">
<stop offset="0.376594" stop-color="#C2A89D"/>
<stop offset="1" stop-color="#FAF0EB"/>
</linearGradient>
<linearGradient id="paint7_linear_5789_15467" x1="92" y1="0" x2="92" y2="214.425" gradientUnits="userSpaceOnUse">
<stop offset="0.376594" stop-color="#C2A89D"/>
<stop offset="1" stop-color="#FAF0EB"/>
</linearGradient>
<linearGradient id="paint8_linear_5789_15467" x1="92" y1="0" x2="92" y2="214.425" gradientUnits="userSpaceOnUse">
<stop offset="0.376594" stop-color="#C2A89D"/>
<stop offset="1" stop-color="#FAF0EB"/>
</linearGradient>
<linearGradient id="paint9_linear_5789_15467" x1="92" y1="0" x2="92" y2="214.425" gradientUnits="userSpaceOnUse">
<stop offset="0.376594" stop-color="#C2A89D"/>
<stop offset="1" stop-color="#FAF0EB"/>
</linearGradient>
</defs>
</svg>
