<svg xmlns="http://www.w3.org/2000/svg" width="213" height="117" viewBox="0 0 213 117" fill="none">
    <path d="M167.215 15.9179C166.309 10.7142 164.403 5.76007 163.739 0.00211844C168.199 2.55101 171.576 5.04498 175.455 9.40806C176.027 10.2564 176.588 11.1242 177.129 11.9807C176.423 12.889 175.497 13.5971 174.432 14.2306C174.912 15.5961 175.354 16.9391 175.735 18.2985C177.051 17.6338 178.276 16.813 179.299 15.8493C181.025 19.229 182.462 22.7521 183.547 26.4351C182.294 28.1567 179.895 28.7241 177.886 29.4216C178.041 30.8579 178.138 32.2606 178.185 33.6602C180.565 33.17 182.848 32.3121 184.679 31.0252C185.63 35.5241 186.062 40.2029 185.927 44.9682C183.526 46.9746 180.095 47.04 176.934 47.1317C176.638 48.5409 176.284 49.9165 175.891 51.2697C178.703 51.4687 182.419 51.1792 185.546 49.98C184.982 54.8603 183.837 59.5349 182.195 63.9485C178.858 66.1399 174.176 64.7836 170.374 63.8318C169.637 65.0639 168.841 66.2622 168.026 67.4494C171.221 68.6461 176.01 69.5466 180.008 69.083C177.837 73.6056 175.114 77.7835 171.923 81.5614C167.761 82.7587 162.511 80.1423 158.992 77.67C157.93 78.6112 156.838 79.5606 155.71 80.4375C158.994 82.8254 162.936 84.7905 167.636 85.8464C167.725 85.8718 167.825 85.8778 167.925 85.8838C163.985 89.7475 159.535 93.058 154.694 95.7017C150.185 95.4813 145.668 91.8639 143.008 88.3075C141.675 88.9108 140.354 89.4948 138.997 90.0062C139.063 90.0705 139.118 90.1542 139.165 90.2073C141.949 93.7308 145.366 96.7397 149.053 98.4282C144.836 100.215 140.387 101.506 135.779 102.264C134.703 101.928 133.616 101.3 132.501 100.45C130.399 98.7959 128.371 96.2522 126.779 93.3127C122.01 94.0816 117.238 94.2273 112.546 93.6945L113.038 89.5234C116.92 89.9775 120.935 89.8868 124.958 89.3344C123.597 85.7254 122.929 81.947 123.165 78.8458C123.36 76.4457 124.005 74.565 125.241 73.2322C127.978 73.3362 130.645 73.1144 133.268 72.6086C132.343 77.3064 134.191 81.9999 136.559 86.423C137.885 85.9198 139.204 85.3859 140.494 84.8102C138.274 81.1194 135.941 75.7839 138.162 71.2643C141.065 70.2729 143.82 68.9108 146.435 67.2086C147.171 71.182 149.527 74.4589 152.493 77.6215C153.609 76.764 154.687 75.8841 155.749 74.9428C153.064 72.2794 150.143 68.5466 150.502 64.2469C152.638 62.4758 154.617 60.4842 156.415 58.311C158.096 61.4568 160.921 63.6061 164.187 65.6211C165.018 64.4952 165.772 63.3245 166.517 62.1231C163.639 60.5133 160.223 57.9969 159.388 54.329C160.967 51.9517 162.375 49.4233 163.55 46.7604C165.77 48.793 168.628 49.7183 171.768 50.6504C172.169 49.3279 172.542 47.9634 172.846 46.5848C170.239 45.9862 167.023 44.8284 165.239 42.3999C166.24 39.4552 166.999 36.3453 167.484 33.1285C169.433 33.969 171.674 34.3045 174.045 34.1454C174.018 32.7569 173.921 31.3543 173.786 29.9292C172.016 29.9435 169.708 29.7246 167.948 28.7346C168.142 25.842 168.088 22.9747 167.803 20.194C169.116 20.2527 170.463 20.0723 171.789 19.7499C171.416 18.4211 170.994 17.0893 170.513 15.7239C169.57 15.9225 168.306 16.0919 167.215 15.9179Z" fill="#FFE4D9"/>
    <path d="M30.5404 9.41709C34.1835 5.31936 37.3833 2.87624 41.4403 0.482164L42.2756 -9.72748e-05C41.7014 4.88217 39.7935 10.55 38.7909 15.9464C37.7291 16.0362 36.6171 15.9945 35.4819 15.733C35.0205 17.0872 34.5786 18.4302 34.2061 19.759C35.5319 20.0814 36.8987 20.2505 38.1922 20.2031C37.9263 22.9725 37.8835 25.8593 38.0772 28.7519C36.3932 29.8278 34.2844 29.8539 32.2399 29.9464C32.1044 31.3715 32.0077 32.7742 31.961 34.1739C33.9114 34.1874 36.417 33.9064 38.542 33.1457C39.0265 36.3626 39.786 39.4725 40.7868 42.4172C39.1757 44.8755 36.0053 45.7994 33.156 46.6156C33.4599 47.9942 33.8332 49.3586 34.2536 50.67C36.8645 50.0691 40.1753 48.8051 42.4643 46.7584C43.6503 49.4407 45.0388 51.9802 46.6074 54.3381C45.794 57.864 42.4328 60.2968 39.4852 62.1539C40.2306 63.3553 41.0037 64.5148 41.8156 65.6519C44.6198 64.0847 47.8524 61.519 49.591 58.3396C51.4091 60.5016 53.3878 62.4932 55.5128 64.2449C56.1814 68.1843 52.9574 72.0659 50.2771 74.9603C51.3386 75.9015 52.4164 76.7814 53.5331 77.6389C56.1313 75.051 58.8106 71.3026 59.5715 67.2372C62.1748 68.9199 64.9603 70.2903 67.8444 71.293C70.198 75.0107 67.6958 81.0397 65.5314 84.8276C66.8222 85.4033 68.1405 85.9372 69.4671 86.4405C71.6786 82.5995 73.5757 77.5413 72.7582 72.626C75.3618 73.1431 78.0476 73.3537 80.7654 73.2609C82.0011 74.5936 82.666 76.4631 82.8409 78.8745C83.0967 81.9644 82.4291 85.7429 81.068 89.3519C85.0907 89.9043 89.1059 89.995 92.9878 89.5409L93.46 93.7232C88.7882 94.2448 83.9966 94.1103 79.2384 93.3608C77.635 96.281 75.607 98.8246 73.5248 100.467C72.4102 101.318 71.3223 101.946 70.2471 102.282C65.6392 101.523 61.1863 100.235 56.9689 98.448C60.5487 96.7438 64.6174 93.8767 67.0097 90.0349C65.6719 89.5122 64.3311 88.9395 63.018 88.3249C60.3609 91.4389 56.0284 95.2353 51.3089 95.7327C46.4672 93.0889 42.0176 89.7784 38.0775 85.9147C42.0062 85.5372 47.1818 83.4297 50.2922 80.4684C49.1643 79.5915 48.0722 78.642 46.9996 77.6814C43.7873 79.9504 38.5786 82.5432 34.0797 81.5923C30.8883 77.8144 28.1848 73.6252 25.9946 69.1139C29.6613 69.7942 34.2173 68.951 37.9759 67.4802C37.161 66.2931 36.385 65.0835 35.6477 63.8515C32.3139 64.9992 27.4163 65.9102 23.8072 63.9793C22.1655 59.5657 21.0207 54.8911 20.4564 50.0108C23.2718 51.2085 26.8013 51.5796 30.1415 51.3087C29.7181 49.9473 29.3642 48.5717 29.0686 47.1624C26.3333 47.2653 22.5802 46.9198 20.0946 44.9878C19.9838 40.83 20.5112 35.8892 21.3123 31.0365C23.1544 32.3429 25.4257 33.1813 27.8299 33.6581C27.8766 32.2584 27.9733 30.8557 28.1088 29.4307C26.2771 28.9497 23.8822 28.0764 22.4476 26.4441C23.533 22.7612 24.989 19.2269 26.7157 15.8471C27.7188 16.822 28.9439 17.6429 30.2794 18.2963C30.6601 16.9369 31.1021 15.5939 31.5829 14.2285C30.6953 13.723 29.6112 12.9218 28.8658 11.9898C29.4073 11.1332 29.9682 10.2654 30.5404 9.41709Z" fill="#FFE4D9"/>

    <path d="M67.3106 91.2522C67.6154 92.1668 68.3268 92.6749 68.9365 93.2846C69.7495 94.0976 70.2576 95.2155 70.969 96.1301C71.0706 96.6382 71.6803 96.8414 71.8836 97.2479C72.0868 97.4511 72.2901 97.6544 72.5949 97.9592C72.7982 98.1625 72.8998 98.2641 72.6965 98.4674C71.9852 99.1787 71.2738 98.8739 70.7657 98.3657C69.8511 97.4511 69.1398 96.7398 67.8187 96.6382C67.4122 96.6382 67.1073 96.5365 66.9041 96.13C67.1073 96.5365 67.4122 96.6382 67.6154 96.8414C67.6154 96.8414 67.717 96.943 67.8187 97.0446C68.4284 97.2479 68.6316 97.8576 69.1398 98.1625C69.1398 98.569 69.5462 98.7722 69.7495 99.1787C70.0544 99.4836 69.9527 99.7884 69.7495 100.195C69.4446 100.5 69.2414 100.297 68.9365 100.195C67.5138 99.1787 65.7862 99.0771 64.2619 98.3657C63.3473 98.0609 62.6359 97.3495 62.3311 96.6382C61.823 95.3171 60.6035 94.9106 59.4856 94.4025C58.2662 93.996 56.9451 93.4879 56.0305 92.5733C56.0305 92.5733 55.9289 92.6749 55.8272 92.7765C56.3354 93.4879 57.0467 94.1992 57.7581 94.7073C57.6564 95.2154 58.2662 95.2154 58.2662 95.6219C58.4694 95.8252 58.571 96.3333 58.2662 96.6382C57.9613 96.943 57.4532 96.8414 57.25 96.6382C56.6402 96.0284 55.7256 95.7236 55.0143 95.0122C54.0997 94.0976 52.9818 93.7927 51.864 93.2846C51.2542 93.0814 50.7461 92.7765 50.3396 92.37C50.0348 92.0652 49.8315 91.8619 49.5267 91.557C48.6121 90.6424 48.3072 89.5246 47.7991 88.4068C47.5958 88.0003 47.6975 87.6954 47.1894 88.2035C47.0877 88.3051 46.7829 88.4068 46.478 88.3051C46.2748 88.1019 45.8683 88.3051 45.665 88.1019C44.852 87.0857 44.2423 87.8986 43.6326 88.3051C42.8196 88.9149 42.0066 89.3214 40.9904 89.3214C40.6855 89.0165 40.4823 88.8132 40.1774 88.5084C39.5677 87.8986 39.0596 87.3905 38.6531 86.5776C38.2466 85.9678 37.8401 85.7646 37.5352 86.6792C36.7223 88.1019 37.2304 89.6262 37.332 90.9473C37.332 91.557 37.4336 92.2684 37.4336 92.8781C37.4336 93.2846 37.1287 93.5895 36.7223 93.7927C36.4174 93.8944 36.1125 93.5895 36.0109 93.2846C35.2995 92.1668 34.7914 91.0489 34.1817 89.8295C32.4541 86.6792 30.5233 83.5289 28.7957 80.3786C28.3892 79.5656 27.5763 78.3462 28.8974 77.2283C29.6087 76.517 30.0152 75.5007 30.8282 74.6877C31.2347 74.2813 31.3363 74.1796 31.133 73.5699C30.1168 71.3342 29.3038 69.0985 28.5925 66.7612C28.4909 66.2531 28.3892 65.745 28.186 65.1353C27.9827 64.932 28.0844 64.6271 28.0844 64.4239C27.4746 62.5947 27.0681 60.5623 26.7633 58.6314C26.56 58.4282 26.4584 58.1233 26.6617 57.7168C26.56 57.0055 26.4584 56.2941 26.4584 55.4811C26.3568 54.5665 26.9665 54.5665 27.6779 54.6682C30.0152 55.1763 32.3525 55.6844 34.5882 56.2941C34.9947 56.2941 35.1979 56.4974 35.706 56.599C37.4336 57.3104 39.0596 57.7168 40.6855 58.7331C41.7018 59.3428 42.718 59.7493 43.7342 60.359C44.0391 60.0542 44.2423 60.4606 44.4456 60.6639C45.4618 61.4769 45.665 61.4769 46.478 60.2574C46.9861 59.3428 47.7991 58.5298 48.7137 58.0217C48.9169 57.8185 49.1202 57.8185 49.3234 58.0217C52.3721 59.8509 55.5224 61.172 58.2662 63.5093C59.0792 64.119 59.6889 64.932 60.4002 65.6434C60.7051 65.9482 61.01 66.2531 61.5181 66.3547C61.7213 66.558 61.823 66.6596 61.9246 66.7612C61.823 67.0661 62.4327 67.2693 62.0262 67.6758C61.7213 67.9807 61.5181 67.5742 61.1116 67.3709C59.7905 66.6596 58.6727 65.9482 57.25 65.5417C56.9451 65.8466 56.6402 65.745 56.2337 65.5417C55.1159 65.4401 54.2013 65.9482 53.2867 66.2531C52.677 67.2693 53.7948 67.3709 54.2013 67.7774L54.9126 68.4888C54.9126 68.4888 55.8272 68.9969 55.9289 69.7083C56.1321 69.9115 56.2337 70.0131 56.437 70.2164C56.8435 70.2164 56.9451 70.5212 57.1483 70.9277C58.0629 71.8423 58.0629 72.8586 56.9451 74.1796C56.3354 74.7894 55.9289 75.3991 56.8435 76.1105C56.8435 76.1105 57.0467 76.3137 57.0467 76.5169C57.0467 78.1429 58.4694 78.1429 59.4856 78.3462C59.7905 78.2445 60.0954 78.3462 60.2986 78.5494C60.8067 79.0575 61.7213 78.9559 62.0262 79.8705C62.1278 80.3786 62.7376 80.3786 62.9408 80.5818C63.0424 80.6835 63.144 80.7851 63.2457 80.8867C64.5668 81.5981 65.2781 82.9192 66.5992 83.6305C66.8025 83.8338 67.0057 84.2402 66.4976 84.5451C65.6846 84.9516 65.0749 84.5451 64.2619 84.3419C65.0749 84.5451 65.8878 84.7484 66.5992 85.4597C68.2252 86.2727 68.4284 88.3051 69.4446 89.5246C69.9527 90.0327 70.2576 90.7441 70.7657 91.2522C70.8673 91.557 70.969 91.8619 70.4608 91.9635C69.7495 91.4554 68.7333 91.4554 68.1235 90.6424C67.717 90.4392 67.8187 90.7441 67.8187 90.9473L67.3106 91.2522Z" fill="#010000"/>
    <path d="M66.0926 85.7613C65.178 85.4564 64.1617 85.0499 63.1455 84.8467C64.1617 84.4402 64.9747 85.0499 65.8893 84.9483C65.4828 85.3548 66.3974 85.4564 66.0926 85.7613Z" fill="#FCFCFC"/>
    <path d="M61.3155 66.5552C59.9944 65.6406 59.1814 64.4211 57.9619 63.4049C58.8765 63.5065 59.0798 64.5227 59.7911 65.0309C60.096 65.3357 60.5025 65.7422 60.8073 66.0471C61.0106 66.2503 61.3154 66.3519 61.3155 66.5552Z" fill="#FCFCFC"/>
    <path d="M62.6356 81.0903C62.6356 81.0903 62.4323 80.8871 62.3307 80.7854C62.0258 80.6838 61.9242 80.379 62.0258 80.0741C62.1274 79.9725 62.1274 79.566 62.4323 79.6676C62.4323 79.6676 62.7372 79.9725 62.8388 80.0741C62.8388 80.4806 62.7372 80.7854 62.7372 81.1919L62.6356 81.0903Z" fill="#FEFEFE"/>
    <path d="M55.9317 65.8414C55.9317 65.8414 56.5414 65.8414 56.9479 65.8414C57.0495 66.3495 56.7446 66.4511 56.3381 66.4511C56.0333 66.3495 55.6268 66.3495 56.0333 65.943L55.9317 65.8414Z" fill="#FEFEFE"/>
    <path d="M49.0211 57.9147C49.0211 57.9147 48.6146 57.9147 48.4113 57.9147C48.2081 57.7115 48.0048 57.305 48.6146 57.305C48.8178 57.305 49.5292 57.4066 49.2243 57.9147L49.0211 57.9147Z" fill="#FEFEFE"/>
    <path d="M56.5419 71.1268C56.5419 71.1268 56.1354 70.7203 55.8306 70.4155C55.9322 70.3138 55.9322 69.9074 56.2371 70.009C56.6435 70.2122 56.8468 70.6187 56.5419 71.1268Z" fill="#FEFEFE"/>
    <path d="M54.6094 66.9607C54.6094 66.9607 55.1175 66.4526 55.6256 66.7574C55.6256 66.7574 55.7272 67.0623 55.6256 67.1639C55.3207 67.4688 55.0159 66.9607 54.6094 66.9607Z" fill="#FEFEFE"/>
    <path d="M57.5569 94.5008C56.7439 94.0943 56.0326 93.383 55.6261 92.57L57.5569 94.5008Z" fill="#FCFCFC"/>
    <path d="M53.7937 67.9778C52.4727 67.2665 52.371 67.1649 52.8791 66.4535C52.5743 67.3681 53.5905 67.3681 53.7937 67.9778Z" fill="#FCFCFC"/>
    <path d="M61.3177 66.5535C61.3177 66.5535 60.9112 66.147 60.8096 66.0453C61.3177 66.147 62.029 66.0453 61.6225 66.8583C61.6225 66.8583 61.4193 66.6551 61.3177 66.5535Z" fill="#FEFEFE"/>
    <path d="M44.1407 60.5601L43.4293 60.2553C43.4293 60.2553 43.8358 59.6455 44.1407 59.9504C44.3439 60.1537 44.1407 60.3569 44.1407 60.5601Z" fill="#FEFEFE"/>
    <path d="M54.9117 69.099C54.9117 69.099 55.5214 69.099 55.8263 69.4039C56.0295 69.6071 55.623 69.6071 55.5214 69.7087C55.3182 69.5055 54.8101 69.4039 54.8101 68.9974L54.9117 69.099Z" fill="#FEFEFE"/>
    <path d="M40.1785 88.3037C40.1785 88.3037 40.6866 88.8118 40.9914 89.1167C40.4833 89.0151 39.9752 89.1167 40.1785 88.3037Z" fill="#FCFCFC"/>
    <path d="M54.9144 69.0963C54.9144 69.0963 55.3209 69.5028 55.6257 69.8077C55.6257 69.8077 55.6257 69.8077 55.5241 69.9093C55.1176 69.5028 54.8127 69.1979 54.5079 68.6898C54.6095 68.7914 54.8127 68.9947 54.9144 69.0963Z" fill="#FCFCFC"/>
    <path d="M46.4795 88.096C46.4795 88.096 46.886 88.096 47.1908 87.9944C47.0892 88.096 47.3941 88.4009 47.0892 88.5025C46.886 88.5025 46.6827 88.2993 46.6827 88.096L46.4795 88.096Z" fill="#FCFCFC"/>
    <path d="M59.7915 78.6484C59.7915 78.6484 59.2834 78.5468 58.9785 78.4451C59.1818 78.2419 59.5882 77.8354 59.7915 78.6484Z" fill="#FCFCFC"/>
    <path d="M61.9232 80.1735C61.9232 80.1735 62.2281 80.6816 62.2281 80.8848C61.6184 80.8848 61.4151 80.4784 61.3135 79.9702C61.4151 80.0719 61.6184 80.2751 61.8216 80.0719L61.9232 80.1735Z" fill="#FCFCFC"/>
    <path d="M67.3099 91.2509C67.3099 91.2509 66.9034 90.8444 66.7002 90.6412C67.1067 90.6412 67.4115 90.7428 67.6148 90.946C67.5132 91.0477 67.4116 91.1493 67.3099 91.2509Z" fill="#FCFCFC"/>
    <path d="M26.6601 57.5108C26.6601 57.5108 26.9649 58.0189 26.7617 58.4254C26.1519 58.2221 26.3552 58.0189 26.6601 57.5108Z" fill="#FCFCFC"/>
    <path d="M35.5036 56.392C35.5036 56.392 34.8939 56.1888 34.3857 56.0872C34.6906 55.7823 35.1987 56.0872 35.5036 56.392Z" fill="#FCFCFC"/>
    <path d="M28.0869 64.2172C28.0869 64.2172 28.2901 64.6237 28.1885 64.9286C27.5788 64.7253 27.782 64.5221 28.0869 64.2172Z" fill="#FCFCFC"/>
    <path d="M58.1663 73.3622L57.963 73.5654C57.963 73.5654 57.963 73.5654 57.8614 73.6671C57.7598 73.5654 57.7598 73.5654 57.8614 73.4638C57.8614 73.4638 57.963 73.3622 58.1663 73.3622Z" fill="#FEFEFE"/>
    <path d="M59.7932 77.4267L59.9965 77.4268C59.9965 77.4268 60.0981 77.5284 59.8948 77.7316C59.8948 77.7316 59.6916 77.9349 59.6916 77.7316C59.6916 77.7316 59.7932 77.63 59.7932 77.4267Z" fill="#FEFEFE"/>
    <path d="M49.4259 91.452C49.4259 91.452 49.934 91.9601 50.2389 92.265C49.7307 92.1634 49.5275 91.9601 49.4259 91.452Z" fill="#FCFCFC"/>
    <path d="M31.6423 71.4343C31.6423 71.4343 31.1341 70.5197 30.9309 69.91C31.0325 68.9954 30.9309 68.0808 31.5406 67.2678C31.9471 66.6581 32.1504 65.8451 32.4552 65.1338C32.6585 64.9305 32.8617 64.7273 33.065 64.524C34.8942 62.6948 36.6217 60.9672 38.4509 59.138C38.7558 58.8332 38.9591 58.8332 39.3655 59.0364C43.5321 61.1705 47.2921 63.711 50.7472 66.7597C52.3732 68.3857 54.304 69.91 55.7267 71.7392C56.4381 72.4506 56.1332 72.9587 55.7267 73.5684C54.6089 75.0927 53.491 76.8203 52.2716 78.243C50.8489 80.0722 49.4261 81.9014 47.8002 83.5274C46.1742 85.1533 44.2434 86.4744 42.3126 87.7955C41.9061 88.202 41.4996 87.9988 41.0931 87.5923C38.7558 84.442 36.1136 81.5966 34.5893 78.0398C33.5731 75.8041 32.3536 73.7716 31.7439 71.3327C32.252 70.6214 32.1504 69.7068 32.5569 68.8938C32.6585 68.5889 32.8617 68.1824 32.8617 67.7759C33.065 67.1662 33.1666 66.6581 33.4714 66.15C33.5731 66.0484 33.6747 65.9467 33.7763 65.6419C33.5731 65.8451 33.4714 65.9467 33.4714 66.15C33.1666 66.6581 33.065 67.1662 32.8617 67.7759C32.7601 68.0808 32.5569 68.4873 32.4552 68.7922C32.252 69.6051 32.252 70.4181 31.7439 71.1295L31.6423 71.4343Z" fill="#FEFEFE"/>
    <path d="M53.8939 81.9012C54.5036 81.2915 55.1134 80.6817 55.4182 79.7671C55.8247 78.7509 56.6377 78.7509 57.2474 78.9541C58.5685 79.259 60.1945 79.259 60.9058 80.9866C61.2107 81.6979 62.4302 81.9012 63.0399 82.5109C63.3448 82.8158 63.548 83.019 63.9545 83.4255C63.4464 83.5271 62.9383 83.4255 62.4302 83.3239C61.5156 83.2223 61.6172 83.7304 61.9221 84.2385C62.3286 84.8482 62.8367 85.3563 63.548 85.6612C64.1578 85.8645 64.9707 86.0677 65.4788 86.3726C66.2918 86.7791 66.7999 87.2872 67.1048 88.2018C67.308 89.0147 67.9178 89.6245 68.4259 90.5391C67.308 89.6245 65.987 89.5229 65.0724 88.8115C63.8529 87.9985 62.6334 86.9823 61.2107 86.5758C60.9058 86.4742 61.0075 86.1693 60.9058 85.8645C60.601 84.5434 58.6701 83.019 57.1458 82.9174C57.3491 83.1207 57.4507 83.2223 57.6539 83.4255C57.7555 83.5271 57.6539 83.832 57.6539 84.0353C57.6539 84.645 57.4507 85.2547 57.3491 85.9661C57.2474 86.6774 57.1458 87.3888 56.841 88.1001C56.1296 88.405 55.4182 88.5066 55.215 87.4904C55.5199 86.7791 55.6215 85.8645 55.8247 85.0515C55.9263 84.7466 55.9263 84.3401 56.3328 83.7304C55.8247 84.2385 55.9263 84.7466 55.8247 85.0515C55.7231 85.5596 55.6215 86.2709 55.5199 86.7791C55.4182 87.0839 55.4182 87.2872 55.0118 87.2872C54.8085 87.0839 54.7069 86.9823 54.5036 86.7791C54.3004 85.9661 54.8085 85.458 54.9101 84.7466C55.1134 84.5434 55.0118 84.2385 55.1134 83.9336C55.0118 84.2385 54.9101 84.5434 54.8085 84.8482C54.5036 85.1531 54.6053 85.8645 54.1988 86.0677C53.7923 86.0677 53.6907 85.5596 53.3858 85.458C53.1826 85.2547 53.2842 84.9499 53.2842 84.7466C53.3858 84.645 53.3858 84.4417 53.4874 84.1369C53.6907 83.5271 53.8939 82.9174 53.6907 82.3077C53.589 82.0028 53.8939 81.9012 53.9955 81.5963L53.8939 81.9012Z" fill="#FEFEFE"/>
    <path d="M69.4457 96.4333C68.5311 95.9252 67.5149 95.9252 66.7019 95.3155C66.2955 94.909 65.7873 93.9944 65.2792 94.096C64.4663 94.2993 65.4825 95.3155 64.9744 95.8236C63.9581 94.8074 64.4662 93.4863 64.5679 92.1652C64.5679 92.3684 64.5679 92.5717 64.5679 92.7749C64.4663 92.8766 64.4662 93.283 64.263 93.4863C63.6533 93.6895 63.7549 93.1814 63.6533 92.8766C63.5517 92.3684 63.5517 91.962 63.45 91.4538C63.45 91.0474 63.5517 90.5392 63.8565 90.2344C64.4663 90.2344 64.7711 90.5392 65.076 90.8441C64.6695 90.6409 64.3646 89.7263 63.5516 90.336C63.3484 90.9457 63.45 91.4538 63.2468 92.0636C63.1452 92.1652 63.0435 92.2668 62.9419 92.3684C62.3322 91.7587 62.7387 90.9457 62.4338 90.2344C62.5354 89.523 62.0273 88.6084 62.8403 88.2019C63.2468 88.2019 63.7549 88.1003 63.8565 88.8117C63.8565 88.8117 64.1614 89.1165 64.263 89.2182C65.6857 89.6246 66.2954 90.8441 66.9052 92.0636C67.1084 92.2668 67.3117 92.6733 67.6165 92.7749C68.6328 93.7912 69.649 94.8074 70.2587 96.2301C69.9538 96.535 69.8522 96.2301 69.649 96.2301L69.4457 96.4333Z" fill="#FCFCFC"/>
    <path d="M30.3193 61.981C29.4047 61.0664 29.4047 59.6437 30.2177 58.8307C31.4372 57.6112 33.1647 57.5096 33.9777 58.5258C34.8923 59.4404 34.7907 61.168 33.7745 61.981C32.7583 62.9972 31.3355 62.9972 30.3193 61.981Z" fill="#FDFCFC"/>
    <path d="M57.5574 84.1336C57.5574 84.1336 57.7606 83.9303 57.7606 83.7271C59.5898 84.3368 60.4028 85.353 60.5044 86.6741C60.3012 86.8774 60.3012 87.2838 60.1995 87.5887C60.0979 87.8936 59.9963 88.1984 59.9963 88.6049C59.6914 89.3163 59.9963 90.2309 59.0817 90.5358C58.472 90.3325 58.2687 89.7228 58.0655 89.1131C58.0655 88.7066 58.3703 88.4017 58.3703 87.9952C58.472 87.4871 58.6752 86.8774 58.6752 86.2676C58.6752 86.2676 58.7768 86.166 58.7768 85.9628C58.7768 85.9628 58.7768 86.166 58.6752 86.2676C58.6752 86.8774 58.472 87.4871 58.3703 87.9952C58.2687 88.3001 58.2687 88.5033 57.9639 88.6049C57.8622 88.7066 57.5574 88.6049 57.2525 88.5033C56.5411 87.792 57.5574 86.979 57.2525 86.2676C57.3541 85.5563 57.659 84.8449 57.3541 84.1336L57.5574 84.1336Z" fill="#FCFCFC"/>
    <path d="M35.0958 81.5969C35.6039 82.105 36.0104 82.7147 36.3153 83.4261C36.5185 84.0358 36.5185 84.6456 36.3153 85.2553C36.2136 85.9666 36.3153 86.678 36.112 87.2877C36.112 88.304 36.2136 89.4218 36.2136 90.438C35.299 89.9299 34.8926 89.1169 34.6893 88.304C34.3844 87.5926 34.2828 86.8812 34.3844 86.1699C34.3844 85.3569 34.1812 84.5439 34.3844 83.731C34.6893 83.0196 34.2828 82.2066 35.1974 81.6985L35.0958 81.5969Z" fill="#FDFDFD"/>
    <path d="M32.4559 76.5133C33.0656 77.123 33.2688 78.1392 33.6753 78.9522C33.8786 79.7652 33.5737 80.4766 33.5737 81.2895C33.5737 82.1025 33.3705 82.9155 33.3705 83.7285C33.3705 84.135 33.4721 84.6431 32.8624 84.6431C32.3543 84.135 32.0494 83.6268 31.8461 83.0171C31.5413 82.1025 31.5413 81.0863 31.7445 80.0701C31.8461 79.3587 31.7445 78.6473 31.9478 77.8344C32.151 77.2246 31.9478 76.6149 32.5575 76.2084L32.4559 76.5133Z" fill="#FDFCFC"/>
    <path d="M51.9647 80.5806C52.6761 79.0563 53.9972 77.9384 54.9118 76.6173C55.8264 77.1254 55.928 77.6335 55.3183 78.4465C54.5053 79.4627 53.6923 80.6822 52.7777 81.5968C52.6761 81.9017 52.3712 82.0033 52.168 82.2066C51.8631 82.3082 51.7615 82.0033 51.7615 81.8001C51.6599 81.292 51.7615 80.7838 51.9647 80.3774L51.9647 80.5806Z" fill="#FCFCFC"/>
    <path d="M57.3547 88.4028L57.8628 88.5044C57.8628 88.5044 58.0661 88.7076 58.1677 88.8092C58.1677 89.419 58.4726 89.9271 58.9807 90.2319C58.9807 90.2319 59.2856 90.3336 59.4888 90.3336C59.5904 90.4352 59.7937 90.6384 59.9969 90.6384C59.9969 90.6384 60.2002 90.8417 60.3018 90.9433C60.3018 90.9433 60.505 91.1466 60.6066 91.2482C60.8099 91.4514 61.0131 91.6547 61.1148 91.7563C61.318 91.9595 61.5212 92.1628 61.7245 92.366C61.8261 92.4676 61.7245 92.7725 61.5212 92.9758C61.4196 93.0774 61.1148 92.9757 60.8099 92.8741C60.6066 92.6709 60.4034 92.4676 59.9969 92.4676C59.7937 92.2644 59.5904 92.2644 59.2856 92.1628C59.1839 92.0612 58.9807 91.8579 58.7774 91.8579C58.6758 91.7563 58.4726 91.553 58.371 91.4514C58.1677 91.2482 57.9645 91.0449 57.7612 90.8417C57.6596 90.7401 57.4564 90.5368 57.3547 90.4352C57.1515 90.2319 57.3547 89.6222 56.745 89.8255C56.3385 89.8255 56.2369 89.3174 55.932 89.2157C55.7288 89.0125 55.5255 89.0125 55.2207 88.9109C55.119 88.8092 54.9158 88.606 54.8142 88.5044C54.4077 88.0979 54.3061 88.606 54.1028 88.606L53.5947 88.5044C53.5947 88.5044 53.5947 86.8784 53.0866 86.1671C53.0866 85.9638 53.0866 85.7606 53.2898 85.5573C53.798 85.4557 53.6963 85.9638 54.0012 86.2687C54.3061 86.3703 54.4077 86.6752 54.5093 86.7768C54.7126 86.98 54.8142 87.0817 55.0174 87.2849C55.0174 87.4882 55.2207 87.4882 55.3223 87.5898C55.5255 88.606 56.2369 88.0979 56.6434 88.0979C56.745 87.9963 56.9482 88.4028 57.1515 88.4028L57.3547 88.4028Z" fill="#030202"/>
    <path d="M53.1851 86.2691C54.2013 86.8788 54.2013 87.6918 53.4899 88.6064C53.1851 89.7242 53.4899 90.8421 52.9818 91.9599C53.3883 91.7567 53.6932 91.2486 53.8964 92.0615C54.2013 93.1794 55.4208 93.7891 56.0305 94.8053C54.9126 93.4842 53.0834 93.0778 51.7623 91.9599C51.4575 91.0453 52.1688 90.334 52.0672 89.4194C52.0672 88.6064 52.2705 87.7934 52.4737 86.9804C52.677 86.7772 52.5753 86.2691 52.8802 86.1674L53.1851 86.2691Z" fill="#FCFBFB"/>
    <path d="M49.2242 59.1352C49.2242 59.1352 49.9356 59.4401 50.2404 59.7449C50.342 59.8466 50.5453 60.0498 50.6469 60.1514C50.8502 61.7774 50.8502 63.4033 50.6469 65.0293L50.4437 65.2325C50.0372 64.8261 49.6307 64.4196 49.1226 64.1147C48.6145 62.5904 48.9193 61.066 48.9193 59.4401C48.9193 59.2368 49.1226 59.0336 49.3258 59.0336L49.2242 59.1352Z" fill="#FCFCFC"/>
    <path d="M52.4744 65.2349C51.7631 66.556 51.7631 66.556 50.8485 65.6414C50.5436 63.9138 50.6452 62.1862 50.7469 60.4586C50.7469 60.4586 50.8485 60.1538 51.0517 60.1538C51.3566 60.4586 51.6615 60.5603 52.0679 60.7635C52.8809 62.1862 52.7793 63.7106 52.5761 65.3365L52.4744 65.2349Z" fill="#FCFBFB"/>
    <path d="M53.8964 81.8998C53.8964 81.8998 53.8964 82.3063 53.8964 82.5095C53.7948 83.0176 53.5915 83.6274 53.3883 84.2371C53.185 84.4404 53.1851 84.8468 53.0834 85.1517C52.9818 85.8631 52.7786 86.4728 52.6769 87.1842C52.4737 87.9971 52.2705 88.8101 52.2705 89.6231C51.9656 90.5377 52.1688 91.5539 51.1526 92.1637C50.9494 91.9604 50.8477 91.8588 50.6445 91.6555C50.4412 91.2491 50.5429 90.7409 50.7461 90.3344C50.9494 89.928 50.9494 89.5215 51.1526 89.115C51.3559 88.9117 51.4575 88.8101 51.3559 88.5052C51.2542 87.7939 51.3558 87.0825 51.5591 86.4728C51.6607 85.5582 51.9656 84.6436 52.2704 83.729C52.7786 83.2209 53.2867 82.7128 53.6932 82.103L53.8964 81.8998Z" fill="#FCFCFC"/>
    <path d="M64.8745 96.1264C65.8907 96.7361 66.6021 97.854 67.7199 98.3621C65.6875 97.7523 63.1469 97.854 62.3339 95.2118C62.3339 95.2118 62.3339 95.0085 62.3339 94.8053C62.6388 94.2972 62.6388 93.4842 63.1469 93.1793C63.3501 93.1793 63.4518 93.4842 63.5534 93.5858C63.5534 93.7891 63.655 94.0939 63.5534 94.3988C63.5534 94.3988 63.4518 94.5004 63.4518 94.7037C63.4518 94.7037 63.4518 95.1102 63.5534 95.2118C63.5534 95.2118 63.7566 95.0085 63.8583 94.9069C64.8745 94.7037 64.468 95.5166 64.7729 95.8215L64.8745 96.1264Z" fill="#FBFAFA"/>
    <path d="M31.1353 75.6009C31.1353 75.6009 31.4401 74.8895 31.745 74.9911C32.1515 75.1944 32.2531 75.7025 32.3547 76.2106C32.3547 77.0236 32.1515 77.6333 32.0499 78.3447C31.9482 79.056 32.0499 79.7674 31.8466 80.5804C31.6434 81.1901 32.1515 82.1047 31.5418 82.7144C31.1353 82.3079 30.8304 81.7998 30.7288 81.2917C30.7288 81.0885 30.6272 80.7836 30.5255 80.4787C30.3223 78.8528 30.6272 77.3285 31.2369 75.7025L31.1353 75.6009Z" fill="#FCFCFC"/>
    <path d="M34.3879 87.387C34.3879 87.387 33.5749 86.3708 33.3717 85.7611C33.0668 84.2367 33.2701 82.814 33.5749 81.2897C33.7782 80.68 33.2701 79.9686 34.1847 79.6638C34.4895 79.9686 34.6928 80.5784 34.9976 80.8832C35.0993 81.7978 34.6928 82.814 34.5912 83.7286C34.4895 84.44 34.5912 85.3546 34.5912 86.1676C34.4895 86.6757 34.896 87.0822 34.4895 87.4887L34.3879 87.387Z" fill="#F6F5F5"/>
    <path d="M52.4767 60.9659C52.4767 60.9659 53.2897 61.3724 53.5946 61.6773C54.5092 62.5919 54.5092 64.0146 53.7978 64.9292C53.4929 65.0308 53.1881 65.1324 52.8832 65.234C52.4767 63.8113 52.2735 62.3886 52.4767 60.9659Z" fill="#F6F5F5"/>
    <path d="M54.405 62.2874C55.6244 62.8972 56.8439 63.5069 57.8601 64.7264C56.6406 64.5231 55.6244 64.3199 54.6082 64.7264C53.8968 64.015 53.9985 63.1004 54.405 62.2874Z" fill="#FAF9F9"/>
    <path d="M48.4097 58.9338C48.4097 58.9338 48.6129 58.9338 48.8162 58.9338C48.8162 60.5598 49.2227 62.1857 48.6129 63.8117L47.3935 62.9987C47.0886 61.4744 47.1902 60.1533 48.4097 58.9338Z" fill="#FCFCFC"/>
    <path d="M61.2152 91.8557C61.2152 91.8557 60.8087 91.4492 60.6054 91.2459C60.5038 90.9411 60.6054 90.433 60.7071 90.1281C60.9103 89.5184 60.9103 88.9086 61.0119 88.4005C61.1136 88.0957 61.0119 87.5876 61.6217 87.5876C61.8249 87.7908 62.2314 87.7908 62.4346 87.994C62.2314 88.807 62.4346 89.62 62.2314 90.433C61.9265 90.9411 62.333 91.9573 61.2152 91.8557Z" fill="#FAFAFA"/>
    <path d="M50.1371 86.0656C50.7468 85.4559 51.4582 84.7446 52.0679 84.1348C52.4744 84.9478 51.8647 85.7608 51.8647 86.5738C51.5598 87.0819 51.8647 87.7932 51.3566 88.3013C50.8485 88.1997 50.442 87.7932 50.3404 87.2851C50.3404 86.8786 50.0355 86.5738 49.9339 86.2689L50.1371 86.0656Z" fill="#E9E8E8"/>
    <path d="M59.8893 90.9452C59.8893 90.9452 59.4828 90.9452 59.4828 90.742C59.2796 89.929 59.7877 89.2176 59.9909 88.4047C60.0926 88.0998 60.0926 87.6933 60.1942 87.3884C60.3974 87.1852 60.2958 86.8803 60.7023 86.8803C60.9056 87.0836 61.1088 87.2868 61.312 87.4901C61.2104 87.7949 61.2104 88.2014 61.1088 88.5063C61.0072 89.0144 61.1088 89.5225 60.7023 89.929C60.4991 90.1322 60.1942 90.4371 59.991 90.6404L59.8893 90.9452Z" fill="#FAF9F9"/>
    <path d="M30.0166 79.969C28.8987 78.4447 29.5085 77.2252 30.6263 76.1074C31.0328 77.3269 30.3214 78.4447 30.3214 79.6642C30.3214 79.8674 30.2198 79.969 30.0166 79.969Z" fill="#F8F7F7"/>
    <path d="M64.8696 96.1285C64.8696 96.1285 64.4631 95.722 64.4631 95.3155C64.3615 94.8074 64.2599 95.1123 64.0567 95.3155C63.6502 95.3155 63.4469 95.1123 63.3453 94.6041C63.3453 94.6041 63.4469 94.5025 63.5485 94.4009C63.5485 94.4009 63.6502 94.5025 63.7518 94.6042C63.7518 94.1977 64.0567 94.096 64.2599 93.6895C64.3615 92.9782 64.5648 92.3685 64.6664 91.6571C64.9713 93.1814 64.5648 94.6042 65.0729 96.1285L64.8696 96.1285Z" fill="#7B7778"/>
    <path d="M49.3244 89.7223C49.3244 89.7223 49.1212 89.1126 48.9179 88.9094C48.9179 88.0964 48.8163 87.1818 49.7309 86.6737C50.239 86.7753 50.3406 87.2834 50.5439 87.6899C50.6455 88.4012 50.239 89.011 49.8325 89.6207C49.6293 89.824 49.5276 89.9256 49.3244 89.7223Z" fill="#F7F6F6"/>
    <path d="M31.4397 65.7414L32.1511 65.03C32.1511 65.03 32.456 65.3349 32.3543 65.6397C32.1511 66.2495 31.8462 66.7576 31.5414 67.4689C31.0332 67.977 31.3381 68.8916 30.83 69.3998C30.5251 69.0949 30.5251 68.8916 30.5251 68.4852C30.2203 67.3673 30.83 66.5543 31.4397 65.7414Z" fill="#F7F5F6"/>
    <path d="M50.8496 60.1506C50.6464 61.5733 50.8496 62.996 50.8496 64.4187C50.8496 64.8252 50.8496 65.2317 50.748 65.7398C50.6464 65.6382 50.4431 65.435 50.3415 65.3333C50.5448 63.5041 50.5448 61.6749 50.1383 59.8457C50.3415 59.8457 50.6464 59.9474 50.748 60.2522L50.8496 60.1506Z" fill="#403D3D"/>
    <path d="M50.3389 87.6932C50.3389 87.6932 49.9324 87.0834 49.7292 86.6769C49.6275 86.5753 49.5259 86.2704 49.8308 86.1688C49.8308 86.1688 49.9324 86.0672 50.034 85.9656C50.2373 86.1688 50.847 85.9656 50.6438 86.5753C50.4405 87.185 50.847 87.5915 51.3551 87.8964C51.4567 87.998 51.66 88.2013 51.7616 88.3029C52.0665 88.6077 52.2697 88.811 51.5584 88.9126C51.5584 88.9126 51.4567 88.811 51.2535 88.811C51.1519 88.7094 50.9486 88.5061 50.847 88.4045C50.6438 88.2013 50.4405 87.998 50.4405 87.5915L50.3389 87.6932Z" fill="#020101"/>
    <path d="M51.968 80.5781C51.968 80.5781 52.0696 81.4927 51.8664 81.8992C51.6631 82.1025 51.7647 82.4074 51.6631 82.7122C51.6631 83.1187 51.3583 83.4236 51.0534 83.7284C50.342 83.0171 50.8502 82.3057 50.9518 81.5944L51.968 80.5781Z" fill="#C4C0C0"/>
    <path d="M56.7419 89.8259C56.7419 89.8259 56.7419 89.0129 57.3517 89.2162C57.9614 89.4194 57.3517 90.0291 57.5549 90.4356C57.6565 91.147 57.8598 91.96 56.9452 92.4681L56.4371 91.9599C56.4371 91.9599 56.4371 90.5372 56.8435 89.9275L56.7419 89.8259Z" fill="#F6F4F4"/>
    <path d="M51.0527 88.405L51.256 88.6082C51.3576 89.1163 50.9511 89.7261 50.8495 90.2342C50.7478 90.5391 50.6462 91.0472 50.0365 91.0472C49.9349 90.9456 49.7316 90.7423 49.7316 90.5391C49.63 89.8277 49.8333 89.218 50.1381 88.5066C50.3414 87.8969 50.6462 88.2018 50.8495 88.405L51.0527 88.405Z" fill="#F6F4F4"/>
    <path d="M49.7312 83.0183L50.5442 82.2053C50.5442 82.2053 50.7474 83.2215 50.5442 83.8312C50.4425 84.5426 49.8328 84.7458 49.5279 85.0507C48.8166 84.3394 49.5279 83.628 49.6296 82.9166L49.7312 83.0183Z" fill="#E6E5E5"/>
    <path d="M30.0186 79.9676C30.4251 78.7481 30.6283 77.3254 30.6283 76.1059C30.8316 75.9027 30.9332 75.8011 31.1364 75.5978C30.9332 77.2238 30.5267 78.8497 30.6283 80.3741C30.6283 80.3741 30.4251 80.5773 30.2218 80.3741L29.8153 79.9676L30.0186 79.9676Z" fill="#777474"/>
    <path d="M46.3792 86.1669C46.3792 86.1669 47.1922 85.354 47.8019 85.1507C47.9035 86.675 47.8019 86.9799 46.3792 87.1832C45.9727 86.7767 46.3792 86.5734 46.3792 86.1669Z" fill="#A9A6A7"/>
    <path d="M56.7403 89.8266C56.7403 89.8266 56.6387 91.1477 56.4355 91.7574C56.1306 91.4526 55.3176 91.4526 55.4192 90.7412C55.9274 90.2331 55.7241 89.4201 56.1306 89.0136C56.6387 88.912 56.6387 89.5217 56.842 89.725L56.7403 89.8266Z" fill="#534D4E"/>
    <path d="M48.4107 58.9319C47.5978 59.7449 47.6994 60.8627 47.4961 61.879C47.3945 62.1838 47.4961 62.6919 47.3945 62.9968C47.1913 62.7936 46.8864 62.4887 46.5815 62.3871C46.7848 61.5741 46.8864 60.8627 47.1913 60.1514C47.5978 59.7449 47.5978 58.9319 48.4107 58.9319Z" fill="#565252"/>
    <path d="M62.4337 95.1125C62.4337 95.1125 62.4337 95.1125 62.3321 95.2141C62.0272 94.9092 61.7223 94.6044 61.3158 94.1979C61.3158 93.5881 61.5191 93.1817 61.824 92.6735L61.9256 92.1654C61.9256 92.1654 62.1288 91.9622 62.2304 91.8606C62.7386 92.3687 62.6369 93.08 62.6369 93.6898C62.6369 94.0963 62.3321 94.6044 62.4337 95.1125Z" fill="#FCFAFA"/>
    <path d="M47.1905 60.1519C47.1905 60.1519 47.3937 61.7779 46.5808 62.3876C45.7678 61.9811 45.6662 61.473 46.4791 60.8633C46.6824 60.66 46.9873 60.3552 47.1905 60.1519Z" fill="#F7F5F5"/>
    <path d="M52.4761 60.9654C52.6793 62.3881 52.6793 63.8108 52.8826 65.2336C52.8826 65.2336 52.6793 65.2335 52.4761 65.2335C52.1712 63.7092 52.2729 62.1849 51.968 60.6605C52.0696 60.5589 52.2729 60.7622 52.4761 60.9654Z" fill="#3A3738"/>
    <path d="M48.5111 63.7104C48.5111 62.0844 48.7144 60.4584 48.7144 58.8325C48.816 58.7309 49.1209 58.8325 49.1209 59.0357C48.5111 60.2552 48.9176 61.4747 48.9176 62.6941C48.9176 63.1006 48.9176 63.7104 48.9176 64.1168C48.816 64.0152 48.6128 63.812 48.5111 63.7104Z" fill="#424040"/>
    <path d="M56.1335 89.0104C56.1335 89.0104 56.0318 90.1282 56.0318 90.5347C56.0318 91.1444 55.6253 90.9412 55.4221 90.7379C55.2188 90.5347 55.0156 90.3315 55.1172 90.0266C55.1172 89.6201 55.0156 89.112 55.5237 88.8071C55.727 89.0104 55.9302 89.0104 56.2351 89.112L56.1335 89.0104Z" fill="#F9F9F8"/>
    <path d="M58.1674 90.4332C58.1674 90.4332 58.5739 90.8397 58.7772 91.0429C58.7772 91.6527 58.8788 92.364 58.3707 92.8721C57.9642 92.8721 57.761 92.6689 57.6593 92.364C57.5577 91.6527 57.3545 90.8397 58.2691 90.3316L58.1674 90.4332Z" fill="#F8F6F6"/>
    <path d="M33.6724 81.3921C33.2659 82.8148 33.4691 84.2375 33.3675 85.7619C33.0627 85.457 32.8594 85.2538 32.8594 84.8473C33.3675 83.7294 32.961 82.51 33.3675 81.2905C33.5708 81.0873 33.5708 81.0873 33.774 81.2905L33.6724 81.3921Z" fill="#383636"/>
    <path d="M49.0177 85.3567L48.2047 86.1697C47.8998 85.0518 48.2047 84.3405 49.0177 83.7307C49.5258 84.2388 49.3225 84.8486 49.0177 85.3567Z" fill="#FAF9F9"/>
    <path d="M51.0541 88.4018C51.0541 88.4018 50.546 88.0969 50.3428 88.7066C50.3428 89.3164 49.9363 89.9261 49.8347 90.4342C49.6314 90.231 49.1233 90.1294 49.2249 89.6213C49.8347 89.0115 49.9363 88.3002 50.2412 87.5888C50.4444 87.792 50.7493 88.0969 50.9525 88.3002L51.0541 88.4018Z" fill="#575353"/>
    <path d="M60.399 92.0641C60.399 92.0641 60.8055 92.4706 61.3136 92.5722C61.5169 93.1819 61.3136 93.7917 60.8055 94.0966C60.6023 93.8933 60.2974 93.7917 59.9925 93.6901C59.8909 93.1819 60.0942 92.5722 60.5007 92.1657L60.399 92.0641Z" fill="#DCDADA"/>
    <path d="M36.8254 83.9286C37.8417 84.9448 37.0287 85.5545 36.5206 86.2659C36.1141 85.8594 36.419 85.5545 36.3173 85.2497C36.6222 84.9448 36.1141 84.2335 36.8254 83.9286Z" fill="#F1EDED"/>
    <path d="M58.266 92.9755C58.266 92.9755 58.4693 91.756 58.6725 91.1463C58.8758 91.3495 58.9774 91.4511 59.1806 91.6544C59.3839 92.2641 59.2823 92.7722 58.6725 93.1787C58.5709 93.2803 58.3677 93.0771 58.266 92.9755Z" fill="#575352"/>
    <path d="M51.4576 92.0628C52.1689 91.3514 52.0673 90.2336 52.3722 89.319C52.3722 89.319 52.5754 89.5222 52.677 89.6239C52.677 90.4368 52.2705 91.2498 52.0673 92.0628C51.8641 92.0628 51.6608 92.0628 51.4576 92.0628Z" fill="#262424"/>
    <path d="M34.3855 83.7286C34.3855 83.7286 34.6904 81.7978 34.792 80.8832C34.9953 81.0864 35.1985 81.2897 35.0969 81.5946C34.4872 82.2043 34.8937 83.0173 34.5888 83.7286C34.5888 83.7286 34.4872 83.8302 34.2839 83.8302L34.3855 83.7286Z" fill="#575455"/>
    <path d="M54.4066 62.2849C54.4066 62.2849 54.2034 63.9109 54.6099 64.7239C54.4067 64.9271 54.1018 64.8255 53.7969 64.9271C54.1018 63.8093 54.2034 62.6914 53.5937 61.6752C54.0002 61.6752 54.1018 61.9801 54.4066 62.2849Z" fill="#373534"/>
    <path d="M60.808 94.095C60.808 94.095 61.1128 92.9771 61.3161 92.5706C61.5193 92.3674 61.621 92.6723 61.7226 92.7739C61.8242 93.282 61.621 93.8917 61.2145 94.2982C61.1128 94.1966 60.9096 94.1966 60.6047 94.095H60.808Z" fill="#444140"/>
    <path d="M58.7747 93.077C58.7747 93.077 59.0796 91.9592 59.2828 91.5527C59.4861 91.3494 59.6893 91.5527 59.8926 91.7559C60.0958 92.3657 60.0958 92.9754 59.4861 93.3819C59.2828 93.1786 58.978 93.2803 58.7747 93.077Z" fill="#D1CECE"/>
    <path d="M59.4867 93.3826C59.4867 93.3826 59.7915 92.2647 59.8932 91.7566C60.0964 91.9599 60.2997 91.9599 60.6045 92.0615C60.6045 92.6712 60.4013 93.0777 60.0964 93.5858C59.9948 93.4842 59.7916 93.4842 59.4867 93.3826Z" fill="#332F2F"/>
    <path d="M58.1672 90.4345C57.659 90.9426 57.9639 91.8572 57.5574 92.4669L56.9477 92.2637C57.4558 91.7556 57.2526 90.9426 57.5574 90.2312C57.659 90.3328 57.9639 90.4345 58.1672 90.4345Z" fill="#2C2928"/>
    <path d="M30.8276 69.3984C30.8276 69.3984 31.1325 68.0773 31.4374 67.5692C31.6406 67.3659 31.6406 67.3659 31.8438 67.5692C31.1325 68.2805 31.8438 69.3984 31.1325 70.1097C30.9292 69.9065 30.8276 69.8049 30.9292 69.5L30.8276 69.3984Z" fill="#696565"/>
    <path d="M31.4376 65.7438C31.1327 66.6584 30.8279 67.573 30.523 68.4876L30.2181 67.7762C30.2181 67.7762 30.7262 66.6584 31.1327 66.0487C31.2344 65.947 31.4376 65.7438 31.6408 65.7438L31.4376 65.7438Z" fill="#676363"/>
    <path d="M49.9367 86.2673L49.8351 86.7754C49.2253 87.3852 49.4286 88.1981 49.0221 89.0111C48.9205 88.9095 48.7172 88.7062 48.7172 88.503C48.6156 87.7916 48.9205 87.2835 49.2253 86.7754C49.4286 86.5722 49.5302 86.2673 49.8351 86.3689L49.9367 86.2673Z" fill="#5F5B5B"/>
    <path d="M51.6628 86.3693C51.6628 86.3693 51.866 84.7434 51.9676 84.032C52.1709 83.8288 52.2725 83.7271 52.4757 83.5239C52.2725 84.5401 52.1709 85.4547 51.866 86.3693C51.866 86.3693 51.7644 86.4709 51.5611 86.4709L51.6628 86.3693Z" fill="#797474"/>
    <path d="M54.0002 88.707C54.0002 88.707 54.2035 88.0973 54.3051 87.7924C54.61 88.0973 54.8132 88.3005 55.0165 88.5038C55.0165 88.9103 55.4229 89.52 54.61 89.52L54.1019 88.6054L54.0002 88.707Z" fill="#C3C1C0"/>
    <path d="M31.5427 82.5081C31.5427 82.5081 31.6443 80.9838 31.6443 80.374C31.8476 80.1708 31.8476 80.1708 31.9492 80.2724C31.9492 81.2886 31.8476 82.2032 31.8476 83.2195C31.6443 83.0162 31.4411 82.813 31.5427 82.5081Z" fill="#464444"/>
    <path d="M50.5426 83.8324C50.5426 83.8324 50.6442 82.7145 50.5426 82.2064C50.441 81.9016 50.6442 81.6983 50.8475 81.4951C50.9491 82.2064 50.6442 82.9178 50.9491 83.6291C50.8475 83.7308 50.7458 83.8324 50.5426 83.8324Z" fill="#423E3F"/>
    <path d="M33.6737 81.3938C33.6737 81.3938 33.4704 81.3938 33.2672 81.3938C33.2672 80.5808 33.3688 79.8695 33.5721 79.0565C33.7753 79.2597 34.0802 79.3613 34.0802 79.5646C33.5721 80.0727 33.8769 80.7841 33.7753 81.2922L33.6737 81.3938Z" fill="#575555"/>
    <path d="M49.2248 86.5724C49.2248 86.5724 48.8183 87.7919 48.7167 88.3C48.0053 87.5887 48.3102 86.8773 49.2248 86.5724Z" fill="#ECE7E7"/>
    <path d="M49.019 85.3557C49.019 85.3557 49.3239 84.2379 49.019 83.7297L49.7304 83.0184C49.7304 83.0184 49.2223 84.3395 49.6288 85.1525C49.5271 85.2541 49.3239 85.4573 49.1207 85.4573L49.019 85.3557Z" fill="#434040"/>
    <path d="M62.027 90.4346C62.027 90.4346 62.027 88.8087 62.3318 88.0973C62.3318 88.0973 62.5351 88.3006 62.6367 88.4022C62.2302 89.0119 62.4335 89.8249 62.3318 90.5362C62.3318 90.5362 62.2302 90.4346 62.1286 90.333L62.027 90.4346Z" fill="#625E60"/>
    <path d="M31.7457 78.241C31.7457 78.241 32.0505 76.7166 32.2538 76.1069C32.457 76.3101 32.5586 76.4118 32.457 76.7166C32.3554 77.2247 32.2538 77.7329 32.0505 78.3426C32.0505 78.3426 31.9489 78.4442 31.644 78.3426L31.7457 78.241Z" fill="#676363"/>
    <path d="M54.5087 89.6224C54.5087 89.6224 54.712 88.8094 54.9152 88.6062C55.0168 88.7078 55.1185 88.8095 55.3217 88.8095C55.0168 89.1143 55.4233 89.7241 54.9152 90.0289C54.712 89.8257 54.3055 90.0289 54.4071 89.5208L54.5087 89.6224Z" fill="#413C3C"/>
    <path d="M30.9315 66.0468C30.9315 66.0468 30.525 67.2662 30.0169 67.7743C29.4072 66.7581 30.4234 66.5549 30.9315 66.0468Z" fill="#F1EEEE"/>
    <path d="M34.3862 87.3861C34.3862 87.3861 34.0814 86.4715 34.4878 86.065C34.4878 86.065 34.5895 85.9634 34.6911 86.065C34.7927 86.7764 34.7927 87.5893 34.7927 88.1991C34.5895 87.9958 34.3862 87.7926 34.3862 87.3861Z" fill="#413E3E"/>
    <path d="M36.5194 85.2537C36.5194 85.2537 36.5194 85.8634 36.5194 86.2699C36.7226 86.6764 36.5194 87.0829 36.1129 87.2861C36.0113 86.5748 36.0113 85.965 36.1129 85.2537C36.3162 85.0504 36.3161 85.0504 36.5194 85.2537Z" fill="#4C4747"/>
    <path d="M50.2383 91.2493C50.2383 91.2493 50.6448 90.6395 50.9497 90.3347C51.1529 90.1314 51.1529 90.1314 51.3562 90.3347C51.2546 90.8428 51.1529 91.1476 51.0513 91.6558C50.8481 91.4525 50.5432 91.5541 50.4416 91.2493L50.2383 91.2493Z" fill="#403D3C"/>
    <path d="M36.5193 85.2526C36.5193 85.2526 36.316 85.2526 36.1128 85.2526C36.1128 84.6429 36.316 84.0332 36.316 83.4234C36.5193 83.6267 36.6209 83.7283 36.8241 83.9315C36.4176 84.338 36.7225 84.8461 36.5193 85.2526Z" fill="#6E6C6B"/>
    <path d="M46.3762 86.1676L46.3762 87.1838C46.3762 87.1838 45.6649 87.0822 45.5632 86.9806C45.4616 86.4725 46.0713 86.4725 46.2746 86.2692L46.3762 86.1676Z" fill="#DEDADA"/>
    <path d="M32.2512 65.5404C32.2512 65.5404 32.1495 65.2355 32.1495 65.0323C32.3528 64.829 32.6576 64.5242 32.9625 64.4226C33.0641 64.7274 32.8609 64.9307 32.6576 65.1339C32.556 65.2355 32.4544 65.3372 32.3528 65.4388L32.2512 65.5404Z" fill="#DBD3D4"/>
    <path d="M60.6032 86.9834C60.6032 86.9834 60.2983 87.2883 60.1967 87.5932C60.1967 87.5932 59.9934 87.7964 59.8918 87.6948C60.095 87.4915 59.5869 86.7802 60.3999 86.7802C60.3999 86.7802 60.5015 86.8818 60.6032 86.9834Z" fill="#8E8989"/>
    <path d="M60.9072 88.5069C60.9072 88.5069 60.9072 87.6939 61.3137 87.4906C61.4153 87.389 61.5169 87.2874 61.6185 87.5923C61.212 87.7955 61.5169 88.3036 61.212 88.6085C61.212 88.6085 61.1104 88.7101 60.9072 88.7101L60.9072 88.5069Z" fill="#888585"/>
    <path d="M30.2188 80.3754C30.2188 80.3754 30.4221 80.3754 30.6253 80.3754C30.6253 80.5786 30.6253 80.7819 30.6253 80.9851C30.4221 80.7819 30.2188 80.5786 30.2188 80.3754Z" fill="#706768"/>
    <path d="M51.6605 82.7127C51.6605 82.7127 51.3557 82.0013 51.8638 81.8997C51.9654 82.0013 51.9654 82.2045 51.9654 82.4078C51.9654 82.4078 51.8638 82.5094 51.7621 82.611C51.7621 82.611 51.6605 82.7127 51.5589 82.8143L51.6605 82.7127Z" fill="#5E5B5B"/>
    <path d="M51.8662 82.5067C51.8662 82.5067 51.9678 82.405 52.0695 82.3034C52.2727 82.1002 52.4759 81.8969 52.7808 81.5921C52.4759 81.8969 52.4759 82.5067 51.9678 82.405L51.8662 82.5067Z" fill="#A69B9B"/>
    <path d="M34.9967 66.0465C35.8097 64.4205 36.8259 63.8108 38.3502 64.3189C39.7729 64.9286 40.7892 66.7578 40.281 68.0789C39.6713 69.7049 38.5535 70.213 36.7243 69.6032C36.6226 69.7049 36.521 69.4 36.2162 69.2984C36.0129 69.0951 35.8097 68.8919 35.708 68.587C35.708 68.587 35.6064 68.4854 35.5048 68.3838C35.4032 67.8757 35.3015 67.3675 34.9967 66.8594C34.6918 66.5546 34.8951 66.1481 34.9967 65.8432L34.9967 66.0465Z" fill="#030202"/>
    <path d="M37.6374 75.3957C37.4341 76.4119 37.1293 77.3265 37.0277 78.4444C37.0277 78.6476 36.926 78.9525 36.6212 78.8508C36.3163 78.7492 36.3163 78.546 36.3163 78.546C36.2147 77.6314 36.3163 76.7168 36.8244 76.0054C37.0277 75.8022 37.1293 75.2941 37.5358 75.7006L37.6374 75.3957Z" fill="#3D3838"/>
    <path d="M35.607 71.9397C34.9973 73.1591 35.4038 74.5818 34.3876 75.5981C34.4892 74.277 34.1843 72.9559 35.3022 71.838C35.5054 71.6348 35.5054 71.6348 35.607 71.7364L35.607 71.9397Z" fill="#403C3C"/>
    <path d="M33.9801 68.8925C33.6752 70.2136 33.1671 71.3315 32.8622 72.6526C32.4557 71.2299 32.9638 69.9088 33.7768 68.6893C33.7768 68.6893 33.7768 68.6893 33.8784 68.7909L33.9801 68.8925Z" fill="#333031"/>
    <path d="M37.6396 79.6629C37.6396 78.4434 37.538 77.1223 38.7574 76.3094C38.9607 76.1061 38.9607 76.1061 39.1639 76.3094C38.9607 76.9191 38.7574 77.5288 38.5542 78.1386C38.1477 78.5451 38.5542 79.5613 37.6396 79.6629Z" fill="#534F50"/>
    <path d="M36.6234 73.971C36.1153 75.0888 36.3185 76.3083 35.7088 77.3245C35.5055 76.105 35.5055 74.8856 36.4201 73.971C36.6234 73.7677 36.6234 73.7677 36.725 73.8693L36.6234 73.971Z" fill="#353031"/>
    <path d="M39.6687 79.0548C39.6687 79.0548 39.2622 80.6808 39.1606 81.3921C39.059 81.4938 39.1606 81.7986 38.7541 81.7986L38.4493 81.4938C38.6525 80.6808 38.4493 79.6646 39.2622 79.0548C39.4655 78.8516 39.4655 78.8516 39.5671 78.9532L39.6687 79.0548Z" fill="#3D3839"/>
    <path d="M39.8717 81.9002C39.7701 80.3759 41.1928 79.5629 41.4977 78.2418C41.4977 79.0548 41.1928 79.7661 40.888 80.6807C40.5831 80.9856 40.5831 81.3921 40.3799 81.7986C40.1766 82.0018 40.1766 82.4083 39.7701 82.0018L39.8717 81.9002Z" fill="#5C5758"/>
    <path d="M42.4126 81.1911C42.1077 82.1057 41.9045 83.1219 41.5996 84.0365C41.3963 84.2398 41.1931 84.443 40.9899 84.443C40.7866 84.0366 40.8882 83.5284 40.9899 83.0203C41.1931 82.8171 41.2947 82.7155 41.3963 82.4106C41.3963 82.0041 41.8028 81.8009 41.9045 81.496C41.9045 81.496 42.1077 81.2927 42.2093 81.1911C42.4126 80.9879 42.4126 80.9879 42.5142 81.0895L42.4126 81.1911Z" fill="#484545"/>
    <path d="M43.0249 83.6265C43.0249 83.6265 42.8217 84.6427 42.6184 85.0492C42.5168 85.3541 42.6184 85.8622 42.0087 85.6589C41.7038 85.5573 41.8054 85.0492 41.9071 84.7443C42.0087 84.2362 42.0087 83.6265 42.6184 83.22C42.6184 83.22 42.72 83.3216 42.8217 83.4232L43.0249 83.6265Z" fill="#464242"/>
    <path d="M39.8705 81.9008C39.8705 81.9008 40.1754 81.596 40.3786 81.3927C40.4802 81.0878 40.3786 80.5797 40.8867 80.4781C40.6835 81.2911 40.4802 82.1041 40.4802 82.917C40.4802 83.3235 40.3786 83.6284 40.0737 83.5268C39.7689 83.4252 39.7689 83.2219 39.7689 82.8154C39.7689 82.4089 39.8705 82.1041 39.8705 81.6976L39.8705 81.9008Z" fill="#312D2E"/>
    <path d="M34.5892 71.3326C34.2843 72.2472 34.0811 73.2635 33.7762 74.3813C33.3697 73.1618 33.6746 72.2472 34.0811 71.4343C34.1827 71.3326 34.2843 70.8245 34.6908 71.231L34.5892 71.3326Z" fill="#322E2E"/>
    <path d="M44.9566 83.5254C45.2615 84.2368 46.2777 84.44 45.5663 85.1513C45.3631 85.3546 45.1598 85.5578 44.9566 85.3546C44.4485 84.8465 44.9566 84.3384 44.9566 83.5254Z" fill="#989595"/>
    <path d="M34.5868 71.3309C34.5868 71.3309 34.2819 71.4325 33.977 71.5341C34.4852 70.6195 34.6884 69.4 35.3998 68.4854C35.3998 68.4854 35.5014 68.5871 35.603 68.6887C35.1965 69.5017 34.8916 70.4163 34.4852 71.2292L34.5868 71.3309Z" fill="#535151"/>
    <path d="M32.6583 68.9939C32.2518 69.8068 32.6583 70.8231 31.7437 71.5344C31.7437 70.7214 31.9469 69.9085 32.3534 69.0955C32.5567 68.8922 32.5567 68.8922 32.6583 68.9939Z" fill="#292727"/>
    <path d="M35.6042 71.9414C35.6042 71.9414 35.5026 72.043 35.2993 72.043C35.4009 71.1284 36.1123 70.4171 36.2139 69.5025C36.3155 69.4008 36.6204 69.5025 36.722 69.8073C36.1123 70.4171 36.1123 71.4333 35.7058 72.043L35.6042 71.9414Z" fill="#676465"/>
    <path d="M37.6391 79.664C37.6391 79.664 37.8424 78.4445 38.5537 78.1397C38.4521 78.6478 38.3505 79.3591 38.2488 79.8673C38.1472 80.1721 38.1472 80.3754 37.8424 80.2737C37.6391 80.0705 37.7407 79.9689 37.7407 79.7656L37.6391 79.664Z" fill="#393837"/>
    <path d="M36.725 72.8554C36.725 72.8554 37.0298 71.5343 37.4363 70.9246C37.4363 71.5343 37.3347 72.2457 37.0298 72.7538C37.0298 72.7538 36.8266 72.957 36.6233 72.7538L36.725 72.8554Z" fill="#6C6B6B"/>
    <path d="M32.2538 65.5385L32.5586 65.2336C32.5586 65.2336 31.9489 66.6563 31.7457 67.4693C31.7457 67.4693 31.5424 67.4693 31.3392 67.4693C31.4408 66.7579 31.9489 66.2498 32.1521 65.6401L32.2538 65.5385Z" fill="#7F7C7D"/>
    <path d="M44.0395 84.8449C44.0395 84.8449 43.8363 85.8611 43.2265 85.6579C43.0233 85.4546 43.0233 85.0481 43.3282 84.7433C43.7346 83.9303 43.8363 84.6416 44.0395 84.8449Z" fill="#5D5A5B"/>
    <path d="M33.5712 66.249C33.5712 66.249 33.0631 67.3668 32.8598 67.9766C32.8598 67.9766 32.6566 68.1798 32.555 68.0782C32.555 67.4684 32.8599 66.9603 33.2663 66.3506C33.4696 66.1474 33.4696 66.1474 33.5712 66.249Z" fill="#5E5C5C"/>
    <path d="M37.6365 75.398C37.6365 75.398 37.23 75.6013 36.9251 75.7029C37.23 74.9915 37.6365 74.3818 37.9413 73.6704C38.1446 73.4672 38.1446 73.4672 38.3478 73.6704C38.1446 74.2802 37.8397 74.7883 37.7381 75.2964L37.6365 75.398Z" fill="#444141"/>
    <path d="M38.9606 76.3111C38.9606 76.3111 38.7573 76.3111 38.5541 76.3111C38.5541 75.7014 38.8589 75.1933 39.1638 74.482C39.367 75.2949 39.0622 75.803 38.8589 76.4128L38.9606 76.3111Z" fill="#7A7778"/>
    <path d="M33.9809 68.8908C33.9809 68.8908 33.8793 68.7892 33.7776 68.6876L34.3874 67.0616C34.3874 67.0616 34.5906 66.8584 34.6922 66.96C34.489 67.5697 34.3874 68.2811 33.8793 68.7892L33.9809 68.8908Z" fill="#4A4848"/>
    <path d="M43.4317 84.2358C43.4317 84.2358 44.2447 83.4229 44.6512 82.8131C44.8544 83.4229 44.4479 83.6261 44.3463 84.1342C44.1431 84.3375 43.9398 84.5407 43.5333 84.3375L43.4317 84.2358Z" fill="#8C8A8B"/>
    <path d="M41.6035 82.6106C41.6035 82.6106 41.2987 82.9155 41.0954 83.1187C41.2987 82.7122 40.6889 81.8993 41.7052 81.8993C41.8068 82.2041 41.6035 82.4074 41.6035 82.8139L41.6035 82.6106Z" fill="#6B6868"/>
    <path d="M38.3501 73.6669L37.9436 73.6669C37.9436 73.6669 38.1468 72.6506 38.655 72.1425C38.655 72.7523 38.5533 73.2604 38.3501 73.6669Z" fill="#807F80"/>
    <path d="M39.6692 78.0397C39.6692 78.0397 39.974 76.9219 40.3805 76.5154C40.4822 77.0235 40.1773 77.5316 40.0757 78.0397C40.0757 78.0397 39.8724 78.243 39.6692 78.0397Z" fill="#767374"/>
    <path d="M43.4319 84.2354C43.4319 84.2354 43.9401 84.1338 44.2449 84.0322C44.0417 84.2354 43.94 84.5403 43.8384 84.8452C43.6352 85.0484 43.4319 84.2354 43.1271 84.7435C43.0255 84.6419 43.1271 84.337 43.2287 84.2354L43.4319 84.2354Z" fill="#797576"/>
    <path d="M42.4116 81.1916C42.4116 81.1916 42.31 81.2933 42.1067 81.2933C42.2084 80.7852 42.4116 80.3787 42.4116 79.9722C42.8181 80.3787 42.5132 80.8868 42.31 81.2933L42.4116 81.1916Z" fill="#737172"/>
    <path d="M34.793 67.0614C34.793 67.0614 34.6914 67.1631 34.4881 67.1631C34.4881 66.7566 34.5898 66.2485 35.0979 65.9436C35.0979 66.3501 35.0979 66.5533 35.0979 66.9598C35.0979 66.9598 34.9963 67.0614 34.8946 67.1631L34.793 67.0614Z" fill="#80787A"/>
    <path d="M36.7231 72.8545C36.7231 72.8545 36.9264 72.8545 37.1296 72.8545C36.9264 73.261 36.8248 73.5659 36.6215 73.9723C36.6215 73.9723 36.5199 74.074 36.3166 74.074C36.3166 73.6675 36.5199 73.261 36.8248 72.9561L36.7231 72.8545Z" fill="#443F3F"/>
    <path d="M32.6567 67.9782C32.6567 67.9782 32.7584 67.8766 32.9616 67.8766C32.86 68.1815 32.7584 68.4863 32.5551 68.8928L32.3519 69.0961C32.3519 69.0961 32.2502 68.1815 32.4535 67.9782L32.6567 67.9782Z" fill="#4B4848"/>
    <path d="M39.6713 78.0385C39.6713 78.0385 39.8746 78.0385 40.0778 78.0385C39.9762 78.3433 39.8746 78.6482 39.6713 79.0547C39.6713 79.0547 39.5697 79.1563 39.3664 79.1563C39.3664 78.7498 39.4681 78.445 39.7729 78.1401L39.6713 78.0385Z" fill="#5C5758"/>
    <path d="M40.9897 84.4412C40.9897 84.4412 41.3962 84.0347 41.5995 84.0347C41.5995 84.4412 41.5995 84.6444 41.2946 84.746C41.0914 84.9493 41.0914 84.5428 40.9897 84.4412Z" fill="#3A3838"/>
    <path d="M43.0228 83.6278L42.8195 83.4246C42.8195 83.4246 42.9211 82.7132 43.1244 82.51C43.3276 82.3067 43.3276 82.3067 43.4292 82.4083L43.0228 83.6278Z" fill="#524F4F"/>
    <path d="M43.5316 82.509C43.5316 82.509 43.43 82.6106 43.2267 82.6106C43.2267 82.2041 43.3284 81.8992 43.6332 81.5944C43.9381 81.8992 43.7349 82.3057 43.5316 82.509Z" fill="#7D7A7B"/>
    <path d="M33.5707 65.6413C33.5707 65.6413 33.6723 64.93 33.8755 64.93C34.282 64.93 34.0788 65.3365 33.8755 65.5397C33.8755 65.5397 33.6723 65.743 33.469 65.5397L33.5707 65.6413Z" fill="#8C8A8A"/>
    <path d="M33.5726 65.6386L33.9791 65.6386C33.9791 65.6386 33.7758 66.0451 33.6742 66.3499C33.6742 66.3499 33.5726 66.4515 33.3693 66.4515C33.2677 66.1467 33.4709 65.9434 33.6742 65.7402L33.5726 65.6386Z" fill="#737171"/>
    <path d="M41.6008 82.6124C41.6008 82.6124 41.4992 82.1043 41.7024 81.6978L41.9057 81.4946C41.9057 81.9011 41.8041 82.2059 41.6008 82.6124Z" fill="#ECE9E9"/>
    <path d="M55.5225 80.8837C55.5225 80.8837 56.2338 80.1724 56.6403 80.3756C58.1646 80.8837 59.3841 81.9 60.1971 83.3227C58.6727 82.4081 57.4533 80.9854 55.6241 80.9854L55.5225 80.8837Z" fill="#070606"/>
    <path d="M64.7695 87.4909C66.0906 87.186 66.3955 88.1006 66.802 88.5071C65.989 88.5071 65.5825 87.8974 64.7695 87.4909Z" fill="#0F0D0E"/>
    <path d="M55.423 87.6899C55.423 87.6899 55.0165 87.6899 55.1181 87.385C55.7278 86.7753 55.5246 85.9623 55.7278 85.3526C55.9311 85.1493 55.9311 85.1493 56.0327 85.2509C55.8294 86.0639 55.8295 86.8769 55.5246 87.5882L55.423 87.6899Z" fill="#494444"/>
    <path d="M57.3523 88.4045C57.3523 88.4045 57.1491 88.2013 56.8442 88.0997C56.7426 87.3883 57.1491 86.7786 57.2507 86.0672C57.454 85.864 57.454 85.864 57.6572 86.0672C57.7588 86.7786 57.1491 87.5916 57.454 88.3029L57.3523 88.4045Z" fill="#444142"/>
    <path d="M52.7808 87.0825C52.7808 87.0825 53.0856 85.7614 53.1872 85.0501C53.3905 84.8468 53.3905 84.8468 53.5937 85.0501C53.5937 85.0501 53.5937 85.4565 53.5937 85.6598C53.4921 85.7614 53.3905 86.0663 53.3905 86.2695C53.1872 86.4728 53.2889 86.7776 53.1872 87.0825C53.1872 87.0825 53.0856 87.1841 52.8824 87.1841L52.7808 87.0825Z" fill="#575252"/>
    <path d="M54.6089 86.8778C54.6089 86.8778 54.2024 86.4713 54.1008 86.3697C54.5073 85.9632 54.4056 85.4551 54.7105 85.1502C54.9137 84.947 54.9137 84.947 55.0154 85.0486C54.8121 85.6583 54.7105 86.3697 54.6089 86.8778Z" fill="#6C6868"/>
    <path d="M53.1868 84.2355C53.1868 84.2355 53.3901 83.016 53.8982 82.5079C54.2031 83.2192 53.5933 83.829 53.6949 84.5403C53.4917 84.5403 53.3901 84.4387 53.3901 84.2355L53.1868 84.2355Z" fill="#7F7D7D"/>
    <path d="M57.5535 86.1694L57.147 86.1694C57.147 86.1694 57.3503 84.7467 57.4519 84.0354C58.1632 84.7467 57.4519 85.4581 57.4519 86.0678L57.5535 86.1694Z" fill="#666363"/>
    <path d="M56.0327 85.4536C56.0327 85.4536 55.9311 85.5552 55.7278 85.5552C55.7278 84.9455 56.0327 84.2341 56.5408 83.726C56.3376 84.3358 56.236 85.0471 56.1343 85.5552L56.0327 85.4536Z" fill="#6A6767"/>
    <path d="M55.0152 85.0516C55.0152 85.0516 54.9136 85.1532 54.7104 85.1532C54.812 84.6451 55.0152 84.0354 55.0152 83.4256C55.3201 83.9337 55.1169 84.5435 55.0152 85.0516Z" fill="#817E7E"/>
    <path d="M53.1879 84.2372C53.1879 84.2372 53.3912 84.4405 53.4928 84.5421C53.696 84.7453 53.3912 84.8469 53.1879 85.0502C53.1879 85.0502 52.9847 85.0502 52.7815 85.0502C52.4766 84.7453 52.5782 84.4405 52.9847 84.2372L53.1879 84.2372Z" fill="#221E1F"/>
    <path d="M63.4481 90.4358C63.4481 90.4358 63.3465 89.5212 63.753 89.7244C64.6676 90.2326 65.5822 90.7407 66.0903 92.0618C65.0741 91.452 64.6676 90.639 63.8546 90.4358C63.8546 90.4358 63.753 90.5374 63.4481 90.4358Z" fill="#111010"/>
    <path d="M62.4333 95.1089C61.9252 94.6008 62.535 94.1943 62.4333 93.6862C62.6366 93.2797 62.535 92.7716 62.7382 92.3651C62.8398 92.2634 62.9414 92.1618 63.0431 92.0602C63.2463 91.857 63.2463 91.857 63.3479 91.9586C63.5512 92.3651 63.4496 92.8732 63.1447 93.178C62.7382 93.7878 62.9414 94.6008 62.4333 95.1089Z" fill="#4F4C4C"/>
    <path d="M63.2453 93.2818C63.2453 93.2818 63.3469 92.5704 63.4485 92.0623C63.4485 92.0623 63.3469 91.5542 63.6518 91.6558C64.1599 92.1639 63.5501 92.9769 64.0582 93.485C64.0582 93.8915 64.0582 94.298 63.6518 94.5012C63.4485 94.298 63.5501 93.9931 63.3469 93.7899C63.2453 93.6883 63.2453 93.485 63.1436 93.1802L63.2453 93.2818Z" fill="#EBE6E7"/>
    <path d="M62.7385 92.3674C62.7385 92.3674 62.6369 93.282 62.4336 93.6885C62.2304 93.0788 62.6369 92.469 62.2304 91.8593C61.7223 91.3512 62.2304 90.8431 62.332 90.335C62.7385 90.9447 62.4336 91.6561 62.6369 92.2658L62.7385 92.3674Z" fill="#A8A3A3"/>
    <path d="M63.6521 91.6578C63.6521 91.6578 63.4488 91.8611 63.4488 92.0643C63.4488 92.0643 63.3472 92.1659 63.144 92.1659C63.2456 91.6578 63.4488 91.0481 63.4488 90.4384C63.4488 90.4384 63.6521 90.4384 63.8553 90.4384C63.8553 90.8449 63.7537 91.1497 63.7537 91.5562L63.6521 91.6578Z" fill="#5B5858"/>
    <path d="M59.9941 88.4044C59.9941 88.4044 59.5876 90.0303 59.486 90.7417C59.3844 90.6401 59.2828 90.5384 59.0795 90.3352C59.2828 89.7255 59.5876 89.0141 59.6893 88.3027C59.8925 88.0995 59.8925 88.0995 59.9941 88.2011L59.9941 88.4044Z" fill="#4E4B4B"/>
    <path d="M58.266 87.8946C58.266 87.8946 58.5709 86.7768 58.5709 86.1671C58.7741 85.9638 58.7742 85.9638 58.9774 86.1671C58.9774 86.7768 58.8758 87.2849 58.6725 87.8946C58.6725 87.8946 58.5709 87.9963 58.3677 87.9963L58.266 87.8946Z" fill="#4C4B4A"/>
    <path d="M58.8756 86.2718C58.8756 86.2718 58.6724 86.2718 58.4691 86.2718C58.3675 85.7637 58.4691 85.4588 58.774 84.7475C58.9772 85.3572 58.9772 85.7637 58.774 86.1702L58.8756 86.2718Z" fill="#7F7D7D"/>
    <path d="M59.9955 88.4037C59.9955 88.4037 59.8939 88.5053 59.6906 88.5053C59.7922 88.2004 59.7922 87.9972 59.8939 87.6923C59.8939 87.6923 59.9955 87.5907 60.1987 87.5907C60.0971 87.8956 60.0971 88.0988 59.9955 88.4037Z" fill="#757272"/>
    <path d="M58.2689 87.8931C58.2689 87.8931 58.3705 87.7915 58.5737 87.7915C58.4721 88.0964 58.3705 88.4012 58.2689 88.9094L57.964 88.6045C57.964 88.6045 58.1672 88.198 58.2689 87.8931Z" fill="#2F2D2D"/>
    <path d="M34.6903 86.0679C34.6903 86.0679 34.6903 86.0679 34.487 86.0679C34.2838 85.2549 34.2838 84.442 34.3854 83.7306L34.5887 83.5274C34.6903 84.442 34.6903 85.2549 34.6903 86.0679Z" fill="#3E3C3D"/>
    <path d="M31.741 78.2431C31.741 78.2431 31.9442 78.2431 32.1474 78.2431C32.0458 78.9545 32.1474 79.6658 31.9442 80.4788C31.9442 80.4788 31.8426 80.5804 31.6393 80.5804C31.741 79.8691 31.741 79.0561 31.8426 78.3447L31.741 78.2431Z" fill="#545153"/>
    <path d="M62.4364 90.4336C62.4364 90.4336 62.1316 91.3482 62.3348 91.958C62.2332 92.0596 62.1316 92.1612 62.0299 92.2628C61.8267 92.2628 61.5218 92.1612 61.4202 91.8563C62.4364 91.8563 61.8267 90.8401 62.2332 90.4336L62.4364 90.2304L62.4364 90.4336Z" fill="#605C5C"/>
    <path d="M59.895 90.9436C59.895 90.9436 59.6917 90.1306 60.5047 90.1306C60.5047 90.1306 60.5047 90.1306 60.6063 90.2322C60.6063 90.6387 60.6063 91.0452 60.1998 91.0452C60.1998 91.0452 59.9966 90.8419 59.895 90.7403L59.895 90.9436Z" fill="#979393"/>
    <path d="M60.298 91.1475L60.6029 90.2329C60.6029 90.2329 60.8061 90.0296 61.0094 90.2329C60.9078 90.5377 61.0094 91.0458 60.8061 91.2491L60.3997 91.2491L60.298 91.1475Z" fill="#454241"/>
    <path d="M52.7801 87.0801C52.7801 87.0801 52.8818 86.9785 53.085 86.9785C52.8818 87.7914 52.7801 88.7061 52.5769 89.519C52.5769 89.519 52.3736 89.3158 52.272 89.2142C52.272 88.4012 52.3736 87.6898 52.6785 86.9785L52.7801 87.0801Z" fill="#383435"/>
    <path d="M51.6636 86.3707C51.6636 86.3707 51.7652 86.2691 51.9685 86.2691L51.7652 88.3016C51.7652 88.3016 51.562 88.0983 51.3588 87.8951C51.4604 87.387 51.562 86.8788 51.7652 86.2691L51.6636 86.3707Z" fill="#575455"/>
    <path d="M51.2544 90.2322C51.2544 90.2322 51.0512 90.2322 50.848 90.2322C50.9496 89.7241 51.0512 89.216 51.3561 88.7079C51.3561 88.7079 51.5593 88.9111 51.6609 89.0128C51.4577 89.4193 51.4577 89.8257 51.2544 90.2322Z" fill="#605D5D"/>
    <path d="M63.3471 94.6039C63.3471 94.6039 63.7536 95.0104 64.0585 95.3153C64.1601 95.8234 63.7536 95.8234 63.4487 95.925C63.5503 95.4169 62.9406 95.0104 63.2455 94.5023L63.3471 94.6039Z" fill="#171616"/>
    <path d="M63.4514 93.6865C63.4514 93.6865 63.6547 94.093 63.7563 94.3978C63.6547 94.7027 63.553 94.3978 63.3498 94.3978C63.3498 94.1946 63.3498 93.9913 63.3498 93.7881L63.4514 93.6865Z" fill="#B6B2B3"/>
    <path d="M60.9108 90.3312C60.9108 90.3312 60.7075 90.3312 60.5043 90.3312C60.5043 90.3312 60.5043 90.3312 60.4026 90.2296C60.8091 89.8231 60.6059 89.2134 60.9108 88.7053C60.9108 88.7053 61.0124 88.6037 61.2156 88.6037C61.114 89.1118 61.114 89.7215 60.9108 90.3312Z" fill="#626160"/>
    <path d="M38.6547 65.6403C39.5693 66.5549 39.671 67.876 38.858 68.6889C38.2482 69.2987 36.9272 69.4003 36.3174 68.5873C35.5044 67.7743 35.4028 66.25 36.0126 65.437C36.7239 64.7257 37.7401 64.7257 38.5531 65.5387L38.6547 65.6403Z" fill="#FAF9F9"/>
    <path d="M36.7233 67.9792C36.7233 67.9792 35.7071 67.1662 36.4185 66.4548C37.0282 65.8451 37.6379 65.6419 38.2477 66.2516C38.7558 66.7597 39.0606 67.4711 38.3493 68.1824C37.7396 68.7921 37.2314 68.4873 36.6217 67.8775L36.7233 67.9792Z" fill="#030101"/>
    <path d="M166.914 26.6715C167.438 24.7151 167.962 22.7586 168.487 20.8022C168.725 19.9129 169.059 18.6679 170.755 18.7411C171.644 18.9794 172.333 17.8297 173.448 17.9377C176.211 18.2969 178.797 18.6084 181.512 19.1454C182.935 19.5266 184.358 19.9079 185.959 20.3368C190.049 21.4329 193.676 23.5485 197.125 25.6164C198.761 26.6266 200.479 28.0401 201.07 30.1046C201.365 31.1369 202.172 30.9718 202.753 30.9369C205.208 31.0229 207.022 32.0807 208.644 33.8499C209.083 34.3486 209.521 34.8473 209.508 35.6064C209.626 36.591 209.695 37.7535 209.457 38.6428C209.314 39.1763 209.219 39.532 209.076 40.0656C207.351 44.3691 203.873 46.6778 200.087 48.7134C197.203 50.2282 193.88 51.2442 190.488 51.0978C189.777 50.9072 188.97 51.0723 188.081 50.834C187.191 50.5957 186.563 50.8085 185.886 51.1991C185.53 51.1038 185.352 51.0561 184.949 51.1387C181.865 51.2654 178.937 50.0996 176.186 48.9813L175.831 48.886C175.475 48.7907 175.297 48.743 174.941 48.6477C174.586 48.5524 174.408 48.5048 174.052 48.4094C173.696 48.3141 173.436 47.8631 172.95 47.5423C172.061 47.304 171.219 46.8878 170.924 45.8556C170.39 45.7126 169.822 44.9884 170.143 44.5025C170.606 43.483 170.216 42.8064 169.647 42.0822C166.818 37.7021 166.361 33.0046 166.984 27.834C167.079 27.4782 167.174 27.1225 167.14 26.5413L166.914 26.6715Z" fill="#020000"/>
    <path d="M170.872 46.0336C170.872 46.0336 172.104 47.1263 172.994 47.3646C173.254 47.8156 173.467 48.4445 173.905 48.9432C173.844 49.8802 174.556 50.0708 175.267 50.2614C175.267 50.2614 175.445 50.3091 175.623 50.3567C175.931 50.6299 176.061 50.8554 176.417 50.9507C177.84 51.332 179.345 52.1166 180.864 52.1422C181.8 52.2026 182.737 52.263 183.639 51.7422C183.865 51.612 184.268 51.5295 184.529 51.9805C184.659 52.206 184.742 52.6094 184.468 52.9175C184.23 53.8067 183.649 53.8416 183.068 53.8765C178.643 54.0254 174.826 52.6212 171.793 49.7117C171.177 49.1653 171.012 48.3586 170.573 47.8599C169.827 47.088 170.955 46.437 170.742 45.8081L170.872 46.0336Z" fill="#050404"/>
    <path d="M184.598 53.1444C184.598 53.1444 184.515 52.741 184.433 52.3376C184.576 51.804 184.541 51.2228 184.992 50.9624C185.17 51.0101 185.3 51.2356 185.608 51.5088C185.417 52.2202 185.097 52.7061 184.598 53.1444Z" fill="#120E0F"/>
    <path d="M209.413 35.9655C209.413 35.9655 208.987 34.7077 208.549 34.209C209.213 34.5775 209.876 34.946 209.413 35.9655Z" fill="#FCFCFC"/>
    <path d="M169.333 23.3183L169.714 21.8954C173.48 26.336 178.448 28.4294 183.914 30.0847C187.245 31.168 190.529 32.4292 194.052 32.8011C194.585 32.9441 195.119 33.0871 195.7 33.0522C196.685 32.9348 197.479 33.5288 198.368 33.767C198.724 33.8624 198.45 34.1704 198.225 34.3006C195.229 39.7887 191.926 45.0036 187.342 49.3036C185.751 50.9741 183.842 50.2721 182.016 49.9733C178.541 49.4236 175.4 47.6288 172.212 46.0119C171.678 45.8689 170.398 44.9541 171.135 43.6265C171.135 43.6265 170.875 43.1755 170.744 42.95C169.833 41.3714 168.969 39.6149 168.687 37.8235C168.782 37.4678 168.782 37.4678 168.96 37.5155C169.576 38.0618 169.563 38.8209 169.906 39.6753C170.119 40.3042 170.284 41.111 170.675 41.7875C170.284 41.111 170.119 40.3042 169.776 39.4498C168.487 36.4356 167.649 33.1609 167.973 29.8165C168.163 29.1051 168.129 28.5238 168.141 27.7648C168.059 27.3614 168.106 27.1835 168.51 27.101C168.948 27.5997 168.935 28.3588 168.792 28.8923C168.494 30.7186 168.824 32.3321 169.284 34.1711C169.71 35.4289 169.732 36.7692 170.205 37.8491C170.157 38.027 170.465 38.3001 170.548 38.7035C170.643 38.3478 170.335 38.0746 170.205 37.8491C169.779 36.5913 169.71 35.4289 169.284 34.1711C168.906 32.7354 168.351 31.2522 168.91 29.8769C169.135 29.7467 169.265 29.9723 169.443 30.0199C169.739 31.0522 169.808 32.2146 170.104 33.2469C170.316 33.8758 170.351 34.457 170.612 34.9081C170.612 34.9081 170.612 34.9081 170.564 35.0859C170.564 35.0859 170.564 35.0859 170.612 34.9081C170.399 34.2792 170.364 33.6979 170.104 33.2469C169.808 32.2146 169.739 31.0522 169.491 29.8421C169.231 29.391 169.196 28.8098 169.517 28.3239C169.564 28.146 169.79 28.0158 170.145 28.1111C170.536 28.7877 170.476 29.7246 170.688 30.3535C170.488 28.9655 169.755 27.4346 170.587 25.7513C170.444 26.2849 170.349 26.6406 170.123 26.7708C169.72 26.8534 169.59 26.6278 169.637 26.45C169.733 26.0943 169.555 26.0466 169.104 26.307C169.104 26.307 168.926 26.2593 168.748 26.2117C168.583 25.4049 169.129 24.7888 168.917 24.1599L169.333 23.3183Z" fill="#FEFEFE"/>
    <path d="M194.578 46.4786C194.578 46.4786 194.981 46.396 195.159 46.4437C194.969 47.1551 194.648 47.641 194.683 48.2223C195.004 47.7364 195.064 46.7994 195.788 46.2309C198.933 45.1672 201.509 43.3793 202.9 40.3208C203.828 38.2818 203.415 36.2649 201.506 35.5629C201.211 34.5306 202.195 34.4132 202.824 34.2004C203.631 34.0353 204.355 33.4669 205.292 33.5273C207.379 34.277 208.325 36.4369 207.883 38.7967C207.394 41.3344 206.289 43.3257 204.342 44.9009C200.946 47.613 197.468 49.9217 193.079 50.6519C193.079 50.6519 192.948 50.4264 192.996 50.2485C193.33 49.0035 193.663 47.7585 194.886 46.7518L194.578 46.4786Z" fill="#FEFEFE"/>
    <path d="M193.785 27.3947C187.407 24.1609 180.614 21.7687 173.379 21.7363C173.023 21.641 172.667 21.5457 172.394 21.8537C171.895 22.292 171.765 22.0665 171.505 21.6155C171.244 21.1644 171.34 20.8087 171.743 20.7262C173.226 20.1705 174.567 20.1484 176.263 20.2216C180.188 20.5109 183.828 21.8674 187.563 22.8682C191.298 23.869 194.392 25.8417 197.39 28.17C198.361 28.8117 199.108 29.5835 199.581 30.6634C199.711 30.889 199.972 31.34 199.343 31.5527C199.165 31.5051 198.809 31.4098 198.631 31.3621C197.364 29.6882 195.503 28.8082 193.737 27.5726L193.785 27.3947Z" fill="#FDFCFC"/>
    <path d="M192.399 46.0851C194.905 43.1347 196.83 40.2192 198.625 37.0782C199.089 36.0587 199.8 36.2493 200.511 36.44C201.401 36.6783 201.887 36.9991 201.826 37.936C201.801 39.4542 201.111 40.6039 200.422 41.7536C198.462 44.0879 195.804 45.4724 192.399 46.0851Z" fill="#FDFDFD"/>
    <path d="M185.122 51.1879C185.122 51.1879 185.192 52.3503 184.563 52.5631L184.255 52.2899C182.082 53.9953 179.961 52.6643 177.779 52.2703C177.067 52.0797 176.534 51.9367 175.822 51.7461C175.514 51.4729 175.657 50.9393 175.575 50.536C175.67 50.1802 175.232 49.6815 175.73 49.2433C178.836 50.4568 181.812 51.4449 185.074 51.3657L185.122 51.1879Z" fill="#FBFBFB"/>
    <path d="M169.338 23.3207C169.338 23.3207 169.312 24.8389 169.477 25.6457C169.916 26.1444 169.82 26.5001 169.677 27.0336C169.534 27.5672 169.795 28.0183 169.877 28.4216C169.782 28.7773 170.042 29.2284 169.639 29.3109C169.21 30.9116 169.814 32.2171 169.966 33.7829C169.871 34.1386 169.871 34.1386 169.693 34.091C168.794 31.7533 169.058 29.3458 168.918 27.0209C168.35 26.2967 169.252 25.7759 168.861 25.0993C169.004 24.5658 169.195 23.8543 169.338 23.3207Z" fill="#343030"/>
    <path d="M168.43 29.5605C168.687 32.87 169.347 36.097 170.589 39.2891C170.493 39.6448 170.493 39.6448 170.315 39.5972C170.103 38.9683 169.712 38.2917 169.547 37.485C169.156 36.8084 168.944 36.1796 168.956 35.4205C168.496 33.5815 168.083 31.5646 168.608 29.6081L168.43 29.5605Z" fill="#4F4A49"/>
    <path d="M189.462 50.6346C189.462 50.6346 188.477 50.7521 187.813 50.3836C189.036 49.3769 190.034 48.5003 191.257 47.4936C191.409 49.0595 190.637 49.8058 189.51 50.4568L189.462 50.6346Z" fill="#EEEBEB"/>
    <path d="M193.786 27.3909C196.051 28.1883 197.769 29.6018 199.392 31.371C199.296 31.7267 198.715 31.7616 198.585 31.5361C197.591 29.5541 195.457 28.9822 193.916 27.6164C193.916 27.6164 193.916 27.6164 193.786 27.3909Z" fill="#282423"/>
    <path d="M193.052 50.0704C193.052 50.0704 193.004 50.2483 192.957 50.4261C192.15 50.5912 191.473 50.9818 190.584 50.7435C190.584 50.7435 190.632 50.5657 190.679 50.3878C191.725 49.3334 192.284 47.9582 193.151 46.8562C193.246 46.5004 193.602 46.5958 193.78 46.6434C193.945 47.4502 193.398 48.0663 193.16 48.9556C193.065 49.3113 192.566 49.7496 192.827 50.2006L193.052 50.0704Z" fill="#FBF9FA"/>
    <path d="M201.027 35.2435C201.027 35.2435 199.817 35.4911 200.103 34.424C200.97 33.3219 202.276 32.7186 203.616 32.6965C203.616 32.6965 204.328 32.8871 204.055 33.1952C203.959 33.5509 203.378 33.5858 202.927 33.8462C202.25 34.2368 201.444 34.4019 201.075 35.0656L201.027 35.2435Z" fill="#F7F5F5"/>
    <path d="M189.469 50.6355C190.288 49.7113 190.93 48.7395 191.216 47.6723C191.406 46.9609 191.81 46.8783 192.391 46.8435C192.912 47.7455 191.784 48.3965 191.771 49.1556C191.724 49.3335 191.628 49.6892 191.403 49.8194C191.308 50.1751 190.679 50.3879 190.583 50.7436C190.31 51.0516 190.002 50.7784 189.646 50.6831L189.469 50.6355Z" fill="#645E5F"/>
    <path d="M175.348 50.6651C175.348 50.6651 174.281 50.3792 173.569 50.1886C173.083 49.8677 173.131 49.6899 173.76 49.4771C173.855 49.1214 173.725 48.8959 173.998 48.5879C174.224 48.4576 174.579 48.553 174.532 48.7308C174.84 49.004 175.278 49.5027 175.361 49.906C175.313 50.0839 175.621 50.3571 175.17 50.6175L175.348 50.6651Z" fill="#474343"/>
    <path d="M190.966 49.321C190.966 49.321 191.239 49.0129 191.417 49.0606C191.833 48.219 192.25 47.3773 193.021 46.631C193.021 46.631 193.199 46.6787 193.377 46.7263C192.996 48.1492 192.259 49.4767 190.858 50.4358C190.776 50.0324 191.049 49.7244 191.144 49.3687L190.966 49.321Z" fill="#585454"/>
    <path d="M193.047 50.0687C193.047 50.0687 192.514 49.9257 192.835 49.4398C193.251 48.5982 193.715 47.5787 193.953 46.6894C194.048 46.3337 194.404 46.429 194.582 46.4766C194.07 47.674 193.559 48.8714 193.047 50.0687Z" fill="#5C5859"/>
    <path d="M195.618 46.186L194.357 49.47C194.357 49.47 194.179 49.4223 194.001 49.3746C194.109 48.2598 194.525 47.4182 195.345 46.494C195.345 46.494 195.57 46.3638 195.796 46.2336L195.618 46.186Z" fill="#6E6A6A"/>
    <path d="M203.569 32.8748C202.312 33.3003 201.184 33.9513 200.056 34.6023C200.152 34.2466 200.247 33.8909 200.568 33.405C201.244 33.0144 201.873 32.8016 202.68 32.6365C203.036 32.7318 203.214 32.7795 203.569 32.8748Z" fill="#504C4C"/>
    <path d="M202.749 33.7975C202.749 33.7975 203.603 33.4546 203.829 33.3244C204.553 32.7559 203.699 33.0988 203.568 32.8733C204.245 32.4827 204.683 32.9814 205.169 33.3022C204.493 33.6928 203.686 33.8579 203.009 34.2486C203.009 34.2486 202.831 34.2009 202.701 33.9754L202.749 33.7975Z" fill="#43403F"/>
    <path d="M193.019 46.6306C192.781 47.5199 192.187 48.3139 191.415 49.0602C191.297 48.0756 192.377 47.6025 192.39 46.8434C192.568 46.891 192.794 46.7608 193.019 46.6306Z" fill="#EBE7E8"/>
    <path d="M202.748 33.7994C202.748 33.7994 202.926 33.8471 203.056 34.0726C202.557 34.5109 201.62 34.4505 201.607 35.2095L201.252 35.1142C201.182 33.9518 202.297 34.0598 202.973 33.6692L202.748 33.7994Z" fill="#3D3A3A"/>
    <path d="M202.675 32.6351C202.675 32.6351 201.5 33.464 200.563 33.4036C200.801 32.5143 201.205 32.4317 202.675 32.6351Z" fill="#E8E2E3"/>
    <path d="M173.874 48.3647C173.874 48.3647 173.731 48.8982 173.636 49.2539C172.569 48.968 172.356 48.3391 172.772 47.4975C173.08 47.7707 173.388 48.0438 173.874 48.3647Z" fill="#6D6564"/>
    <path d="M168.599 35.3213L169.19 37.3858C169.19 37.3858 169.142 37.5637 168.917 37.6939C168.752 36.8871 168.183 36.1629 168.599 35.3213Z" fill="#E4DDDD"/>
    <path d="M175.35 50.6663C175.35 50.6663 175.493 50.1327 175.137 50.0374C175.232 49.6816 175.15 49.2783 175.423 48.9702C175.423 48.9702 175.601 49.0179 175.779 49.0655C175.683 49.4212 175.944 49.8723 175.978 50.4535C175.978 50.4535 175.883 50.8092 175.658 50.9394L175.35 50.6663Z" fill="#767271"/>
    <path d="M168.862 25.0968C168.862 25.0968 168.529 26.3418 168.919 27.0183C168.872 27.1962 168.824 27.3741 168.598 27.5043C168.256 26.6499 168.85 25.8559 168.862 25.0968Z" fill="#D9D1D0"/>
    <path d="M175.425 48.9712C175.425 48.9712 175.413 49.7303 175.139 50.0383C174.879 49.5873 174.797 49.1839 174.536 48.7329C174.892 48.8282 175.07 48.8759 175.425 48.9712Z" fill="#F9F5F4"/>
    <path d="M190.96 49.3221C190.96 49.3221 190.77 50.0336 190.674 50.3893C190.674 50.3893 190.674 50.3893 190.627 50.5671C190.627 50.5671 190.627 50.5671 190.449 50.5195C190.058 49.8429 190.687 49.6302 191.186 49.1919L190.96 49.3221Z" fill="#FCF9FB"/>
    <path d="M175.532 50.7163C175.532 50.7163 175.627 50.3606 175.853 50.2304C176.113 50.6814 176.018 51.0371 175.922 51.3929C175.389 51.2499 175.437 51.072 175.579 50.5385L175.532 50.7163Z" fill="#332E2F"/>
    <path d="M190.203 41.491C188.824 43.7904 186.782 45.7213 185.273 47.7952C185.226 47.9731 185.13 48.3288 184.905 48.459C184.727 48.4113 184.549 48.3637 184.644 48.0079C185.893 45.483 188.243 43.8253 189.847 41.3957L189.943 41.04C190.121 41.0877 190.298 41.1353 190.025 41.4434L190.203 41.491Z" fill="#494646"/>
    <path d="M186.609 47.7711C188.035 45.2939 189.77 43.0898 191.682 40.9334C191.86 40.981 192.038 41.0287 191.942 41.3844C191.609 42.6294 190.529 43.1026 189.887 44.0744C189.744 44.608 189.068 44.9986 188.925 45.5322C188.686 46.4215 187.962 46.9899 187.416 47.606C187.416 47.606 187.238 47.5584 187.06 47.5107C187.06 47.5107 187.06 47.5107 186.835 47.6409C186.835 47.6409 186.657 47.5933 186.479 47.5456L186.609 47.7711Z" fill="#373334"/>
    <path d="M191.942 41.3882C191.942 41.3882 191.989 41.2103 191.859 40.9848C192.821 39.527 194.009 37.9391 194.972 36.4813C194.972 36.4813 195.15 36.529 195.328 36.5766C195.042 37.6438 193.914 38.2948 193.854 39.2317C193.889 39.813 193.307 39.8479 193.342 40.4291C193.069 40.7372 192.926 41.2707 192.475 41.5311C192.475 41.5311 192.297 41.4835 192.119 41.4358L191.942 41.3882Z" fill="#504C4D"/>
    <path d="M187.598 47.6578C187.302 46.6255 188.69 46.4255 188.751 45.4886C189.297 44.8725 189.536 43.9832 190.568 43.6879C190.746 43.7355 190.924 43.7832 190.828 44.1389C189.913 45.4188 188.821 46.651 187.858 48.1088C187.68 48.0611 187.502 48.0135 187.776 47.7054L187.598 47.6578Z" fill="#585253"/>
    <path d="M169.635 29.3102C169.635 29.3102 169.825 28.5988 169.517 28.3256C169.435 27.9223 169.756 27.4363 169.495 26.9853C169.638 26.4517 169.781 25.9182 169.699 25.5148C169.794 25.1591 169.937 24.6255 170.388 24.3651C170.779 25.0416 170.007 25.788 170.445 26.2867C170.705 26.7377 170.207 27.1759 170.064 27.7095C169.921 28.2431 170.003 28.6465 170.038 29.2277C169.943 29.5834 169.943 29.5834 169.765 29.5357C169.765 29.5357 169.635 29.3102 169.505 29.0847L169.635 29.3102Z" fill="#4E4948"/>
    <path d="M170.397 26.4654L170.778 25.0425C170.883 26.7862 171.166 28.5776 171.318 30.1434C171.318 30.1434 171.14 30.0958 170.962 30.0481C170.797 29.2414 170.632 28.4346 170.419 27.8057C169.981 27.307 170.48 26.8688 170.219 26.4177L170.397 26.4654Z" fill="#4A4747"/>
    <path d="M169.692 34.0914C169.692 34.0914 169.739 33.9136 169.965 33.7834C170.213 34.9935 170.638 36.2513 170.886 37.4614C170.79 37.8171 170.79 37.8171 170.613 37.7695C169.962 36.6419 169.939 35.3015 169.692 34.0914Z" fill="#4C4848"/>
    <path d="M170.137 39.5489C170.137 39.5489 170.185 39.371 170.41 39.2408C170.883 40.3208 171.357 41.4007 171.912 42.884C170.68 41.7913 170.432 40.5812 170.137 39.5489Z" fill="#615D5D"/>
    <path d="M191.029 39.8067C191.623 39.0128 192.087 37.9933 192.681 37.1993C192.859 37.2469 193.037 37.2946 192.942 37.6503C192.656 38.7175 192.014 39.6893 191.242 40.4356C191.242 40.4356 191.112 40.2101 190.982 39.9846L191.029 39.8067Z" fill="#898687"/>
    <path d="M169.892 29.7611C169.892 29.7611 169.94 29.5832 170.165 29.453C170.413 30.6631 170.53 31.6477 170.778 32.8578C170.683 33.2136 170.683 33.2136 170.505 33.1659C170.209 32.1336 170.14 30.9712 169.844 29.9389L169.892 29.7611Z" fill="#514E4E"/>
    <path d="M190.823 44.1354C190.823 44.1354 190.87 43.9575 190.74 43.732C190.978 42.8427 191.703 42.2743 192.297 41.4803C192.474 41.5279 192.652 41.5756 192.557 41.9313C192.319 42.8206 191.772 43.4367 191.048 44.0052L190.823 44.1354Z" fill="#6A6465"/>
    <path d="M170.615 37.769C170.615 37.769 170.662 37.5912 170.888 37.461C171.278 38.1375 171.491 38.7664 171.609 39.751C171.04 39.0268 170.602 38.5281 170.615 37.769Z" fill="#6F6B6B"/>
    <path d="M192.331 42.0641C192.331 42.0641 192.201 41.8386 192.071 41.6131C192.214 41.0795 192.487 40.7714 193.116 40.5587C193.211 40.203 193.211 40.203 193.519 40.4761C193.329 41.1876 192.96 41.8514 192.236 42.4198L192.331 42.0641Z" fill="#7D797A"/>
    <path d="M195.156 36.5292L194.8 36.4339C194.8 36.4339 195.537 35.1063 195.858 34.6204C196.036 34.668 196.214 34.7157 196.118 35.0714C195.928 35.7828 195.607 36.2688 195.108 36.707L195.156 36.5292Z" fill="#6F6C6D"/>
    <path d="M170.96 30.0475C170.96 30.0475 171.138 30.0951 171.316 30.1428C171.528 30.7717 171.741 31.4006 171.681 32.3375C170.982 31.3878 171.173 30.6764 170.96 30.0475Z" fill="#646161"/>
    <path d="M192.994 37.4759C192.994 37.4759 192.863 37.2504 192.733 37.0249C192.876 36.4913 192.971 36.1356 193.696 35.5672C193.457 36.4565 193.314 36.99 192.863 37.2504L192.994 37.4759Z" fill="#BDBCBC"/>
    <path d="M170.553 32.9866C170.553 32.9866 170.601 32.8088 170.826 32.6786C171.039 33.3075 171.122 33.7108 171.334 34.3397C171.239 34.6954 171.239 34.6954 171.061 34.6478L170.553 32.9866Z" fill="#706D6D"/>
    <path d="M187.599 47.6579C187.599 47.6579 187.551 47.8357 187.682 48.0612C187.586 48.417 187.443 48.9505 186.637 49.1156C186.779 48.582 187.278 48.1438 187.065 47.5149L187.421 47.6102L187.599 47.6579Z" fill="#656161"/>
    <path d="M191.029 39.8087C191.029 39.8087 191.159 40.0342 191.289 40.2597C191.146 40.7933 190.825 41.2792 190.374 41.5396C190.374 41.5396 190.422 41.3618 190.292 41.1363C190.612 40.6503 190.933 40.1644 191.206 39.8564L191.029 39.8087Z" fill="#615E5E"/>
    <path d="M193.615 40.1199C193.615 40.1199 193.438 40.0722 193.212 40.2024C192.821 39.5259 193.758 39.5863 193.676 39.1829C194.34 39.5514 193.711 39.7642 193.438 40.0722L193.615 40.1199Z" fill="#9C9897"/>
    <path d="M186.613 47.7755L186.969 47.8708C186.969 47.8708 186.327 48.8427 185.568 48.8299C185.711 48.2963 186.209 47.8581 186.613 47.7755Z" fill="#494546"/>
    <path d="M171.02 34.8287C171.02 34.8287 171.068 34.6509 171.293 34.5207C171.376 34.9241 171.684 35.1972 171.719 35.7785C171.185 35.6355 171.102 35.2321 171.02 34.8287Z" fill="#938D8F"/>
    <path d="M169.656 25.6906C169.656 25.6906 169.774 26.6752 169.453 27.1611C169.453 27.1611 169.561 26.0463 169.479 25.6429C169.479 25.6429 169.479 25.6429 169.656 25.6906Z" fill="#FBF7F8"/>
    <path d="M170.395 26.4622C170.395 26.4622 170.512 27.4468 170.595 27.8501C170.595 27.8501 170.547 28.028 170.321 28.1582C169.883 27.6595 170.429 27.0434 170.395 26.4622Z" fill="#E2E0DE"/>
    <path d="M196.161 34.8913C196.161 34.8913 196.03 34.6658 195.9 34.4403C195.996 34.0845 196.091 33.7288 196.447 33.8241C196.932 34.145 196.434 34.5832 196.208 34.7134L196.161 34.8913Z" fill="#A5A6A6"/>
    <path d="M184.592 48.188C184.592 48.188 184.722 48.4135 184.852 48.639C184.805 48.8168 184.532 49.1249 184.258 49.433C184.046 48.8041 184.319 48.496 184.544 48.3658L184.592 48.188Z" fill="#6D696B"/>
    <path d="M195.433 38.3177C195.433 38.3177 195.338 38.6734 194.982 38.5781C194.982 38.5781 194.852 38.3526 194.9 38.1748C194.9 38.1748 194.947 37.9969 195.173 37.8667C195.351 37.9143 195.351 37.9144 195.303 38.0922L195.433 38.3177Z" fill="#A6A6A4"/>
    <path d="M195.609 49.0427C195.539 47.8803 196.133 47.0863 196.775 46.1145C196.797 47.4548 196.025 48.2011 195.609 49.0427Z" fill="#959393"/>
    <path d="M197.144 48.3101C196.848 47.2778 197.169 46.7919 197.668 46.3536C197.525 46.8872 197.334 47.5986 197.144 48.3101Z" fill="#616061"/>
    <path d="M204.283 35.1641C204.283 35.1641 203.927 35.0688 204.201 34.7607C204.201 34.7607 204.604 34.6782 204.829 34.548C204.829 34.548 204.96 34.7735 204.734 34.9037C204.734 34.9037 204.283 35.1641 204.105 35.1164L204.283 35.1641Z" fill="#7F7D7F"/>
    <path d="M177.21 51.5451C177.21 51.5451 176.512 50.5953 176.607 50.2396C176.607 50.2396 176.88 49.9316 177.01 50.1571C177.496 50.4779 177.353 51.0115 177.163 51.7229L177.21 51.5451Z" fill="#888686"/>
    <path d="M169.447 27.1623C169.447 27.1623 169.612 27.9691 169.47 28.5027C168.984 28.1818 169.53 27.5657 169.27 27.1147L169.447 27.1623Z" fill="#F3EEEF"/>
    <path d="M192.126 41.4347C192.126 41.4347 192.079 41.6125 192.031 41.7904C191.485 42.4065 191.069 43.2481 190.522 43.8643C189.976 44.4804 189.252 45.0488 188.705 45.665C189.039 44.42 189.989 43.7213 190.63 42.7495C190.951 42.2635 191.272 41.7776 191.771 41.3394C191.771 41.3394 191.771 41.3394 191.949 41.387L192.126 41.4347Z" fill="#FAF7F8"/>
</svg>