<svg xmlns="http://www.w3.org/2000/svg" width="206" height="117" viewBox="0 0 206 117" fill="none">
    <path d="M167.215 15.9179C166.309 10.7142 164.403 5.76007 163.739 0.00211844C168.199 2.55101 171.576 5.04498 175.455 9.40806C176.027 10.2564 176.588 11.1242 177.129 11.9807C176.423 12.889 175.497 13.5971 174.432 14.2306C174.912 15.5961 175.354 16.9391 175.735 18.2985C177.051 17.6338 178.276 16.813 179.299 15.8493C181.025 19.229 182.462 22.7521 183.547 26.4351C182.294 28.1567 179.895 28.7241 177.886 29.4216C178.041 30.8579 178.138 32.2606 178.185 33.6602C180.565 33.17 182.848 32.3121 184.679 31.0252C185.63 35.5241 186.062 40.2029 185.927 44.9682C183.526 46.9746 180.095 47.04 176.934 47.1317C176.638 48.5409 176.284 49.9165 175.891 51.2697C178.703 51.4687 182.419 51.1792 185.546 49.98C184.982 54.8603 183.837 59.5349 182.195 63.9485C178.858 66.1399 174.176 64.7836 170.374 63.8318C169.637 65.0639 168.841 66.2622 168.026 67.4494C171.221 68.6461 176.01 69.5466 180.008 69.083C177.837 73.6056 175.114 77.7835 171.923 81.5614C167.761 82.7587 162.511 80.1423 158.992 77.67C157.93 78.6112 156.838 79.5606 155.71 80.4375C158.994 82.8254 162.936 84.7905 167.636 85.8464C167.725 85.8718 167.825 85.8778 167.925 85.8838C163.985 89.7475 159.535 93.058 154.694 95.7017C150.185 95.4813 145.668 91.8639 143.008 88.3075C141.675 88.9108 140.354 89.4948 138.997 90.0062C139.063 90.0705 139.118 90.1542 139.165 90.2073C141.949 93.7308 145.366 96.7397 149.053 98.4282C144.836 100.215 140.387 101.506 135.779 102.264C134.703 101.928 133.616 101.3 132.501 100.45C130.399 98.7959 128.371 96.2522 126.779 93.3127C122.01 94.0816 117.238 94.2273 112.546 93.6945L113.038 89.5234C116.92 89.9775 120.935 89.8868 124.958 89.3344C123.597 85.7254 122.929 81.947 123.165 78.8458C123.36 76.4457 124.005 74.565 125.241 73.2322C127.978 73.3362 130.645 73.1144 133.268 72.6086C132.343 77.3064 134.191 81.9999 136.559 86.423C137.885 85.9198 139.204 85.3859 140.494 84.8102C138.274 81.1194 135.941 75.7839 138.162 71.2643C141.065 70.2729 143.82 68.9108 146.435 67.2086C147.171 71.182 149.527 74.4589 152.493 77.6215C153.609 76.764 154.687 75.8841 155.749 74.9428C153.064 72.2794 150.143 68.5466 150.502 64.2469C152.638 62.4758 154.617 60.4842 156.415 58.311C158.096 61.4568 160.921 63.6061 164.187 65.6211C165.018 64.4952 165.772 63.3245 166.517 62.1231C163.639 60.5133 160.223 57.9969 159.388 54.329C160.967 51.9517 162.375 49.4233 163.55 46.7604C165.77 48.793 168.628 49.7183 171.768 50.6504C172.169 49.3279 172.542 47.9634 172.846 46.5848C170.239 45.9862 167.023 44.8284 165.239 42.3999C166.24 39.4552 166.999 36.3453 167.484 33.1285C169.433 33.969 171.674 34.3045 174.045 34.1454C174.018 32.7569 173.921 31.3543 173.786 29.9292C172.016 29.9435 169.708 29.7246 167.948 28.7346C168.142 25.842 168.088 22.9747 167.803 20.194C169.116 20.2527 170.463 20.0723 171.789 19.7499C171.416 18.4211 170.994 17.0893 170.513 15.7239C169.57 15.9225 168.306 16.0919 167.215 15.9179Z" fill="#FFE4D9"/>
    <path d="M30.5404 9.41709C34.1835 5.31936 37.3833 2.87624 41.4403 0.482164L42.2756 -9.72748e-05C41.7014 4.88217 39.7935 10.55 38.7909 15.9464C37.7291 16.0362 36.6171 15.9945 35.4819 15.733C35.0205 17.0872 34.5786 18.4302 34.2061 19.759C35.5319 20.0814 36.8987 20.2505 38.1922 20.2031C37.9263 22.9725 37.8835 25.8593 38.0772 28.7519C36.3932 29.8278 34.2844 29.8539 32.2399 29.9464C32.1044 31.3715 32.0077 32.7742 31.961 34.1739C33.9114 34.1874 36.417 33.9064 38.542 33.1457C39.0265 36.3626 39.786 39.4725 40.7868 42.4172C39.1757 44.8755 36.0053 45.7994 33.156 46.6156C33.4599 47.9942 33.8332 49.3586 34.2536 50.67C36.8645 50.0691 40.1753 48.8051 42.4643 46.7584C43.6503 49.4407 45.0388 51.9802 46.6074 54.3381C45.794 57.864 42.4328 60.2968 39.4852 62.1539C40.2306 63.3553 41.0037 64.5148 41.8156 65.6519C44.6198 64.0847 47.8524 61.519 49.591 58.3396C51.4091 60.5016 53.3878 62.4932 55.5128 64.2449C56.1814 68.1843 52.9574 72.0659 50.2771 74.9603C51.3386 75.9015 52.4164 76.7814 53.5331 77.6389C56.1313 75.051 58.8106 71.3026 59.5715 67.2372C62.1748 68.9199 64.9603 70.2903 67.8444 71.293C70.198 75.0107 67.6958 81.0397 65.5314 84.8276C66.8222 85.4033 68.1405 85.9372 69.4671 86.4405C71.6786 82.5995 73.5757 77.5413 72.7582 72.626C75.3618 73.1431 78.0476 73.3537 80.7654 73.2609C82.0011 74.5936 82.666 76.4631 82.8409 78.8745C83.0967 81.9644 82.4291 85.7429 81.068 89.3519C85.0907 89.9043 89.1059 89.995 92.9878 89.5409L93.46 93.7232C88.7882 94.2448 83.9966 94.1103 79.2384 93.3608C77.635 96.281 75.607 98.8246 73.5248 100.467C72.4102 101.318 71.3223 101.946 70.2471 102.282C65.6392 101.523 61.1863 100.235 56.9689 98.448C60.5487 96.7438 64.6174 93.8767 67.0097 90.0349C65.6719 89.5122 64.3311 88.9395 63.018 88.3249C60.3609 91.4389 56.0284 95.2353 51.3089 95.7327C46.4672 93.0889 42.0176 89.7784 38.0775 85.9147C42.0062 85.5372 47.1818 83.4297 50.2922 80.4684C49.1643 79.5915 48.0722 78.642 46.9996 77.6814C43.7873 79.9504 38.5786 82.5432 34.0797 81.5923C30.8883 77.8144 28.1848 73.6252 25.9946 69.1139C29.6613 69.7942 34.2173 68.951 37.9759 67.4802C37.161 66.2931 36.385 65.0835 35.6477 63.8515C32.3139 64.9992 27.4163 65.9102 23.8072 63.9793C22.1655 59.5657 21.0207 54.8911 20.4564 50.0108C23.2718 51.2085 26.8013 51.5796 30.1415 51.3087C29.7181 49.9473 29.3642 48.5717 29.0686 47.1624C26.3333 47.2653 22.5802 46.9198 20.0946 44.9878C19.9838 40.83 20.5112 35.8892 21.3123 31.0365C23.1544 32.3429 25.4257 33.1813 27.8299 33.6581C27.8766 32.2584 27.9733 30.8557 28.1088 29.4307C26.2771 28.9497 23.8822 28.0764 22.4476 26.4441C23.533 22.7612 24.989 19.2269 26.7157 15.8471C27.7188 16.822 28.9439 17.6429 30.2794 18.2963C30.6601 16.9369 31.1021 15.5939 31.5829 14.2285C30.6953 13.723 29.6112 12.9218 28.8658 11.9898C29.4073 11.1332 29.9682 10.2654 30.5404 9.41709Z" fill="#FFE4D9"/>

    <path d="M162.94 6.72435C164.712 8.35644 166.412 9.86409 167.882 11.8362C168.17 12.3341 168.562 12.4393 168.988 12.0274C170.161 11.1843 171.458 10.2694 172.416 9.05302C172.717 8.71299 173.143 8.3011 173.555 8.72709C173.895 9.02861 173.718 9.29678 173.488 9.76128C172.819 11.4755 172.149 13.1898 171.407 14.7796C171.23 15.0478 171.249 15.3686 171.642 15.4738C173.356 16.1435 174.343 17.5652 175.828 18.6995C176.168 19.001 177.274 19.1921 176.867 19.9248C176.637 20.3893 175.78 20.0544 175.263 20.0211C173.391 19.9403 171.591 19.984 169.843 19.8313C168.933 19.6928 168.919 20.5306 168.69 20.9951C167.948 22.5849 167.206 24.1747 166.197 25.5875C165.843 26.1238 165.469 26.3394 164.789 25.7364C164.789 25.7364 164.521 25.5593 164.574 25.363C165.277 23.1316 164.697 20.9773 165.079 18.7651C165.079 18.7651 165.079 18.7651 165.007 18.6407C163.298 19.1296 161.713 19.5466 160.004 20.0356C159.755 20.1793 159.382 20.3949 159.023 19.7725C158.735 19.2747 158.84 18.882 159.214 18.6665C160.315 17.699 161.2 16.3581 162.445 15.6395C162.942 15.3521 162.727 14.9787 162.708 14.6579C162.573 12.4125 161.993 10.2581 161.537 8.0319C161.394 7.78297 161.302 7.33774 161.604 6.9977C162.03 6.58581 162.475 6.49469 162.887 6.92068L162.94 6.72435Z" fill="#020000"/>
    <path d="M162.939 6.7253C162.939 6.7253 162.029 6.58675 161.655 6.80233C162.259 6.12226 162.686 6.09657 162.939 6.7253Z" fill="#FCFCFC"/>
    <path d="M168.306 18.8926C167.761 20.535 167.019 22.1249 165.832 23.8058C165.846 22.9679 165.755 22.5227 165.985 22.0582C166.372 21.0047 166.439 19.9705 166.827 18.9171C167.195 17.5428 167.51 16.3649 167.879 14.9907C167.984 14.598 168.017 14.0809 168.462 13.9898C169.08 12.4719 170.612 12.2511 171.693 10.9629C171.541 12.7105 170.78 13.9795 170.411 15.3537C170.254 15.9427 170.148 16.3353 170.843 16.1005C170.967 16.0286 171.36 16.1339 171.503 16.3828C172.203 17.3066 173.453 17.7467 174.42 18.8476C172.299 18.9105 170.532 18.4371 168.555 18.7489C168.229 17.6095 169.081 16.7857 169.272 15.6797C169.377 15.287 169.554 15.0189 169.66 14.6262C168.971 16.0197 168.55 17.5903 168.057 19.0363L168.306 18.8926Z" fill="#FDFDFD"/>
    <path d="M164.679 17.5014C164.679 17.5014 163.985 17.7362 163.539 17.8273C163.18 17.205 163.534 16.6686 163.568 16.1515C163.673 15.7589 164.099 15.347 163.811 14.8492C163.668 14.6003 163.648 14.2795 163.95 13.9395C164.036 13.226 164.246 12.4407 164.26 11.6029C164.366 11.2102 164.274 10.765 164.72 10.6739C164.863 10.9228 165.132 11.0999 165.4 11.2769C166.027 12.0763 165.228 12.7038 165.214 13.5417C165.094 14.7722 164.583 15.8975 164.535 17.2525C164.535 17.2525 164.482 17.4488 164.358 17.5206L164.679 17.5014Z" fill="#EDECEC"/>
    <path d="M167.282 13.6767C167.282 13.6767 167.779 13.3892 168.119 13.6907C168.531 14.1167 168.23 14.4568 168.053 14.7249C167.684 16.0992 167.441 17.4016 167.001 18.6513C166.876 18.7232 166.895 19.044 166.646 19.1877C166.646 19.1877 166.575 19.0632 166.503 18.9388C166.287 18.5654 165.947 18.2639 166.498 17.7801C166.747 17.6364 166.747 17.6364 166.138 17.1578C165.616 15.9658 166.521 14.9457 166.587 13.9115C166.764 13.6433 166.817 13.447 167.21 13.5522L167.282 13.6767Z" fill="#FAFAFA"/>
    <path d="M166.206 11.8091C166.206 11.8091 166.618 12.2351 166.958 12.5366C166.997 13.1782 166.767 13.6426 166.609 14.2316C166.222 15.285 166.423 16.4963 165.447 17.392C165.198 17.5357 164.929 17.3586 164.681 17.5023C164.532 16.0948 165.168 14.8976 165.287 13.6671C165.445 13.0781 165.531 12.3647 166.082 11.8809L166.206 11.8091Z" fill="#F5F4F4"/>
    <path d="M166.949 18.8465C167.298 17.1515 167.719 15.5809 168.193 13.814C168.317 13.7422 168.513 13.7948 168.657 14.0437C168.112 15.6861 167.638 17.453 167.218 19.0235C167.218 19.0235 167.146 18.8991 167.074 18.7746L166.949 18.8465Z" fill="#434141"/>
    <path d="M168.305 18.8945C168.529 17.2713 169.218 15.8779 169.907 14.4844C170.156 14.3407 170.156 14.3407 170.3 14.5896C169.736 15.9112 169.171 17.2328 168.875 18.7315C168.75 18.8034 168.501 18.9471 168.377 19.019L168.305 18.8945Z" fill="#494747"/>
    <path d="M165.444 17.3916C165.831 16.3381 166.022 15.2321 166.41 14.1786C166.534 14.1068 166.659 14.0349 166.802 14.2838C166.539 15.2654 166.348 16.3715 166.085 17.3531C165.961 17.4249 165.764 17.3723 165.444 17.3916Z" fill="#686565"/>
    <path d="M164.918 10.7244C164.334 11.7253 164.732 12.9891 163.951 13.9374C163.88 13.8129 163.86 13.4921 163.913 13.2958C163.946 12.7787 163.98 12.2616 164.085 11.869C164.137 11.6726 164.118 11.3519 164.171 11.1556C164.152 10.8348 164.132 10.514 164.309 10.2458C164.702 10.351 164.846 10.5999 164.865 10.9207L164.918 10.7244Z" fill="#383434"/>
    <path d="M163.778 11.0525C162.6 10.7369 163.505 9.71679 162.7 9.18559C163.663 9.12783 163.649 9.96571 164.166 9.99906C164.166 9.99906 164.204 10.6406 164.027 10.9088C164.027 10.9088 163.903 10.9807 163.778 11.0525Z" fill="#D3D0CF"/>
    <path d="M163.939 14.7747C163.939 14.7747 164.154 15.148 164.049 15.5407C163.839 16.326 163.36 16.9342 163.542 17.8246C163.418 17.8965 163.221 17.8439 163.025 17.7913C162.522 16.9201 163.465 16.5415 163.551 15.8281C163.656 15.4355 163.833 15.1673 164.063 14.7028L163.939 14.7747Z" fill="#443F3F"/>
    <path d="M166.951 18.8454C166.951 18.8454 167.023 18.9699 167.095 19.0943C167.028 20.1285 166.569 21.0575 166.253 22.2354C166.038 21.862 166.464 21.4502 166.248 21.0768C166.602 20.5404 166.564 19.8989 166.794 19.4344C166.918 19.3625 166.971 19.1662 167.023 18.9699L166.951 18.8454Z" fill="#585555"/>
    <path d="M163.621 15.9555C163.621 15.9555 162.984 17.1527 163.095 17.9187C163.095 17.9187 162.846 18.0624 162.721 18.1343C162.381 17.8327 162.611 17.3682 162.52 16.923C162.893 16.7074 163.195 16.3674 163.496 16.0274L163.621 15.9555Z" fill="#ECEAEB"/>
    <path d="M166.208 11.807C166.208 11.807 165.696 12.9323 165.538 13.5213C165.538 13.5213 165.538 13.5213 165.342 13.4687C165.231 12.7027 166.031 12.0752 165.724 11.2566C166.045 11.2373 165.94 11.63 166.208 11.807Z" fill="#8C8A8A"/>
    <path d="M166.806 14.2801C166.806 14.2801 166.61 14.2275 166.414 14.1749C166.572 13.5859 166.729 12.997 166.835 12.6043C167.62 12.8148 166.572 13.5859 167.161 13.7437C166.912 13.8875 166.859 14.0838 166.682 14.3519L166.806 14.2801Z" fill="#868181"/>
    <path d="M162.079 18.1737C162.079 18.1737 161.581 18.4611 161.116 18.2315C161.614 17.944 161.968 17.4077 162.466 17.1203C162.682 17.4936 162.577 17.8863 162.203 18.1018L162.079 18.1737Z" fill="#F2ECEE"/>
    <path d="M166.651 19.1847C166.651 19.1847 166.728 20.4678 166.105 20.8271C166.067 20.1856 166.153 19.4722 166.507 18.9358C166.507 18.9358 166.579 19.0603 166.651 19.1847Z" fill="#EBE8E8"/>
    <path d="M164.136 11.6751C164.136 11.6751 164.07 12.7093 164.036 13.2264C163.749 12.7285 163.533 12.3551 164.012 11.7469C164.012 11.7469 164.136 11.6751 164.261 11.6032L164.136 11.6751Z" fill="#F0EDED"/>
    <path d="M162.079 18.1736C162.079 18.1736 162.557 17.5654 162.342 17.1921C162.342 17.1921 162.466 17.1202 162.519 16.9239C162.734 17.2973 162.629 17.6899 162.72 18.1351C162.596 18.207 162.347 18.3507 162.15 18.2981L162.079 18.1736Z" fill="#7C787A"/>
    <path d="M164.135 11.6744C164.135 11.6744 164.01 11.7462 163.886 11.8181C163.742 11.5692 163.919 11.301 163.775 11.0521C163.775 11.0521 163.775 11.0521 163.9 10.9802C163.9 10.9802 164.149 10.8365 164.292 11.0854C164.24 11.2818 164.259 11.6025 164.01 11.7462L164.135 11.6744Z" fill="#EDECEC"/>
    <path d="M170.105 14.5352C170.105 14.5352 169.909 14.4826 169.713 14.43C169.87 13.841 170.028 13.252 170.382 12.7157C170.742 13.338 170.387 13.8743 170.105 14.5352Z" fill="#727070"/>
    <path d="M165.213 13.5401C165.213 13.5401 165.213 13.5401 165.41 13.5927C165.166 14.8951 164.85 16.073 164.607 17.3754C164.319 16.8775 164.477 16.2886 164.582 15.896C164.793 15.1107 165.003 14.3254 165.213 13.5401Z" fill="#545252"/>
    <path d="M164.418 11.0124C164.418 11.0124 164.222 10.9598 164.025 10.9071C164.006 10.5864 164.183 10.3182 164.164 9.99742C164.504 10.2989 164.523 10.6197 164.418 11.0124Z" fill="#F6F4F3"/>
    <path d="M15.5601 87.6307C16.5135 88.8225 17.3478 90.0143 18.0628 91.3252C18.0628 91.6827 18.4203 91.9211 18.6587 92.1594C19.0162 92.3978 19.1354 92.7553 19.3738 93.1129C19.4929 93.5896 19.7313 93.9471 20.3272 93.7087C20.6847 93.7087 21.0422 93.8279 21.2806 93.4704C21.9957 93.3512 22.7107 93.1128 23.4258 92.8745C24.26 92.6361 25.0943 92.6361 25.8093 92.2786C26.286 92.0403 26.8819 92.1594 27.3586 91.9211C27.3586 91.9211 28.4312 91.9211 28.9079 91.5636C28.9079 91.5636 29.0271 91.5636 29.1463 91.5636C30.4572 91.4444 31.7682 90.8485 33.0791 90.6101C35.4626 90.0143 37.8462 89.2992 40.2297 88.7033C42.2557 88.1074 44.2817 87.6307 46.3077 87.0348C46.3077 87.0348 46.5461 86.9156 46.6653 86.7965C47.857 86.5581 48.9296 86.2006 50.1214 85.8431C51.3132 84.5321 51.194 84.1746 50.3597 82.6253C48.9296 79.7651 47.2611 77.1432 45.4735 74.5213C44.2817 72.7336 43.09 70.946 41.779 69.1583C39.8722 66.6556 38.2037 63.9145 36.4161 61.2926C35.5818 59.9817 35.5818 59.9817 34.1517 60.5776C33.1983 60.9351 32.2449 61.2926 31.1723 61.6502C30.5764 61.8885 30.4572 61.6502 30.5764 61.1735C30.6956 59.9817 29.8613 59.8625 29.0271 60.1009C28.4312 60.3392 27.7161 60.5776 27.0011 60.8159C26.6435 60.9351 26.286 60.9351 26.0477 61.1735C23.7833 62.1269 21.2806 62.6036 18.8971 63.3186C16.156 64.1529 13.2957 64.7488 10.5547 65.583C9.48208 65.9405 8.29031 66.5364 7.69443 67.7282C7.45608 68.2049 6.8602 68.0857 6.38349 68.2049C5.19172 68.5624 4.11913 68.92 3.99995 70.4693C3.99995 70.946 3.99995 71.1843 4.2383 71.661C5.43007 73.3295 6.62184 75.1171 7.93279 76.9048C7.93279 77.2623 8.29032 77.5007 8.52868 77.7391C8.52868 77.7391 8.8862 78.3349 9.12455 78.5733C9.60126 79.6459 10.4355 80.5993 11.1506 81.5527C12.4615 83.3404 13.7725 85.128 14.9642 87.0348C15.0834 87.2732 15.3218 87.3924 15.4409 87.6307H15.5601Z" fill="#020000"/>
    <path d="M15.5595 87.6286C13.5335 84.53 11.5075 81.5506 9.24316 78.5712C9.24316 78.9287 9.24316 79.167 9.60069 79.4054C11.3883 81.9081 13.0568 84.4108 14.8445 86.9135C15.0828 87.2711 15.3212 87.5094 15.6787 87.5094L15.5595 87.6286Z" fill="#FCFCFC"/>
    <path d="M50 85.9622C48.8082 85.9622 47.7356 86.4389 46.5439 86.9156C47.7356 86.6773 48.9274 86.7965 50 85.9622Z" fill="#FCFCFC"/>
    <path d="M33.0781 90.6088C31.7672 90.6088 30.4562 91.0855 29.1453 91.5622C30.5754 91.5622 31.7672 91.0855 33.0781 90.6088Z" fill="#FCFCFC"/>
    <path d="M23.5469 92.9943C22.8318 92.9943 22.1168 93.2326 21.4017 93.5902C22.2359 93.5902 22.951 93.5901 23.5469 92.9943Z" fill="#FCFCFC"/>
    <path d="M29.0273 91.6824C29.0273 91.6824 27.9548 91.8015 27.478 92.0399C28.0739 92.0399 28.6698 92.2783 29.0273 91.6824Z" fill="#FCFCFC"/>
    <path d="M27.4805 92.0399C27.4805 92.0399 26.4079 92.0399 25.9312 92.3975C26.4079 92.3975 27.0038 92.3974 27.4805 92.0399Z" fill="#FCFCFC"/>
    <path d="M20.3281 93.8288C20.3281 93.8288 19.6131 93.5905 19.3747 93.233C19.2555 94.1864 19.7322 94.0672 20.3281 93.8288Z" fill="#FCFCFC"/>
    <path d="M8.64941 77.8579C8.64941 77.8579 8.29189 77.262 8.05354 77.0236C8.05354 77.5003 8.17271 77.7387 8.64941 77.8579Z" fill="#FCFCFC"/>
    <path d="M9.24219 78.5737C9.24219 78.5737 8.88465 77.9779 8.6463 77.7395C8.6463 78.2162 8.88466 78.4546 9.24219 78.5737Z" fill="#FCFCFC"/>
    <path d="M18.6582 92.1586C18.6582 92.1586 18.3007 91.5628 18.0623 91.3244C18.0623 91.8011 18.3007 92.0395 18.6582 92.1586Z" fill="#FCFCFC"/>
    <path d="M42.1359 72.3772C42.1359 72.3772 41.6591 71.543 41.1824 71.4238C40.9441 71.1854 40.5865 71.3046 40.229 71.0662C39.9907 71.0662 39.7523 70.8279 39.3948 70.8279C39.1564 70.8279 38.9181 70.7087 38.6797 70.7087C38.3222 70.7087 37.9647 70.5895 37.7263 70.7087C37.488 71.4238 38.0838 72.0197 38.3222 72.6155C39.0373 74.284 38.6797 75.3566 36.8921 75.9525C35.1044 76.5484 33.3168 77.0251 31.5291 77.3826C30.9332 77.5018 30.4565 77.3826 30.099 77.0251C29.3839 76.1908 28.6689 75.3566 28.073 74.4032C27.5963 73.569 27.7155 73.0923 28.788 72.6155C30.2182 72.1388 31.6483 71.5429 33.1976 71.1854C34.0318 70.9471 34.8661 70.8279 35.5811 70.4704C36.2962 70.1128 36.8921 70.1128 37.488 70.7087C37.9647 70.7087 38.5605 70.7087 39.0373 70.7087C39.3948 70.7087 39.7523 70.9471 39.9907 71.0662C40.1098 71.0662 40.3482 71.1854 40.4674 71.3046C40.7057 71.3046 40.8249 71.3046 40.9441 71.1854C40.9441 70.8279 40.5866 70.5895 40.3482 70.3512C39.9907 70.232 39.6331 69.9936 39.2756 69.9936C38.7989 69.9936 38.4414 69.7553 37.9647 69.7553C37.9647 69.7553 37.9647 69.7553 37.8455 69.7553C37.8455 69.7553 37.9647 69.7553 38.0838 69.7553C38.4414 69.7553 38.6797 69.9936 39.0373 69.9936C39.0373 69.9936 39.1564 69.9936 39.2756 69.9936C39.6331 69.9936 39.9907 70.232 40.229 69.8745C40.229 69.6361 39.9907 69.6361 39.8715 69.5169C39.6331 69.2786 39.2756 69.1594 38.9181 69.0402C38.6797 68.9211 38.3222 68.8019 37.9647 68.8019C37.7263 68.8019 37.6071 68.6827 37.488 68.6827C37.488 68.4444 37.2496 68.6827 37.488 68.6827C37.7263 68.8019 37.9647 68.8019 38.3222 68.9211C38.5605 68.9211 38.9181 68.9211 39.1564 69.1594C39.3948 69.1594 39.514 69.1594 39.6331 69.0402C39.6331 68.8019 39.3948 68.6827 39.2756 68.6827C38.9181 68.4444 38.5605 68.3252 38.0838 68.206C37.8455 68.206 37.488 68.206 37.2496 67.9676C37.488 67.9676 37.7263 67.9676 37.9647 68.0868C38.203 68.0868 38.4414 68.4443 38.7989 68.0868C38.7989 67.8485 38.6797 67.7293 38.5605 67.4909C38.0838 67.1334 37.488 67.1334 37.0112 67.0142C37.0112 66.7759 36.8921 67.0142 37.0112 67.0142C37.3688 67.0142 37.8455 67.6101 38.203 67.0142C37.7263 66.2992 37.2496 65.5841 36.7729 64.8691C36.7729 64.7499 36.5345 64.6307 36.5345 64.5115C36.5345 64.2732 36.2962 64.0348 36.0578 63.9156C35.5811 63.7965 35.1044 63.5581 34.6277 63.5581H34.3894C34.2702 63.6773 34.151 63.9156 34.151 64.154C34.3894 64.7499 34.8661 65.2266 35.2236 65.8225C35.7003 66.7759 35.5811 67.2526 34.5085 67.7293C31.8866 68.8019 29.1456 69.6361 26.4045 70.4704C22.3525 71.6621 18.3005 72.9731 14.2485 74.1648C13.7718 74.284 13.4142 74.4032 13.2951 74.9991C13.2951 75.3566 13.5334 75.3566 13.6526 75.595C13.8909 75.7141 14.0101 75.8333 14.2485 75.9525C13.8909 75.9525 13.7718 75.595 13.5334 75.595C12.1033 74.6416 10.4348 73.9265 9.0047 73.0922C8.40881 72.8539 7.93209 72.1388 7.21703 72.4964C7.69374 73.0923 8.17045 73.8073 8.64716 74.4032C9.24304 74.7607 9.9581 74.9991 10.554 75.2374C12.4608 75.8333 14.0101 77.2634 15.917 77.9785C14.0101 77.1443 12.4608 75.7141 10.4348 75.1183C9.95811 75.1183 9.60058 74.5224 9.0047 74.7607C12.1033 79.2895 15.2019 83.8182 18.5388 88.2277C19.1347 89.0619 19.8498 89.8962 20.4457 90.7304C20.9224 91.4455 21.5183 91.5647 22.3525 91.3263C28.9072 89.777 35.3428 88.1085 41.7783 86.3209C42.3742 86.2017 42.9701 86.0825 43.4468 85.8442C43.2084 85.8442 42.9701 85.6058 42.8509 85.4866C42.4934 85.1291 42.0167 85.1291 41.54 85.0099C41.3016 85.0099 41.0633 84.7716 40.8249 84.7716C41.0633 84.7716 41.4208 85.0099 41.6591 85.0099C42.0167 85.0099 42.3742 85.2483 42.8509 85.3675C43.566 85.2483 44.0427 85.9634 44.7577 85.6058C44.7577 85.6058 44.9961 85.6058 44.9961 85.3675C44.281 84.8908 43.566 84.7716 42.7317 84.5332C42.3742 84.5332 42.1359 84.2949 41.8975 84.2949C42.1359 84.2949 42.4934 84.5332 42.7317 84.5332C43.566 84.6524 44.1619 85.1291 44.9961 85.2483C45.4728 85.2483 46.0687 85.3675 46.5454 85.0099C46.5454 84.5332 46.0687 84.6524 45.8303 84.5332C45.1153 84.0565 44.1619 84.0565 43.3276 83.699C42.9701 83.5798 42.6126 83.5798 42.255 83.3415C42.6126 83.5798 43.0893 83.5798 43.4468 83.699C44.7577 83.9374 45.9495 84.6524 47.2605 84.7716C47.4988 84.7716 47.7372 84.6524 47.9755 84.5332C47.9755 84.0565 47.4988 84.0565 47.1413 83.9373C46.7837 83.8182 46.307 83.8182 45.9495 83.5798C45.4728 83.3415 44.8769 83.1031 44.4002 82.9839C44.1619 82.9839 43.9235 82.9839 43.566 82.7456C43.566 82.7456 43.3276 82.7456 43.2084 82.6264C43.3276 82.6264 43.566 82.7456 43.8043 82.8647C44.0427 82.8647 44.281 82.8647 44.6386 83.1031C45.2344 83.2223 45.7112 83.5798 46.1879 83.699C46.7837 83.699 47.3796 84.0565 48.0947 84.0565C48.0947 84.0565 48.2139 83.9373 48.2139 83.8182C47.9755 83.2223 47.3796 83.2223 46.9029 82.9839C46.0687 82.7456 45.3536 82.388 44.5194 82.1497C44.281 82.1497 43.9235 82.0305 43.6852 81.9113C43.2084 81.9113 42.8509 81.5538 42.3742 81.673C40.5866 83.1031 38.203 83.4606 36.0578 84.1757C35.4619 84.2949 34.9852 84.1757 34.6277 83.8182C33.7935 83.1031 33.0784 82.1497 32.4825 81.1963C32.0058 80.4812 32.4825 79.5278 33.3168 79.2894C35.3428 78.6936 37.2496 77.8593 39.1564 77.1443C39.514 77.0251 39.9907 76.7867 40.3482 77.0251C40.3482 77.0251 40.4674 77.0251 40.5866 77.0251C40.9441 77.0251 41.3016 77.0251 41.6591 77.2634C42.0167 77.2634 42.3742 77.5018 42.8509 77.621C43.2084 77.621 43.566 77.5018 43.9235 77.621C44.4002 77.621 44.8769 78.336 45.2344 77.621C44.9961 77.2634 44.7577 77.0251 44.4002 77.0251C44.0427 76.5484 43.4468 76.5484 42.9701 76.4292C42.4934 76.1909 42.0167 76.0717 41.54 75.9525C41.54 75.9525 41.3016 75.9525 41.1824 75.9525C41.4208 75.9525 41.54 75.9525 41.6591 76.0717C42.1359 76.0717 42.6126 76.31 42.9701 76.4292C43.4468 76.4292 43.8043 77.1443 44.4002 76.4292C44.1619 76.0717 43.9235 75.595 43.3276 75.595C42.8509 75.1183 42.1359 75.1182 41.4208 74.8799C41.1824 74.8799 40.9441 74.8799 40.7057 74.7607C41.0633 74.7607 41.3016 74.7607 41.6591 74.8799C42.255 74.8799 42.8509 75.4758 43.4468 75.1183C43.0893 74.4032 42.6126 73.6881 42.0167 73.2114C41.54 72.6155 40.7057 72.7347 39.9907 72.3772C39.8715 72.3772 39.6331 72.3772 39.514 72.3772C39.8715 72.3772 40.229 72.3772 40.4674 72.6155C40.8249 72.6155 41.1824 72.9731 41.54 72.6155L42.1359 72.3772Z" fill="#FEFEFE"/>
    <path d="M34.2709 63.6752C34.2709 63.6752 34.3901 63.4368 34.5093 63.3176C34.5093 63.3176 34.2709 63.1985 34.5093 63.0793C34.5093 63.0793 34.7476 63.0793 34.8668 63.0793C35.2244 63.0793 35.7011 63.556 36.0586 63.0793C36.0586 62.9601 36.0586 62.8409 35.9394 62.7218C35.7011 62.4834 35.3435 62.4834 35.1052 62.3642C34.8668 62.245 34.6285 62.3642 34.3901 62.1259C34.6285 62.1259 34.986 62.245 35.2244 62.3642C35.3435 62.3642 35.5819 62.3642 35.7011 62.3642C35.7011 62.3642 35.5819 62.1259 35.4627 62.0067C34.986 61.6492 34.2709 61.6492 33.6751 61.6492C29.1463 63.3176 24.3793 64.3902 19.7314 65.7012C16.5136 66.6546 13.1766 67.3697 9.95887 68.3231C9.72052 68.3231 9.60134 68.4422 9.36299 68.5614C9.48216 69.1573 10.078 68.9189 10.3164 69.1573C10.3164 69.1573 10.3164 69.1573 10.4356 69.1573C10.4356 69.1573 10.4356 69.1573 10.3164 69.1573C9.83969 69.0381 9.36299 68.7998 8.88628 68.6806C8.64792 68.6806 8.2904 68.6806 8.05204 68.9189C8.17122 69.634 8.88627 69.5148 9.2438 69.7532C9.72051 69.7532 10.3164 69.9915 10.7931 69.9915C14.9643 68.5614 19.3738 67.608 23.545 66.1779C26.2861 65.2245 29.1463 64.5094 32.0066 63.4368C32.8408 63.1985 33.4367 63.4368 34.1518 63.556L34.2709 63.6752Z" fill="#FDFDFD"/>
    <path d="M18.1823 64.5097C15.7987 65.1056 13.296 65.8206 10.9125 66.4165C10.6741 66.4165 10.1974 66.4165 10.0782 66.8932C10.3166 66.8932 10.5549 66.8932 10.7933 66.8932C11.1508 66.8932 11.3892 66.8932 11.3892 67.0124C17.1097 65.7014 22.711 64.1522 28.3123 62.6029C28.6698 62.6029 29.0273 62.3645 29.0273 61.8878C28.6698 61.5303 28.1931 61.7686 27.8356 61.8878C27.3589 62.007 26.763 62.2453 26.2863 62.3645C24.8562 62.722 23.5452 63.3179 22.1151 63.5563C20.8041 64.033 19.374 64.2713 18.0631 64.5097H18.1823Z" fill="#FCFBFB"/>
    <path d="M40.948 76.4274C40.948 76.4274 40.8288 76.4274 40.7097 76.4274V76.6657C41.5439 77.8575 42.1398 79.1684 42.974 80.241C43.0932 80.241 43.3316 80.3602 43.4507 80.4794C43.8083 80.5986 44.285 80.7177 44.6425 80.8369C45 80.8369 45.2384 81.0753 45.5959 80.8369C45.8343 80.8369 45.4767 80.3602 45.8343 80.5986C46.4302 80.8369 47.1452 81.1944 47.8603 81.3136C47.8603 81.3136 47.9795 81.3136 48.0986 81.3136C48.0986 80.8369 47.6219 80.7177 47.2644 80.4794C46.6685 79.8835 45.9534 79.7643 45.1192 79.6451C44.6425 79.526 44.285 79.2876 43.8083 79.1684C43.8083 79.1684 43.5699 79.1684 43.4507 79.1684C43.6891 79.1684 43.8083 79.1684 43.9274 79.2876C44.285 79.2876 44.7617 79.526 45.1192 79.6451C45.8343 79.6451 46.4302 80.241 47.1452 80.0027C46.9069 79.7643 46.7877 79.526 46.5493 79.1684C46.1918 78.8109 45.7151 78.8109 45.2384 78.5726C44.7617 78.4534 44.285 78.3342 43.9274 78.215C43.4507 78.0958 43.0932 77.9767 42.4973 77.8575C43.0932 77.8575 43.5699 77.9767 44.0466 78.215C44.6425 78.215 45.1192 78.4534 45.7151 78.6917C45.9534 78.6917 46.311 79.0493 46.4302 78.6917C46.1918 78.4534 46.0726 78.215 45.8343 78.0958C45.3576 77.7383 44.6425 77.6191 44.0466 77.3808C43.6891 77.3808 43.3316 77.3808 42.974 77.2616C42.6165 77.1424 42.1398 77.0232 41.7823 76.9041C41.4247 76.9041 41.1864 76.5466 40.948 76.6657V76.4274Z" fill="#FDFCFC"/>
    <path d="M43.5637 80.3616C43.5637 80.3616 43.2062 80.2424 43.087 80.3616C42.8486 80.7192 42.8486 80.9575 42.9678 81.315C43.2062 81.6726 43.6829 81.5534 44.0404 81.7918C44.2788 81.7918 44.6363 81.7917 44.8746 82.0301C45.7089 82.1493 46.4239 82.626 47.139 82.7452C47.8541 82.8643 48.4499 83.5794 49.2842 83.4602C49.2842 83.4602 49.2842 83.341 49.2842 83.2219C49.2842 82.8643 48.9266 82.626 48.6883 82.3876C47.8541 81.6726 46.9006 81.4342 45.8281 81.1959C45.3513 81.1959 44.9938 80.9575 44.6363 80.8383C44.2788 80.6 43.802 80.8383 43.5637 80.3616Z" fill="#FBFAFA"/>
    <path d="M6.3827 69.3973C6.3827 69.3973 5.78681 69.3973 5.78681 69.6357C5.78681 69.8741 6.02517 70.1124 6.26352 70.3508C7.09776 70.8275 8.05118 71.0658 9.00459 71.3042C9.36212 71.3042 9.71965 71.5425 9.95801 71.3042C9.95801 71.3042 9.95801 71.185 9.95801 71.0658C9.71965 70.8275 9.4813 70.7083 9.24294 70.4699C8.76623 70.1124 8.28953 69.9932 7.69364 69.8741C7.21693 69.7549 6.85941 69.6357 6.3827 69.5165V69.3973Z" fill="#E5E3E3"/>
    <path d="M6.62119 70.8277C6.62119 70.8277 6.97872 71.3044 7.21708 71.662C8.05132 72.0195 8.88556 72.6154 9.83897 72.9729C10.1965 73.0921 10.554 73.3304 10.9116 73.0921C11.0307 72.377 10.3157 72.4962 9.95815 72.1387C9.12391 71.662 8.28967 71.1853 7.33626 70.8277C7.0979 70.8277 6.85954 70.5894 6.62119 70.8277Z" fill="#F7F6F6"/>
    <path d="M6.62181 70.8263C7.93276 70.8263 8.88618 71.7797 9.95877 72.2564C9.95877 72.2564 9.95876 72.2564 10.0779 72.2564C10.3163 72.2564 10.5547 72.2564 10.6738 72.018C10.6738 71.5413 10.6738 71.1838 9.95877 71.0646C9.72042 71.4222 9.60124 71.4222 9.12453 71.303C8.17111 71.0646 7.2177 70.5879 6.14511 70.4688C6.26428 70.5879 6.38347 70.7071 6.50265 70.8263H6.62181Z" fill="#8D8889"/>
    <path d="M22.3542 63.6763C23.7843 63.3188 25.0953 63.0805 26.5254 62.4846V62.2462C25.8103 62.2462 25.2144 62.6038 24.6186 62.7229C23.7843 62.9613 23.0693 63.1996 22.235 63.3188C22.235 63.5572 22.1158 63.6763 22.4734 63.6763H22.3542Z" fill="#787474"/>
    <path d="M10.913 72.972C9.9596 72.972 9.12536 72.3762 8.17195 71.8994C7.81442 71.7803 7.57606 71.5419 7.21853 71.5419C7.21853 71.6611 7.21854 71.8994 7.45689 71.8994C8.17195 71.8994 8.64866 72.4954 9.24454 72.7337C9.84042 72.9721 10.3171 73.3296 11.0322 73.3296C11.0322 73.3296 11.1514 73.2104 11.1514 73.0912C11.1514 73.0912 11.1514 72.8529 11.0322 72.8529L10.913 72.972Z" fill="#989596"/>
    <path d="M43.3269 83.34C44.3995 83.6976 45.5912 83.9359 46.6638 84.5318C46.9022 84.5318 47.2597 84.4126 47.498 84.2935C46.1871 83.8168 44.8762 83.4592 43.5652 83.1017C43.3269 83.1017 43.3269 83.1017 43.3269 83.34Z" fill="#5D5A5A"/>
    <path d="M22.3525 63.6768C22.3525 63.6768 22.1142 63.4384 22.1142 63.3192C21.995 63.3192 21.995 63.3192 21.8758 63.4384C21.6375 63.5576 21.2799 63.4384 21.0416 63.6768C20.8032 63.6768 20.4457 63.6768 20.3265 63.9151C19.6115 63.7959 18.7772 63.9151 18.1813 64.2726C19.6115 64.2726 21.0416 64.1535 22.3525 63.5576V63.6768Z" fill="#979394"/>
    <path d="M45.711 81.3129C46.7836 81.4321 47.6178 82.1471 48.6904 82.2663C48.6904 81.9088 48.5713 81.5513 48.0945 81.3129C48.0945 81.3129 47.1411 81.0745 46.5452 80.9554C46.1877 80.9554 45.9494 80.717 45.711 80.9554C45.711 80.9554 45.711 80.9554 45.711 81.0745V81.3129Z" fill="#4F4B4B"/>
    <path d="M45.1188 79.7645C45.8338 80.0028 46.5489 80.4795 47.2639 80.5987C47.2639 80.4795 47.6215 80.2412 47.2639 80.0028C46.5489 80.0028 45.8338 79.5261 45.1188 79.5261C45.1188 79.5261 45.1188 79.5261 45.1188 79.6453V79.7645Z" fill="#4B4747"/>
    <path d="M49.2842 83.3397C48.5691 83.1014 47.9732 82.5055 47.139 82.5055C46.9006 82.5055 46.9006 82.5055 46.9006 82.6247C47.3774 82.863 47.8541 83.1014 48.2116 83.2205C48.3308 83.5781 48.8075 83.5781 48.9266 83.8164C48.9266 83.8164 49.0458 83.8164 49.165 83.6973C49.165 83.5781 49.2842 83.4589 49.165 83.2205L49.2842 83.3397Z" fill="#454141"/>
    <path d="M44.1616 77.5003C44.1616 77.5003 45.2342 78.0962 45.9492 77.977C45.9492 77.7387 45.9492 77.3812 45.5917 77.262C44.9958 77.6195 44.6383 77.0236 44.1616 77.0236H43.9232C43.9232 77.262 43.9232 77.262 44.1616 77.3812V77.5003Z" fill="#433E3D"/>
    <path d="M40.471 72.3756L42.6162 72.9715C42.6162 72.9715 42.6162 72.4948 42.2587 72.3756C41.9011 72.3756 41.5436 72.2564 41.0669 72.1372C40.8286 72.1372 40.5902 71.8989 40.471 72.3756Z" fill="#3E3B3A"/>
    <path d="M46.0685 83.34C46.7836 83.6976 47.4987 83.6976 48.2137 84.1743C48.3329 84.1743 48.4521 84.0551 48.6904 83.9359C48.6904 83.5784 48.4521 83.6976 48.3329 83.5784C47.737 83.5784 47.1411 83.1017 46.4261 83.1017C46.1877 83.1017 46.1877 83.1017 46.1877 83.34H46.0685Z" fill="#2B2828"/>
    <path d="M9.36227 69.6357C9.36227 69.6357 8.40885 69.3973 8.17049 69.0398C7.93214 69.0398 7.57462 69.0398 7.45544 69.2782C7.57462 69.6357 8.05132 69.6357 8.28967 69.9932C8.6472 70.3507 9.12391 69.9932 9.48145 69.9932C9.48145 69.9932 9.48145 69.874 9.48145 69.7549L9.36227 69.6357Z" fill="#918F90"/>
    <path d="M45.1182 84.7711C44.4031 84.4136 43.5689 84.056 42.7346 83.9368C42.7346 83.9368 42.7346 83.9368 42.7346 84.056C43.5689 84.2944 44.2839 84.6519 45.1182 84.8902C45.1182 84.8902 45.1182 84.7711 45.1182 84.6519V84.7711Z" fill="#656263"/>
    <path d="M43.9256 74.879C43.3297 74.7598 42.6147 74.6407 42.0188 74.5215C41.7804 74.5215 41.7804 74.5215 41.7804 74.7598C42.4955 74.9982 43.0914 75.1174 43.8064 75.3557C43.8064 75.2365 44.2832 75.3557 43.9256 74.9982V74.879Z" fill="#585454"/>
    <path d="M43.3318 76.0709C43.3318 76.0709 44.2852 76.4284 44.7619 76.5476C45.0002 76.4284 45.2386 76.19 44.7619 75.9517C44.166 76.3092 43.8085 75.5942 43.3318 75.7133C43.3318 75.7133 43.3318 75.7133 43.3318 75.8325V76.0709Z" fill="#3C3939"/>
    <path d="M38.3251 66.656C38.3251 66.656 37.3717 66.4177 36.895 66.7752C37.4908 67.0135 38.0867 67.1327 38.6826 67.2519C38.6826 67.0135 38.6826 66.7752 38.3251 66.656Z" fill="#A29E9F"/>
    <path d="M9.12254 74.2828C9.12254 74.2828 10.0759 74.6403 10.5527 74.8786C10.5527 74.8786 10.6718 74.8787 10.791 74.7595C10.1951 74.402 9.59925 74.1636 8.88419 73.9252C8.88419 74.0444 9.12254 74.1636 9.24172 74.2828H9.12254Z" fill="#C2BEBF"/>
    <path d="M10.197 66.8922C10.197 66.8922 9.60116 67.3689 9.24363 67.7264C9.83951 67.6073 10.3162 67.4881 10.9121 67.2497C10.9121 66.6538 10.3162 67.2497 10.197 66.8922Z" fill="#FCFBFB"/>
    <path d="M10.1968 66.8948C10.1968 66.8948 10.7927 66.8948 10.9119 67.2523C11.1502 67.2523 11.2694 67.1331 11.5077 67.1331C11.5077 67.0139 11.6269 66.7756 11.7461 66.5372C11.1502 66.6564 10.6735 66.7756 10.1968 66.8948Z" fill="#CFCDCC"/>
    <path d="M9.00247 68.8011C9.00247 68.8011 10.0751 69.2778 10.5518 69.3969C10.5518 69.3969 10.5518 69.3969 10.5518 69.2778C10.1942 69.0394 9.71753 68.9202 9.36 68.6819C9.24082 68.6819 9.00247 68.6819 9.00247 68.6819V68.8011Z" fill="#B3AFB1"/>
    <path d="M46.4248 78.691C46.4248 78.691 45.9481 78.5718 45.7097 78.691C45.4714 78.691 45.233 78.5718 45.233 78.9293C45.7097 79.0485 46.1864 79.1677 46.5439 79.2868C46.5439 79.0485 46.5439 78.8101 46.3056 78.691H46.4248Z" fill="#292525"/>
    <path d="M41.5435 84.6524C41.5435 84.6524 42.3778 85.0099 42.8545 85.0099C42.8545 85.0099 42.8545 85.0099 42.8545 84.8908C42.497 84.5332 42.1394 84.5332 41.6627 84.4141C41.4244 84.4141 41.4244 84.4141 41.4244 84.6524H41.5435Z" fill="#605D5E"/>
    <path d="M36.0605 63.3193C36.0605 63.3193 35.1071 63.2001 34.7496 63.0809C34.7496 63.0809 34.7496 63.0809 34.7496 63.2001C35.2263 63.2001 35.5838 63.6768 36.1797 63.4385C36.1797 63.4385 36.1797 63.3193 36.1797 63.2001L36.0605 63.3193Z" fill="#7B7979"/>
    <path d="M38.0826 67.8463C38.0826 67.8463 38.7977 68.2038 39.2744 68.2038C39.2744 67.9654 39.2744 67.8463 38.9169 67.8463C38.6785 67.7271 38.321 67.6079 38.0826 67.7271C38.0826 67.7271 38.0826 67.7271 38.0826 67.8463Z" fill="#484545"/>
    <path d="M39.0368 68.801C39.0368 68.801 39.6327 69.1585 39.9902 69.1585C39.8711 68.9201 39.7519 68.801 39.6327 68.5626C39.3944 68.5626 39.2752 68.5626 39.0368 68.5626C39.0368 68.5626 39.0368 68.5626 39.0368 68.6818V68.801Z" fill="#403B3B"/>
    <path d="M40.2312 71.1826C40.2312 71.1826 40.827 71.5401 41.1846 71.4209C41.1846 71.4209 41.1846 71.1826 41.1846 71.0634C41.0654 71.0634 40.827 71.0634 40.7079 71.0634C40.4695 71.0634 40.2312 70.9442 40.2312 71.3017V71.1826Z" fill="#484343"/>
    <path d="M39.3932 69.9905C39.3932 69.9905 40.1083 70.348 40.585 70.2289L40.3466 69.8714C40.3466 69.8714 39.6315 69.633 39.3932 69.633C39.3932 69.633 39.3932 69.8713 39.3932 69.9905Z" fill="#474343"/>
    <path d="M36.6572 64.1513C36.6572 64.1513 36.1804 64.1513 36.1804 64.2705C36.1804 64.628 36.6572 64.5088 36.8955 64.5088C36.8955 64.3897 36.8955 64.1513 36.6572 64.1513Z" fill="#4F4849"/>
    <path d="M48.2146 83.5788C48.2146 83.5788 48.453 83.8171 48.5722 83.9363C48.6913 83.9363 48.8105 83.9363 48.9297 83.9363C48.9297 83.4596 48.453 83.5787 48.2146 83.3404C48.2146 83.3404 48.2146 83.4596 48.2146 83.5788Z" fill="#ECE6E6"/>
    <path d="M39.3923 69.5158C39.3923 69.5158 39.9882 69.7541 40.3457 69.7541C40.3457 69.7541 40.3457 69.6349 40.3457 69.5158C39.9882 69.7541 39.7498 69.2774 39.3923 69.5158Z" fill="#737070"/>
    <path d="M20.3289 64.1515C20.3289 64.1515 20.8056 64.0323 21.0439 63.9131C21.0439 63.9131 21.0439 63.9131 21.0439 63.7939C20.8056 64.0323 20.2097 63.6747 20.3289 64.2706V64.1515Z" fill="#FEFAFB"/>
    <path d="M21.1648 63.6748C21.1648 63.6748 21.1648 63.794 21.1648 63.9132C21.4031 63.794 21.7607 63.9132 21.999 63.5557C21.7607 63.5557 21.4031 63.4365 21.1648 63.5557V63.6748Z" fill="#ECE5E5"/>
    <path d="M9.95579 70.9457C9.95579 70.9457 10.4325 71.5415 10.5517 71.8991C10.5517 72.1374 10.79 72.3758 11.0284 72.6141C11.1476 72.8525 11.3859 73.0908 11.6243 73.3292C11.7434 73.5675 11.8626 73.6867 12.101 73.9251C12.2201 74.0442 12.3393 74.2826 12.5777 74.4018C12.9352 74.6401 13.0544 75.1168 13.6503 74.8785C13.8886 74.521 14.0078 74.4018 14.4845 74.1634C20.9201 72.0182 27.3556 70.3498 33.672 68.0854C34.1487 67.9662 34.5062 67.7279 34.9829 67.6087C36.2939 67.0128 36.413 66.5361 35.698 65.4635C35.3405 64.8676 34.8637 64.3909 34.5062 63.7951C33.9103 63.1992 33.3144 63.08 32.4802 63.3183C26.0447 65.4635 19.4899 67.4895 12.9352 69.2772C12.3393 69.3964 11.7434 69.6347 11.1476 69.8731C10.79 70.1114 10.3133 69.7539 9.95579 69.8731C9.83661 69.9923 9.71744 70.2306 9.83661 70.469C9.83661 70.7073 10.075 70.8265 10.1941 70.9457H9.95579Z" fill="#020000"/>
    <path d="M37.7252 70.3486C37.2485 69.6336 36.7718 69.6336 35.9376 69.8719C33.6732 70.7062 31.2897 71.1829 29.0253 72.0171C27.476 72.613 27.3568 72.9705 28.0719 74.4006C28.6678 75.4732 29.3829 76.4266 30.3363 77.2609C30.5746 77.4992 30.9322 77.7376 31.2897 77.6184C33.1965 77.1417 35.2225 76.5458 37.1293 75.9499C37.9636 75.7116 38.6786 75.1157 39.1554 74.4006C39.3937 74.0431 39.2745 73.6856 39.1554 73.328C38.6786 72.3746 38.2019 71.5404 37.9636 70.587C37.9636 70.587 37.9636 70.4678 37.8444 70.3486H37.7252Z" fill="#020000"/>
    <path d="M42.9737 81.1943C42.9737 81.1943 43.3312 80.5984 43.0929 80.2409C42.497 78.9299 41.7819 77.619 40.8285 76.4272C40.471 76.0697 40.1134 76.0697 39.7559 76.308C37.8491 77.0231 36.0614 77.7381 34.1546 78.4532C33.5587 78.6916 32.7245 78.5724 32.367 79.5258C32.1286 80.0025 32.0094 80.4792 32.367 80.8367C33.082 81.671 33.6779 82.6244 34.393 83.4586C34.8697 84.0545 35.4656 84.2929 36.419 84.0545C37.9683 83.5778 39.5176 82.9819 41.0669 82.6244C41.6627 82.5052 42.1395 82.0285 42.497 81.4326C42.497 81.4326 42.7353 81.4326 42.8545 81.1943H42.9737Z" fill="#020000"/>
    <path d="M17.4686 77.8591C17.4686 78.4549 17.5878 78.8125 17.8262 79.17C18.5412 80.1234 19.2563 81.0768 19.9714 81.9111C20.2097 82.1494 20.4481 82.1494 20.6864 82.1494C22.7124 81.6727 24.6192 80.8385 26.6453 80.0042C27.837 79.5275 27.9562 78.8125 27.2411 77.7399C26.6453 76.7865 26.0494 75.8331 25.3343 74.8796C24.9768 74.4029 24.6192 74.1646 24.0234 74.5221C22.1165 75.3564 20.3289 76.3098 18.3029 76.7865C17.9453 76.7865 17.5878 77.6207 17.4686 77.8591Z" fill="#020000"/>
    <path d="M25.2133 88.3467C27.0009 87.7508 29.1461 87.2741 31.0529 86.3207C31.8872 85.844 32.0064 85.1289 31.6488 84.1755C31.1721 83.1029 30.6954 82.1495 29.9804 81.1961C29.6228 80.6002 29.1461 80.481 28.4311 80.8386C26.5242 81.6728 24.4982 82.2687 22.4722 83.1029C21.638 83.4605 21.2804 83.9372 21.7572 84.7714C22.4722 85.9632 23.1873 87.2741 24.2599 88.1084C24.4982 88.3467 24.7366 88.4659 25.2133 88.3467Z" fill="#020000"/>
    <path d="M10.7953 74.76C10.7953 74.76 10.6761 74.76 10.5569 74.8792C12.5829 75.4751 14.1322 77.0244 16.0391 77.6203C14.2514 76.6668 12.7021 75.2367 10.6761 74.76H10.7953Z" fill="#AFADAE"/>
    <path d="M13.5341 74.7578C13.5341 74.7578 12.9382 74.2811 12.4615 74.1619C12.104 73.9236 11.6272 73.8044 11.2697 73.5661C11.2697 73.5661 11.0314 73.4469 10.9122 73.4469C10.3163 73.2085 9.72041 72.9702 9.12452 72.851C10.5546 73.9236 12.1039 74.6387 13.6532 75.3537C13.6532 75.3537 13.8916 75.3537 13.8916 75.1154C13.7724 74.9962 13.6532 74.877 13.5341 74.7578Z" fill="#B7B2B3"/>
    <path d="M16.2784 83.3404C16.9935 83.6979 17.7085 84.0554 18.5427 84.2938C18.7811 84.2938 19.1386 84.5321 19.2578 84.2938C19.2578 83.9363 19.0195 83.9362 18.7811 83.8171C18.066 83.3404 17.351 83.3404 16.5167 83.2212C16.2784 83.2212 16.2784 83.2212 16.2784 83.3404Z" fill="#7C7879"/>
    <path d="M14.4874 79.1681C15.4408 79.6448 16.3942 80.0024 17.3477 80.4791V80.2407C16.6326 79.2873 15.3217 79.5257 14.3682 79.049C14.3682 79.049 14.3682 79.049 14.3682 79.1681H14.4874Z" fill="#939191"/>
    <path d="M14.1299 78.2164C15.2025 78.5739 16.2751 79.0507 17.3477 79.4082V79.1698C16.5134 78.5739 15.3217 78.4548 14.3682 78.0972C14.1299 78.0972 14.1299 78.0972 14.1299 78.2164Z" fill="#918E8F"/>
    <path d="M15.678 80.9553C16.3931 81.1937 16.989 81.7896 17.9424 81.6704C17.3465 81.1937 16.8698 80.4786 15.9164 80.717C15.678 80.717 15.678 80.7169 15.678 80.8361V80.9553Z" fill="#807D7D"/>
    <path d="M17.5862 85.1269C18.1821 85.4844 18.778 86.0803 19.8506 85.842C19.0163 85.3653 18.4205 85.0077 17.5862 84.8885V85.1269Z" fill="#6D6A6A"/>
    <path d="M15.6786 80.9562H15.917C15.2019 80.2412 14.3677 80.122 13.6526 79.7645C14.2485 80.3603 14.9636 80.5987 15.7978 80.9562H15.6786Z" fill="#A19E9F"/>
    <path d="M46.9052 82.7432C46.9052 82.7432 47.0244 82.7432 47.1436 82.624C46.4285 82.2665 45.7134 81.909 44.8792 81.7898C44.6408 81.7898 44.6408 81.7898 44.6408 82.0281C45.4751 82.2665 46.1901 82.5048 47.0244 82.8624L46.9052 82.7432Z" fill="#585454"/>
    <path d="M13.8922 75.1179C13.8922 75.1179 13.773 75.2371 13.6539 75.3563C13.8922 75.9522 14.3689 76.0713 15.084 75.9522C14.8456 75.3563 14.3689 75.3563 13.8922 75.2371V75.1179Z" fill="#A3A2A2"/>
    <path d="M16.2783 81.911C16.2783 81.911 15.0866 81.3151 14.3715 81.0768C14.8482 81.5535 15.4441 81.7918 16.04 82.0302C16.04 82.0302 16.1591 82.0302 16.2783 81.911Z" fill="#AFAEAE"/>
    <path d="M14.4863 79.1697C14.4863 79.1697 14.4863 79.0505 14.4863 78.9313C13.8904 78.6929 13.4137 78.4546 12.8178 78.2162C13.1754 78.8121 13.7713 79.0505 14.4863 79.1697Z" fill="#ABABAC"/>
    <path d="M18.6597 86.6776C18.6597 86.6776 19.494 87.1543 20.0898 87.1543C19.7323 86.5584 19.2556 86.5584 18.8981 86.5584C18.6597 86.5584 18.6597 86.5584 18.6597 86.7967V86.6776Z" fill="#5D5A5A"/>
    <path d="M46.0673 83.3397C46.0673 83.3397 46.1865 83.2205 46.3057 83.1014C45.829 82.7438 45.2331 82.6247 44.6372 82.5055C44.3988 82.5055 44.3988 82.5055 44.3988 82.6247C44.8755 82.863 45.4714 82.9822 45.9481 83.2205L46.0673 83.3397Z" fill="#575253"/>
    <path d="M19.0143 87.3934L19.1335 87.6317C19.4911 87.6317 19.4911 88.3468 19.9678 88.2276V87.9892C19.7294 87.6317 19.3719 87.5125 18.776 87.3934H19.0143Z" fill="#787474"/>
    <path d="M14.1308 78.2158C14.1308 78.2158 14.25 78.2158 14.3691 78.0967C13.8924 77.7391 13.2965 77.62 12.8198 77.5008C12.8198 77.5008 12.8198 77.62 12.8198 77.7392C13.2965 77.9775 13.7733 78.0967 14.25 78.335L14.1308 78.2158Z" fill="#A09E9F"/>
    <path d="M44.1631 77.499C44.1631 77.499 43.9247 77.1415 44.1631 77.0223C43.8056 76.5456 43.448 77.1415 43.2097 77.0223C42.9713 77.0223 42.9713 77.0223 42.9713 77.2606C43.3288 77.2606 43.6864 77.6182 44.1631 77.499Z" fill="#524E4E"/>
    <path d="M43.3252 76.0713C43.3252 76.0713 43.3252 75.9522 43.3252 75.833C42.9677 75.4755 42.491 75.4755 42.0142 75.4755C41.7759 75.4755 41.7759 75.4755 41.7759 75.7138C42.2526 75.833 42.8485 75.9522 43.3252 76.1905V76.0713Z" fill="#747373"/>
    <path d="M37.7251 70.3499C37.7251 70.3499 37.7251 70.4691 37.8443 70.5882C38.2018 70.5882 38.5594 70.5882 38.7977 70.7074C38.9169 70.5882 39.1552 70.5882 39.2744 70.3499C38.7977 69.9923 38.2018 70.5882 37.7251 70.3499Z" fill="#9D9A9A"/>
    <path d="M41.54 84.6519C41.54 84.6519 41.6591 84.5327 41.7783 84.4135C41.4208 84.1752 40.9441 84.056 40.3482 83.9368C40.7057 84.4135 41.1824 84.4135 41.54 84.5327V84.6519Z" fill="#7F7C7D"/>
    <path d="M17.2281 82.6246C17.2281 82.6246 17.824 83.1013 18.4199 82.8629C17.9432 82.5054 17.7049 82.3862 17.2281 82.3862C17.2281 82.3862 17.109 82.5054 17.2281 82.6246Z" fill="#5F5C5C"/>
    <path d="M41.0631 85.486C41.0631 85.486 41.7782 85.8436 42.2549 85.7244C42.2549 85.3668 41.8974 85.3668 41.659 85.3668C41.4206 85.3668 41.1823 85.1285 41.0631 85.6052V85.486Z" fill="#3C3A3A"/>
    <path d="M41.7773 74.6403L42.0156 74.4019C42.0156 74.4019 41.0622 74.4019 40.7047 74.1636C41.0622 74.4019 41.4197 74.6403 41.8965 74.5211L41.7773 74.6403Z" fill="#838081"/>
    <path d="M39.2761 70.3493C39.2761 70.3493 39.0377 70.5877 38.7994 70.7068C39.0377 70.7068 39.1569 70.7068 39.3953 70.826C39.6336 70.5877 39.9911 70.9452 40.2295 70.7068C39.9911 70.4685 39.6336 70.3493 39.2761 70.3493Z" fill="#817E7F"/>
    <path d="M42.9706 77.262C42.9706 77.262 43.0898 77.1428 43.209 77.0236C42.8515 76.7852 42.4939 76.6661 42.0172 76.6661C41.7789 76.6661 41.7789 76.6661 41.7789 76.9044C42.1364 77.0236 42.6131 77.1428 42.9706 77.262Z" fill="#757172"/>
    <path d="M43.3261 83.3401L43.5645 83.1017C43.5645 83.1017 42.7302 82.7442 42.1343 82.7442C42.4919 83.2209 42.9686 83.1017 43.3261 83.2209V83.3401Z" fill="#838081"/>
    <path d="M42.7314 84.1747C42.7314 84.1747 42.7314 84.0556 42.7314 83.9364C42.3739 83.698 42.1356 83.5789 41.5397 83.5789C41.8972 84.0556 42.2547 84.0556 42.7314 84.0556V84.1747Z" fill="#8A8888"/>
    <path d="M40.4666 72.3766C40.4666 72.3766 40.8241 72.2574 41.0625 72.1383C40.705 71.7807 40.2283 72.1383 39.6324 71.8999C39.8707 72.2574 40.1091 72.3766 40.3474 72.3766H40.4666Z" fill="#6C6A6A"/>
    <path d="M40.2303 70.8266C40.2303 70.8266 39.6344 70.469 39.3961 70.9458C39.6344 70.9458 39.8728 71.0649 40.2303 71.1841C40.3495 71.1841 40.4687 71.0649 40.707 70.9458C40.5879 70.9458 40.4687 70.9458 40.2303 70.8266Z" fill="#676262"/>
    <path d="M12.6992 77.6194C12.6992 77.6194 12.6992 77.5003 12.6992 77.3811C12.4609 77.2619 12.1033 77.1427 11.865 76.9044C11.865 77.3811 12.3417 77.3811 12.6992 77.6194Z" fill="#B4B2B4"/>
    <path d="M39.3975 69.9937C39.3975 69.9937 39.3975 69.7553 39.3975 69.6361C39.0399 69.6361 38.6824 69.6361 38.3249 69.517C38.0865 69.517 38.0865 69.517 38.0865 69.6361L39.3975 69.9937Z" fill="#737070"/>
    <path d="M41.0662 85.4845C41.0662 85.4845 41.4238 85.3653 41.6621 85.2462C41.3046 84.8886 40.8279 85.2462 40.4703 85.0078C40.232 85.0078 40.232 85.0078 40.232 85.2462C40.4703 85.2462 40.7087 85.3654 41.0662 85.4845Z" fill="#716E6E"/>
    <path d="M16.2724 83.3401C16.2724 83.3401 16.3916 83.3401 16.5107 83.2209C16.1532 82.9825 15.7957 82.7442 15.319 82.7442C15.6765 83.2209 16.034 83.2209 16.3916 83.4593L16.2724 83.3401Z" fill="#928F8F"/>
    <path d="M44.041 82.3859C44.041 82.3859 43.326 82.1475 42.8492 82.0283C43.0876 82.505 43.5643 82.3859 43.8027 82.6242C43.8027 82.6242 44.041 82.6242 44.041 82.3859Z" fill="#888687"/>
    <path d="M42.9684 81.196C42.9684 81.196 42.6109 81.1961 42.6109 81.4344C42.9684 81.5536 43.4451 81.6728 43.8027 81.7919C43.8027 81.7919 44.041 81.7919 44.041 81.5536C43.6835 81.5536 43.326 81.3152 42.9684 81.196Z" fill="#928C8E"/>
    <path d="M17.2266 82.6241C17.2266 82.6241 17.2266 82.505 17.2266 82.3858C16.869 82.2666 16.6307 82.1474 16.2731 81.9091C16.2731 81.9091 16.154 81.9091 16.0348 82.0282C16.3923 82.1474 16.7499 82.3858 17.1074 82.505L17.2266 82.6241Z" fill="#8D898A"/>
    <path d="M38.083 67.8461C38.083 67.8461 38.083 67.7269 38.083 67.6077C37.8447 67.3694 37.6063 67.4886 37.3679 67.3694C37.1296 67.3694 37.1296 67.3694 37.1296 67.6077C37.4871 67.6077 37.7255 67.9653 38.083 67.8461Z" fill="#908B8D"/>
    <path d="M41.7773 75.7139C41.7773 75.7139 41.8964 75.5947 42.0156 75.4755C41.7773 75.118 41.4197 75.4755 41.0622 75.2372C41.3006 75.5947 41.5389 75.5947 41.7773 75.5947V75.7139Z" fill="#A4A3A3"/>
    <path d="M41.7773 76.7853C41.7773 76.7853 41.8964 76.6661 42.0156 76.5469C41.6581 76.4278 41.4197 76.0702 40.943 76.4278C41.1814 76.4278 41.4197 76.6661 41.7773 76.7853Z" fill="#8A8687"/>
    <path d="M44.0456 82.3862C44.0456 82.3862 43.9265 82.5054 43.8073 82.6246C44.0456 82.6246 44.284 82.7437 44.6415 82.8629C44.6415 82.8629 44.7607 82.8629 44.8799 82.7438C44.6415 82.5054 44.4032 82.5054 44.1648 82.5054L44.0456 82.3862Z" fill="#7A7577"/>
    <path d="M18.6581 86.6773C18.6581 86.6773 18.7773 86.5581 18.8965 86.439C18.6581 86.3198 18.3006 86.2006 17.9431 86.0814C18.0622 86.439 18.4198 86.439 18.6581 86.5581V86.6773Z" fill="#A29E9F"/>
    <path d="M39.0371 68.8008C39.0371 68.8008 39.0371 68.6816 39.0371 68.5625C38.7988 68.3241 38.5604 68.4433 38.322 68.3241C38.0837 68.3241 38.0837 68.3241 38.0837 68.5625C38.4412 68.5625 38.6796 68.6816 39.0371 68.8008Z" fill="#767474"/>
    <path d="M37.1288 67.6093C37.1288 67.6093 37.248 67.4901 37.3672 67.371C37.1288 67.1326 36.7713 67.1326 36.7713 67.371C36.7713 67.6093 37.0097 67.6093 37.248 67.6093H37.1288Z" fill="#A5A2A4"/>
    <path d="M34.7451 63.317C34.7451 63.317 34.7451 63.1978 34.7451 63.0787C34.5067 62.8403 34.2684 62.9595 34.03 63.0787C34.2684 63.1978 34.3876 63.317 34.6259 63.4362H34.8643L34.7451 63.317Z" fill="#9D9A9B"/>
    <path d="M44.0456 81.5507C44.0456 81.5507 43.9265 81.6699 43.8073 81.7891C44.0456 81.7891 44.284 81.9082 44.6415 82.0274C44.6415 82.0274 44.7607 81.9083 44.8799 81.7891C44.6415 81.5507 44.4032 81.6699 44.0456 81.5507Z" fill="#6D6668"/>
    <path d="M40.2304 85.2459C40.2304 85.2459 40.3496 85.1267 40.4688 85.0075C40.2304 84.7691 39.992 84.7692 39.5153 84.7692C39.7537 85.1267 39.992 85.1267 40.2304 85.1267V85.2459Z" fill="#868585"/>
    <path d="M39.99 85.8426C39.99 85.8426 39.8709 85.6042 39.7517 85.6042C39.6325 85.6042 39.5133 85.6042 39.6325 85.8426C39.6325 85.8426 39.8709 85.9618 39.99 85.9618C39.99 85.9618 40.2284 85.9618 40.1092 85.7234L39.99 85.8426Z" fill="#716F6F"/>
    <path d="M38.0829 68.5604C38.0829 68.5604 38.2021 68.4413 38.3213 68.3221C38.0829 68.0837 37.7254 68.0837 37.2487 68.3221C37.6062 68.4413 37.8446 68.5604 38.0829 68.5604Z" fill="#949292"/>
    <path d="M17.5859 85.1267C17.5859 85.1267 17.5859 85.1267 17.5859 85.0076C17.4668 84.8884 17.2284 84.65 17.1092 85.0076C17.1092 85.0076 17.3476 85.3651 17.5859 85.2459V85.1267Z" fill="#888786"/>
    <path d="M38.0829 69.5142C38.0829 69.5142 38.2021 69.5142 38.3213 69.3951C38.0829 69.1567 37.8446 69.2759 37.6062 69.2759C37.6062 69.5142 37.9638 69.6334 38.0829 69.6334V69.5142Z" fill="#999898"/>
    <path d="M9.72034 69.9905C9.72034 69.9905 10.5546 69.9905 10.9121 69.8714C10.4354 69.8714 9.83952 69.633 9.36281 69.633C9.36281 69.633 9.36281 69.7522 9.36281 69.8714C9.36281 70.2289 9.48198 70.2289 9.72034 70.1097V69.9905Z" fill="#4D4847"/>
    <path d="M11.5059 68.5626C11.5059 68.5626 10.91 68.5626 10.6716 68.5626C11.0291 68.801 11.2675 68.9202 11.5059 68.5626Z" fill="#9C9A9C"/>
    <path d="M10.5536 69.1591C10.5536 69.1591 10.5536 69.2782 10.5536 69.3974C10.6727 69.3974 10.9111 69.6358 11.0303 69.5166V69.3974C11.0303 69.1591 10.6727 69.3974 10.4344 69.2782L10.5536 69.1591Z" fill="#868484"/>
    <path d="M45.7102 81.1955C46.3061 80.838 46.6637 81.553 47.1404 81.553C47.3787 81.553 47.8554 82.0297 47.9746 81.4339C47.2595 81.1955 46.5445 80.9572 45.8294 80.7188C45.4719 80.7188 45.3527 80.7188 45.5911 81.0763C45.5911 81.0763 45.5911 81.0763 45.5911 81.1955H45.7102Z" fill="#747171"/>
    <path d="M45.3573 78.8124C45.3573 78.8124 45.5956 78.6933 45.834 78.5741C45.3573 78.3357 44.8806 77.9782 44.2847 78.2165C44.0463 78.2165 44.0463 78.2165 44.0463 78.4549L45.3573 78.8124Z" fill="#4F4C4C"/>
    <path d="M43.9247 78.4541C43.9247 78.4541 44.0439 78.335 44.1631 78.2158C43.6864 77.9774 43.0905 77.7391 42.4946 77.8582C42.9713 78.2158 43.5672 78.2158 44.0439 78.335L43.9247 78.4541Z" fill="#7A7777"/>
    <path d="M45.1182 79.7641C45.1182 79.7641 45.1182 79.6449 45.1182 79.5258C44.7606 79.2874 44.4031 79.1682 43.9264 79.1682C43.688 79.1682 43.688 79.1682 43.688 79.2874C44.1648 79.4066 44.6415 79.5258 44.999 79.6449L45.1182 79.7641Z" fill="#696767"/>
    <path d="M43.5651 80.3608C43.5651 80.9567 44.2801 80.7184 44.5185 80.9567C44.5185 80.9567 44.6377 80.9567 44.7568 80.8375C44.3993 80.5992 43.9226 80.48 43.5651 80.3608Z" fill="#82807F"/>
    <path d="M44.7575 80.8381C44.7575 80.8381 44.6383 80.8381 44.5192 80.9573C44.8767 81.0764 45.3534 81.1956 45.7109 81.3148C45.7109 81.3148 45.7109 81.3148 45.7109 81.1956C45.7109 81.1956 45.7109 81.0764 45.7109 80.9573C45.3534 80.9573 45.1151 80.9573 44.7575 80.8381Z" fill="#666364"/>
    <path d="M43.8027 79.4078C43.8027 79.4078 43.9218 79.4078 44.041 79.2887C43.8027 78.9311 43.4451 79.2887 43.0876 79.2887C43.326 79.2887 43.5643 79.4078 43.9218 79.527L43.8027 79.4078Z" fill="#848283"/>
    <path d="M9.72164 69.9906C9.72164 69.9906 9.48329 69.8714 9.36411 69.7523C9.00658 69.7523 8.64905 69.7523 8.4107 69.7523C8.17235 69.7523 8.05317 69.7523 7.81481 69.7523C7.81481 69.7523 7.81481 69.7523 7.69563 69.8714C8.17234 70.1098 8.76823 70.3481 9.24493 70.4673C9.48329 70.4673 9.60247 70.5865 9.84082 70.4673C9.84082 70.229 9.84082 70.1098 9.84082 69.8714L9.72164 69.9906Z" fill="#777273"/>
    <path d="M9.71965 70.588C9.71965 70.588 9.36212 70.588 9.12376 70.588C9.36212 70.8264 9.60048 70.9455 9.95801 70.9455C9.95801 70.8264 9.83883 70.7072 9.71965 70.588Z" fill="#F9F4F3"/>
    <path d="M11.6279 73.2109C11.6279 73.2109 11.3896 72.7342 11.1512 72.615C10.7937 72.2575 10.4362 72.0191 9.95946 72.2574C10.0786 72.7341 10.6745 72.7341 10.9129 72.9725C10.9129 72.9725 10.9129 73.0917 10.9129 73.2109C11.1512 73.33 11.3896 73.6876 11.6279 73.2109Z" fill="#9E9A9A"/>
    <path d="M9.95961 72.1387L11.1514 72.4962C11.1514 72.4962 10.913 72.0195 10.5555 71.9003C10.4363 72.0195 9.95961 71.662 9.95961 72.1387Z" fill="#E6E3E3"/>
    <path d="M11.6288 73.2096C11.6288 73.2096 11.1521 73.2096 10.9137 73.2096C10.9137 73.2096 10.9137 73.3288 10.9137 73.448C10.9137 73.448 11.0329 73.5671 11.1521 73.6863C11.5096 73.8055 11.7479 74.163 12.1055 73.9246C11.9863 73.6863 11.9863 73.3288 11.6288 73.3288V73.2096Z" fill="#837D7D"/>
    <path d="M12.1024 73.6864C12.1024 73.6864 11.3874 73.5672 11.149 73.4481C11.5065 73.9248 11.9833 74.0439 12.46 74.0439C12.3408 73.9248 12.2216 73.8056 12.1024 73.6864Z" fill="#E8E4E4"/>
    <path d="M13.7704 72.0192C13.7704 72.0192 13.6512 72.1383 13.5321 72.2575C13.5321 72.3767 13.5321 72.4959 13.7704 72.4959C13.8896 72.4959 14.0088 72.4959 14.0088 72.2575C14.0088 72.1383 14.0088 72.0192 13.7704 72.0192Z" fill="#1B1414"/>
    <path d="M33.5562 71.6614C32.3644 71.6614 31.1727 72.3764 29.9809 72.6148C29.6234 72.6148 29.7425 72.8531 29.9809 73.0915C30.2192 73.3298 30.3384 73.5682 30.5768 73.8066C31.1727 74.2833 31.8877 74.4024 32.4836 74.6408C33.1987 74.76 33.9137 75.1175 34.6288 74.9983C34.9863 74.9983 35.2247 74.76 35.5822 74.76C35.1055 74.1641 34.2713 74.2833 33.6754 74.0449C33.3179 74.0449 32.9603 74.0449 32.6028 73.9257C32.1261 73.8065 31.6494 73.6874 31.1727 73.5682C31.6494 73.8066 32.2453 73.8065 32.8411 74.0449C34.0329 74.0449 35.2247 74.76 36.4164 74.5216C36.774 74.5216 37.0123 74.4024 37.3699 74.2833C37.6082 73.9257 37.3699 73.8066 37.1315 73.8066C36.6548 73.8066 36.1781 73.5682 35.7014 73.3298C35.5822 73.3298 35.3439 73.3298 35.2247 73.3298C35.463 73.3298 35.7014 73.3298 36.0589 73.449C36.774 73.449 37.489 74.1641 38.2041 73.6874C38.0849 73.3299 37.8466 73.0915 37.489 73.0915C37.1315 72.734 36.6548 72.6148 36.1781 72.4956C35.8206 72.4956 35.3439 72.2572 34.9863 72.1381C34.5096 72.1381 34.1521 71.8997 33.6754 71.7806L33.5562 71.6614Z" fill="#FDFDFD"/>
    <path d="M36.8928 71.5432C37.2503 70.5897 36.2969 70.5897 35.9394 70.8281C35.3435 71.1856 34.7476 71.0664 34.2709 71.3048C34.6284 71.7815 35.2243 71.7815 35.701 71.9007C35.9394 71.424 36.5353 71.9007 36.7736 71.5432H36.8928Z" fill="#625B5B"/>
    <path d="M35.936 71.7803C35.936 71.7803 34.8634 71.5419 34.3867 71.4227C34.1484 71.4227 34.0292 71.4227 33.7908 71.4227C33.7908 72.1378 34.6251 71.7803 34.9826 72.0186C35.4593 72.0186 35.8168 72.257 36.2935 72.3761C36.7703 72.3761 37.1278 72.8529 37.6045 72.4953C37.6045 72.1378 37.3661 72.1378 37.247 72.0186C36.8894 71.6611 36.5319 71.6611 36.0552 71.6611L35.936 71.7803Z" fill="#E4E2E1"/>
    <path d="M32.3631 73.9247C33.4357 74.163 34.5082 74.2822 35.4617 74.7589C35.7 74.6398 36.0575 74.7589 36.2959 74.4014C34.985 74.4014 33.9124 73.6863 32.6014 73.6863C32.3631 73.6863 32.3631 73.6863 32.3631 73.9247Z" fill="#686364"/>
    <path d="M30.9367 74.2819C30.9367 74.2819 31.0559 74.5203 31.1751 74.6395C31.6518 74.997 32.2477 75.2354 32.9627 75.2354C33.2011 75.2354 33.4395 74.997 33.4395 74.6395C33.0819 74.4011 32.6052 74.4011 32.2477 74.2819C31.8902 74.2819 31.4134 73.9244 31.0559 74.2819H30.9367Z" fill="#F4F3F3"/>
    <path d="M38.083 73.5675C37.2488 73.5675 36.5337 73.21 35.6995 73.21C35.4611 73.21 35.3419 73.0908 35.3419 73.3291C35.9378 73.5675 36.7721 73.4483 37.2488 74.1634C37.4871 74.0442 37.9638 74.1634 38.083 73.5675Z" fill="#858484"/>
    <path d="M32.1262 74.5211C32.1262 74.5211 32.8413 74.6403 33.1988 74.7595C33.4372 74.8787 33.4372 75.117 33.6755 75.2362C34.0331 75.2362 34.2714 74.9978 34.5098 74.8787C33.7947 74.6403 33.0796 74.2828 32.3646 74.2828C32.1262 74.2828 32.1262 74.2828 32.1262 74.402V74.5211Z" fill="#514D4C"/>
    <path d="M32.9599 75.1175C32.9599 75.1175 31.7681 74.8792 31.1722 74.76C31.2914 74.9984 31.4106 75.1175 31.5297 75.3559C31.8873 75.4751 32.364 75.3559 32.7215 75.7134C32.9599 75.5942 33.079 75.4751 33.3174 75.3559C33.3174 75.1175 33.079 75.3559 32.8407 75.1175H32.9599Z" fill="#504C4C"/>
    <path d="M32.124 74.5211H32.3623C31.7664 74.1636 31.0514 73.9252 30.4555 73.806C30.5746 74.0444 30.813 74.1636 30.9322 74.4019C31.4089 74.2827 31.7664 74.6403 32.124 74.5211Z" fill="#726C6D"/>
    <path d="M32.7217 75.7128C32.7217 75.7128 32.0066 75.2361 31.5299 75.3553C31.7683 76.0704 32.245 75.9512 32.7217 75.7128Z" fill="#F0EDED"/>
    <path d="M37.4883 72.6154C37.4883 72.6154 36.5349 72.4963 36.1773 72.3771C35.939 72.3771 35.939 72.3771 35.939 72.4963C36.4157 72.6154 36.8924 72.7346 37.2499 72.8538C37.2499 72.8538 37.3691 72.6154 37.4883 72.4963V72.6154Z" fill="#332F2E"/>
    <path d="M34.9863 71.8994C34.9863 71.8994 34.0329 71.8994 33.7946 71.4227C33.7946 71.4227 33.6754 71.5419 33.5562 71.6611C33.7946 72.257 34.3904 72.0186 34.748 72.1378C34.748 72.1378 34.9863 72.1378 34.9863 71.8994Z" fill="#7F7A7B"/>
    <path d="M35.9405 71.7792C35.9405 71.7792 36.7748 72.0175 37.1323 72.1367C37.1323 71.8984 37.2515 71.66 36.8939 71.5408C36.5364 71.7792 36.1789 71.1833 35.9405 71.66V71.7792Z" fill="#595655"/>
    <path d="M32.9597 75.1176C32.9597 75.1176 33.1981 75.2368 33.4364 75.3559C33.4364 75.3559 33.6748 75.3559 33.7939 75.3559C33.7939 74.9984 33.6748 74.8792 33.3172 74.8792C33.3172 75.1176 33.1981 75.1176 32.9597 75.2368V75.1176Z" fill="#766D6D"/>
    <path d="M37.8444 78.0972C36.891 78.3356 35.9376 78.5739 35.1034 79.0506C35.4609 79.5273 36.0568 79.4082 36.5335 79.6465C37.6061 79.8849 38.5595 80.1232 39.6321 80.4808C40.1088 80.7191 40.7047 80.7191 41.3006 80.5999C41.5389 80.5999 42.0156 80.3616 42.0156 80.2424C41.8964 79.7657 41.6581 79.1698 41.0622 78.9314C40.4663 78.4547 39.7513 78.3356 39.0362 78.0972C38.6787 77.978 38.3211 77.978 37.8444 77.978V78.0972Z" fill="#FDFDFD"/>
    <path d="M39.6315 81.1941C39.6315 81.1941 40.3466 81.075 40.585 80.8366C39.274 80.2407 37.8439 79.8832 36.4138 79.5257C35.9371 79.5257 35.3412 79.2873 34.8645 79.049C34.5069 79.049 34.3878 79.2873 34.0302 79.2873C34.6261 80.1215 35.222 80.8366 35.8179 81.5517C36.1754 82.1476 36.6521 82.2667 37.248 82.0284C37.7247 81.79 38.3206 81.6709 38.7973 81.5517C38.2014 80.7174 37.248 80.7174 36.4138 80.4791C36.0562 80.3599 35.6987 80.1215 34.9837 80.1215C35.6987 80.1215 36.0562 80.3599 36.5329 80.4791C37.248 80.4791 37.8439 80.8366 38.559 81.1941C38.9165 81.3133 39.274 81.1941 39.6315 81.1941Z" fill="#FCFCFC"/>
    <path d="M36.2983 79.6454C37.7284 80.0029 39.1586 80.4796 40.5887 80.8371C40.827 80.8371 41.0654 80.8372 41.1846 80.718C39.8736 80.3604 38.4435 80.0029 37.1326 79.6454C36.8942 79.6454 36.6558 79.6454 36.4175 79.6454C36.1791 79.6454 36.1791 79.6454 36.2983 79.7646V79.6454Z" fill="#686566"/>
    <path d="M36.2998 80.5993C37.134 80.9568 38.0874 81.076 38.8025 81.5527C39.0408 81.5527 39.3984 81.3143 39.6367 81.1951C38.5641 81.1951 37.6107 80.4801 36.5381 80.3609C36.2998 80.3609 36.2998 80.3609 36.2998 80.4801V80.5993Z" fill="#726E6F"/>
    <path d="M40.3496 78.3355C40.3496 78.3355 40.9454 78.3355 40.5879 78.0972C40.2304 77.6205 39.8728 77.0246 39.0386 77.5013C39.0386 77.5013 38.6811 77.5013 38.6811 77.7397C39.1578 78.0972 39.6345 78.3355 40.3496 78.3355Z" fill="#B8B2B2"/>
    <path d="M38.7991 78.4551C39.5142 78.5742 40.2293 79.0509 40.9443 79.0509C40.9443 78.6934 40.706 78.4551 40.3484 78.4551C39.8717 78.2167 39.5142 77.8592 39.0375 78.0975C38.9183 78.0975 38.7992 78.2167 38.9183 78.4551H38.7991Z" fill="#5A5857"/>
    <path d="M39.0348 78.2162C39.0348 78.2162 39.869 78.6929 40.3457 78.4546C40.3457 78.4546 40.3457 78.4546 40.3457 78.3354C39.869 77.9778 39.2731 77.8587 38.6772 77.7395C38.4389 77.7395 38.2005 77.7395 38.0813 77.8587C38.2005 78.3354 38.6772 78.097 38.9156 78.3354L39.0348 78.2162Z" fill="#645F5F"/>
    <path d="M36.2998 79.6449C36.2998 79.6449 36.2998 79.6449 36.4189 79.5258C36.0614 79.1682 35.4655 79.2874 34.9888 79.1682C34.9888 79.1682 34.8696 79.1682 34.7505 79.1682C35.108 79.5257 35.5847 79.6449 36.1806 79.6449H36.2998Z" fill="#8A8788"/>
    <path d="M39.0371 78.2162C39.0371 78.2162 38.4412 77.9779 38.2029 77.7395C38.0837 77.7395 37.8453 77.7395 37.8453 77.9778C38.0837 78.3354 38.5604 78.2162 38.7988 78.3354H39.0371V78.2162Z" fill="#807B7B"/>
    <path d="M21.8746 76.3081C21.1595 76.5465 20.4445 76.904 19.7294 77.0232C19.1335 77.2615 19.2527 77.4999 19.6102 77.8574C19.6102 77.8574 19.8486 77.9766 19.9678 78.0958C20.3253 78.0958 20.6828 78.0958 20.9212 78.2149C21.2787 78.2149 21.7554 78.2149 22.1129 78.4533C23.0664 78.4533 23.9006 78.93 24.854 78.8108C25.3307 78.6917 25.9266 78.5725 26.4033 78.3341C26.0458 77.9766 26.0458 77.2615 25.4499 77.1423C25.0924 76.6656 24.4965 76.6656 23.9006 76.5465C23.1855 76.3081 22.5897 76.1889 21.8746 76.3081Z" fill="#FDFDFD"/>
    <path d="M19.9684 77.8584C19.9684 77.8584 19.73 77.8584 19.6108 77.8584C19.8492 78.2159 20.0876 78.6926 20.3259 79.0502C20.8821 80.0036 21.6766 80.1625 22.7094 79.5269C22.7094 79.5269 22.2327 79.4077 21.9944 79.2885C22.4711 79.2885 22.8286 79.5269 23.3053 79.2885C23.6629 79.0502 24.0204 79.2885 24.3779 78.931C24.3779 78.4543 23.9012 78.5735 23.5437 78.4543C23.067 78.2159 22.4711 78.3351 21.8752 78.0968C21.5177 78.0968 21.041 78.0967 20.6834 77.8584C20.4451 77.8584 20.0876 77.8584 19.9684 77.6201V77.8584Z" fill="#FCFBFB"/>
    <path d="M21.7607 78.4542C22.595 78.6926 23.5484 78.5734 24.3826 79.1693C24.621 79.1693 24.7402 79.0501 24.9785 78.9309C24.1443 78.5734 23.1909 78.335 22.2375 78.335C21.9991 78.335 21.8799 78.0967 21.8799 78.4542H21.7607Z" fill="#7D7A7B"/>
    <path d="M23.0717 75.8303C23.0717 75.8303 22.595 75.9495 22.3566 76.0687C22.8333 76.6645 23.6676 76.4262 24.3826 76.7837C24.621 76.7837 24.9785 76.9029 24.9785 76.5454C24.9785 76.5454 23.7868 76.0687 23.1909 75.9495L23.0717 75.8303Z" fill="#EAE7E7"/>
    <path d="M24.2588 76.6655C24.2588 76.6655 22.8286 76.5463 22.3519 76.0696C22.1136 76.0696 22.1136 76.0696 21.9944 76.308C22.5903 76.6655 23.3053 76.6655 24.0204 76.9039C24.0204 76.9039 24.2588 76.9039 24.3779 76.7847L24.2588 76.6655Z" fill="#807B7C"/>
    <path d="M25.0938 76.0698C25.0938 76.0698 24.2595 75.1164 23.5444 75.7123C24.0212 76.3082 24.4979 76.3082 25.0938 76.0698Z" fill="#EEEAEA"/>
    <path d="M25.0938 76.0686C25.0938 76.0686 24.0212 76.0686 23.5444 75.7111C23.4253 75.7111 23.1869 75.7111 23.1869 75.8302C23.6636 76.3069 24.3787 76.3069 24.9746 76.4261C24.9746 76.3069 24.9746 76.1878 25.0938 76.0686Z" fill="#7E797A"/>
    <path d="M24.2575 76.6657C24.2575 76.6657 24.0191 76.6657 23.8999 76.7849C24.3766 76.9041 24.9725 77.0232 25.4492 77.1424C25.33 76.9041 25.4492 76.4274 24.8533 76.4274C24.8533 76.7849 24.4958 76.5466 24.2575 76.6657Z" fill="#686263"/>
    <path d="M23.3066 79.407C23.3066 79.407 22.234 79.0495 21.6382 79.2878C21.9957 79.5262 22.3532 79.6453 22.7108 79.6453C22.9491 79.6453 23.1875 79.6453 23.3066 79.407Z" fill="#979897"/>
    <path d="M29.7448 83.3396C29.7448 83.3396 29.7448 83.3396 29.6256 83.3396C29.2681 82.8629 28.6722 82.8629 28.1955 82.7438C27.7188 82.7438 27.3612 82.5054 26.8845 82.3862C25.6928 82.7438 24.501 83.1013 23.19 83.578C23.4284 83.9355 23.6667 84.1739 23.9051 84.4122C25.5736 84.8889 27.242 85.7232 29.0297 85.3657C29.6256 85.1273 30.2215 84.8889 30.9365 84.5314C30.579 84.4122 30.2215 84.2931 29.9831 84.1739C29.5064 83.9355 28.9105 83.8164 28.3146 83.6972C28.1955 83.6972 28.0763 83.578 28.0763 83.578C28.0763 83.578 28.1955 83.578 28.4338 83.6972C28.7913 83.6972 29.5064 84.4122 29.6256 83.4588L29.7448 83.3396Z" fill="#FBFBFB"/>
    <path d="M29.0273 85.3674C27.2397 85.3674 25.5712 84.5332 23.9027 84.414C23.9027 84.6524 24.0219 84.8907 24.2603 85.0099C25.3329 85.0099 26.4055 85.6058 27.478 85.725C27.7164 85.725 27.8356 85.725 28.0739 85.725C28.4315 85.725 28.789 85.6058 29.0273 85.3674Z" fill="#666364"/>
    <path d="M27.5957 85.4841C26.6423 85.2458 25.6889 84.8883 24.6163 84.6499C24.3779 84.6499 24.2588 84.6499 24.1396 84.8882C24.1396 84.8882 24.2588 85.0074 24.3779 85.1266C24.6163 85.2458 24.8546 85.365 25.093 85.4841C25.5697 85.6033 26.1656 85.8417 26.6423 85.8417C26.9998 85.8417 27.4765 85.9608 27.4765 85.4841H27.5957Z" fill="#DBD9D9"/>
    <path d="M27.6005 85.4847C27.6005 85.4847 26.6471 85.4847 26.1704 85.4847C25.8128 85.4847 25.4553 85.3655 25.0978 85.2463C25.0978 85.2463 25.0978 85.3655 25.0978 85.4847C25.3361 85.8422 25.6936 85.9614 26.0512 85.9614C26.4087 85.9614 26.4087 85.9614 26.1704 86.3189C26.1704 86.3189 26.2895 86.3189 26.4087 86.3189C27.0046 86.3189 27.4813 85.9614 27.958 85.7231C27.958 85.6039 27.7197 85.4847 27.4813 85.4847H27.6005Z" fill="#6F6969"/>
    <path d="M27.8385 82.1499H27.1235C27.1235 82.9841 27.9577 82.6266 28.3152 82.8649C28.7919 82.8649 29.2687 83.2224 29.8645 82.9841C30.2221 82.8649 29.8645 82.7458 29.8645 82.6266C29.2687 82.1499 28.6728 82.0307 27.9577 82.1499H27.8385Z" fill="#F5F3F3"/>
    <path d="M29.5049 81.9093C29.1474 80.8368 28.5515 81.7902 28.0748 81.7902C28.5515 82.3861 29.0282 82.3861 29.5049 81.9093Z" fill="#DDDADA"/>
    <path d="M29.5048 81.909C29.5048 81.909 28.5514 82.1473 28.0747 81.7898C27.8363 81.7898 27.8363 82.0281 27.8363 82.1473C28.4322 82.3857 29.1473 82.5049 29.7432 82.624C29.7432 82.3857 29.5048 82.1473 29.3856 82.0281L29.5048 81.909Z" fill="#6D6B69"/>
    <path d="M26.1679 86.3193C26.1679 86.3193 26.5254 86.2001 26.5254 86.0809C26.5254 85.8426 26.287 86.0809 26.1679 85.9618C25.8103 85.8426 25.3336 85.7234 24.9761 85.6042C24.7377 85.6042 24.7377 85.6042 24.7377 85.8426C24.7377 85.8426 24.7377 85.8426 24.7377 85.9618C25.0953 86.3193 25.4528 86.5577 26.0487 86.3193H26.1679Z" fill="#F2EFEE"/>
    <path d="M29.7419 83.3404C29.3844 84.0555 28.9076 83.3404 28.4309 83.4596C28.1926 83.4596 28.1926 83.4596 28.1926 83.6979C28.7885 83.6979 29.3843 84.1746 29.9802 84.0554C29.7419 83.8171 30.3378 83.4596 29.7419 83.3404Z" fill="#7D7A7A"/>
    <path d="M29.8594 82.9825C29.8594 82.9825 28.7868 82.7441 28.3101 82.7441C28.0717 82.7441 28.0717 82.7441 28.0717 82.9825C28.5484 83.1017 29.1443 83.2208 29.621 83.34C29.621 83.34 29.7402 83.1017 29.8594 82.9825Z" fill="#605D5E"/>
    <path d="M28.0732 82.982C28.0732 82.982 28.1923 82.8629 28.3115 82.7437C27.954 82.3862 27.3581 82.7437 27.1198 82.267C27.1198 82.267 27.0006 82.3862 26.8814 82.5053C27.1198 83.1012 27.7156 82.8628 28.0732 82.982Z" fill="#8B8687"/>
    <path d="M26.165 86.3198L24.854 85.9622C24.854 85.9622 24.9732 86.3198 25.2115 86.4389C25.3307 86.5581 25.5691 86.6773 25.8074 86.7965C26.0458 86.7965 26.2841 86.5581 26.4033 86.4389H26.165V86.3198Z" fill="#5F5858"/>
    <path d="M24.8554 85.723C24.8554 85.723 24.9746 85.6038 25.0938 85.4846C25.0938 85.4846 25.0938 85.4846 25.0938 85.3654C24.9746 85.1271 24.7362 85.1271 24.4979 85.1271C24.4979 85.3654 24.617 85.6038 24.8554 85.723Z" fill="#8B8383"/>
    <path d="M25.8096 86.6772C25.8096 86.6772 25.5712 86.3197 25.2137 86.3197C25.2137 86.7964 25.452 86.7964 25.8096 86.6772Z" fill="#EDE4E5"/>
    <path d="M32.3632 73.9247C32.3632 73.9247 32.4824 73.8056 32.6016 73.6864C32.1249 73.448 31.529 73.3289 30.9331 73.3289C31.4098 73.8056 31.8865 73.6864 32.3632 73.9247Z" fill="#837F81"/>
    <path d="M34.9879 71.8999L34.7496 72.1383C34.7496 72.1383 35.5838 72.3766 35.9413 72.4958C35.9413 72.4958 36.0605 72.4958 36.1797 72.3766C35.8222 72.1383 35.4646 72.0191 34.9879 72.0191V71.8999Z" fill="#605E5E"/>
    <path d="M35.3456 73.3277C35.3456 73.3277 35.5839 73.3277 35.7031 73.2085C35.3456 72.9702 34.8689 72.9702 34.273 72.7318C34.6305 73.3277 34.9881 73.2085 35.3456 73.3277Z" fill="#A7A4A6"/>
    <path d="M36.2958 80.5993H36.5342C36.5342 80.5993 35.6999 80.0034 35.1041 80.0034C35.4616 80.4801 35.9383 80.3609 36.2958 80.5993Z" fill="#8B8889"/>
    <path d="M21.7567 78.4536C21.7567 78.4536 21.9951 78.4536 22.1143 78.3345C21.7567 77.9769 21.28 78.2153 20.9225 78.0961C20.6841 78.0961 20.4458 77.9769 20.565 78.3345C20.9225 78.3345 21.3992 78.3345 21.7567 78.4536Z" fill="#999797"/>
    <path d="M20.5634 78.2139C20.5634 78.2139 20.8017 78.0947 20.9209 77.9755C20.5634 77.7372 20.2058 77.8563 19.8483 77.8563C19.8483 78.2139 20.2058 78.2139 20.4442 78.2139H20.5634Z" fill="#B4B3B2"/>
    <path d="M28.1904 83.6976C28.1904 83.6976 28.3095 83.5784 28.4287 83.4592C28.0712 83.4592 27.8328 83.2209 27.2369 83.1017C27.5945 83.5784 27.952 83.5784 28.1904 83.6976Z" fill="#8C8989"/>
</svg>