<svg xmlns="http://www.w3.org/2000/svg" width="206" height="117" viewBox="0 0 206 117" fill="none">
    <path d="M167.215 15.9179C166.309 10.7142 164.403 5.76007 163.739 0.00211844C168.199 2.55101 171.576 5.04498 175.455 9.40806C176.027 10.2564 176.588 11.1242 177.129 11.9807C176.423 12.889 175.497 13.5971 174.432 14.2306C174.912 15.5961 175.354 16.9391 175.735 18.2985C177.051 17.6338 178.276 16.813 179.299 15.8493C181.025 19.229 182.462 22.7521 183.547 26.4351C182.294 28.1567 179.895 28.7241 177.886 29.4216C178.041 30.8579 178.138 32.2606 178.185 33.6602C180.565 33.17 182.848 32.3121 184.679 31.0252C185.63 35.5241 186.062 40.2029 185.927 44.9682C183.526 46.9746 180.095 47.04 176.934 47.1317C176.638 48.5409 176.284 49.9165 175.891 51.2697C178.703 51.4687 182.419 51.1792 185.546 49.98C184.982 54.8603 183.837 59.5349 182.195 63.9485C178.858 66.1399 174.176 64.7836 170.374 63.8318C169.637 65.0639 168.841 66.2622 168.026 67.4494C171.221 68.6461 176.01 69.5466 180.008 69.083C177.837 73.6056 175.114 77.7835 171.923 81.5614C167.761 82.7587 162.511 80.1423 158.992 77.67C157.93 78.6112 156.838 79.5606 155.71 80.4375C158.994 82.8254 162.936 84.7905 167.636 85.8464C167.725 85.8718 167.825 85.8778 167.925 85.8838C163.985 89.7475 159.535 93.058 154.694 95.7017C150.185 95.4813 145.668 91.8639 143.008 88.3075C141.675 88.9108 140.354 89.4948 138.997 90.0062C139.063 90.0705 139.118 90.1542 139.165 90.2073C141.949 93.7308 145.366 96.7397 149.053 98.4282C144.836 100.215 140.387 101.506 135.779 102.264C134.703 101.928 133.616 101.3 132.501 100.45C130.399 98.7959 128.371 96.2522 126.779 93.3127C122.01 94.0816 117.238 94.2273 112.546 93.6945L113.038 89.5234C116.92 89.9775 120.935 89.8868 124.958 89.3344C123.597 85.7254 122.929 81.947 123.165 78.8458C123.36 76.4457 124.005 74.565 125.241 73.2322C127.978 73.3362 130.645 73.1144 133.268 72.6086C132.343 77.3064 134.191 81.9999 136.559 86.423C137.885 85.9198 139.204 85.3859 140.494 84.8102C138.274 81.1194 135.941 75.7839 138.162 71.2643C141.065 70.2729 143.82 68.9108 146.435 67.2086C147.171 71.182 149.527 74.4589 152.493 77.6215C153.609 76.764 154.687 75.8841 155.749 74.9428C153.064 72.2794 150.143 68.5466 150.502 64.2469C152.638 62.4758 154.617 60.4842 156.415 58.311C158.096 61.4568 160.921 63.6061 164.187 65.6211C165.018 64.4952 165.772 63.3245 166.517 62.1231C163.639 60.5133 160.223 57.9969 159.388 54.329C160.967 51.9517 162.375 49.4233 163.55 46.7604C165.77 48.793 168.628 49.7183 171.768 50.6504C172.169 49.3279 172.542 47.9634 172.846 46.5848C170.239 45.9862 167.023 44.8284 165.239 42.3999C166.24 39.4552 166.999 36.3453 167.484 33.1285C169.433 33.969 171.674 34.3045 174.045 34.1454C174.018 32.7569 173.921 31.3543 173.786 29.9292C172.016 29.9435 169.708 29.7246 167.948 28.7346C168.142 25.842 168.088 22.9747 167.803 20.194C169.116 20.2527 170.463 20.0723 171.789 19.7499C171.416 18.4211 170.994 17.0893 170.513 15.7239C169.57 15.9225 168.306 16.0919 167.215 15.9179Z" fill="#FFE4D9"/>
    <path d="M30.5404 9.41709C34.1835 5.31936 37.3833 2.87624 41.4403 0.482164L42.2756 -9.72748e-05C41.7014 4.88217 39.7935 10.55 38.7909 15.9464C37.7291 16.0362 36.6171 15.9945 35.4819 15.733C35.0205 17.0872 34.5786 18.4302 34.2061 19.759C35.5319 20.0814 36.8987 20.2505 38.1922 20.2031C37.9263 22.9725 37.8835 25.8593 38.0772 28.7519C36.3932 29.8278 34.2844 29.8539 32.2399 29.9464C32.1044 31.3715 32.0077 32.7742 31.961 34.1739C33.9114 34.1874 36.417 33.9064 38.542 33.1457C39.0265 36.3626 39.786 39.4725 40.7868 42.4172C39.1757 44.8755 36.0053 45.7994 33.156 46.6156C33.4599 47.9942 33.8332 49.3586 34.2536 50.67C36.8645 50.0691 40.1753 48.8051 42.4643 46.7584C43.6503 49.4407 45.0388 51.9802 46.6074 54.3381C45.794 57.864 42.4328 60.2968 39.4852 62.1539C40.2306 63.3553 41.0037 64.5148 41.8156 65.6519C44.6198 64.0847 47.8524 61.519 49.591 58.3396C51.4091 60.5016 53.3878 62.4932 55.5128 64.2449C56.1814 68.1843 52.9574 72.0659 50.2771 74.9603C51.3386 75.9015 52.4164 76.7814 53.5331 77.6389C56.1313 75.051 58.8106 71.3026 59.5715 67.2372C62.1748 68.9199 64.9603 70.2903 67.8444 71.293C70.198 75.0107 67.6958 81.0397 65.5314 84.8276C66.8222 85.4033 68.1405 85.9372 69.4671 86.4405C71.6786 82.5995 73.5757 77.5413 72.7582 72.626C75.3618 73.1431 78.0476 73.3537 80.7654 73.2609C82.0011 74.5936 82.666 76.4631 82.8409 78.8745C83.0967 81.9644 82.4291 85.7429 81.068 89.3519C85.0907 89.9043 89.1059 89.995 92.9878 89.5409L93.46 93.7232C88.7882 94.2448 83.9966 94.1103 79.2384 93.3608C77.635 96.281 75.607 98.8246 73.5248 100.467C72.4102 101.318 71.3223 101.946 70.2471 102.282C65.6392 101.523 61.1863 100.235 56.9689 98.448C60.5487 96.7438 64.6174 93.8767 67.0097 90.0349C65.6719 89.5122 64.3311 88.9395 63.018 88.3249C60.3609 91.4389 56.0284 95.2353 51.3089 95.7327C46.4672 93.0889 42.0176 89.7784 38.0775 85.9147C42.0062 85.5372 47.1818 83.4297 50.2922 80.4684C49.1643 79.5915 48.0722 78.642 46.9996 77.6814C43.7873 79.9504 38.5786 82.5432 34.0797 81.5923C30.8883 77.8144 28.1848 73.6252 25.9946 69.1139C29.6613 69.7942 34.2173 68.951 37.9759 67.4802C37.161 66.2931 36.385 65.0835 35.6477 63.8515C32.3139 64.9992 27.4163 65.9102 23.8072 63.9793C22.1655 59.5657 21.0207 54.8911 20.4564 50.0108C23.2718 51.2085 26.8013 51.5796 30.1415 51.3087C29.7181 49.9473 29.3642 48.5717 29.0686 47.1624C26.3333 47.2653 22.5802 46.9198 20.0946 44.9878C19.9838 40.83 20.5112 35.8892 21.3123 31.0365C23.1544 32.3429 25.4257 33.1813 27.8299 33.6581C27.8766 32.2584 27.9733 30.8557 28.1088 29.4307C26.2771 28.9497 23.8822 28.0764 22.4476 26.4441C23.533 22.7612 24.989 19.2269 26.7157 15.8471C27.7188 16.822 28.9439 17.6429 30.2794 18.2963C30.6601 16.9369 31.1021 15.5939 31.5829 14.2285C30.6953 13.723 29.6112 12.9218 28.8658 11.9898C29.4073 11.1332 29.9682 10.2654 30.5404 9.41709Z" fill="#FFE4D9"/>

    <path d="M174.339 64.1218C174.772 65.1617 174.959 66.1004 174.627 67.2555C170.943 70.6191 167.505 74.0838 163.821 77.4473C161.38 79.887 158.794 81.9801 156.425 84.5931C156.151 84.9107 155.948 85.4017 155.429 85.6181C153.291 87.3214 151.153 89.0247 149.232 91.248C148.509 91.9554 148.163 92.0997 147.383 91.2041C144.554 88.315 141.724 85.4259 139.068 82.4646C137.899 81.1212 136.903 79.7057 135.632 78.6077C134.044 77.2353 134.016 75.2136 133.193 73.7259C133.049 73.3793 132.977 73.206 133.425 72.8162C134.869 71.4015 136.314 69.9867 137.831 68.7453C138.452 68.2834 139.087 68.8324 139.477 69.2802C140.718 70.7969 141.96 72.3136 143.374 73.7581C144.226 74.827 145.179 75.6505 146.132 76.4739C146.911 77.3695 147.604 77.0809 148.153 76.4457C154.379 70.397 161.241 64.8973 167.322 58.5019C168.767 57.0872 169.012 57.1884 170.254 58.7051C171.495 60.2218 172.491 61.6373 173.733 63.154C174.223 63.3564 174.093 64.0206 174.584 64.2229L174.339 64.1218Z" fill="#020000"/>
    <path d="M174.553 67.0812L174.337 64.1208C175.117 65.0164 175.55 66.0563 174.553 67.0812Z" fill="#FCFCFC"/>
    <path d="M155.35 85.4491C155.35 85.4491 155.827 84.6406 156.347 84.4242C156.217 85.0884 156.188 85.5072 155.35 85.4491Z" fill="#FCFCFC"/>
    <path d="M174.336 64.1257C174.336 64.1257 173.975 63.2591 173.484 63.0568C174.423 62.8693 174.192 63.779 174.336 64.1257Z" fill="#FCFCFC"/>
    <path d="M163.794 72.9835C161.526 75.3511 159.013 77.6175 156.601 79.6384C155.648 78.815 156.226 77.761 156.038 76.8222C156.082 74.9738 156.126 73.1254 155.506 71.1468C155.506 71.1468 155.434 70.9735 155.362 70.8002C157.976 68.2883 160.663 65.9498 163.278 63.4379C163.523 63.5391 163.841 63.8135 163.812 64.2323C163.955 67.0195 164.272 69.7345 163.823 72.5647C163.823 72.5647 163.549 72.8823 163.621 73.0557L163.794 72.9835Z" fill="#FEFEFE"/>
    <path d="M150.058 85.4124C148.595 87.1063 147.107 87.1155 145.596 85.4398C144.283 83.7498 142.868 82.3053 141.554 80.6152C141.554 80.6152 141.554 80.6152 141.482 80.4419C141.295 79.5032 141.526 78.5935 141.339 77.6548C141.325 76.6439 141.137 75.7052 141.123 74.6943C140.907 74.1744 140.69 73.6544 141.557 73.2937C142.697 75.0559 144.458 76.3561 146.046 77.7285C146.927 78.3787 147.447 78.1622 147.996 77.527C148.444 77.1372 148.892 76.7475 149.267 76.1844C150.278 76.1703 149.975 76.9067 150.191 77.4266C150.277 78.6108 150.364 79.795 150.522 81.1525C150.392 81.8167 150.507 82.5822 150.55 83.1743C150.665 83.9397 150.607 84.7772 150.232 85.3403L150.058 85.4124Z" fill="#FEFEFE"/>
    <path d="M170.194 66.8647C170.194 66.8647 169.544 67.7453 169.024 67.9618C168.389 67.4128 168.866 66.6043 168.823 66.0122C168.866 64.1638 168.91 62.3153 168.507 60.8567C168.925 63.3262 168.823 66.0122 168.475 68.597C168.027 68.9868 167.753 69.3044 167.305 69.6941C166.641 69.5639 166.944 68.8276 166.8 68.4809C166.83 65.6216 166.195 62.6322 166.889 59.903C167.164 59.5854 167.612 59.1957 167.886 58.8781C168.579 58.5895 169.099 58.373 169.114 59.3839C169.835 61.117 169.964 62.8933 170.094 64.6696C170.036 65.5072 170.324 66.2004 170.021 66.9368L170.194 66.8647Z" fill="#FDFCFC"/>
    <path d="M154.008 81.7343C154.008 81.7343 152.838 82.8314 152.289 83.4666C151.798 83.2643 151.654 82.9177 151.856 82.4267C151.886 79.5674 151.67 76.607 152.119 73.7767C152.668 73.1415 153.116 72.7517 153.664 72.1165C154.401 72.42 154.271 73.0842 154.242 73.503C154.544 75.2072 154.5 77.0556 154.384 78.7307C154.398 79.7416 154.586 80.6803 153.936 81.561L154.008 81.7343Z" fill="#FDFCFC"/>
    <path d="M149.885 75.7221C149.885 75.7221 150.81 74.5238 151.575 74.4085C152.066 74.6108 151.864 75.1018 152.008 75.4484C151.906 78.1344 152.05 80.9215 151.948 83.6075C151.572 84.1706 151.298 84.4882 150.604 84.7768C150.388 84.2568 150.59 83.7659 150.446 83.4193C150.403 82.8272 150.288 82.0618 150.245 81.4697C150.043 79.5201 150.087 77.6717 149.885 75.7221Z" fill="#FCFBFB"/>
    <path d="M155.357 70.8014C155.357 70.8014 155.429 70.9747 155.501 71.148C156.295 73.0544 155.731 75.1193 156.106 76.9968C155.946 78.0798 156.307 78.9463 156.148 80.0294C155.772 80.5924 155.324 80.9822 154.703 81.4441C154.068 80.8951 154.545 80.0866 154.256 79.3933C154.604 76.8085 154.012 74.4111 154.187 71.8985C154.707 71.682 154.981 71.3644 155.429 70.9747L155.357 70.8014Z" fill="#FCFCFC"/>
    <path d="M137.741 70.0018C137.741 70.0018 138.464 69.2944 139.315 70.3633C140.253 72.6164 140.079 75.1291 139.905 77.6417C139.977 77.8151 139.703 78.1327 139.529 78.2048C138.894 77.6559 138.259 77.1069 137.97 76.4136C137.537 75.3737 137.87 74.2186 137.856 73.2077C137.914 72.3702 137.654 71.2581 137.712 70.4206C137.712 70.4206 137.64 70.2472 137.741 70.0018Z" fill="#FDFCFC"/>
    <path d="M163.897 62.976C163.897 62.976 164.59 62.6874 164.864 62.3698C165.211 62.2255 165.427 62.7455 165.5 62.9188C165.715 65.8792 166.104 68.7675 165.482 71.67C165.136 71.8143 164.861 72.1319 164.587 72.4495C163.893 72.7381 164.024 72.0738 164.125 71.8284C164.328 68.8969 163.867 65.8353 164.07 62.9039L163.897 62.976Z" fill="#F6F5F5"/>
    <path d="M141.727 80.5456C141.727 80.5456 140.384 79.2743 139.85 78.4799C139.504 76.1837 139.924 73.7722 139.578 71.4759C139.506 71.3026 139.607 71.0572 139.852 71.1583C140.487 71.7073 140.877 72.1551 141.238 73.0217C141.05 74.5235 141.454 75.9821 141.511 77.5851C141.525 78.596 141.712 79.5347 141.553 80.6177L141.727 80.5456Z" fill="#FAFAFA"/>
    <path d="M166.854 70.087C166.854 70.087 166.305 70.7222 165.857 71.112C165.857 71.112 165.612 71.0108 165.713 70.7653C165.671 67.7327 165.455 64.7723 165.413 61.7397C165.687 61.4221 165.962 61.1044 166.482 60.888C167.232 62.2024 166.972 63.5308 166.957 64.9605C167.043 66.1447 166.956 67.401 167.042 68.5852C167.259 69.1051 167.056 69.5961 166.926 70.2603L166.854 70.087Z" fill="#FBFBFB"/>
    <path d="M137.742 70.0017C137.742 70.0017 137.814 70.175 137.886 70.3483C137.654 71.258 137.842 72.1967 137.856 73.2076C137.697 74.2906 137.711 75.3015 137.653 76.139C136.989 76.0088 136.772 75.4889 136.382 75.0411C135.632 73.7267 135.647 72.2971 136.499 70.9255C136.702 70.4345 137.222 70.2181 137.742 70.0017Z" fill="#FBFAFA"/>
    <path d="M163.895 62.9772C164.385 65.6201 164.038 68.2049 164.181 70.992C164.398 71.512 163.849 72.1472 164.412 72.5228C164.383 72.9416 163.964 72.9126 163.689 73.2302C163.719 70.3709 163.576 67.5838 163.606 64.7245C163.461 64.3778 163.562 64.1324 163.245 63.8579C163.418 63.7857 163.519 63.5403 163.62 63.2948L163.895 62.9772Z" fill="#6E6C6C"/>
    <path d="M151.777 83.6807C151.359 81.2111 151.533 78.6985 151.707 76.1858C151.664 75.5937 151.794 74.9295 151.577 74.4095L151.953 73.8465C152.27 76.5615 151.749 79.2184 152.066 81.9334C152.282 82.4534 151.907 83.0164 152.297 83.4642L151.777 83.6807Z" fill="#605E5E"/>
    <path d="M169.773 59.5176C169.773 59.5176 170.524 60.8319 170.914 61.2797C171.347 62.3196 170.942 63.3015 171.375 64.3414C171.591 64.8613 171.634 65.4534 171.605 65.8722C171.259 66.0165 171.129 66.6807 170.71 66.6517C170.075 66.1027 170.378 65.3663 170.263 64.6009C170.206 62.998 170.047 61.6405 169.643 60.1818C169.499 59.8352 169.355 59.4885 169.875 59.2721L169.773 59.5176Z" fill="#F9F8F9"/>
    <path d="M168.471 68.6C168.413 66.997 168.457 65.1486 168.4 63.5456C168.415 62.116 168.256 60.7585 167.679 59.3719C168.517 59.43 168.387 60.0942 168.603 60.6142C169.194 63.0116 168.674 65.6685 168.846 68.0369C168.99 68.3835 168.644 68.5278 168.297 68.6721L168.471 68.6Z" fill="#434041"/>
    <path d="M165.341 61.5613C165.875 64.7963 165.498 67.7999 166.031 71.0348L165.482 71.67C165.195 68.5362 165.744 65.4605 164.864 62.3699C165.038 62.2977 165.312 61.9801 165.413 61.7346L165.341 61.5613Z" fill="#595656"/>
    <path d="M166.873 68.6547C166.282 66.2573 166.774 64.0191 166.529 61.4774C166.457 61.3041 166.313 60.9575 166.241 60.7842L166.891 59.9035C166.861 62.7628 167.004 65.5499 167.047 68.5825C167.047 68.5825 166.873 68.6547 166.7 68.7268L166.873 68.6547Z" fill="#504E4E"/>
    <path d="M139.852 71.1571C139.952 73.3522 139.952 75.7927 140.052 77.9878C140.124 78.1611 140.196 78.3344 139.85 78.4787C139.503 78.623 139.359 78.2764 139.287 78.1031C139.533 75.7637 139.432 73.5686 139.087 71.2724C138.942 70.9258 139.043 70.6803 139.145 70.4349C139.563 70.4639 139.708 70.8105 139.852 71.1571Z" fill="#6A6768"/>
    <path d="M171.554 61.8238C171.554 61.8238 171.843 62.517 172.16 62.7915C173.036 63.9182 172.91 64.9194 171.784 65.7951C171.784 65.7951 171.423 64.9285 171.279 64.5819C171.337 63.7443 170.557 62.8487 171.453 62.0692L171.554 61.8238Z" fill="#FBFAFA"/>
    <path d="M154.115 71.725C154.533 74.1945 154.778 76.7362 154.43 79.321C154.257 79.3932 154.083 79.4653 154.112 79.0465C154.012 76.8515 154.258 74.5121 153.566 72.3602C153.739 72.2881 154.014 71.9705 154.115 71.725Z" fill="#595657"/>
    <path d="M169.775 59.5165C169.904 61.2928 170.033 63.0691 170.408 64.9465C170.235 65.0187 170.062 65.0908 170.091 64.672C169.788 62.9679 169.904 61.2928 169.255 59.733C169.183 59.5596 169.284 59.3142 169.529 59.4153C169.703 59.3432 169.876 59.271 170.02 59.6177L169.775 59.5165Z" fill="#524E4E"/>
    <path d="M149.885 75.7263C150.679 77.6328 150.289 79.6255 150.418 81.4018C150.245 81.4739 150.071 81.546 150.1 81.1273C150.043 79.5243 149.813 77.9935 149.755 76.3905C149.683 76.2172 149.611 76.0439 149.438 76.1161C149.293 75.7694 149.712 75.7984 150.059 75.6541L149.885 75.7263Z" fill="#6D6B6B"/>
    <path d="M135.507 74.3898C134.265 72.8731 134.193 72.6997 135.956 71.5595C136.316 72.4261 135.839 73.2346 136.027 74.1733C136.099 74.3466 135.752 74.4909 135.507 74.3898Z" fill="#EEEAEA"/>
    <path d="M141.507 77.5844C141.348 76.2269 141.016 74.9416 140.93 73.7574C140.786 73.4107 141.06 73.0931 141.234 73.021L141.378 73.3676C141.118 74.6961 141.94 76.1838 141.824 77.8589C141.651 77.931 141.478 78.0032 141.507 77.5844Z" fill="#666464"/>
    <path d="M135.503 74.3915C136.153 73.5108 135.547 72.543 135.951 71.5612C135.879 71.3879 136.154 71.0703 136.327 70.9981C136.066 72.3266 136.052 73.7563 136.21 75.1138C136.066 74.7671 135.575 74.5648 135.329 74.4636L135.503 74.3915Z" fill="#696666"/>
    <path d="M137.477 76.2111C137.044 75.1712 137.275 74.2615 137.608 73.1063C137.608 73.1063 137.781 73.0341 137.925 73.3808C137.766 74.4638 137.78 75.4747 137.621 76.5577C137.621 76.5577 137.549 76.3844 137.477 76.2111Z" fill="#737172"/>
    <path d="M171.55 61.8251C171.55 61.8251 171.434 63.5003 171.622 64.439C171.622 64.439 171.347 64.7566 171.102 64.6554C170.669 63.6155 170.582 62.4314 170.987 61.4495C171.16 61.3774 171.478 61.6518 171.55 61.8251Z" fill="#716B6D"/>
    <path d="M154.11 79.0497C154.11 79.0497 154.182 79.223 154.427 79.3242C154.644 79.8441 154.586 80.6817 154.629 81.2738C154.773 81.6204 154.181 81.6635 153.907 81.9812C153.892 80.9703 153.95 80.1327 153.936 79.1219L154.11 79.0497Z" fill="#706D6F"/>
    <path d="M156.08 79.8549C155.72 78.9883 155.705 77.9775 155.691 76.9666C155.691 76.9666 155.865 76.8944 156.038 76.8223C156.225 77.761 156.239 78.7719 156.355 79.5373C156.355 79.5373 156.181 79.6094 156.008 79.6816L156.08 79.8549Z" fill="#716E6F"/>
    <path d="M169.915 64.7408C169.915 64.7408 169.987 64.9141 170.233 65.0153C170.449 65.5353 170.391 66.3728 170.434 66.9649C170.434 66.9649 170.261 67.037 170.087 67.1092C169.799 66.4159 169.51 65.7227 169.742 64.813L169.915 64.7408Z" fill="#605B5C"/>
    <path d="M150.686 83.5229C150.686 83.5229 150.628 84.3605 150.671 84.9525C150.816 85.2992 150.469 85.4435 150.296 85.5156C150.426 84.8514 150.311 84.086 150.441 83.4217C150.614 83.3496 150.686 83.5229 150.758 83.6962L150.686 83.5229Z" fill="#938F90"/>
    <path d="M166.868 68.6543C166.868 68.6543 167.041 68.5821 167.215 68.51C167.359 68.8566 167.503 69.2032 167.474 69.622C167.301 69.6942 167.128 69.7663 166.954 69.8385C166.983 69.4197 166.594 68.9719 166.969 68.4088L166.868 68.6543Z" fill="#6C6666"/>
    <path d="M171.102 64.6531C171.102 64.6531 171.449 64.5088 171.622 64.4367C171.767 64.7833 171.911 65.1299 171.954 65.722C172.026 65.8953 172.098 66.0687 171.68 66.0396C171.29 65.5918 171.319 65.1731 171.102 64.6531Z" fill="#878385"/>
    <path d="M156.209 76.75C156.209 76.75 156.036 76.8222 155.863 76.8943C155.661 74.9447 155.633 72.923 155.431 70.9734C156.096 71.1036 156.067 71.5224 155.864 72.0133C155.922 73.6163 155.979 75.2192 156.036 76.8222L156.209 76.75Z" fill="#636060"/>
    <path d="M157.058 75.3798C156.929 73.6036 156.872 72.0006 156.916 70.1522C157.637 71.8853 157.593 73.7338 157.549 75.5822C157.376 75.6543 157.203 75.7265 157.058 75.3798Z" fill="#6C6869"/>
    <path d="M157.057 75.3801C157.057 75.3801 157.302 75.4812 157.548 75.5824L157.301 77.9217C156.767 77.1273 156.999 76.2176 157.057 75.3801Z" fill="#969394"/>
    <path d="M141.508 77.5837L141.652 77.9303C141.652 77.9303 142.201 79.7356 141.724 80.5441C141.363 79.6775 141.522 78.5945 141.508 77.5837Z" fill="#7F7D7E"/>
    <path d="M150.692 83.5242C150.692 83.5242 150.62 83.3509 150.375 83.2497C150.086 82.5564 150.043 81.9643 150.173 81.3001C150.173 81.3001 150.245 81.4734 150.491 81.5746C150.534 82.1667 150.649 82.9321 150.692 83.5242Z" fill="#827F80"/>
    <path d="M137.93 73.3805C137.93 73.3805 137.858 73.2072 137.613 73.1061C137.671 72.2685 137.238 71.2286 137.888 70.3479C138.249 71.2145 138.09 72.2975 138.104 73.3084L137.93 73.3805Z" fill="#616061"/>
    <path d="M66.323 54.0245C64.4547 54.312 62.8739 55.318 61.1493 56.1803C59.7121 56.8988 58.1312 57.4737 56.6941 58.336C55.6881 58.7672 54.5384 59.0546 53.5323 59.4857C49.3646 60.9229 45.3406 62.2163 41.1728 63.5098C38.5859 64.3721 36.1428 65.5218 33.5559 66.0966C32.5499 66.3841 31.5439 66.5278 30.5379 66.3841C28.8133 66.3841 28.2384 64.8032 27.6635 63.5098C26.3701 60.6355 25.3641 57.6174 24.5018 54.5994C23.7832 52.4437 23.3521 50.1442 22.9209 47.8448C22.6335 46.4076 22.2024 45.1142 22.0586 43.8207C21.6275 41.3776 23.6395 38.5033 25.939 37.641C27.8073 37.0661 29.5318 36.3475 31.4001 35.7727C31.6876 35.7727 31.6876 35.6289 31.5439 35.3415C31.4002 34.6229 31.2564 34.0481 31.1127 33.3295C30.8253 31.03 31.6876 30.7426 33.4122 30.1678C35.5679 29.4492 37.8673 28.7306 40.0231 28.012C40.4542 27.7246 40.8854 28.012 41.1728 27.8683C42.8974 27.4372 44.622 27.006 46.3466 26.5749C47.4963 26.2874 48.646 26 49.9395 26C51.5203 26 52.2389 27.2934 52.8138 28.4432C53.2449 29.3055 53.5323 29.3055 54.2509 29.018C56.6941 28.2994 59.1373 27.8683 61.5804 27.2934C62.8739 27.006 64.4547 28.4432 65.1733 30.024C65.8919 31.6049 66.323 33.4732 66.7542 35.1978C68.0476 39.5093 69.1973 43.8207 70.0596 48.2759C70.2034 49.2819 70.0596 50.2879 70.0596 51.2939C70.0596 52.0125 69.7722 52.5874 69.0536 52.8748C68.4788 53.1622 67.9039 53.5934 67.329 54.0245C67.0416 54.312 66.7542 54.4557 66.323 54.4557V54.0245Z" fill="#010000"/>
    <path d="M43.0378 63.6545C43.0378 63.6545 43.0378 63.9419 42.7503 63.9419L42.4629 63.7982C42.4629 63.7982 42.6066 63.5107 42.7503 63.5107C42.7503 63.5107 42.894 63.5107 43.0378 63.6545Z" fill="#FCFCFC"/>
    <path d="M66.3223 54.0261C66.3223 54.0261 66.8971 53.595 67.3283 53.595C67.0408 54.0261 66.8971 54.3135 66.3223 54.0261Z" fill="#FCFCFC"/>
    <path d="M41.1702 27.5828C41.1702 27.5828 40.4517 27.8702 40.0205 27.7265C40.3079 27.4391 40.7391 27.5828 41.1702 27.5828Z" fill="#FCFCFC"/>
    <path d="M27.0914 40.6587C26.8039 38.9342 27.9537 37.9282 29.2471 37.2096C30.1094 36.7784 31.2591 36.6347 32.2651 36.2036C32.84 36.0599 32.6963 36.2036 32.84 36.491C33.1274 37.2096 33.4149 38.0719 33.7023 38.7904C34.7083 41.521 35.4269 41.9522 38.1575 41.9522C38.8761 41.9522 39.0198 42.0959 39.3072 42.6708C39.7384 43.5331 40.4569 44.1079 41.4629 43.6768C42.4689 43.3893 42.7564 42.5271 42.4689 41.6648C42.4689 41.3773 42.4689 41.2336 42.7564 41.2336C43.475 41.0899 44.1935 40.8025 44.9121 40.6587C45.487 40.6587 45.6307 41.0899 45.7744 41.521C46.2055 42.9582 46.6367 44.3954 46.9241 45.6888C47.0678 46.4074 47.3553 47.2697 48.0739 47.4134C48.9361 47.4134 49.7984 46.9822 50.6607 46.4074C51.0919 46.1199 50.6607 45.5451 50.6607 45.1139C50.3733 43.5331 50.0859 41.8085 49.6547 40.2276C49.511 39.509 49.6547 39.2216 50.2296 39.0779C50.517 39.0779 50.8044 38.9342 51.0919 38.7904C51.8105 38.503 52.529 38.2156 52.8165 39.3653C53.1039 40.2276 53.8225 40.8025 54.6848 40.3713C55.4033 39.9402 55.9782 39.2216 55.5471 38.2156C55.2596 37.6407 55.5471 37.497 55.8345 37.0659C58.4214 35.0538 58.4214 33.9041 57.4154 30.3112C57.1279 29.4489 57.1279 29.1615 58.1339 29.0178C58.9962 29.0178 60.0022 28.5866 60.8645 28.4429C62.8766 28.0118 63.7388 28.4429 64.4574 30.4549C65.176 32.467 65.7509 34.479 66.3257 36.491C67.3317 40.2276 68.3377 43.8205 69.2 47.5571C69.4875 49.2817 69.3438 49.8565 67.7629 50.4314C58.1339 54.4554 48.505 58.4795 38.5886 61.6412C37.7263 61.9287 37.0078 62.2161 36.1455 62.3598C35.4269 62.3598 34.7083 62.7909 33.9897 63.0784C33.1274 63.3658 32.84 62.5035 32.5526 61.9287C31.5466 59.1981 30.6843 56.4675 29.9657 53.7369C29.1034 50.5751 28.3848 47.4134 27.5225 44.2516C27.2351 43.2456 27.0914 42.0959 27.0914 40.9462V40.6587Z" fill="#FEFEFE"/>
    <path d="M39.452 40.8028C39.452 40.8028 38.7334 40.8028 38.446 41.0903C38.3023 41.0903 38.1585 41.0903 38.1585 40.8028C38.446 40.0843 39.1646 39.6531 39.5957 39.0782C40.0268 38.6471 40.458 38.216 40.7454 37.9285C40.7454 37.9285 40.6017 38.0722 40.458 38.216C40.0268 38.6471 39.5957 39.0782 39.3083 39.3657C38.8771 39.9405 38.1585 40.3717 37.8711 41.0903C37.5837 41.3777 37.1525 41.3777 36.8651 41.0903C36.7214 40.8028 37.0088 40.5154 37.2962 40.3717C37.44 40.228 37.7274 39.9405 37.8711 39.7968C38.3023 39.3657 38.5897 38.7908 39.1646 38.5034C39.452 38.216 39.7394 37.7848 40.0268 37.6411C39.7394 37.9285 39.5957 38.3597 39.1646 38.5034C38.7334 38.7908 38.446 39.3657 38.0148 39.7968C37.44 40.228 37.1525 40.9466 36.5777 41.3777C36.1465 41.3777 36.0028 41.234 35.8591 40.8028C36.434 40.5154 36.5777 39.9405 36.8651 39.6531C37.1525 39.222 37.5837 38.9345 37.8711 38.5034C38.1585 38.216 38.446 38.0722 38.5897 37.7848C38.5897 37.7848 38.5897 37.7848 38.7334 37.7848C38.446 38.0722 38.1585 38.216 38.0148 38.5034C37.7274 38.9345 37.2962 39.222 37.0088 39.6531C36.5777 40.0843 36.434 40.6591 36.0028 40.9465C34.8531 40.228 34.7094 38.6471 34.1345 37.6411C33.4159 36.4914 33.8471 36.2039 34.9968 35.9165C40.6017 34.1919 46.2066 32.4673 51.9552 31.0302C53.2487 30.7427 54.5421 30.3116 55.8356 30.0242C56.4104 30.0242 56.6979 30.0242 56.8416 30.599C57.129 31.4613 57.4164 32.3236 57.5601 33.1859C57.8476 34.9105 57.129 36.3477 55.4044 37.0662C52.9612 37.9285 50.5181 38.6471 48.0749 39.5094C48.0749 39.5094 48.0749 39.3657 48.0749 39.222C47.9312 39.222 48.0749 39.5094 47.7875 39.5094C46.6378 39.7968 45.488 40.0843 44.1946 40.3717C44.1946 39.6531 44.7695 39.6531 45.0569 39.222C44.3383 39.6531 43.7634 40.228 43.0449 40.6591C42.1826 41.0903 41.1766 41.3777 40.1706 41.3777C40.1706 40.6591 40.8891 40.3717 41.3203 39.9405C41.464 39.7968 41.7514 39.5094 41.8951 39.3657C42.0389 39.222 42.1826 38.9345 42.3263 38.7908C42.0389 38.9345 42.0389 39.222 41.8951 39.3657C41.7514 39.6531 41.464 39.7968 41.3203 40.0843C40.8891 40.5154 40.458 40.9466 39.8831 41.3777L39.452 40.8028Z" fill="#FEFEFE"/>
    <path d="M49.5112 29.738C49.5112 29.738 49.5112 30.1691 49.2238 30.3128C45.3435 31.4625 41.3194 32.6123 37.4391 33.9057C37.4391 33.9057 37.008 34.1931 36.8643 33.9057C36.8643 33.4746 36.8643 33.1871 37.2954 33.0434C38.4451 32.4686 39.5948 31.75 40.8883 31.3188C43.4752 30.4565 46.2058 30.0254 48.9364 29.3068C49.6549 29.1631 49.5112 29.738 49.6549 29.8817L49.5112 29.738Z" fill="#FDFDFD"/>
    <path d="M52.8158 57.1882C53.2469 58.338 52.8158 58.7691 51.6661 59.2002C49.3666 60.0625 46.9235 60.7811 44.624 61.4997C44.3366 61.4997 43.9054 62.0746 43.7617 61.4997C43.7617 61.2123 43.7617 60.6374 44.3366 60.4937C45.4863 60.0625 46.636 59.6314 47.7858 59.2002C49.5103 58.6254 51.0912 57.9068 52.8158 57.1882Z" fill="#FCFCFC"/>
    <path d="M39.1603 29.0189C41.8909 28.3003 44.6215 27.5817 47.4958 27.0068C47.7832 27.0068 48.0707 27.0068 48.3581 27.0068C48.3581 27.2943 48.3581 27.438 48.2144 27.5817C47.7832 27.8691 47.2084 28.1566 46.7772 28.3003C44.3341 28.8751 41.8909 29.5937 39.4477 30.1686C39.0166 30.0249 38.7292 30.3123 38.4417 30.3123C38.298 30.3123 38.1543 30.1686 38.1543 30.0249C38.1543 29.45 38.8729 29.45 39.1603 29.1626V29.0189Z" fill="#FBFBFB"/>
    <path d="M47.0627 43.6794C46.7752 42.5297 46.6315 41.5237 46.0566 40.5177C46.7752 40.0865 47.6375 40.0865 48.3561 39.7991C48.3561 39.7991 48.4998 39.7991 48.6435 39.7991C49.3621 40.5177 49.0747 41.5237 49.3621 42.386C49.5058 42.9608 49.0747 43.1045 48.6435 43.1045C48.2124 43.1045 47.7812 43.1045 47.4938 43.392C47.4938 43.5357 47.4938 43.8231 47.2064 43.8231L47.0627 43.6794Z" fill="#FCFCFC"/>
    <path d="M47.0617 43.6792C47.0617 43.6792 47.3491 43.3918 47.3491 43.248C47.3491 43.9666 47.924 43.6792 48.2114 43.6792C48.6426 43.6792 48.93 43.3918 49.3611 43.248C49.7923 44.2541 48.93 44.1103 48.3551 44.3978C48.0677 44.5415 47.3491 44.5415 47.4928 45.1164C47.6365 45.5475 48.2114 45.2601 48.6426 45.1164C48.93 45.1164 49.2174 44.8289 49.5049 44.6852C50.0797 45.9786 49.5048 46.5535 48.3551 46.8409C47.7803 46.8409 47.7803 46.5535 47.6365 46.2661C47.3491 45.4038 47.2054 44.5415 46.918 43.6792H47.0617Z" fill="#FBFAFA"/>
    <path d="M50.5138 27.0068C51.5198 27.2943 51.8072 28.3003 52.2384 29.0189C52.3821 29.3063 52.0947 29.3063 51.8072 29.45C51.3761 29.45 50.8012 30.0249 50.5138 29.45C50.3701 29.1626 50.0826 28.8751 50.2263 28.444C50.3701 27.7254 49.7952 28.444 49.7952 28.1566C49.5078 27.2943 50.0826 27.1506 50.6575 27.0068H50.5138Z" fill="#F7F6F6"/>
    <path d="M55.1114 56.469C55.3989 57.6187 55.1114 58.1936 53.9617 58.481C53.6743 58.481 53.6743 58.481 53.5306 58.0499C53.2431 56.7564 54.2491 56.6127 55.1114 56.469Z" fill="#F9F7F7"/>
    <path d="M39.8809 41.9545C39.8809 41.9545 41.1743 41.0922 41.7492 41.9545C41.8929 42.242 42.0366 42.9605 41.4617 43.1043C40.5994 43.3917 40.312 42.6731 40.0246 41.9545H39.8809Z" fill="#F7F6F6"/>
    <path d="M53.9655 37.7854C54.8278 37.7854 54.6841 38.3603 54.8278 38.7914C54.8278 39.2226 54.8278 39.6537 54.3966 39.6537C53.6781 39.6537 53.3906 39.0788 53.3906 38.3603C53.3906 37.6417 54.2529 38.3603 54.1092 37.7854H53.9655Z" fill="#FBF9F9"/>
    <path d="M39.158 29.0203C39.158 29.0203 38.5831 29.5951 38.2957 30.0263C38.2957 30.0263 38.152 30.0263 38.0083 30.17C37.4334 30.4574 37.146 30.8886 36.5711 31.176C36.14 31.4634 35.8525 31.7509 35.4214 31.8946C35.2777 31.8946 34.9902 31.8946 34.9902 31.8946C34.9902 31.6071 34.9902 31.4634 35.2777 31.3197C35.8525 30.7448 36.5711 30.17 37.2897 29.8826C37.8645 29.4514 38.5831 29.4514 39.158 29.164V29.0203Z" fill="#AEA8A9"/>
    <path d="M34.2734 64.8039C34.5609 63.7979 35.1357 63.2231 36.1417 63.0793C36.1417 64.2291 35.4232 64.6602 34.2734 64.8039Z" fill="#F6F3F3"/>
    <path d="M59.9957 54.459C60.4269 55.6087 59.7083 55.8961 58.846 56.1836C58.4149 55.0338 58.9897 54.6027 59.9957 54.459Z" fill="#F6F4F3"/>
    <path d="M32.9783 63.6543C32.9783 63.6543 33.9844 63.6543 33.8406 64.3729C33.8406 65.3789 32.9783 65.3789 32.2598 65.5226C32.2598 64.804 33.1221 64.3729 32.9783 63.6543Z" fill="#F5F4F3"/>
    <path d="M32.6956 34.4811C32.6956 34.4811 32.4082 34.0499 32.4082 33.7625C32.4082 33.7625 32.4082 33.6188 32.5519 33.4751C33.1268 32.9002 33.7016 32.1816 34.4202 31.7505C34.5639 31.7505 34.7076 31.8942 34.7076 32.0379C34.4202 33.1876 33.9891 34.0499 32.6956 34.3374V34.4811Z" fill="#3E3A3A"/>
    <path d="M56.9826 56.899C56.6952 55.893 56.9826 55.4618 57.9886 55.3181C58.276 56.1804 57.9886 56.7553 56.9826 56.899Z" fill="#EFEDEC"/>
    <path d="M40.0242 61.9287C40.0242 62.9347 39.4494 63.2221 38.7308 63.3659C38.4434 63.3659 38.4434 63.2222 38.4434 62.9347C38.5871 62.0724 39.4494 62.0724 40.0242 61.9287Z" fill="#F7F5F4"/>
    <path d="M37.1453 29.7368C37.1453 29.7368 35.8519 30.8865 35.277 31.3177C35.1333 31.3177 34.9896 31.3177 34.8459 31.3177C34.8459 31.3177 34.7021 31.0303 34.7021 30.8865C35.4207 30.0242 36.4267 30.0242 37.289 29.7368H37.1453Z" fill="#F6F2F3"/>
    <path d="M68.9099 50.866C68.9099 50.866 68.9099 51.5845 67.9038 51.872C67.7601 51.872 67.6164 52.3031 67.4727 52.5906C67.2811 51.8241 67.7601 51.2492 68.9099 50.866Z" fill="#EDEAE9"/>
    <path d="M38.157 39.6549C38.157 39.6549 37.4385 40.5172 37.0073 41.092C37.4385 41.092 37.8696 41.3795 38.0133 40.8046C38.0133 40.8046 38.0133 40.8046 38.157 40.8046C38.157 40.9483 38.157 41.092 38.4445 41.092C37.8696 41.5232 37.151 41.3795 36.5762 41.092C37.0073 40.3734 37.2947 39.7986 38.0133 39.3674C38.3008 39.3674 38.3008 39.3674 38.3008 39.6549H38.157Z" fill="#3B3737"/>
    <path d="M42.6113 40.2292C43.0425 39.3669 43.9048 38.9358 44.7671 38.5046C45.0545 38.5046 45.0545 38.5046 45.0545 38.7921C44.6233 39.2232 44.3359 39.5106 43.9048 39.9418C43.6173 40.3729 43.1862 40.0855 42.755 40.2292H42.6113Z" fill="#6D6868"/>
    <path d="M64.0205 53.8817C64.0205 52.8757 64.4517 52.4446 65.314 52.4446C65.7451 53.5943 64.8828 53.5943 64.0205 53.8817Z" fill="#F0EEEC"/>
    <path d="M60.8624 55.4617C60.8624 55.4617 60.575 54.1682 61.2936 53.8808C61.7247 53.7371 61.8685 53.8808 62.0122 54.3119C62.0122 55.1742 61.4373 55.0305 60.8624 55.318V55.4617Z" fill="#FAF8F8"/>
    <path d="M32.6906 34.4802C33.5529 33.9054 34.1278 33.1868 34.5589 32.1808C34.5589 32.0371 34.7026 32.0371 34.8463 32.1808C34.8463 32.6119 34.8463 32.8994 34.8463 33.3305C34.8463 33.3305 34.7026 33.4742 34.5589 33.6179C34.1278 34.1928 33.4092 34.624 32.8343 35.0551C32.5469 35.0551 32.5469 34.7677 32.5469 34.624L32.6906 34.4802Z" fill="#3E3A39"/>
    <path d="M36.7199 63.9411C36.7199 63.9411 36.8636 62.7914 37.4385 62.6477C37.5822 62.6477 37.8696 62.6477 37.7259 62.7914C37.7259 63.3663 37.4385 63.9411 36.5762 63.9411H36.7199Z" fill="#EFEBEB"/>
    <path d="M40.457 62.6477C40.457 62.6477 40.7445 61.3542 41.463 61.498C41.8942 61.498 41.7505 61.9291 41.7505 62.0728C41.7505 62.7914 41.0319 62.6477 40.457 62.6477Z" fill="#FBFBFA"/>
    <path d="M63.4512 53.1638C63.4512 53.1638 63.8823 54.1698 63.1637 54.3135C63.02 54.3135 62.7326 54.601 62.5889 54.1698C62.5889 53.595 62.7326 53.3075 63.4512 53.1638Z" fill="#D6D2D0"/>
    <path d="M66.7585 51.7256C66.7585 51.7256 66.7585 52.8753 66.1836 53.1627C66.1836 52.5879 65.7525 52.013 66.7585 51.7256Z" fill="#ECE7E6"/>
    <path d="M32.9783 31.6062C32.9783 31.6062 33.2658 31.175 33.4095 31.175C33.6969 31.175 33.6969 31.4625 33.8406 31.7499C33.8406 32.1811 33.5532 32.4685 33.2658 32.7559C32.9783 33.0433 32.6909 33.1871 32.2598 32.7559C32.2598 32.1811 32.6909 32.1811 32.9783 31.8936V31.6062Z" fill="#544F4F"/>
    <path d="M50.5111 27.0079C50.5111 27.0079 49.5051 27.4391 49.6488 28.1576C49.5051 28.0139 49.3614 27.8702 49.074 27.7265C48.9302 27.4391 49.074 27.2954 49.3614 27.0079C49.5051 27.0079 49.6488 26.5768 50.08 26.7205C50.2237 26.7205 50.5111 26.7205 50.5111 26.8642V27.0079Z" fill="#5A5756"/>
    <path d="M46.6309 28.3004C46.6309 28.3004 47.4932 27.5819 48.068 27.2944C48.2117 27.4381 48.068 27.5819 48.068 27.8693C47.6369 28.3004 47.2057 28.4442 46.6309 28.4442V28.3004Z" fill="#837E7E"/>
    <path d="M32.9824 34.9105C32.9824 34.9105 33.9884 33.7607 34.5633 33.3296C34.8507 34.0482 34.2759 34.1919 33.8447 34.4793C33.5573 34.4793 33.4136 35.0542 32.9824 34.9105Z" fill="#FDFBFB"/>
    <path d="M39.4453 40.8046C39.4453 40.8046 40.3076 39.7986 40.7388 39.3674C40.7388 39.3674 40.8825 39.3674 41.0262 39.3674C40.595 39.7986 40.1639 40.3734 39.8765 40.8046C39.7327 40.8046 39.589 40.8046 39.4453 40.8046Z" fill="#151213"/>
    <path d="M36.4277 31.1739C36.4277 31.1739 37.1463 30.1679 37.8649 30.0242C37.8649 30.4553 37.5775 30.599 37.4337 30.8865C37.1463 31.1739 36.8589 31.3176 36.4277 31.1739Z" fill="#7D7877"/>
    <path d="M49.6505 27.2952C49.6505 27.2952 49.2193 27.5826 49.0756 27.87C48.9319 27.87 48.6444 28.1575 48.6444 27.7263C48.357 27.4389 48.6444 27.1515 48.9319 27.0078C49.363 26.864 49.6505 27.0077 49.5067 27.4389L49.6505 27.2952Z" fill="#6C6566"/>
    <path d="M33.6976 31.6047C33.6976 31.6047 33.5539 31.1736 33.4102 31.0299C33.6976 31.0299 33.985 30.455 34.4162 30.8862C34.5599 31.3173 34.4162 31.461 33.985 31.7485C33.985 31.7485 33.8413 31.7485 33.6976 31.7485V31.6047Z" fill="#7C7273"/>
    <path d="M34.8483 32.1805C34.8483 32.1805 34.7046 32.1805 34.5609 32.1805C34.5609 32.1805 34.5609 31.893 34.4171 31.893C34.4171 31.893 34.2734 31.7493 34.2734 31.6056C34.2734 31.3182 34.5609 31.0307 34.8483 31.1745C34.8483 31.1745 35.1357 31.3182 35.2794 31.4619C35.2794 31.4619 34.992 31.7493 34.992 31.893C34.992 31.893 35.2794 31.893 35.4232 31.893C35.2794 31.893 35.1357 32.0367 34.992 32.1805H34.8483Z" fill="#6D6767"/>
    <path d="M32.2598 32.6129C32.2598 32.6129 32.8346 32.6129 32.9783 32.3254C32.9783 32.3254 33.1221 32.6129 33.1221 32.7566C33.1221 33.1877 32.6909 33.3314 32.4035 33.7626C32.1161 33.4752 32.4035 33.044 32.2598 32.6129Z" fill="#383232"/>
    <path d="M33.8457 34.4793C33.8457 34.4793 34.708 33.9045 34.5643 33.3296C34.5643 33.3296 34.708 33.3296 34.8517 33.3296C34.8517 34.0482 34.8517 34.623 33.8457 34.4793Z" fill="#5B5353"/>
    <path d="M43.1815 60.9253C43.1815 60.9253 42.894 61.9313 42.7503 62.2187C42.7503 62.2187 42.4629 62.2187 42.4629 62.075C42.4629 61.6439 42.4629 61.2127 43.1815 60.9253Z" fill="#F7F4F4"/>
    <path d="M56.1195 56.0373V56.3247C56.1195 56.6121 56.4069 57.0433 56.1195 57.3307C56.1195 57.3307 55.9757 57.3307 55.832 57.3307C55.832 57.0433 55.832 56.6121 55.9757 56.3247C55.9757 56.3247 55.9757 56.0373 56.1195 55.8936V56.0373Z" fill="#FEFDFD"/>
    <path d="M48.7879 26.8627L48.5005 27.5813C48.5005 27.5813 48.2131 27.5813 48.0693 27.5813C48.0693 27.4376 48.0693 27.2939 48.0693 27.0064C48.0693 27.0064 48.2131 26.8627 48.3568 26.719C48.5005 26.719 48.6442 26.719 48.7879 26.719V26.8627Z" fill="#A9A1A1"/>
    <path d="M38.4434 30.1689C38.4434 30.1689 39.0182 29.3066 39.4494 30.1689C39.1619 30.3126 38.8745 30.4563 38.4434 30.4563V30.1689Z" fill="#706A6B"/>
    <path d="M38.4404 30.168C38.4404 30.168 38.4404 30.168 38.4404 30.3118C38.153 30.3118 37.8656 30.5992 37.5781 30.7429C37.5781 30.3118 37.8656 30.168 38.0093 29.8806C38.0093 29.8806 38.153 29.8806 38.2967 29.8806C38.2967 29.8806 38.4404 30.0243 38.5841 30.168H38.4404Z" fill="#CFC9C7"/>
    <path d="M34.847 31.1746C34.847 31.1746 34.4158 31.4621 34.2721 31.6058C34.2721 31.7495 33.9847 32.0369 33.6973 31.8932C33.6973 31.8932 33.6973 31.7495 33.6973 31.6058C33.841 31.3183 33.9847 31.1746 34.1284 30.8872C34.1284 30.8872 34.2721 30.8872 34.4158 30.8872C34.4158 30.8872 34.5596 31.0309 34.7033 31.1746H34.847Z" fill="#6D6768"/>
    <path d="M32.9796 31.6062C32.9796 31.6062 32.5484 32.1811 32.261 32.4685C32.1173 31.8936 32.261 31.7499 32.9796 31.6062Z" fill="#B4A8AA"/>
    <path d="M49.6481 27.296C49.6481 27.296 49.3607 26.8649 49.0732 26.8649C49.3607 26.4337 49.7918 26.5775 50.0793 26.8649C50.0793 26.8649 49.7918 27.1523 49.6481 27.296Z" fill="#EBE0E3"/>
    <path d="M47.3555 38.9352C47.3555 38.9352 47.3555 38.2166 47.9303 37.9292C48.074 38.3603 47.6429 38.5041 47.6429 38.9352C47.6429 38.9352 47.4992 38.9352 47.3555 38.9352Z" fill="#8A8686"/>
    <path d="M31.546 46.5534C31.2586 47.5594 30.54 48.278 29.6777 48.8528C29.9652 47.8468 30.6837 47.272 31.2586 46.4097C31.4023 46.4097 31.546 46.4097 31.4023 46.6971L31.546 46.5534Z" fill="#282626"/>
    <path d="M32.2656 50.1459C31.9782 51.0082 31.4033 51.7268 30.8284 52.3016C30.8284 52.3016 30.6847 52.3016 30.541 52.1579C31.1159 51.4394 31.547 50.7208 32.1219 50.0022C32.2656 50.0022 32.4093 50.0022 32.2656 50.2896V50.1459Z" fill="#272425"/>
    <path d="M33.1211 53.4513C33.1211 53.4513 32.2588 55.0322 31.3965 55.4634C31.6839 54.6011 32.2588 53.8825 32.9774 53.3076C33.1211 53.3076 33.2648 53.3076 33.1211 53.595V53.4513Z" fill="#343132"/>
    <path d="M65.4578 40.5154C65.4578 40.5154 65.4578 41.6651 65.1704 42.0962C65.1704 42.24 64.883 42.5274 64.5955 42.3837C64.3081 42.3837 64.3081 41.9525 64.4518 41.8088C64.5955 41.3777 64.7393 40.9465 65.4578 40.5154Z" fill="#A2A0A0"/>
    <path d="M32.6933 51.5813C32.2622 52.2999 31.831 53.1622 30.9688 53.8807C31.2562 52.731 31.9748 52.1562 32.4059 51.5813C32.4059 51.5813 32.5496 51.5813 32.6933 51.5813Z" fill="#252323"/>
    <path d="M62.7305 37.9306C62.8742 36.9246 64.0239 36.7808 64.4551 36.0623C64.5988 36.0623 64.7425 36.0623 64.7425 36.3497C64.4551 36.7808 64.0239 37.0683 63.7365 37.4994C63.3053 37.4994 63.3053 38.218 62.7305 37.9306Z" fill="#787575"/>
    <path d="M61.4395 33.0434C61.8706 32.3249 62.5892 31.75 63.3078 31.3188C62.8766 32.0374 62.4455 32.756 61.7269 33.3309C61.7269 33.3309 61.5832 33.3309 61.5832 33.1872L61.4395 33.0434Z" fill="#858282"/>
    <path d="M64.6012 38.3599C64.6012 38.3599 64.0264 39.3659 63.4515 39.6533C63.3078 39.6533 63.1641 39.6533 63.1641 39.3659C63.4515 38.9347 63.7389 38.6473 64.0264 38.2162C64.3138 38.2162 64.6012 37.9287 64.6012 38.3599Z" fill="#524E4E"/>
    <path d="M60.1465 29.7393C60.1465 29.7393 58.9967 30.7453 58.4219 31.3202C58.4219 30.3142 59.4279 30.0268 59.859 29.4519C59.859 29.4519 59.859 29.4519 60.0027 29.4519C60.0027 29.4519 60.0027 29.5956 60.0027 29.7393H60.1465Z" fill="#888686"/>
    <path d="M63.0187 35.918C63.0187 35.918 62.0127 37.2115 61.1504 37.4989C61.7253 36.7803 62.1564 36.0618 63.0187 35.6306C63.0187 35.6306 63.0187 35.7743 63.0187 35.918Z" fill="#302E2E"/>
    <path d="M60.14 32.1805C60.14 32.1805 61.0023 31.0308 61.5772 30.5996C61.5772 30.5996 61.5772 30.7433 61.5772 30.887C61.1461 31.4619 60.5712 32.1805 60.14 32.7553C59.9963 32.6116 60.14 32.3242 60.14 32.1805Z" fill="#747272"/>
    <path d="M65.4585 43.246C66.752 43.1023 66.3208 43.8209 66.0334 44.5395C65.746 44.252 66.0334 43.6772 65.3148 43.8209C65.1711 43.6772 65.1711 43.3898 65.3148 43.246H65.4585Z" fill="#D1D0D0"/>
    <path d="M30.8256 45.1146C30.8256 45.1146 30.107 46.1206 29.8196 46.6955C29.6758 45.8332 30.2507 45.402 30.5381 44.8271C30.8256 44.8271 30.8256 44.8271 30.8256 45.1146Z" fill="#282626"/>
    <path d="M31.5426 48.7076C31.5426 48.7076 30.824 49.7136 30.1055 50.2885C30.2492 49.2825 30.824 48.995 31.2552 48.4202C31.3989 48.4202 31.5426 48.4202 31.3989 48.7076H31.5426Z" fill="#1F1D1D"/>
    <path d="M33.4145 55.3181C33.4145 55.3181 32.8397 56.6116 32.1211 57.1864C32.2648 56.3241 32.8397 55.893 33.1271 55.3181H33.4145Z" fill="#3C3939"/>
    <path d="M61.8649 35.1995C61.8649 35.1995 61.1463 35.918 60.7152 36.3492C60.7152 36.3492 60.5714 36.3492 60.4277 36.2055C60.5714 35.7743 61.0026 35.4869 61.4337 35.1995C61.5775 35.1995 61.7212 35.1995 61.8649 35.1995Z" fill="#565454"/>
    <path d="M61.8706 35.1978C61.8706 35.1978 61.5832 35.1978 61.4395 35.1978C62.0143 34.6229 62.5892 34.1918 63.164 33.6169C63.164 33.6169 63.3078 33.6169 63.4515 33.6169C62.8766 34.1918 62.4455 34.7667 61.8706 35.3415V35.1978Z" fill="#696868"/>
    <path d="M33.6966 57.044C33.6966 57.044 33.2655 58.05 32.5469 58.3375C32.5469 57.6189 33.1217 57.3315 33.5529 56.7566C33.8403 56.7566 33.8403 56.7566 33.8403 57.044H33.6966Z" fill="#393737"/>
    <path d="M32.2648 50.1444C32.2648 50.1444 32.2648 50.0007 32.1211 49.857C32.2648 49.2821 32.5522 48.851 33.2708 48.2761C32.9834 49.1384 32.696 49.5696 32.4085 50.0007L32.2648 50.1444Z" fill="#605E5E"/>
    <path d="M60.8641 34.0487C60.8641 34.0487 60.1455 35.0547 59.2832 35.4858C59.7143 34.6235 60.2892 34.1924 60.8641 33.7612V34.0487Z" fill="#353333"/>
    <path d="M62.7328 37.9297C62.7328 37.9297 63.164 37.2111 63.7388 37.4985C63.5951 37.786 63.3077 38.0734 63.0203 38.3608C62.8765 38.5045 62.5891 38.9357 62.3017 38.6483C62.0142 38.3608 62.3017 38.2171 62.5891 38.0734L62.7328 37.9297Z" fill="#595757"/>
    <path d="M64.0246 40.2297C64.0246 40.2297 64.312 39.6549 64.5994 39.3674C64.7431 39.3674 65.1743 39.3674 65.318 39.3674C65.318 39.3674 65.1743 39.7986 64.8869 39.7986C64.5994 39.7986 64.312 40.3734 63.8809 40.086L64.0246 40.2297Z" fill="#A39F9F"/>
    <path d="M30.1038 44.2518C30.1038 44.2518 29.529 45.2578 28.9541 45.5452C28.9541 44.8267 29.529 44.3955 29.9601 43.9644C30.1038 43.9644 30.2475 43.9644 30.2475 44.2518H30.1038Z" fill="#272525"/>
    <path d="M60.1458 32.1816V32.7565C60.1458 32.7565 59.7147 33.4751 58.9961 33.4751C59.2835 32.9002 59.7147 32.6128 60.1458 32.1816Z" fill="#4A4849"/>
    <path d="M29.39 39.5113C29.39 39.5113 28.6714 40.3736 28.2402 40.8048C28.2402 40.0862 28.8151 39.655 29.39 39.2239C29.39 39.2239 29.39 39.5113 29.39 39.655V39.5113Z" fill="#6C6A6B"/>
    <path d="M29.3906 40.8048C29.3906 40.8048 29.9655 39.9425 30.3966 39.655C30.3966 40.3736 30.1092 40.661 29.6781 41.0922C29.6781 41.0922 29.5343 41.0922 29.5343 40.8048H29.3906Z" fill="#7E7B7B"/>
    <path d="M29.3906 42.6717L30.3966 41.522C30.3966 41.522 30.6841 41.522 30.6841 41.8094L29.6781 42.9591C29.6781 42.9591 29.3906 42.9591 29.3906 42.6717Z" fill="#5B5858"/>
    <path d="M30.1048 44.2536C30.1048 44.2536 29.9611 44.1098 29.8174 43.9661L30.6797 42.8164C30.6797 42.8164 30.9671 42.8164 30.9671 43.1038C30.6797 43.535 30.3922 43.9661 29.9611 44.2536H30.1048Z" fill="#524F4F"/>
    <path d="M61.0094 30.0242C61.0094 30.0242 60.1471 30.8865 59.8597 31.1739H59.5723L60.722 30.0242H61.0094Z" fill="#676464"/>
    <path d="M63.7324 34.7672C63.7324 34.7672 64.451 34.1924 65.0259 33.7612C64.7384 34.4798 64.451 34.7672 64.0199 35.0547C64.0199 35.0547 63.8761 35.0547 63.8761 34.7672H63.7324Z" fill="#8C8B8A"/>
    <path d="M64.7435 36.3492C64.7435 36.3492 64.5998 36.2055 64.4561 36.0618C64.4561 35.6306 64.8872 35.4869 65.3183 35.1995C65.4621 35.918 65.0309 36.0618 64.7435 36.3492Z" fill="#B0B0B0"/>
    <path d="M34.7031 59.9176C34.7031 59.9176 34.7031 60.4924 34.1283 60.6361C34.1283 60.6361 33.6971 60.6361 33.8409 60.3487C33.8409 60.0613 34.1283 59.7738 34.4157 59.6301C34.4157 59.6301 34.7031 59.6301 34.7031 59.9176Z" fill="#706D6E"/>
    <path d="M32.6956 51.5843C32.6956 51.5843 32.5519 51.5843 32.4082 51.5843C32.6956 51.1532 32.8393 50.8657 33.1268 50.4346C33.1268 51.0094 33.1268 51.4406 32.6956 51.5843Z" fill="#5A5858"/>
    <path d="M31.5402 48.7103C31.5402 48.7103 31.5402 48.5666 31.3965 48.4229C31.5402 47.8481 32.1151 47.7043 32.4025 47.2732C32.5462 47.2732 32.6899 47.2732 32.5462 47.5606C32.2588 47.9918 31.9713 48.4229 31.5402 48.7103Z" fill="#444242"/>
    <path d="M31.1156 42.9595L30.8281 42.6721C30.8281 42.6721 31.2593 42.0972 31.6904 41.8098C31.6904 42.3847 31.403 42.6721 31.1156 42.9595Z" fill="#8B8889"/>
    <path d="M30.5413 41.8121C30.5413 41.8121 30.3976 41.6684 30.2539 41.5246C30.3976 41.0935 30.8288 40.8061 31.4036 40.2312C31.2599 41.0935 30.8288 41.3809 30.3976 41.8121H30.5413Z" fill="#888787"/>
    <path d="M63.1637 39.3674C63.1637 39.3674 63.3074 39.5111 63.4512 39.6549C63.3074 39.9423 63.02 40.2297 62.5889 40.2297C62.5889 39.7986 62.8763 39.6549 63.1637 39.3674Z" fill="#484646"/>
    <path d="M29.3906 39.5102C29.3906 39.5102 29.3906 39.2228 29.3906 39.0791C29.3906 38.6479 29.8218 38.3605 30.2529 38.2168C29.9655 38.6479 29.9655 39.2228 29.3906 39.5102Z" fill="#A6A6A6"/>
    <path d="M64.5954 38.3599C64.5954 38.3599 64.1642 38.3599 64.0205 38.2162C64.4517 37.9288 64.8828 37.6414 65.4577 37.2102C65.1702 37.7851 64.8828 38.2162 64.5954 38.3599Z" fill="#7D7A7A"/>
    <path d="M59.4276 31.175C59.4276 31.175 59.5713 31.175 59.715 31.175C59.5713 31.6062 59.2838 32.0373 58.709 32.1811C58.709 31.6062 59.1401 31.4625 59.4276 31.175Z" fill="#535151"/>
    <path d="M29.3849 40.8027C29.3849 40.8027 29.3849 40.9464 29.5286 41.0902C29.2412 41.3776 28.9538 41.9525 28.3789 42.0962C28.6663 41.5213 29.0975 41.2339 29.3849 40.8027Z" fill="#454343"/>
    <path d="M65.4569 43.2475C65.4569 43.2475 65.4569 43.535 65.4569 43.8224C64.4509 43.3913 65.4569 42.9601 65.4569 42.3853C65.888 42.6727 65.4569 42.9601 65.4569 43.2475Z" fill="#9F9C9D"/>
    <path d="M29.3903 42.6726C29.3903 42.6726 29.534 42.8163 29.6777 42.96C29.3903 43.2475 29.2466 43.5349 28.8154 43.6786C28.8154 43.1038 29.1029 42.96 29.3903 42.6726Z" fill="#484646"/>
    <path d="M31.832 45.5457C31.832 45.5457 32.2632 44.9709 32.5506 44.396C32.6943 45.2583 32.2632 45.402 32.1195 45.8332C32.1195 45.8332 31.9757 45.8332 31.9757 45.5457H31.832Z" fill="#706F6F"/>
    <path d="M33.8412 59.0546C33.8412 59.0546 33.5538 59.4857 33.4101 59.342C33.1226 59.0546 33.4101 58.7672 33.6975 58.4797C34.1287 58.4797 34.1287 58.7672 33.9849 58.9109L33.8412 59.0546Z" fill="#666364"/>
    <path d="M60.8633 34.0481V33.7607C60.8633 33.4732 61.1507 33.3295 61.4381 33.1858H61.5819C61.5819 33.1858 61.2944 34.0481 60.8633 34.1918V34.0481Z" fill="#6F6C6C"/>
    <path d="M63.7392 34.7678C63.7392 34.7678 63.7392 34.9115 63.883 35.0553C63.5955 35.3427 63.3081 35.7738 62.877 36.0613C62.877 36.0613 62.877 35.9175 62.877 35.7738C63.1644 35.4864 63.3081 35.199 63.5955 34.9115L63.7392 34.7678Z" fill="#5A5657"/>
    <path d="M31.2559 43.9666C31.2559 43.9666 31.5433 43.3918 31.9744 43.248C31.9744 43.8229 31.5433 44.1103 31.3996 44.3978C31.3996 44.3978 31.3996 44.1103 31.3996 43.9666H31.2559Z" fill="#5A5657"/>
    <path d="M33.6976 57.0429C33.6976 57.0429 33.5539 56.8992 33.4102 56.7554C33.6976 56.468 33.8413 56.0369 34.2725 55.6057C34.2725 56.3243 33.8413 56.6117 33.6976 57.0429Z" fill="#6E6C6C"/>
    <path d="M32.4035 47.5593C32.4035 47.5593 32.4035 47.4156 32.2598 47.2719C32.2598 46.9845 32.2598 46.697 32.8346 46.697C32.8346 47.1282 32.8346 47.2719 32.5472 47.5593H32.4035Z" fill="#747272"/>
    <path d="M64.3136 40.659C64.3136 40.659 63.8824 41.2339 63.595 40.9464C63.3076 40.659 63.8824 40.5153 64.0261 40.3716C64.3136 40.3716 64.3136 40.3716 64.3136 40.659Z" fill="#4D4A4B"/>
    <path d="M61.5781 30.8865C61.5781 30.8865 61.5781 30.7427 61.5781 30.599C61.7218 30.3116 62.0093 30.0242 62.4404 30.0242C62.153 30.4553 61.8656 30.7427 61.5781 31.0302V30.8865Z" fill="#908F8F"/>
    <path d="M33.4105 55.3213C33.4105 55.3213 33.2668 55.3213 33.123 55.3213C33.2668 55.0338 33.2668 54.6027 33.6979 54.459C33.8416 54.8901 33.6979 55.0338 33.4105 55.3213Z" fill="#807E7E"/>
    <path d="M33.1261 53.4506C33.1261 53.4506 33.1261 53.3069 32.9824 53.1632C32.9824 52.8757 33.2699 52.5883 33.5573 52.4446C33.5573 52.8757 33.5573 53.1632 33.2699 53.3069L33.1261 53.4506Z" fill="#757372"/>
    <path d="M31.8307 45.5464C31.8307 45.5464 31.8307 45.6901 31.9744 45.8338C31.8307 46.1212 31.687 46.265 31.3996 46.5524C31.3996 46.5524 31.3996 46.4087 31.2559 46.265C31.3996 45.9775 31.5433 45.8338 31.687 45.5464H31.8307Z" fill="#3A3737"/>
    <path d="M31.2596 43.9644C31.2596 43.9644 31.2596 44.2518 31.2596 44.3955C31.1159 44.6829 30.9722 44.8266 30.8284 45.1141L30.541 44.8266C30.541 44.8266 30.9722 44.2518 31.1159 43.9644H31.2596Z" fill="#464343"/>
    <path d="M64.3079 40.6615C64.3079 40.6615 64.1642 40.5177 64.0205 40.374C64.0205 40.374 64.0205 40.374 64.0205 40.2303C64.3079 40.2303 64.5954 40.0866 65.0265 39.9429C64.8828 40.2303 64.5954 40.5177 64.3079 40.6615Z" fill="#726F70"/>
    <path d="M63.4515 33.4757C63.4515 33.4757 63.3078 33.4757 63.1641 33.4757C63.3078 33.1882 63.5952 32.9008 64.0264 32.7571C64.0264 33.1882 63.7389 33.3319 63.4515 33.4757Z" fill="#8A898A"/>
    <path d="M61.0023 30.0267H60.7148C61.0023 29.7393 61.146 29.3081 61.5771 29.3081C61.5771 29.5955 61.2897 29.883 61.0023 30.0267Z" fill="#888686"/>
    <path d="M60.1437 29.738C60.1437 29.738 60.1437 29.738 60 29.5943C60.1437 29.4506 60.4311 29.0195 60.5749 29.3069C60.5749 29.4506 60.4311 29.738 60.1437 29.738Z" fill="#B8B7B6"/>
    <path d="M33.846 59.0559C33.846 59.0559 33.846 58.6248 33.5586 58.6248C33.7023 58.3373 33.9897 58.3373 34.1335 58.6248C34.2772 58.9122 34.1335 59.0559 33.846 59.1996V59.0559Z" fill="#969394"/>
    <path d="M38.1543 40.8047C38.1543 39.9424 39.0166 39.6549 39.4477 39.0801C39.4477 39.0801 39.5914 39.0801 39.7352 39.0801C39.304 39.6549 38.8729 40.3735 38.298 40.661L38.1543 40.8047Z" fill="#302D2C"/>
    <path d="M42.4629 38.9346C42.4629 38.9346 43.3252 37.9286 44.1875 37.3538C43.9 38.3598 43.1815 38.6472 42.7503 39.2221C42.6066 39.2221 42.4629 39.2221 42.4629 38.9346Z" fill="#8C8888"/>
    <path d="M35.8516 37.0678C35.8516 37.0678 36.5701 36.2055 37.2887 35.6306C37.0013 36.4929 36.5701 36.9241 36.139 37.2115C35.9953 37.2115 35.9953 37.2115 35.8516 36.9241V37.0678Z" fill="#AAA7A7"/>
    <path d="M35.7129 40.5172C35.7129 40.5172 36.2877 39.5112 36.7189 39.0801C37.0063 39.0801 37.0063 39.0801 37.0063 39.3675C36.4315 39.6549 36.7189 40.661 35.7129 40.5172Z" fill="#353232"/>
    <path d="M37.7262 36.6373C37.7262 36.6373 37.0076 37.6433 36.5765 38.0744C36.4328 38.0744 36.4328 37.9307 36.2891 37.787C36.5765 37.2122 37.1514 36.781 37.5825 36.3499C37.5825 36.3499 37.5825 36.4936 37.5825 36.6373H37.7262Z" fill="#706D6D"/>
    <path d="M41.3193 38.7911C41.3193 38.7911 42.1816 37.9288 42.7565 37.2102C42.4691 38.0725 42.0379 38.5036 41.6068 38.9348C41.4631 38.9348 41.4631 38.7911 41.3193 38.6474V38.7911Z" fill="#5B5859"/>
    <path d="M36.287 37.7854C36.287 37.7854 36.4307 37.9291 36.5744 38.0728C36.287 38.504 35.9996 38.9351 35.7121 39.3663C35.5684 38.6477 35.9996 38.2165 36.287 37.7854Z" fill="#484545"/>
    <path d="M38.1536 39.654L37.8662 39.3665L39.0159 38.2168C39.0159 38.2168 39.3034 38.2168 39.3034 38.5042C38.8722 38.9354 38.5848 39.3665 38.1536 39.654Z" fill="#625F5F"/>
    <path d="M42.465 38.9358C42.465 38.9358 42.6087 39.0795 42.7524 39.2232C42.3213 39.5107 42.3213 40.2292 41.459 40.2292C41.8901 39.6544 42.1776 39.3669 42.6087 39.0795L42.465 38.9358Z" fill="#423F40"/>
    <path d="M39.5941 39.2227C39.5941 39.2227 39.4504 39.2227 39.3066 39.2227C39.7378 38.7916 40.0252 38.5041 40.4564 38.073C40.4564 38.073 40.6001 38.073 40.7438 38.073C40.4564 38.5041 40.0252 38.9353 39.5941 39.2227Z" fill="#494647"/>
    <path d="M37.0023 39.5102L36.7148 39.2227C36.7148 39.2227 37.4334 38.5041 37.7209 38.073C37.8646 38.073 38.0083 38.073 37.8646 38.3604C37.5771 38.7916 37.2897 39.2227 36.8586 39.5102H37.0023Z" fill="#494646"/>
    <path d="M39.306 38.5036C39.306 38.5036 39.1623 38.3599 39.0186 38.2162C39.306 37.9288 39.5934 37.6414 40.0246 37.2102C40.312 37.2102 40.312 37.2102 40.312 37.4976C40.0246 37.7851 39.7371 38.0725 39.306 38.5036Z" fill="#838080"/>
    <path d="M35.1377 36.3491C35.1377 36.3491 35.7126 35.7742 36 35.4868C36 36.2054 35.7126 36.3491 35.4251 36.6365C35.4251 36.6365 35.2814 36.6365 35.2814 36.3491H35.1377Z" fill="#A2A3A3"/>
    <path d="M35.1345 36.3499C35.1345 36.3499 35.1345 36.4936 35.2783 36.6373C35.1345 36.781 34.9908 37.2122 34.7034 37.2122C34.416 36.781 34.9908 36.6373 35.1345 36.3499Z" fill="#7B7A7A"/>
    <path d="M35.8582 37.0664L36.1456 37.3538C36.1456 37.3538 36.0019 38.0724 35.427 38.0724C35.1396 37.6413 35.7145 37.4976 35.8582 37.0664Z" fill="#676464"/>
    <path d="M40.7445 38.0724C40.7445 38.0724 40.6007 38.0724 40.457 38.0724C40.7445 37.785 41.0319 37.4976 41.3193 37.0664C41.3193 37.6413 41.0319 37.9287 40.7445 38.0724Z" fill="#615E5F"/>
    <path d="M37.8703 38.2161C37.8703 38.2161 37.8703 38.0724 37.7266 37.9287C37.8703 37.6413 38.3014 37.3538 38.5889 37.0664C38.5889 37.0664 38.5889 37.2101 38.5889 37.3538C38.3014 37.6413 38.1577 37.785 37.8703 38.0724V38.2161Z" fill="#6B6969"/>
    <path d="M38.582 37.5007V37.2133C38.582 36.9259 38.8695 36.7821 39.3006 36.6384C39.3006 37.2133 38.8695 37.357 38.582 37.6444V37.5007Z" fill="#7D7C7C"/>
    <path d="M37.7266 36.6372C37.7266 36.6372 37.7266 36.4935 37.7266 36.3498C37.7266 36.0623 38.014 35.9186 38.4451 35.7749C38.4451 36.206 38.1577 36.3498 37.8703 36.6372H37.7266Z" fill="#888687"/>
    <path d="M40.3079 37.4992C40.3079 37.4992 40.1642 37.3555 40.0205 37.2118C40.1642 37.068 40.3079 36.6369 40.5954 36.9243C40.7391 37.068 40.5954 37.3555 40.3079 37.4992Z" fill="#A19E9E"/>
    <path d="M41.3149 38.7922C41.3149 38.7922 41.4587 38.936 41.6024 39.0797L41.1712 39.5108C41.1712 39.5108 41.0275 39.5108 40.8838 39.5108C41.0275 39.2234 41.3149 39.0797 41.4587 38.7922H41.3149Z" fill="#403E3E"/>
    <path d="M45.0511 38.6482C45.0511 38.6482 44.9074 38.5045 44.7637 38.3608C44.7637 38.2171 45.0511 37.9296 45.3385 38.0733C45.626 38.3608 45.3385 38.5045 45.0511 38.5045V38.6482Z" fill="#B5B6B6"/>
    <path d="M33.8406 31.8936C33.8406 31.8936 34.1281 31.7499 34.2718 31.6062C34.2718 31.6062 34.2718 31.7499 34.2718 31.8936C33.6969 32.6122 33.1221 33.3308 32.2598 33.7619C32.2598 33.3308 32.6909 33.1871 32.6909 32.8996C32.9783 32.4685 33.1221 32.1811 33.6969 31.8936H33.8406Z" fill="#F8F5F5"/>
    <path d="M33.8419 31.8942L32.8359 32.9002C32.8359 32.9002 32.8359 32.6128 32.8359 32.4691C33.1234 32.3253 33.4108 32.0379 33.5545 31.7505C33.5545 31.7505 33.6982 31.7505 33.8419 31.7505C33.8419 31.7505 33.8419 31.8942 33.8419 32.0379V31.8942Z" fill="#444141"/>
    <path d="M135.38 29.5369C135.38 29.5369 135.811 28.7901 136.026 28.4167C136.189 27.847 136.601 27.4211 136.764 26.8513C137.052 26.3535 137.267 25.9801 137.555 25.4823C137.646 25.037 137.986 24.7355 138.077 24.2903C138.436 23.6679 138.867 22.9212 139.227 22.2989C139.514 21.801 139.658 21.5521 139.5 20.9631C139.204 19.4645 140.367 18.311 141.971 18.4072C142.594 18.7665 142.704 18.0005 143.168 17.7708C143.312 17.5219 143.384 17.3975 143.528 17.1485C143.6 17.0241 143.743 16.7751 143.94 16.7225C144.299 16.1002 145.032 15.6935 145.214 14.803C145.377 14.2333 146.339 14.2911 147.033 14.5259C148.474 15.1919 149.915 15.8578 151.303 16.3275C151.749 16.4186 152.05 16.7586 152.371 16.7779C153.118 17.209 153.865 17.6402 154.611 18.0713C156.249 18.6847 157.598 19.7959 159.164 20.5338C160.778 18.3127 162.445 16.288 164.059 14.0669C164.706 12.9468 165.654 12.1667 166.353 11.2428C167 10.1227 167.885 11.4636 168.527 11.5021C169.097 11.665 168.881 12.0384 168.594 12.5363C166.299 15.3604 163.828 17.9163 161.409 20.6685C161.122 21.1664 160.585 21.5205 161.457 22.0235C162.328 22.5265 162.931 23.2066 163.659 23.9585C163.96 24.2986 165.028 24.749 164.276 25.4765C164.4 25.5483 164.649 25.692 164.774 25.7639C165.003 26.2284 164.414 26.3862 164.519 26.7788C164.304 27.1522 164.16 27.4012 163.945 27.7745C163.193 28.5021 163.01 29.3925 162.383 30.1919C161.827 30.8668 161.827 30.8668 161.152 30.3112C160.903 30.1675 160.635 30.3446 160.315 30.3253C159.189 30.8372 158.337 30.0134 157.447 29.8312C154.742 28.7675 152.325 27.2058 149.711 25.6968C147.72 24.5471 145.819 22.9521 144.043 21.429C143.67 21.2135 143.244 20.8016 142.943 20.4615C142.569 20.246 142.392 19.9778 141.947 19.8867C142.32 20.1022 142.694 20.3178 142.943 20.4615C143.316 20.6771 143.742 21.089 144.043 21.429C145.819 22.9521 147.72 24.5471 149.711 25.6968C152.822 27.4933 155.666 29.4668 159.208 30.5165C159.457 30.6602 159.831 30.8758 160.08 31.0195C160.702 31.3788 161.324 31.738 161.803 32.3462C161.927 32.4181 162.052 32.49 162.052 32.49C161.693 33.1123 161.195 32.8249 160.821 32.6093C156.977 31.2196 153.329 29.7772 150.06 27.3918C147.217 25.4183 144.498 23.5167 141.922 21.3661C141.674 21.2224 141.496 20.9542 140.979 20.9876C141.616 22.1847 142.52 23.2048 143.569 23.976C145.043 25.1591 146.642 26.414 148.26 27.3482C151.869 29.432 155.335 31.7649 159.303 33.2264C159.801 33.5139 160.371 33.6768 161.012 33.7153C161.458 33.8064 161.903 33.8976 162.133 34.3621C162.061 34.4865 162.166 34.8792 161.97 34.9318C159.125 37.2721 157.257 40.5081 154.838 43.2604C152.347 46.1371 150.177 49.033 147.811 51.9816C147.184 52.7809 146.15 52.8476 145.259 52.6654C144.618 52.6269 144.048 52.4639 143.603 52.3728C143.282 52.3536 142.98 52.0135 142.66 51.9943C142.535 51.9224 142.411 51.8506 142.286 51.7787C141.841 51.6876 141.539 51.3476 141.094 51.2565C137.786 49.5126 134.89 47.3428 132.085 44.7277C131.535 44.244 131.148 43.1905 129.845 43.4343C129.649 43.4869 129.687 42.8453 129.759 42.7208C130.693 41.1028 131.13 39.1974 132.011 37.3831C132.802 36.014 133.094 34.3575 133.957 32.864C134.048 32.4187 134.388 32.1172 134.479 31.672C134.766 31.1741 134.982 30.8008 135.269 30.3029C135.36 29.8577 135.7 29.5562 135.792 29.1109L135.38 29.5369Z" fill="#020000"/>
    <path d="M161.913 34.7335C160.276 34.1201 158.691 33.7031 157.054 33.0897C153.478 31.5229 150.189 29.4583 147.025 27.4655C144.536 26.0284 142.387 24.2897 140.669 21.8042C140.314 21.2679 140.314 21.2679 140.229 20.5545C142.009 20.9189 143.019 22.3316 144.245 23.371C148.49 26.652 152.88 29.6842 157.844 31.7206C159.036 32.2429 160.176 32.5688 161.44 32.9666C161.688 33.1103 161.937 33.254 161.976 32.6125C162.493 32.5791 162.598 32.9718 162.383 33.3451C162.239 33.5941 162.023 33.9674 162.004 34.2882C162.129 34.3601 162.43 34.7001 161.841 34.8579L161.913 34.7335Z" fill="#FCFCFC"/>
    <path d="M143.94 21.0364C147.564 23.9581 151.259 26.7554 155.458 28.6815C156.827 29.4719 158.464 30.0853 160.192 30.2534C160.049 30.5024 160.101 30.6987 160.082 31.0195C157.482 30.3483 155.118 28.983 152.681 27.7422C149.694 26.0176 146.798 23.8478 144.026 21.7498C143.902 21.678 143.777 21.6061 143.725 21.4098C143.6 21.3379 143.744 21.089 143.94 21.0364Z" fill="#FCFCFC"/>
    <path d="M161.953 34.0906C161.953 34.0906 161.867 33.3772 162.011 33.1283C162.154 32.8793 162.37 32.506 161.8 32.343C161.872 32.2185 161.944 32.0941 161.891 31.8978C161.662 31.4333 162.074 31.0073 162.466 30.9021C162.859 30.7969 163.088 31.2613 163.194 31.654C163.26 32.6882 162.829 33.4349 162.077 34.1625L161.953 34.0906Z" fill="#060404"/>
    <path d="M159.164 20.5327C157.952 20.3312 157.172 19.3829 156.105 18.9325C155.607 18.6451 155.109 18.3577 154.611 18.0702C156.32 18.5591 157.598 19.7948 159.164 20.5327Z" fill="#FCFCFC"/>
    <path d="M162.186 30.2427C162.689 29.3715 162.995 28.5529 163.747 27.8254C163.244 28.6966 163.062 29.5871 162.186 30.2427Z" fill="#FCFCFC"/>
    <path d="M164.324 26.8323C164.324 26.8323 164.683 26.21 164.578 25.8173C165.574 26.3922 165.037 26.7463 164.324 26.8323Z" fill="#FCFCFC"/>
    <path d="M143.039 17.697C143.039 17.697 142.89 19.1046 141.842 18.3334C142.359 18.3 142.522 17.7303 143.039 17.697Z" fill="#FCFCFC"/>
    <path d="M134.192 32.1702C134.192 32.1702 134.009 33.0607 133.669 33.3622C133.315 32.8258 134.1 32.6154 134.192 32.1702Z" fill="#FCFCFC"/>
    <path d="M142.443 52.3671C142.443 52.3671 143.085 52.4056 143.386 52.7456C142.994 52.8508 142.673 52.8316 142.443 52.3671Z" fill="#FCFCFC"/>
    <path d="M140.803 51.7526C140.803 51.7526 141.693 51.9348 141.995 52.2748C141.477 52.3082 141.176 51.9681 140.803 51.7526Z" fill="#FCFCFC"/>
    <path d="M143.743 16.7739C143.743 16.7739 143.527 17.1473 143.331 17.1999C143.475 16.951 143.101 16.7354 143.441 16.4339C143.441 16.4339 143.69 16.5776 143.743 16.7739Z" fill="#FCFCFC"/>
    <path d="M135.376 29.535C135.376 29.535 135.194 30.4255 134.854 30.727C134.82 30.2099 135.16 29.9084 135.376 29.535Z" fill="#FCFCFC"/>
    <path d="M152.295 16.8991C152.295 16.8991 151.476 16.5924 151.228 16.4487C151.745 16.4154 152.046 16.7554 152.295 16.8991Z" fill="#FCFCFC"/>
    <path d="M150.332 45.304C150.332 45.304 150.581 45.4477 150.778 45.3951C150.576 46.6064 149.7 47.2621 149.125 48.2578C148.229 49.2342 147.903 50.3736 147.257 51.4937C146.897 52.116 146.682 52.4894 145.791 52.3072C140.573 51.2857 136.576 48.1484 132.723 44.7621C132.225 44.4747 131.943 43.8139 131.497 43.7228C130.43 43.2724 130.468 42.6308 131.096 41.8315C131.886 40.4624 132.552 39.0215 133.539 37.5998C133.826 37.1019 134.114 36.6041 134.703 36.4463C134.827 36.5181 134.952 36.59 135.076 36.6618C134.908 38.3902 133.921 39.8119 133.059 41.3054C132.915 41.5544 132.772 41.8033 132.628 42.0522C132.843 41.6788 133.059 41.3054 133.576 41.2721C133.734 41.861 133.145 42.0188 133.178 42.5359C133.25 42.4115 133.322 42.287 133.394 42.1626C133.825 41.4158 134.007 40.5253 134.386 39.5822C134.745 38.9599 135.033 38.4621 135.392 37.8398C135.607 37.4664 135.823 37.093 136.393 37.256C136.393 37.256 136.642 37.3997 136.766 37.4715C136.905 38.3813 136.1 38.9125 135.865 39.6066C135.65 39.98 135.434 40.3534 135.147 40.8512C134.859 41.3491 134.5 41.9714 134.337 42.5411C134.193 42.79 133.978 43.1634 133.834 43.4123C134.121 42.9145 134.409 42.4166 134.696 41.9188C135.271 40.9231 135.722 39.8556 136.421 38.9317C136.636 38.5583 136.924 38.0605 137.388 37.8308C140.801 39.9673 144.267 42.3001 147.968 43.9387C147.105 45.4323 145.941 46.5858 145.151 47.9548C145.007 48.2038 144.935 48.3282 144.792 48.5771C144.792 48.5771 144.792 48.5771 144.72 48.7016C145.726 46.9591 146.784 45.413 148.216 44.0824C148.537 44.1017 148.983 44.1928 149.356 44.4084C149.423 45.4426 148.671 46.1701 148.168 47.0413C148.168 47.0413 148.024 47.2903 147.952 47.4147C147.272 48.0178 147.018 49.0327 146.587 49.7795C147.482 48.803 148.005 47.611 148.58 46.6153C148.939 45.993 149.121 45.1026 149.906 44.8921C150.103 44.8395 150.299 44.7869 150.476 45.0551C150.241 45.7493 149.757 46.2997 149.398 46.922C148.771 47.7214 148.392 48.6645 147.889 49.5357C147.889 49.5357 147.889 49.5357 147.817 49.6602C147.817 49.6602 147.817 49.6602 147.745 49.7846C147.745 49.7846 147.745 49.7846 147.817 49.6602C148.177 49.0379 148.536 48.4156 148.895 47.7933C149.47 46.7976 150.045 45.8019 150.921 45.1462L150.332 45.304Z" fill="#FEFEFE"/>
    <path d="M150.894 39.159C146.748 37.4292 143.158 35.0246 139.659 32.1747C139.376 31.5138 139.86 30.9634 140.148 30.4656C140.67 29.2736 141.14 27.8852 141.786 26.7651C142.074 26.2672 142.361 25.7694 143.003 25.8079C145.492 27.245 147.694 29.18 150.13 30.4209C151.873 31.4269 153.491 32.361 155.305 33.2426C155.286 33.5634 155.018 33.7404 154.874 33.9893C154.515 34.6117 153.978 34.9658 153.619 35.5881C153.475 35.837 153.332 36.0859 153.116 36.4593C152.56 37.1342 152.182 38.0773 151.502 38.6804C151.358 38.9293 151.143 39.3027 150.625 39.336L150.894 39.159Z" fill="#FEFEFE"/>
    <path d="M158.982 28.8944C155.636 27.7921 152.505 26.3165 149.733 24.2185C148.312 23.2317 146.962 22.1205 145.54 21.1338C145.239 20.7938 145.382 20.5448 145.722 20.2433C146.01 19.7454 146.546 19.3913 146.762 19.0179C146.154 19.4965 145.971 20.387 145.062 20.5256C144.813 20.3819 144.688 20.31 144.439 20.1663C144.765 19.0269 145.589 18.1749 146.59 17.5911C146.805 17.2177 147.054 17.3614 147.428 17.577C150.304 20.0676 153.684 21.687 156.848 23.6798C156.293 24.3547 155.737 25.0296 155.181 25.7045C155.411 26.169 156.13 24.9244 156.249 26.1549C156.249 26.1549 156.962 26.0689 157.106 25.82C158.433 24.0968 159.73 25.0117 161.099 25.8021C161.075 27.2816 159.93 28.1143 158.982 28.8944Z" fill="#FEFEFE"/>
    <path d="M139.3 32.7971C140.525 33.8365 141.698 34.6795 142.924 35.7189C141.209 36.3886 140.563 37.5088 140.768 39.4527C139.523 38.7341 138.279 38.0156 137.302 37.1199C136.967 36.2628 137.647 35.6597 137.882 34.9656C138.438 34.2906 138.247 33.1846 139.176 32.7253L139.3 32.7971Z" fill="#FDFDFD"/>
    <path d="M148.004 43.2994C146.793 43.0979 146.013 42.1497 144.677 41.8763C146.41 40.8858 147.253 39.713 146.033 37.515L149.767 39.6707C149.767 39.6707 150.389 40.03 150.174 40.4034C149.527 41.5236 149.254 42.8593 147.932 43.4239L148.004 43.2994Z" fill="#FDFDFD"/>
    <path d="M145.262 39.7246C144.707 40.3995 143.974 40.8062 142.959 40.5522C142.068 40.3699 141.858 39.5846 141.772 38.8712C141.634 37.9615 141.868 37.2673 142.797 36.808C142.869 36.6835 143.19 36.7028 143.314 36.7746C143.563 36.9183 144.042 37.5266 144.1 36.5642C144.172 36.4398 144.224 36.6361 144.42 36.5835C145.167 37.0146 145.693 38.9778 145.262 39.7246Z" fill="#FDFDFD"/>
    <path d="M157.265 33.8757C157.265 33.8757 157.763 34.1631 158.012 34.3068C158.51 34.5942 158.222 35.0921 158.007 35.4655C157.719 35.9633 157.432 36.4612 157.145 36.959C156.393 37.6865 155.818 38.6822 155.19 39.4816C154.975 39.855 154.687 40.3528 153.974 40.4388C153.725 40.2951 153.404 40.2758 153.083 40.2566C152.926 39.6676 153.266 39.3661 153.481 38.9927C153.821 38.6912 154.037 38.3178 154.252 37.9444C154.612 37.3221 154.899 36.8242 155.258 36.2019C155.67 35.776 155.886 35.4026 156.173 34.9047C156.389 34.5313 156.676 34.0335 157.069 33.9283L157.265 33.8757Z" fill="#F7F7F7"/>
    <path d="M159.709 21.0147C160.232 19.8227 161.18 19.0426 161.951 17.9943C163.422 16.0221 165.016 14.1219 166.611 12.2216C166.827 11.8482 166.971 11.5993 167.397 12.0112C167.77 12.2268 167.306 12.4564 167.162 12.7053C164.815 15.3331 162.468 17.9609 160.298 20.8569C160.226 20.9813 160.083 21.2302 159.709 21.0147Z" fill="#F8F7F6"/>
    <path d="M139.36 31.8353C139.36 31.8353 138.987 31.6197 138.738 31.476C138.671 30.4418 139.226 29.7669 139.605 28.8238C140.252 27.7037 140.65 26.4398 141.172 25.2478C141.387 24.8744 141.531 24.6255 141.924 24.5203C142.173 24.664 142.546 24.8796 142.723 25.1478C142.378 26.608 141.463 27.9052 140.869 29.2216C140.366 30.0929 140.433 31.1271 139.432 31.7109L139.36 31.8353Z" fill="#F4F3F4"/>
    <path d="M152.213 39.7545C152.213 39.7545 151.643 39.5915 151.322 39.5723C151.327 38.4136 152.4 37.7053 152.903 36.8341C153.119 36.4607 153.387 36.2837 153.478 35.8384C153.837 35.2161 154.321 34.6657 154.733 34.2397C154.877 33.9908 155.092 33.6174 155.609 33.584C155.734 33.6559 155.858 33.7277 155.983 33.7996C156.14 34.3886 155.729 34.8145 155.513 35.1879C154.651 36.6815 153.611 37.9068 152.749 39.4003C152.605 39.6493 152.462 39.8982 152.069 40.0034L152.213 39.7545Z" fill="#FBFBFB"/>
    <path d="M137.711 30.384L137.338 30.1684C137.338 30.1684 137.807 28.7801 138.042 28.0859C138.708 26.645 139.25 25.1322 139.844 23.8157C140.059 23.4424 140.203 23.1934 140.596 23.0882L141.074 23.6965C141.074 23.6965 140.853 25.2285 140.494 25.8508C140.279 26.2242 139.991 26.722 139.9 27.1673C139.469 27.914 138.966 28.7853 138.784 29.6758C138.568 30.0491 138.405 30.6188 137.711 30.384Z" fill="#FCFCFC"/>
    <path d="M144.013 19.751C143.266 19.3199 142.591 18.7642 144.037 18.2716C144.037 18.2716 144.468 17.5248 144.737 17.3477C145.149 16.9217 145.704 16.2468 146.432 16.9988C146.805 17.2143 146.537 17.3914 146.269 17.5685C145.838 18.3152 145.033 18.8464 144.477 19.5213C144.334 19.7702 144.19 20.0192 143.817 19.8036L144.013 19.751Z" fill="#D8D5D5"/>
    <path d="M150.714 40.0516L151.71 40.6265C151.188 41.8185 150.718 43.2068 149.521 43.8432C149.148 43.6276 148.827 43.6084 148.382 43.5173C148.851 42.129 149.694 40.9562 150.714 40.0516Z" fill="#D5D3D4"/>
    <path d="M134.636 36.5749C133.774 38.0685 132.912 39.562 132.049 41.0555C131.834 41.4289 131.618 41.8023 131.154 42.032C131.983 40.0213 132.812 38.0107 133.837 35.9474C134.21 36.163 134.459 36.3067 134.636 36.5749Z" fill="#F2EFEF"/>
    <path d="M159.331 34.9022C159.331 34.9022 159.541 35.6875 159.201 35.989C158.07 37.6596 156.691 39.1865 155.384 40.5889C155.168 40.9623 154.775 41.0675 154.474 40.7274C154.656 39.837 155.264 39.3584 155.82 38.6835C157.056 37.4055 157.669 35.7683 159.278 34.7059L159.331 34.9022Z" fill="#6C6768"/>
    <path d="M153.855 18.795C155.564 19.2839 156.933 20.0743 158.245 21.8271L150.653 17.4438C150.653 17.4438 150.796 17.1948 151.045 17.3386C151.543 17.626 152.165 17.9853 152.663 18.2727C153.037 18.4883 153.41 18.7039 153.783 18.9194L153.855 18.795Z" fill="#130E0E"/>
    <path d="M159.328 34.9001C157.785 36.9967 156.315 38.9689 154.524 40.9217C154.438 40.2083 154.974 39.8542 155.386 39.4282C155.817 38.6815 156.425 38.2029 156.856 37.4561C157.805 36.676 158.078 35.3402 158.954 34.6846C159.203 34.8283 159.328 34.9001 159.577 35.0439L159.328 34.9001Z" fill="#F7F6F6"/>
    <path d="M138.681 32.4399C138.681 32.4399 138.93 32.5837 139.055 32.6555C138.873 33.546 138.245 34.3454 137.991 35.3603C137.704 35.8581 137.469 36.5523 137.057 36.9783C136.808 36.8346 136.683 36.7627 136.435 36.619C136.315 35.3885 137.015 34.4647 137.589 33.469C137.877 32.9711 138.04 32.4014 138.806 32.5118L138.681 32.4399Z" fill="#EEEEED"/>
    <path d="M149.519 43.8419C150.165 42.7217 150.937 41.6734 151.708 40.6251C152.029 40.6444 152.474 40.7355 152.723 40.8792C152.004 42.1238 151.534 43.5122 150.088 44.0048C149.945 44.2538 149.696 44.1101 149.519 43.8419Z" fill="#4F494A"/>
    <path d="M139.358 31.8341C140.58 29.7183 141.428 27.3868 142.649 25.271L143.128 25.8792C142.323 26.4104 141.945 27.3535 141.566 28.2966C140.848 29.5412 140.378 30.9295 139.712 32.3705C139.588 32.2986 139.339 32.1549 139.286 31.9586L139.358 31.8341Z" fill="#5B5959"/>
    <path d="M135.187 35.8991C135.187 35.8991 134.939 35.7554 134.886 35.5591C135.303 33.9745 135.596 32.3179 136.956 31.1118C137.401 31.203 137.454 31.3993 137.559 31.7919C137.664 32.1846 137.52 32.4335 137.305 32.8069C136.893 33.2328 136.802 33.6781 136.514 34.1759C136.155 34.7982 135.973 35.6887 135.116 36.0236L135.187 35.8991Z" fill="#F8F7F7"/>
    <path d="M140.667 22.9652C139.858 24.6551 139.048 26.345 138.363 28.1067C138.004 28.729 137.644 29.3513 137.285 29.9736C137.285 29.9736 137.16 29.9017 137.036 29.8299C136.969 28.7957 137.721 28.0682 137.903 27.1777C138.21 26.3591 138.766 25.6841 138.948 24.7937C138.915 24.2766 139.451 23.9224 139.489 23.2809C139.528 22.6393 139.691 22.0696 140.49 22.6971L140.667 22.9652Z" fill="#888384"/>
    <path d="M150.089 44.005C151.109 43.1004 151.827 41.8558 152.723 40.8794C152.847 40.9512 152.972 41.0231 153.096 41.0949C153.221 41.1668 153.47 41.3105 153.398 41.435C152.751 42.5551 152.157 43.8716 150.711 44.3643C150.462 44.2206 150.337 44.1487 150.089 44.005Z" fill="#F9F8F8"/>
    <path d="M141.447 23.9116C141.447 23.9116 141.447 23.9116 141.571 23.9834C141.729 24.5724 141.37 25.1947 141.082 25.6925C140.292 27.0616 139.822 28.4499 139.228 29.7664C139.012 30.1398 138.921 30.585 138.457 30.8147C138.457 30.8147 138.332 30.7428 138.208 30.671C138.213 29.5123 138.965 28.7848 139.219 27.7699C139.578 27.1476 139.813 26.4534 140.101 25.9556C140.532 25.2088 140.518 24.3709 141.322 23.8397L141.447 23.9116Z" fill="#E7E5E6"/>
    <path d="M138.383 30.9401C139.389 29.1977 140.022 27.2396 141.028 25.4972C141.028 25.4972 141.171 25.2482 141.368 25.1956C140.663 27.2781 139.638 29.3414 138.684 31.2801C138.56 31.2083 138.311 31.0646 138.258 30.8683L138.383 30.9401Z" fill="#726E6F"/>
    <path d="M136.655 30.7718C136.655 30.7718 136.708 30.9682 136.76 31.1645C136.094 32.6054 135.874 34.1375 134.834 35.3628C134.212 35.0035 134.499 34.5057 134.643 34.2568C135.362 33.0122 135.635 31.6764 136.406 30.6281L136.531 30.7L136.655 30.7718Z" fill="#F5F3F2"/>
    <path d="M151.103 45.4173C151.103 45.4173 151.96 45.0824 151.404 45.7574C150.417 47.179 149.431 48.6007 148.248 50.075C147.841 49.3423 148.325 48.7919 148.808 48.2414C149.383 47.2457 150.03 46.1256 150.978 45.3455L151.103 45.4173Z" fill="#F1EEEF"/>
    <path d="M152.833 40.1135L152.46 39.898C153.198 38.3326 154.309 36.9827 155.119 35.2929C155.583 35.0632 155.445 34.1535 156.263 34.4602C156.297 34.9773 155.885 35.4032 155.669 35.7766C155.185 36.3271 155.022 36.8968 154.663 37.5191C154.448 37.8925 154.232 38.2659 154.088 38.5148C153.552 38.8689 153.442 39.6349 152.833 40.1135Z" fill="#EDE9EA"/>
    <path d="M163.953 25.4565C161.976 25.1447 161.378 23.3059 160.009 22.5155C161.522 23.057 162.747 24.0964 163.953 25.4565Z" fill="#D8D5D4"/>
    <path d="M144.293 48.2909C145.155 46.7974 146.267 45.4476 147.378 44.0977C147.378 44.0977 147.502 44.1696 147.627 44.2414C146.3 45.9647 145.098 47.7597 143.771 49.4829C143.737 48.9658 144.202 48.7361 144.221 48.4154L144.293 48.2909Z" fill="#787676"/>
    <path d="M155.411 21.8511C153.525 21.094 152.175 19.9828 150.825 18.8716C152.319 19.7339 153.956 20.3472 155.411 21.8511Z" fill="#0E0908"/>
    <path d="M155.439 35.312C154.577 36.8056 153.642 38.4235 152.531 39.7734C152.531 39.7734 152.407 39.7015 152.282 39.6296C153.288 37.8872 154.347 36.3411 155.477 34.6705C155.851 34.886 155.583 35.0631 155.386 35.1157L155.439 35.312Z" fill="#5E5A5B"/>
    <path d="M162.557 26.1425C162.557 26.1425 163.787 26.0232 163.088 26.947C162.427 27.2293 161.943 27.7797 161.512 28.5265C161.225 29.0243 160.937 29.5222 160.296 29.4837C160.641 28.0235 161.288 26.9033 162.734 26.4107L162.557 26.1425Z" fill="#EDEBEB"/>
    <path d="M137.326 32.4872C137.326 32.4872 137.613 31.9894 137.757 31.7405C137.881 31.8123 138.006 31.8842 138.13 31.9561C138.216 32.6695 137.555 32.9517 137.641 33.6651C137.014 34.4645 136.937 35.7477 136.06 36.4033C136.334 35.0676 137.052 33.823 137.699 32.7028L137.326 32.4872Z" fill="#D7D4D5"/>
    <path d="M162.558 26.1458C161.537 27.0504 160.891 28.1705 160.12 29.2188C159.995 29.147 159.746 29.0032 159.55 29.0558C159.464 28.3424 160.053 28.1846 160.34 27.6868C160.7 27.0645 161.183 26.514 161.418 25.8198C161.883 25.5902 162.237 26.1265 162.754 26.0932L162.558 26.1458Z" fill="#585253"/>
    <path d="M153.986 41.276C153.986 41.276 154.465 41.8842 154.249 42.2576C153.248 42.8414 152.85 44.1052 151.85 44.689C151.725 44.6172 151.601 44.5453 151.476 44.4735C151.476 44.4735 151.424 44.2771 151.495 44.1527C152.142 43.0325 153.162 42.128 154.182 41.2234L153.986 41.276Z" fill="#646061"/>
    <path d="M156.856 37.4546C156.209 38.5747 155.065 39.4074 154.47 40.7239C154.346 40.6521 154.222 40.5802 153.973 40.4365C154.94 39.3356 155.855 38.0384 156.823 36.9375C156.947 37.0093 156.679 37.1864 156.731 37.3827L156.856 37.4546Z" fill="#5A5455"/>
    <path d="M150.712 40.047C149.994 41.2916 148.973 42.1962 148.379 43.5127C148.255 43.4408 148.13 43.369 147.881 43.2253C148.83 42.4451 149.156 41.3057 149.855 40.3819C150.071 40.0085 150.018 39.8122 149.645 39.5966C150.037 39.4914 150.339 39.8314 150.588 39.9752L150.712 40.047Z" fill="#6B6767"/>
    <path d="M140.346 26.1007C139.609 27.6661 138.995 29.3033 138.257 30.8687C138.008 30.725 137.759 30.5813 137.707 30.385C138.296 30.2271 138.459 29.6574 138.55 29.2122C138.857 28.3936 139.288 27.6468 139.719 26.9C139.863 26.6511 139.829 26.134 140.346 26.1007Z" fill="#6B6566"/>
    <path d="M161.351 25.943C161.351 25.943 161.973 26.3023 161.633 26.6038C160.809 27.4558 160.483 28.5952 159.607 29.2509C159.756 27.8433 160.828 27.135 161.475 26.0149L161.351 25.943Z" fill="#F7F6F6"/>
    <path d="M134.836 35.3638C135.626 33.9947 135.847 32.4627 136.762 31.1655C136.762 31.1655 136.958 31.1129 137.155 31.0603C136.292 32.5538 136 34.2103 135.085 35.5075L134.836 35.3638Z" fill="#858484"/>
    <path d="M147.314 47.38C147.817 46.5088 148.32 45.6376 148.823 44.7664C149.072 44.9101 149.321 45.0538 149.446 45.1256L148.296 47.117C148.296 47.117 148.008 47.6149 147.688 47.5956C147.563 47.5237 147.439 47.4519 147.314 47.38Z" fill="#656061"/>
    <path d="M137.322 32.4857C136.8 33.6777 136.206 34.9942 135.683 36.1862C135.559 36.1143 135.434 36.0425 135.186 35.8988C135.617 35.152 136.12 34.2808 136.551 33.534C136.766 33.1606 136.733 32.6435 137.198 32.4138L137.322 32.4857Z" fill="#605D5D"/>
    <path d="M150.71 44.3604C151.605 43.3839 152.75 42.5512 153.095 41.091C153.363 40.9139 153.54 41.1821 153.789 41.3258C153.071 42.5704 151.998 43.2787 151.404 44.5952C151.404 44.5952 150.834 44.4322 150.71 44.3604Z" fill="#544F4F"/>
    <path d="M132.594 41.5361C133.528 39.9181 134.266 38.3527 135.075 36.6628L135.324 36.8066C135.324 36.8066 135.338 37.6444 135.123 38.0178C134.763 38.6401 134.404 39.2624 134.045 39.8847C133.81 40.5789 133.398 41.0049 132.914 41.5554C132.842 41.6798 132.718 41.608 132.665 41.4116L132.594 41.5361Z" fill="#686667"/>
    <path d="M162.538 27.6249C162.538 27.6249 161.944 28.9414 161.781 29.5111C161.493 30.009 161.244 29.8652 160.871 29.6497C161.053 28.7592 161.556 27.888 162.538 27.6249Z" fill="#E8E6E5"/>
    <path d="M153.169 36.6554C152.595 37.6511 151.843 38.3786 151.392 39.4462C151.268 39.3743 151.143 39.3024 150.894 39.1587C151.541 38.0386 152.312 36.9903 153.136 36.1383C153.261 36.2102 152.992 36.3872 152.973 36.708L153.169 36.6554Z" fill="#767374"/>
    <path d="M156.855 37.4555C156.855 37.4555 156.999 37.2066 156.947 37.0102C157.45 36.139 158.254 35.6078 158.135 34.3773C158.403 34.2002 158.652 34.3439 158.829 34.6121C158.254 35.6078 157.555 36.5317 156.855 37.4555Z" fill="#4E4B4C"/>
    <path d="M162.531 27.6246C161.727 28.1558 161.171 28.8307 160.864 29.6493C160.74 29.5775 160.616 29.5056 160.367 29.3619C160.779 28.9359 161.19 28.5099 161.55 27.8876C161.909 27.2653 162.321 26.8393 163.159 26.8252C163.068 27.2705 162.799 27.4475 162.531 27.6246Z" fill="#6F696A"/>
    <path d="M151.476 44.4735C151.945 43.0852 153.09 42.2525 153.861 41.2042C153.861 41.2042 153.861 41.2042 153.986 41.276C153.267 42.5207 152.247 43.4252 151.351 44.4017L151.476 44.4735Z" fill="#F4F1F1"/>
    <path d="M148.983 48.5081C148.983 48.5081 148.408 49.5038 148.37 50.1453C148.207 50.715 147.546 50.9973 147.258 51.4951C147.46 50.2839 148.107 49.1637 148.806 48.2399C148.93 48.3117 148.858 48.4362 148.911 48.6325L148.983 48.5081Z" fill="#837D7E"/>
    <path d="M145.06 20.5206C145.812 19.793 146.439 18.9937 147.263 18.1417C147.33 19.1759 146.472 19.5108 146.113 20.1331C145.898 20.5065 145.505 20.6117 145.61 21.0043C145.361 20.8606 145.112 20.7169 145.132 20.3961L145.06 20.5206Z" fill="#6F6C6C"/>
    <path d="M144.013 19.7503C145.014 19.1665 145.464 18.0989 146.465 17.5152C146.465 17.5152 146.465 17.5152 146.589 17.587L144.439 20.1622C144.439 20.1622 144.065 19.9466 143.941 19.8748L144.013 19.7503Z" fill="#5E5B5B"/>
    <path d="M136.653 30.7709L136.529 30.699C137.051 29.507 137.573 28.315 138.023 27.2474C138.023 27.2474 138.272 27.3912 138.397 27.463C137.894 28.3342 137.587 29.1529 137.209 30.096C137.065 30.3449 136.921 30.5938 136.777 30.8427L136.653 30.7709Z" fill="#EFEBEB"/>
    <path d="M151.848 44.6891C152.672 43.8372 152.998 42.6978 154.248 42.2577C153.62 43.0571 153.065 43.732 152.437 44.5313C152.293 44.7803 152.15 45.0292 151.848 44.6891Z" fill="#EAE7E7"/>
    <path d="M161.351 25.9436C160.705 27.0638 160.13 28.0595 159.483 29.1796C159.359 29.1078 159.234 29.0359 158.985 28.8922C159.632 27.772 160.58 26.9919 161.102 25.7999C161.102 25.7999 161.227 25.8718 161.351 25.9436Z" fill="#565354"/>
    <path d="M134.686 41.0845C135.084 39.8206 135.979 38.8442 136.377 37.5803C136.501 37.6522 136.626 37.724 136.875 37.8678C136.659 38.2411 136.372 38.739 136.156 39.1124C135.548 39.591 135.366 40.4814 134.686 41.0845Z" fill="#5C595A"/>
    <path d="M140.348 26.0982C140.348 26.0982 139.989 26.7205 139.72 26.8976C140.171 25.8301 140.693 24.638 141.144 23.5705L141.498 24.1069C141.067 24.8536 140.832 25.5478 140.401 26.2946L140.348 26.0982Z" fill="#757071"/>
    <path d="M148.981 48.507C148.981 48.507 148.929 48.3107 148.876 48.1144C149.451 47.1187 150.026 46.1229 150.85 45.271C150.85 45.271 150.974 45.3428 151.098 45.4147C150.452 46.5348 149.752 47.4587 148.981 48.507Z" fill="#6A6768"/>
    <path d="M135.933 36.3272L137.586 33.4645C137.586 33.4645 137.586 33.4645 137.71 33.5364C137.136 34.5321 136.757 35.4752 136.307 36.5427C136.182 36.4709 136.058 36.399 135.933 36.3272Z" fill="#605C5C"/>
    <path d="M148.957 46.8343C148.957 46.8343 149.676 45.5897 150.088 45.1637C150.088 45.1637 150.212 45.2356 150.336 45.3074C149.762 46.3031 149.134 47.1025 148.435 48.0263C148.081 47.49 148.617 47.1358 148.833 46.7624L148.957 46.8343Z" fill="#5B5758"/>
    <path d="M155.444 35.3138C155.444 35.3138 155.587 35.0649 155.535 34.8685C155.75 34.4951 156.038 33.9973 156.253 33.6239C156.378 33.6958 156.502 33.7676 156.699 33.715C156.928 34.1795 156.909 34.5003 156.32 34.6581C155.803 34.6915 155.889 35.4049 155.372 35.4382L155.444 35.3138Z" fill="#747070"/>
    <path d="M142.622 20.4412C142.622 20.4412 141.626 19.8663 141.147 19.2581C141.985 19.244 142.555 19.407 142.765 20.1923C142.89 20.2641 142.622 20.4412 142.55 20.5657L142.622 20.4412Z" fill="#EAE8E8"/>
    <path d="M136.124 37.4342C135.123 38.018 135.118 39.1766 134.294 40.0286L134.15 40.2775C134.026 40.2057 133.901 40.1338 134.045 39.8849C134.404 39.2626 134.764 38.6403 135.123 38.018C135.338 37.6446 135.358 37.3238 135.573 36.9504C135.822 37.0942 136.071 37.2379 136.196 37.3097L136.124 37.4342Z" fill="#656161"/>
    <path d="M137.791 35.4113C137.921 34.3245 138.725 33.7933 138.979 32.7783C138.979 32.7783 139.104 32.8502 139.228 32.922C138.673 33.5969 138.615 34.5593 138.059 35.2342C138.059 35.2342 137.916 35.4831 137.667 35.3394L137.791 35.4113Z" fill="#444242"/>
    <path d="M156.39 34.5319C156.39 34.5319 156.749 33.9096 156.769 33.5889C156.893 33.6607 157.017 33.7326 157.142 33.8044C157.175 34.3215 156.639 34.6757 156.548 35.1209C156.26 35.6188 156.294 36.1359 155.757 36.49C155.508 36.3463 155.973 36.1166 155.796 35.8484C156.011 35.475 156.299 34.9772 156.514 34.6038L156.39 34.5319Z" fill="#706D6C"/>
    <path d="M138.276 27.3942C138.276 27.3942 138.027 27.2504 137.903 27.1786C138.334 26.4318 138.641 25.6132 138.947 24.7946C138.947 24.7946 138.947 24.7946 139.072 24.8664C139.138 25.9006 138.209 26.36 138.152 27.3223L138.276 27.3942Z" fill="#E1DDDD"/>
    <path d="M142.619 20.4391C142.619 20.4391 142.763 20.1902 142.835 20.0657C143.476 20.1042 143.562 20.8177 143.936 21.0332C143.936 21.0332 143.792 21.2822 143.72 21.4066C143.347 21.1911 142.777 21.0281 142.619 20.4391Z" fill="#C3BFBE"/>
    <path d="M137.71 33.5391C137.71 33.5391 137.585 33.4673 137.461 33.3954C137.499 32.7539 138.035 32.3998 138.127 31.9545C138.375 32.0982 138.696 32.1175 138.677 32.4383C137.964 32.5242 138.174 33.3095 137.71 33.5391Z" fill="#7A7576"/>
    <path d="M157.507 24.5545C157.507 24.5545 157.201 25.3731 156.703 25.0857C156.454 24.942 156.401 24.7457 156.598 24.6931C156.99 24.5878 157.029 23.9463 157.474 24.0374C157.847 24.253 157.383 24.4826 157.435 24.679L157.507 24.5545Z" fill="#F0EBEB"/>
    <path d="M150.852 17.3944L150.46 17.4996C150.46 17.4996 149.215 16.7811 148.593 16.4218C149.339 16.8529 149.962 17.2122 150.852 17.3944C150.852 17.3944 150.852 17.3944 150.78 17.5189L150.852 17.3944Z" fill="#332B2B"/>
    <path d="M137.792 35.411C137.792 35.411 137.988 35.3584 138.184 35.3058C137.825 35.9281 137.466 36.5504 137.356 37.3164C137.231 37.2446 137.107 37.1727 136.982 37.1008C137.27 36.603 137.557 36.1051 137.916 35.4828L137.792 35.411Z" fill="#434140"/>
    <path d="M152.837 40.112C152.837 40.112 153.556 38.8674 153.843 38.3695C154.217 38.5851 153.877 38.8866 153.608 39.0637C153.393 39.4371 153.177 39.8105 152.89 40.3083L152.641 40.1646L152.837 40.112Z" fill="#423F3F"/>
    <path d="M141.49 25.2642C141.49 25.2642 141.346 25.5132 141.15 25.5658C141.437 25.0679 141.725 24.5701 141.691 24.053C141.816 24.1248 141.868 24.3212 142.046 24.5893C141.902 24.8383 141.758 25.0872 141.614 25.3361L141.49 25.2642Z" fill="#5D5959"/>
    <path d="M148.861 16.244C148.861 16.244 148.861 16.244 148.79 16.3685C148.416 16.1529 147.971 16.0618 147.526 15.9707C148.187 15.6884 148.56 15.904 148.861 16.244Z" fill="#5D5152"/>
    <path d="M139.269 24.8126C139.484 24.4392 139.7 24.0658 139.987 23.568C140.27 24.2288 139.681 24.3866 139.518 24.9563L139.269 24.8126Z" fill="#FCF8F8"/>
    <path d="M135.578 36.953C135.578 36.953 135.539 37.5945 135.395 37.8434C135.395 37.8434 135.395 37.8434 135.271 37.7716C135.29 37.4508 135.309 37.13 135.453 36.8811C135.453 36.8811 135.453 36.8811 135.578 36.953Z" fill="#BCB8B7"/>
    <path d="M156.546 35.1192C156.546 35.1192 156.977 34.3724 157.14 33.8027C157.14 33.8027 157.264 33.8746 157.389 33.9464C157.173 34.3198 156.957 34.6932 156.67 35.1911L156.546 35.1192Z" fill="#2C2B2A"/>
    <path d="M155.756 33.336C155.756 33.336 155.396 33.9583 155.004 34.0635C154.879 33.9917 154.951 33.8672 154.899 33.6709C155.042 33.422 155.114 33.2975 155.382 33.1204L155.631 33.2642L155.756 33.336Z" fill="#A39F9F"/>
    <path d="M152.716 18.4706C152.716 18.4706 152.716 18.4706 152.788 18.3461C153.161 18.5617 153.41 18.7054 153.784 18.921C153.319 19.1507 153.09 18.6862 152.716 18.4706Z" fill="#3B3333"/>
    <path d="M147.758 47.4718C147.758 47.4718 148.045 46.974 148.366 46.9932C147.791 47.9889 147.145 49.1091 146.57 50.1047C146.354 50.4781 146.086 50.6552 145.713 50.4396C145.215 50.1522 145.679 49.9225 145.823 49.6736C146.254 48.9268 146.508 47.9119 147.313 47.3807C147.562 47.5244 147.346 47.8978 147.327 48.2186C147.542 47.8452 147.686 47.5963 147.83 47.3474L147.758 47.4718Z" fill="#8E8A89"/>
    <path d="M137.914 47.2654C139.781 48.3433 141.524 49.3493 143.463 50.3027C143.64 50.5709 144.085 50.662 144.262 50.9302C141.806 50.0101 139.566 48.7167 137.345 47.1024C137.56 46.7291 137.737 46.9973 137.986 47.141L137.914 47.2654Z" fill="#514C4D"/>
    <path d="M134.047 39.8855C134.047 39.8855 134.171 39.9574 134.296 40.0292C134.238 40.9916 133.362 41.6472 133.108 42.6622C132.964 42.9111 133.141 43.1793 132.643 42.8919C132.859 42.5185 133.146 42.0206 133.362 41.6473C133.146 42.0206 132.806 42.3222 132.466 42.6237C132.361 42.2311 132.701 41.9295 132.969 41.7524C133.328 41.1301 133.688 40.5078 134.047 39.8855C134.047 39.8855 134.171 39.9574 134.296 40.0292L134.047 39.8855Z" fill="#838081"/>
    <path d="M137.92 47.266C137.92 47.266 137.599 47.2467 137.278 47.2275C136.034 46.5089 135.057 45.6133 134.081 44.7176L134.225 44.4687C135.326 45.4362 136.623 46.3511 137.724 47.3186L137.92 47.266Z" fill="#605D5E"/>
    <path d="M148.957 46.8358C148.957 46.8358 148.526 47.5826 148.559 48.0997C148.2 48.722 147.768 49.4688 147.409 50.0911C147.16 49.9474 147.16 49.9474 147.18 49.6266C147.754 48.6309 148.08 47.4915 148.957 46.8358Z" fill="#7E7B7B"/>
    <path d="M134.687 41.0862C135.242 40.4113 135.353 39.6453 136.157 39.1141C135.51 40.2343 134.936 41.23 134.289 42.3501C134.145 42.599 134.25 42.9917 133.681 42.8287C134.04 42.2064 134.399 41.5841 134.687 41.0862Z" fill="#4C4A4B"/>
    <path d="M133.731 43.0243C133.731 43.0243 134.071 42.7228 134.34 42.5457C134.354 43.3836 133.549 43.9148 133.314 44.609C133.281 44.0919 133.32 43.4503 133.731 43.0243Z" fill="#878585"/>
    <path d="M144.072 50.984C144.072 50.984 143.449 50.6247 143.272 50.3565C143.842 50.5195 144.536 50.7543 145.034 51.0418C145.034 51.0418 145.283 51.1855 145.139 51.4344C144.622 51.4677 144.321 51.1277 144 51.1084L144.072 50.984Z" fill="#3D3A3B"/>
    <path d="M142.178 49.6256C142.178 49.6256 142.355 49.8937 142.408 50.09C142.192 50.4634 142.048 50.7124 141.708 51.0139C141.551 50.4249 141.963 49.999 142.178 49.6256Z" fill="#A19FA0"/>
    <path d="M147.761 47.4698L146.971 48.8389C146.971 48.8389 147.225 47.824 147.244 47.5032C147.244 47.5032 147.244 47.5032 147.316 47.3787L147.689 47.5943L147.761 47.4698Z" fill="#736E6E"/>
    <path d="M144.296 48.294C144.296 48.294 143.865 49.0407 143.845 49.3615L143.63 49.7349C143.505 49.663 143.381 49.5912 143.525 49.3423C143.74 48.9689 143.956 48.5955 144.368 48.1695L144.296 48.294Z" fill="#605D5E"/>
    <path d="M132.723 41.6123C132.723 41.6123 132.364 42.2346 132.22 42.4836C132.148 42.608 132.004 42.8569 131.932 42.9814C131.775 42.3924 132.187 41.9664 132.474 41.4686C132.474 41.4686 132.474 41.4686 132.598 41.5404L132.723 41.6123Z" fill="#7A7879"/>
    <path d="M132.641 42.8936L133.106 42.6639C133.106 42.6639 132.995 43.4299 132.531 43.6596C132.158 43.444 132.498 43.1425 132.641 42.8936Z" fill="#A8A5A6"/>
    <path d="M145.336 51.3835C145.336 51.3835 145.283 51.1872 145.23 50.9909C145.604 51.2065 146.068 50.9768 146.226 51.5658C145.814 51.9917 145.584 51.5273 145.336 51.3835Z" fill="#383636"/>
    <path d="M154.893 33.6686C154.893 33.6686 154.946 33.8649 154.998 34.0612C154.639 34.6836 154.404 35.3777 153.671 35.7844C153.671 35.7844 153.547 35.7126 153.691 35.4637C154.05 34.8414 154.534 34.2909 155.017 33.7405L154.893 33.6686Z" fill="#848283"/>
    <path d="M153.691 35.4626C153.691 35.4626 153.62 35.5871 153.672 35.7834C153.457 36.1568 153.313 36.4057 153.097 36.7791C153.169 36.6546 153.241 36.5302 153.26 36.2094L153.691 35.4626Z" fill="#6A6969"/>
    <path d="M155.67 35.7737C155.67 35.7737 155.651 36.0945 155.631 36.4153L154.625 38.1577C154.625 38.1577 154.396 37.6932 154.664 37.5162C155.023 36.8939 155.311 36.396 155.67 35.7737Z" fill="#484445"/>
    <path d="M154.541 37.448C154.541 37.448 154.45 37.8932 154.503 38.0895C154.287 38.4629 154.071 38.8363 153.803 39.0134C153.947 38.7645 154.091 38.5155 154.038 38.3192C154.254 37.9458 154.397 37.6969 154.665 37.5199L154.541 37.448Z" fill="#5D5859"/>
    <path d="M148.907 45.4788L148.404 46.35C148.404 46.35 148.639 45.6558 148.907 45.4788Z" fill="#989293"/>
    <path d="M134.05 39.8882C134.41 39.2659 134.841 38.5192 135.2 37.8969C135.2 37.8969 135.2 37.8969 135.325 37.9687C134.965 38.591 134.534 39.3378 134.175 39.9601L134.05 39.8882Z" fill="#FAF8F8"/>
</svg>