<svg width="150" height="146" viewBox="0 0 150 146" fill="none" xmlns="http://www.w3.org/2000/svg">
<path opacity="0.5" fill-rule="evenodd" clip-rule="evenodd" d="M42.4505 87.475C42.2668 86.7976 42.2188 86.0907 42.3093 85.3948C42.3997 84.6989 42.6268 84.0276 42.9775 83.4192C43.3282 82.8109 43.7958 82.2775 44.3534 81.8494C44.9109 81.4214 45.5476 81.1071 46.2271 80.9246L74.3898 73.3424C75.7557 72.9897 77.2059 73.1886 78.4255 73.8961C79.645 74.6036 80.5354 75.7624 80.9032 77.1208C81.271 78.4791 81.0864 79.9274 80.3896 81.1508C79.6928 82.3743 78.5401 83.2742 77.1818 83.6549L49.0191 91.2368C48.3401 91.4212 47.6312 91.4701 46.9331 91.3807C46.2351 91.2912 45.5616 91.0652 44.9514 90.7156C44.3411 90.3661 43.806 89.8997 43.3769 89.3435C42.9477 88.7872 42.6329 88.152 42.4505 87.4741V87.475ZM70.4307 104.127L52.98 108.825V146H70.4301V104.125L70.4307 104.127ZM121.835 14.1966L104.384 1.55243V146H121.835V14.1966ZM28.1621 146H42.2668V104.733C42.2673 103.559 42.6554 102.418 43.3711 101.485C44.0869 100.553 45.0906 99.8816 46.2271 99.5748L74.3898 91.9923C75.1839 91.779 76.0167 91.7508 76.8235 91.91C77.6303 92.0691 78.3895 92.4113 79.0424 92.9101C79.6953 93.4089 80.2243 94.0508 80.5885 94.7862C80.9527 95.5216 81.1422 96.3307 81.1424 97.1509V146H93.6693V0L28.1621 35.077V146ZM0 146H17.4492V80.437L0 88.6838V146ZM150 88.6838L132.548 80.437V146H150V88.6838Z" fill="url(#paint0_linear_5789_15479)"/>
<defs>
<linearGradient id="paint0_linear_5789_15479" x1="75" y1="0" x2="75" y2="234" gradientUnits="userSpaceOnUse">
<stop stop-color="#FFA684"/>
<stop offset="1" stop-color="#FAF0EB"/>
</linearGradient>
</defs>
</svg>
