<svg width="526" height="519" viewBox="0 0 526 519" fill="none" xmlns="http://www.w3.org/2000/svg">
<path d="M342.204 203.232C342.588 203.967 342.145 204.917 341.244 204.452C339.545 203.798 337.699 203.386 336.053 202.691C335.105 200.411 341.461 202.808 342.201 203.232H342.204Z" fill="#EB6025"/>
<path d="M340.612 205.614C341.566 207.746 339.632 207.148 338.438 206.45C337.666 205.846 336.114 205.89 335.923 204.774C335.838 202.866 339.694 205.347 340.612 205.611V205.614Z" fill="#EB6025"/>
<path d="M340.35 208.507C340.714 209.876 340 210.189 338.856 209.521C337.976 209.004 335.455 208.702 335.467 207.586C335.578 207.247 340.511 208.04 340.35 208.507Z" fill="#EB6025"/>
<path d="M327.113 122.948C327.345 123.718 327.468 124.383 327.509 124.903C327.585 125.859 327.395 126.33 327.116 126.092C327.104 126.08 327.095 126.071 327.087 126.063C327.048 126.028 327.01 125.978 326.972 125.917C326.737 125.548 326.467 124.738 326.241 123.375C326.23 123.367 326.218 123.355 326.206 123.346C325.892 123.468 325.467 123.599 325.206 123.306C317.696 126.585 310.322 130.167 303.019 133.86C301.226 134.769 299.436 135.681 297.652 136.599C296.918 136.884 296.337 137.549 295.533 137.659C295.509 138.618 294.94 138.749 294.732 138.095C294.697 137.985 294.67 137.848 294.661 137.691C292.334 124.654 301.481 117.78 312.614 113.597C318.21 110.343 325.035 113.443 326.104 119.796C329.516 117.22 330.179 112.81 332.011 109.213C332.712 106.465 336.82 102.113 337.727 107.177C338.358 114.181 333.026 119.895 327.113 122.948Z" fill="#EB6025"/>
<path d="M361.526 188.233C354.375 185.482 347.056 183.231 339.744 180.959C336.704 178.153 333.79 175.23 331.339 171.884C330.626 171.227 329.271 167.965 328.206 168.595C328.044 168.688 327.892 168.868 327.748 169.162C327.642 169.202 327.536 169.243 327.431 169.284C327.343 167.34 325.782 167.854 324.303 168.581C323.531 168.958 322.783 169.394 322.278 169.565C319.787 170.571 317.389 171.788 314.974 172.976C312.753 174.071 310.52 175.137 308.19 175.988C307.943 176.078 307.694 176.166 307.442 176.253C306.541 175.579 305.646 174.899 304.754 174.208C301.403 171.619 298.128 168.915 295.02 166.042C293.104 164.272 291.253 162.436 289.489 160.522C288.896 159.88 288.309 159.226 287.74 158.564C287.403 158.181 287.074 157.791 286.748 157.402C286.713 155.92 286.56 154.448 286.332 152.981C286.337 153.018 286.343 153.056 286.346 153.094C285.663 150.041 284.858 137.07 282.441 134.888C282.27 134.731 282.091 134.632 281.904 134.592C281.704 134.443 281.425 134.339 281.076 134.272C278.277 133.738 271.167 135.603 268.599 135.588C266.73 135.916 264.852 136.218 262.953 136.338C262.871 136.326 262.792 136.326 262.718 136.338C262.381 136.378 262.155 136.622 262.07 136.921C261.982 137.224 262.043 137.584 262.284 137.837C262.39 147.795 262.71 157.841 261.424 167.761C261.31 168.543 261.192 169.321 261.069 170.1C260.937 170.937 260.799 171.77 260.656 172.601C258.381 185.851 254.866 198.874 252.897 212.188C252.912 214.498 250.347 219.898 251.33 221.272C252.143 221.923 253.006 222.483 253.906 222.966C258.666 225.519 264.479 225.958 269.755 226.713C278.133 228.32 286.323 230.742 294.612 232.625C301.951 233.77 309.194 235.205 315.943 238.389C316.339 238.877 316.697 238.923 316.987 238.708C317.339 238.447 317.589 237.796 317.686 237.081C317.847 235.902 317.589 234.548 316.679 234.481C316.057 233.799 315.438 233.11 314.681 232.567C314.772 229.252 315.611 224.555 318.355 222.483C318.742 222.725 318.959 223.201 319.385 223.378C319.423 223.369 319.461 223.361 319.499 223.352C320.027 223.236 320.576 223.157 321.125 223.07C321.911 222.951 322.704 222.812 323.443 222.521C323.513 222.498 323.581 222.469 323.648 222.44C323.886 223.387 324.312 223.457 324.655 223.14C324.957 222.861 325.195 222.28 325.189 221.734C325.271 221.737 325.315 221.673 325.33 221.595C325.347 221.502 325.321 221.385 325.268 221.333C327.046 213.26 328.619 205.155 330.063 197.015C330.216 197.012 330.383 197.044 330.415 196.841C330.635 196.751 330.858 196.666 331.067 196.55C336.266 198.229 341.542 199.702 346.818 201.114C346.839 201.402 346.81 201.701 346.854 201.974C345.448 209.971 344.104 218.013 343.244 226.089C343.148 228.026 342.954 229.984 342.977 231.925C342.98 232.16 342.986 232.395 342.995 232.631C343.47 234.342 344.245 233.29 344.515 232.241C344.582 231.983 344.618 231.727 344.612 231.512C345.577 221.324 347.247 211.244 348.67 201.14C352.279 199.171 355.944 197.326 359.674 195.606C361.047 194.537 365.15 194.244 364.677 192.062C364.795 192.106 364.906 192.152 365.021 192.201C364.642 205.91 360.836 219.198 356.437 232.108C356.414 232.119 356.391 232.134 356.37 232.149C355.352 232.802 355.372 235.495 356.798 235.513C356.822 235.495 356.845 235.478 356.866 235.457C358.019 234.525 357.758 232.57 358.415 231.283C360.161 226.466 361.608 221.548 362.922 216.601C362.975 216.406 363.025 216.209 363.078 216.014C363.283 215.34 363.477 214.666 363.659 213.986C365.478 207.215 366.171 200.17 366.373 193.177C366.993 189.834 363.891 189.418 361.526 188.233ZM317.017 220.023C317.017 220.023 317.023 220.003 317.023 219.994C317.02 220.02 317.017 220.046 317.014 220.069C317.014 220.055 317.014 220.037 317.014 220.023C316.99 220.209 316.961 220.389 316.932 220.575C314.27 223.204 313.264 227.451 313.008 231.103C313.008 231.103 313.008 231.094 313.011 231.088C313.008 231.103 313.008 231.117 313.008 231.129C312.979 231.748 312.991 232.369 313.046 232.988C308.105 231.463 303.539 228.991 299.035 226.507C300.511 219.169 301.778 211.796 303.187 204.449C304.29 199.432 306.529 194.645 307.128 189.537C307.248 189.471 307.374 189.413 307.5 189.36C311.676 191.809 316.729 191.739 321.239 193.34C320.55 202.311 317.785 211.046 317.014 220.023H317.017ZM323.205 191.966C322.792 191.923 322.348 191.597 321.961 191.661C317.639 190.331 313.026 190.296 308.783 188.794C314.775 185.941 320.198 182.092 325.943 178.827C329.831 179.655 333.499 181.473 337.243 182.827C337.155 182.894 337.067 182.96 336.979 183.03C332.546 186.249 327.68 188.817 323.205 191.966ZM348.242 199.284C343.25 198.055 338.329 196.527 333.376 195.144C338.353 192.042 343.579 189.325 348.652 186.397C353.782 187.948 358.788 189.857 363.806 191.728C358.568 194.142 353.453 196.817 348.242 199.284Z" fill="#EB6025"/>
<path d="M229.657 455.549C229.942 456.092 229.971 457.265 229.226 457.437C225.191 458.009 221.136 458.564 217.071 458.898C217.071 458.895 217.077 458.889 217.077 458.886C214.762 456.01 220.88 456.103 222.559 455.917C224.85 456.141 227.635 454.59 229.657 455.546V455.549Z" fill="#EB6025"/>
<path d="M229.791 460.231C229.879 462.239 226.871 461.806 225.495 461.972C222.986 461.899 220.298 463.009 217.877 462.297C217.877 462.297 217.88 462.294 217.883 462.291C217.416 461.791 217.639 460.725 218.414 460.69C220.812 460.449 223.168 459.825 225.589 459.848C226.815 460.287 229.7 458.459 229.791 460.226V460.231Z" fill="#EB6025"/>
<path d="M230.619 464.264C230.927 466.082 228.955 465.818 227.719 465.87C224.65 465.719 221.595 466.256 218.535 466.024C218.391 466.3 218.282 466.021 218.13 465.94C218.133 465.94 218.136 465.94 218.136 465.94C218.13 465.934 218.121 465.934 218.112 465.928C218.112 465.928 218.113 465.928 218.115 465.928C216.563 464.13 223.825 464.217 224.894 463.822C226.531 463.63 228.236 463.723 229.82 463.226C230.369 463.125 230.58 463.842 230.619 464.264Z" fill="#EB6025"/>
<path d="M171.738 507.685C172.786 509.443 170.371 510.268 168.968 509.936C169.634 514.564 167.935 513.417 164.253 514.015C162.633 513.751 163.472 510.834 163.158 509.62C162.539 509.649 161.885 509.629 161.304 509.858C158.19 509.126 165.711 503.906 166.556 502.837C168.519 503.961 170.312 505.872 171.738 507.685Z" fill="#EB6025"/>
<path d="M265.652 494.275C265.707 490.069 265.678 485.857 265.693 481.647C265.558 474.666 265.385 467.692 264.942 460.719C264.942 460.751 264.942 460.783 264.942 460.812C264.936 460.705 264.933 460.603 264.927 460.496L264.936 460.653C264.498 450.825 264.991 440.866 263.395 431.132C264.795 428.657 262.06 428.906 260.455 428.668C255.877 428.447 251.276 428.593 246.692 428.601C236.014 429.055 225.339 429.467 214.663 429.912C208.806 430.144 203.002 431.169 197.166 431.678C190.727 431.997 184.225 432.401 177.986 434.118C168.781 439.161 160.213 445.453 152.257 452.304C151.603 451.676 151.136 452.844 151.269 453.422C151.266 453.416 151.263 453.413 151.26 453.407C152.389 462.213 152.061 471.105 152.533 479.951C152.533 479.948 152.53 479.945 152.53 479.942C152.947 489.648 154.684 499.243 156.148 508.83C156.683 511.691 157.046 514.573 157.601 517.429C157.821 518.948 159.388 518.55 160.503 518.463C167.44 517.795 174.418 518.358 181.361 517.696C187.227 517.385 193.066 516.653 198.953 516.821C206.139 516.978 213.293 516.275 220.474 516.084C227.892 515.688 235.398 516.238 242.757 515.119C242.983 515.273 243.262 515.2 243.45 515.015C244.228 514.977 244.944 514.611 245.011 513.768C248.283 512.237 250.892 509.765 253.858 507.764C257.673 505.257 261.59 502.874 265.059 499.894C265.047 499.903 265.038 499.908 265.027 499.917C266.165 498.38 265.385 496.091 265.649 494.275H265.652ZM226.982 431.408C237.851 431.117 248.732 430.414 259.607 430.789C259.398 430.96 259.187 431.135 258.97 431.3C252.4 435.852 246.49 441.262 240.392 446.406C240.046 446.098 239.8 446.656 239.761 446.941C239.632 447.054 239.521 447.176 239.442 447.324C227.883 447.769 216.418 449.48 204.865 450.136C212.266 443.92 219.878 437.874 226.982 431.408ZM159.153 515.218C157.935 504.359 156.096 493.575 155.007 482.702C154.388 473.159 154.094 463.581 152.836 454.087C158.179 454.584 163.587 453.512 168.931 453.192C174.245 452.792 179.574 453.009 184.885 452.652C185.369 473.17 187.136 493.631 189.307 514.021C179.28 515.218 169.212 514.814 159.153 515.218ZM185.481 450.587C175.119 450.767 164.82 451.493 154.52 452.609C180.894 432.215 179.679 436.166 210.784 432.372C210.749 432.398 210.714 432.424 210.676 432.451C202.242 438.423 193.069 443.522 185.481 450.587ZM241.566 512.115C229.259 513.097 216.838 512.56 204.516 513.606C203.906 499.734 204.185 485.816 203.604 471.927C203.319 465.481 201.966 459.098 201.84 452.655C202.034 453.466 202.653 452.768 202.433 452.243C214.939 451.836 227.405 450.299 239.876 449.555C241.936 470.318 241.158 491.254 241.763 512.083C241.698 512.095 241.634 512.104 241.566 512.115ZM263.873 497.73C260.93 500.498 257.465 502.622 254.081 504.806C250.639 507.241 247.526 509.995 243.611 511.671C242.936 490.537 244.348 469.202 240.827 448.26C242.737 446.891 244.53 445.369 246.408 443.963H246.411C251.024 440.172 255.686 436.474 260.546 432.997C261.265 432.634 261.276 431.617 261.095 430.937C261.508 430.989 261.916 431.068 262.327 431.135C262.233 453.349 264.047 475.509 263.873 497.73Z" fill="#EB6025"/>
<path d="M389.507 441.61C390.461 444.196 386.664 442.865 385.249 443.156C383.829 442.856 377.32 444.393 377.235 443.063C377.092 441.151 380.181 441.875 381.443 441.523C384.031 441.456 387.127 440.82 389.507 441.61Z" fill="#EB6025"/>
<path d="M389.1 444.503C389.537 444.544 389.645 445.148 389.645 445.491C389.757 446.557 388.736 446.583 387.935 446.52C384.906 446.171 381.532 447.316 378.674 446.281C378.272 445.721 378.442 444.623 379.305 444.715C382.579 444.579 385.828 444.251 389.103 444.503H389.1Z" fill="#EB6025"/>
<path d="M389.719 449.547C389.655 451.755 386.518 450.139 385.165 450.137C383.357 449.768 381.383 449.988 379.631 449.541C379.631 449.541 379.631 449.541 379.634 449.538C378.624 447.069 386.339 448.414 387.695 448.396C388.613 448.385 389.851 448.251 389.719 449.547Z" fill="#EB6025"/>
<path d="M424.571 352.385C423.649 352.277 421.041 352.559 421.921 350.973C422.96 350.377 424.301 350.633 425.451 350.398H425.445C426.129 350.372 427.256 349.843 427.611 350.68C427.778 351.153 427.79 351.865 427.344 352.193C426.478 352.489 425.483 352.359 424.571 352.385Z" fill="#EB6025"/>
<path d="M425.133 355.435C424.484 355.377 423.827 355.365 423.185 355.252C423.094 355.38 422.962 355.31 422.9 355.179C422.824 355.145 422.753 355.104 422.703 355.034C421.908 352.847 426.286 353.736 427.516 353.663C427.918 353.715 428.02 354.25 428.02 354.575C428.085 356.092 426.09 355.383 425.133 355.435Z" fill="#EB6025"/>
<path d="M427.469 359.351C426.398 358.671 422.047 359.441 423.159 357.344C424.62 357.271 426.287 357.129 427.734 357.416C428.288 357.803 428.297 359.348 427.469 359.354V359.351Z" fill="#EB6025"/>
<path d="M434.45 406.843C433.825 406.741 433.015 406.886 432.51 406.468C432.041 405.747 432.616 404.943 433.452 405.03C435.715 404.975 437.983 404.603 440.242 404.873C440.914 405.044 440.885 406.073 440.63 406.572C438.899 407.29 436.416 406.787 434.45 406.843Z" fill="#EB6025"/>
<path d="M439.789 410.265C438.668 409.945 432.89 410.756 433.829 408.821C435.123 408.67 441.124 407.514 441.036 409.402C441.115 410.178 440.438 410.358 439.792 410.268L439.789 410.265Z" fill="#EB6025"/>
<path d="M441.365 413.884C439.067 413.454 436.611 413.687 434.375 413.088V413.083C433.319 411.401 439.593 412.06 440.614 411.65C442.016 411.127 442.512 413.451 441.365 413.884Z" fill="#EB6025"/>
<path d="M478.886 444.1C478.428 431.698 478.258 419.267 476.987 406.915C476.714 398.566 476.738 389.999 475.426 381.807C475.233 378.797 469.804 380.012 467.665 379.712C466.324 370.248 465.772 360.746 465.608 351.191C465.282 345.837 464.217 340.529 463.92 335.181C464.499 334.661 464.454 332.657 463.375 332.985C462.195 330.737 448.571 332.724 444.941 332.204C433.954 332.561 422.842 330.885 411.955 332.866C408.443 332.976 404.942 336.009 401.608 337.436C395.291 340.274 389.604 345.076 383.066 347.063C382.834 346.511 382.291 346.877 382.262 347.345C381.96 347.679 381.907 348.486 382.391 348.678C383.688 362.767 386.006 376.703 387.96 390.702C383.08 393.773 378.077 396.878 373.221 400.1C370.914 399.824 371.739 402.686 371.768 404.106C372.138 409.559 371.95 415.052 372.59 420.488C363.065 420.461 353.519 420.676 344.085 422.082C344.076 422.082 344.07 422.085 344.062 422.085C335.423 422.846 335.966 422.614 328.688 427.564C323.151 431.227 317.012 433.987 311.748 438.051C311.739 438.051 311.733 438.051 311.727 438.051C311.534 437.778 311.232 437.918 311.099 438.153C310.695 438.577 310.856 439.141 310.815 439.672C310.451 450.162 310.686 460.621 311.099 471.102C311.364 479.788 312.071 488.436 312.728 497.099C313.013 498.299 312.256 504.661 314.116 504.065C328.768 503.473 343.466 503.566 358.15 503.307C366.686 503.641 375.222 503.479 383.761 503.604C389.24 504.094 394.601 503.848 400.062 503.339C400.132 504.542 401.021 504.992 401.77 503.906C402.577 505.102 403.466 503.394 403.299 502.561C410.268 496.742 417.8 491.405 424.036 484.808C425.219 482.957 424.124 480.494 424.136 478.431C423.789 473.682 423.446 468.932 422.941 464.197C428.889 464.938 434.937 463.578 440.921 463.197C443.06 463.197 453.512 462.625 454.046 460.76C459.457 458.514 464.173 455.072 469.17 452.094C472.439 450.38 475.394 448.175 478.472 446.186C479.08 445.724 479.091 444.774 478.886 444.097V444.1ZM467.216 381.592C467.298 381.551 467.371 381.476 467.433 381.403C469.22 381.912 470.981 382.527 472.818 382.841C472.653 382.934 472.492 383.027 472.33 383.12C463.633 387.954 455.387 393.485 447.062 398.909C436.877 398.662 426.539 399.368 416.292 399.449C417.275 398.77 418.954 398.409 419.262 397.149C425.914 397.189 432.599 398.029 439.227 397.157C439.817 397.584 440.225 396.66 440.231 396.167C447.221 393.035 453.738 388.913 460.605 385.52C462.679 384.747 464.563 383.509 466.664 382.821C467.119 382.638 467.216 382.031 467.216 381.592ZM414.338 349.082C414.716 348.835 414.121 348.51 414.165 348.219C420.039 348.356 426.046 347.795 431.841 348.823C431.88 349.117 432.114 349.396 432.434 349.323C433.74 354.009 433.945 358.994 434.362 363.886C435.653 374.289 436.804 384.686 438.585 395.019L438.409 395.028C432.282 395.58 426.175 394.586 420.039 394.639C420.031 394.537 420.025 394.432 420.019 394.331C420.025 394.4 420.028 394.473 420.03 394.543C418.868 381.264 417.704 367.982 414.781 354.938C414.766 354.869 414.749 354.799 414.734 354.732C414.423 353.451 414.097 352.173 413.815 350.88C413.851 350.854 413.877 350.822 413.903 350.781C414.746 350.973 414.473 349.555 414.338 349.082ZM466.221 379.832C466.171 379.855 466.124 379.887 466.083 379.925C466.086 379.927 466.086 379.93 466.086 379.93C465.878 380.137 465.884 380.529 466.013 380.767C457.089 384.767 448.626 389.694 440.102 394.467C437.825 380.654 436.038 366.773 434.755 352.829C434.755 352.824 434.752 352.818 434.752 352.812C434.506 351.388 434.617 349.965 434.397 348.547C441.07 345.317 447.629 341.947 454.524 339.181C455.807 338.615 457.092 338.057 458.369 337.482C458.351 337.491 458.33 337.502 458.313 337.511C459.622 336.916 460.98 336.454 462.312 335.925C464.454 350.517 463.903 365.272 466.221 379.832ZM437.848 334.182C444.994 334.266 452.139 334.307 459.284 334.417C450.076 337.831 441.528 342.609 433.001 347.4C430.856 345.087 421.765 346.316 418.32 346.04C423.32 343.336 427.833 339.789 433.042 337.485C433.992 336.491 438.045 335.277 437.848 334.182ZM406.744 337.273C408.281 336.076 411.177 336.029 412.199 334.545C417.131 333.955 422.079 333.801 427.041 333.923C426.874 334.01 426.706 334.098 426.542 334.188C419.133 337.462 413.052 343.504 405.535 346.357C399.501 346.081 393.495 345.991 387.511 346.883C393.964 343.766 400.3 340.422 406.744 337.273ZM413.434 348.219C413.372 348.303 413.334 348.399 413.308 348.498C413.287 348.405 413.273 348.309 413.252 348.219H413.434ZM386.643 372.122C385.859 364.336 385.02 356.533 383.676 348.823C383.776 348.754 383.879 348.687 383.984 348.626C390.651 348.774 397.283 347.603 403.962 348.356C404.179 349.977 404.358 351.6 404.569 353.221C404.666 353.948 404.777 354.674 404.877 355.4C405.67 363.174 406.65 370.922 407.982 378.635C407.982 378.617 407.982 378.597 407.982 378.58C407.997 378.667 408.008 378.754 408.02 378.841C408.008 378.771 407.997 378.704 407.985 378.635C408.22 383.96 409.704 389.119 410.215 394.432C410.153 394.426 410.089 394.421 410.027 394.415C403.196 394.101 396.335 394.171 389.51 393.616C389.026 386.382 387.902 379.256 386.646 372.122H386.643ZM388.178 393.334C388.406 394.403 388.066 396.379 389.756 396.068C396.021 396.274 402.289 396.649 408.563 396.707C408.501 396.759 408.437 396.809 408.372 396.858C407.099 397.843 405.643 398.56 404.308 399.458C395.053 399.894 385.798 399.937 376.525 399.946C380.434 397.767 384.137 395.257 388.178 393.334ZM403.348 401.599C403.836 406.52 404.607 411.424 404.739 416.383C404.736 416.371 404.736 416.362 404.736 416.354C404.786 417.934 404.783 419.526 405.1 421.083C394.789 420.287 384.436 420.2 374.098 420.45C373.878 414.361 373.435 408.26 372.678 402.215C382.907 402.351 393.14 402.142 403.348 401.599ZM387.661 422.379C393.674 422.422 399.672 422.762 405.667 423.201C405.837 423.381 406.089 423.39 406.28 423.227C410.162 423.297 414.05 423.332 417.906 423.843C411.462 427.901 405.083 432.041 398.662 436.12C386.878 435.803 375.052 436.361 363.282 436.913C370.976 431.384 379.647 427.384 387.661 422.379ZM314.251 501.338C312.892 480.877 312.502 460.394 312.003 439.905C318.327 439.806 324.654 439.53 330.986 439.693C335.435 439.196 339.833 438.958 344.308 439.257C344.34 439.475 344.437 439.722 344.654 439.8C344.754 439.823 344.854 439.792 344.942 439.745C345.03 460.353 348.61 480.715 350.142 501.218C338.164 501.686 326.2 500.89 314.251 501.338ZM346.204 437.116C341.121 437.032 336.101 436.756 331.045 437.438C325.683 437.441 320.281 437.36 314.944 437.871C322.25 433.92 329.351 429.516 336.711 425.725C346.882 423.965 357.325 422.544 367.722 422.533C367.657 422.568 367.593 422.605 367.525 422.643C364.497 424.299 361.548 426.135 358.886 428.331C354.623 431.207 350.432 434.185 346.204 437.116ZM384.113 501.178C376.986 500.966 369.864 501.404 362.742 501.23C362.66 497.119 362.636 492.977 362.387 488.858V488.901C362.387 488.872 362.384 488.846 362.384 488.817C362.261 479.808 361.43 470.826 361.598 461.806C361.269 454.261 360.078 446.769 359.969 439.222C360.063 439.164 360.16 439.112 360.254 439.048C372.86 438.696 385.472 438.458 398.093 438.263C397.729 450.049 399.29 461.754 399.754 473.516C399.804 476.186 400.323 478.815 400.393 481.479C400.517 483.335 400.64 485.186 400.684 487.048C400.69 487.205 400.699 487.361 400.704 487.521C400.702 487.446 400.699 487.367 400.696 487.292C401.171 491.786 401.013 496.309 401.341 500.818C395.569 501.181 389.903 501.776 384.113 501.178ZM402.976 499.821C402.656 491.19 402.075 482.58 401.233 473.987C401.236 474.033 401.236 474.08 401.239 474.126C401.233 474.056 401.23 473.987 401.227 473.914C401.23 473.937 401.233 473.963 401.233 473.987C400.828 461.771 399.005 449.605 399.434 437.372C406.368 433.83 413.064 429.766 419.52 425.432C420.315 435.143 420.274 444.89 420.415 454.625C420.923 463.944 421.958 473.252 422.809 482.548C416.891 488.974 409.669 494.203 402.976 499.821ZM438.676 459.278C433.429 460.446 427.868 460.112 422.715 461.161C421.143 448.504 422.768 434.626 420.303 422.358C420.171 421.26 417.219 421.769 416.213 421.432C415.802 414.785 414.731 408.199 413.634 401.634C424.729 401.628 435.844 401.311 446.916 400.832C447.059 408.109 448.444 415.276 449.064 422.527C449.677 434.568 451.311 446.522 452.423 458.535C447.887 459.525 443.277 459.403 438.676 459.278ZM453.926 458.66C453.122 447.257 451.015 435.963 450.727 424.537C450.088 416.412 448.345 408.42 447.901 400.286C456.893 395.222 465.526 389.546 474.572 384.555C475.447 404.289 476.486 424.02 477.568 443.76C469.927 449.05 462.001 454.041 453.926 458.66Z" fill="#EB6025"/>
<path d="M399.065 389.264C399.329 390.699 397.392 390.112 396.536 390.179C397.252 391.577 397.495 393.296 395.327 392.852C394.649 392.765 393.692 393.215 393.199 392.611C392.604 392.033 393.014 390.9 392.868 390.127C392.568 390.159 392.275 390.197 391.978 390.234C391.99 390.234 391.999 390.232 392.011 390.232C387.961 390.783 393.942 386.04 394.784 385.293C395.594 385.325 396.178 386.371 396.823 386.833C397.516 387.69 398.824 388.099 399.068 389.264H399.065Z" fill="#EB6025"/>
<path d="M327.515 494.827C328.187 496.872 324.956 496.233 323.782 496.088C323.597 497.244 324.935 500.022 323.198 500.21C321.969 500.054 320.672 499.728 319.501 500.254C318.298 499.955 318.374 497.979 319.028 497.178C319.011 496.669 319.014 496.161 318.973 495.652C317.772 495.679 315.387 496.916 316.05 494.685C317.822 493.081 319.603 491.266 321.666 490.017C322.306 489.601 327.001 494.078 327.515 494.827Z" fill="#EB6025"/>
<path d="M80.766 454.044C80.766 454.087 80.766 454.134 80.766 454.177C80.766 454.163 80.766 454.151 80.766 454.137C80.8863 458.526 71.2321 456.641 68.2185 458.131C65.5628 458.215 54.2125 462.059 53.9455 458.442C52.9478 458.375 53.209 454.093 52.8304 453.079C50.5651 444.474 57.1176 435.986 65.915 435.193C77.2388 433.604 80.1556 445.218 80.766 454.046V454.044Z" fill="#EB6025"/>
<path d="M77.2499 424.006C77.3702 434.647 56.2014 438.403 54.9279 426.806C52.1872 412.746 76.5427 409.498 77.2499 424.006Z" fill="#EB6025"/>
<path d="M397.133 20.7723C397.279 34.7136 387.379 49.5525 379.215 60.3941C377.202 63.0841 375.221 65.7916 373.338 68.5747C372.833 69.2021 372.082 70.7505 371.204 69.8064C365.03 60.7456 361.917 49.8488 359.291 39.2396C355.059 25.4262 357.879 3.97833 374.679 0.579439C388.705 -2.61319 396.766 7.84202 397.133 20.7723Z" fill="#EB6025"/>
<path d="M479.538 172.159C479.981 172.798 480.06 175.701 478.807 174.472C469.444 176.54 459.995 179.399 450.323 179.922C448.348 180.305 449.633 171.026 449.636 169.565C453.249 150.86 461.635 157.196 454.731 133.508C450.432 125.4 449.311 127.875 442.999 122.469C442.23 121.766 437.553 116.885 439.249 116.444C443.146 114.686 447.949 115.93 452.078 114.576C457.286 113.87 461.738 110.84 466.665 109.501C467.704 110.654 466.142 112.475 466.057 113.829C464.529 118.794 461.964 123.302 459.267 127.718C458.504 129.621 457.448 131.46 457.028 133.47C457.779 136.59 457.741 139.902 459.056 142.865C460.984 146.078 462.856 151.191 466.16 153.009C475.618 157.736 477.325 162.451 479.538 172.159Z" fill="#EB6025"/>
<path d="M372.185 306.866C373.511 318.643 357.533 324.069 353.578 312.22C350.837 297.639 370.518 293.619 372.185 306.866Z" fill="#EB6025"/>
<path d="M326.885 153.19C324.939 154.224 322.785 154.654 320.693 155.275C320.549 158.866 319.742 162.407 319.496 165.992C319.455 166.576 319.428 167.163 319.422 167.75C319.425 167.712 319.428 167.671 319.428 167.631C319.419 168.014 319.475 168.801 318.918 168.781C318.554 168.615 318.513 168.095 318.574 167.75C318.586 167.34 318.598 166.93 318.618 166.524C318.777 162.98 319.223 159.462 319.593 155.935C319.593 155.987 319.587 156.042 319.587 156.095C319.675 155.113 319.317 153.646 320.617 153.387C324.654 152.054 328.971 150.729 332.337 148.074C332.128 146.801 331.718 145.567 331.524 144.286C331.524 144.283 331.521 144.277 331.521 144.274C330.852 141.407 330.048 138.574 329.276 135.733C329.165 135.33 329.056 134.926 328.947 134.522C328.657 133.441 328.375 132.361 328.108 131.274C327.994 130.809 327.882 130.344 327.777 129.877C327.615 129.182 327.466 128.485 327.325 127.785C327.202 127.181 327.087 126.577 326.981 125.972C326.981 125.952 326.978 125.935 326.973 125.917C326.943 125.731 326.911 125.545 326.882 125.359C326.8 124.97 326.626 123.936 327.246 124.011C327.334 124.308 327.422 124.604 327.51 124.903C328.463 128.125 329.461 131.396 330.388 134.696C331.398 138.301 332.322 141.938 333.003 145.581C335.031 150.436 330.547 151.702 326.885 153.19Z" fill="#262626"/>
<path d="M326.846 147.496C325.132 146.578 321.532 146.287 321.825 143.734C321.816 143.734 321.804 143.731 321.796 143.728C321.047 142.944 322.561 142.578 323.09 142.296C323.087 142.296 323.084 142.299 323.078 142.302C323.879 142.107 326.834 140.474 327.224 141.134C327.265 142.046 328.466 148.196 326.846 147.502V147.496ZM326.021 145.544C326.32 145.683 326.617 145.837 326.913 145.979C326.922 144.637 326.819 143.298 326.717 141.959C325.381 142.4 324.061 142.903 322.761 143.437C323.178 144.23 324.014 144.631 324.795 145.003C324.771 144.992 324.748 144.98 324.724 144.971C325.156 145.163 325.59 145.346 326.015 145.544H326.021Z" fill="#262626"/>
<path d="M322.618 138.502C322.589 138.237 322.668 137.784 323.02 137.796C323.003 137.799 322.985 137.802 322.968 137.805C324 137.537 325.327 137.453 325.984 136.518C325.893 136.422 325.738 136.428 325.617 136.399C325.62 136.399 325.626 136.399 325.629 136.399C324.285 136.216 322.727 136.442 321.697 135.379C321.248 135.065 318.413 130.475 320.068 131.236C322.328 134.74 322.401 134.069 326.195 134.824C327.771 136.349 326.169 138.525 324.273 138.694C323.728 138.731 322.665 139.423 322.621 138.499L322.618 138.502Z" fill="#262626"/>
<path d="M307.018 135.661C306.311 132.924 309.912 131.939 311.807 130.966C312.673 130.661 313.536 130.132 314.443 130.028C315.056 130.368 315.047 131.422 314.613 131.905C314.569 131.942 314.522 131.971 314.472 132C314.622 133.232 313.36 133.517 312.465 133.924C310.983 134.269 308.224 137.163 307.018 135.664V135.661Z" fill="#262626"/>
<path d="M319.807 130.342C318.871 127.817 324.628 125.33 326.668 125.81C327.557 126.094 327.668 127.349 327.193 128.029C326.633 128.584 325.808 128.773 325.089 129.052C323.842 129.287 320.693 131.277 319.807 130.342Z" fill="#262626"/>
<path d="M310.353 139.832C309.036 139.676 309.153 137.72 309.866 136.965C310.94 136.12 314.048 134.095 315.213 135.158C317.698 136.631 312.023 140.198 310.35 139.832H310.353ZM310.943 138.801C311.732 138.636 312.443 138.226 313.114 137.799C312.575 137.41 312.748 136.669 312.894 136.128C311.988 136.422 308.085 138.836 310.946 138.801H310.943Z" fill="#262626"/>
<path d="M323.44 133.828C320.009 132.761 325.599 128.686 327.862 129.923C329.153 132.407 325.588 134.182 323.44 133.828ZM325.165 132.645C325.147 132.645 325.133 132.651 325.118 132.651C325.321 132.619 325.523 132.581 325.72 132.526C325.37 132.154 325.391 131.573 325.538 131.117C325.373 131.169 325.209 131.23 325.051 131.297C325.062 131.291 325.074 131.286 325.086 131.28C325.068 131.289 325.051 131.297 325.033 131.303C325.039 131.303 325.042 131.3 325.048 131.297C324.558 131.527 324.097 131.823 323.663 132.143C323.648 132.154 323.633 132.166 323.619 132.177C323.44 132.323 323.252 132.465 323.108 132.645C323.777 132.825 324.484 132.732 325.165 132.645Z" fill="#262626"/>
<path d="M313.154 144.001C312.547 143.249 313.207 141.828 313.533 141.015C313.7 140.567 314.028 140.744 314.017 141.154C313.832 141.703 313.621 142.252 313.585 142.868C313.585 142.854 313.588 142.842 313.591 142.827C313.588 142.854 313.585 142.88 313.579 142.906C313.579 142.9 313.579 142.894 313.579 142.891C313.483 143.22 313.632 143.984 313.154 144.001Z" fill="#262626"/>
<path d="M314.842 142.464C314.384 142.043 314.73 141.331 314.959 140.869C314.936 140.765 314.971 140.515 315.13 140.584C315.699 140.262 315.347 142.769 314.842 142.464Z" fill="#262626"/>
<path d="M317.318 140.928C316.872 140.634 317.186 139.211 317.524 138.952C317.785 139.214 317.805 140.91 317.318 140.928Z" fill="#262626"/>
<path d="M327.836 136.416C327.519 136.163 327.683 135.274 328.059 135.205C328.252 135.451 328.299 136.486 327.836 136.416Z" fill="#262626"/>
<path d="M328.738 135.123C328.694 134.24 329.545 134.24 329.501 135.123C329.545 136.006 328.694 136.003 328.738 135.123Z" fill="#262626"/>
<path d="M304.195 145.636C303.168 144.948 303.077 143.315 302.387 142.301C301.768 141.314 299.817 140.009 299.658 141.976C299.875 142.973 300.955 143.475 301.295 144.37C301.313 145.912 299.456 146.822 298.522 147.888C299.062 148.393 296.782 157.559 295.259 160.85C294.661 162.149 294.177 162.535 294.033 161.114C294.177 160.568 294.317 160.022 294.452 159.473C295.174 156.585 295.785 153.675 296.442 150.775C294.857 153.14 288.51 154.363 292.413 150.206C290.491 150.287 291.5 147.438 292.56 146.798C292.096 146.996 291.33 147.284 291.183 146.583C291.002 144.637 293.123 143.417 294.294 142.156C294.978 140.901 294.526 139.428 294.731 138.095C294.766 137.871 294.819 137.65 294.898 137.436C296.914 136.308 299.238 135.114 301.278 133.97C301.36 133.909 301.445 133.857 301.53 133.804C301.624 133.496 301.985 133.502 302.252 133.473C302.475 133.4 302.786 133.511 302.777 133.787C302.851 133.775 302.936 133.804 303.018 133.859C303.347 134.086 303.655 134.713 303.238 134.623C303.129 134.429 302.994 134.231 302.751 134.205C303.784 137.258 305.407 140.102 306.231 143.219C306.607 144.556 305.093 145.082 304.195 145.636Z" fill="#262626"/>
<path d="M293.008 54.1541C290.394 65.6842 289.138 77.4293 287.682 89.1395C287.674 89.215 287.662 89.2876 287.653 89.3632C287.647 89.4009 287.644 89.4358 287.638 89.4735C287.641 89.4445 287.644 89.4155 287.647 89.3893C287.251 92.2421 286.996 95.1093 286.503 97.9504C286.514 97.872 286.526 97.7936 286.538 97.7151C284.789 107.877 284.223 118.155 283.046 128.384C283.043 128.407 283.04 128.433 283.037 128.456C283.031 128.482 283.028 128.511 283.025 128.538C283.023 128.558 283.02 128.575 283.017 128.593C283.02 128.575 283.023 128.558 283.023 128.54C282.585 129.525 282.711 132.805 282.439 134.888C282.298 135.972 282.051 136.73 281.561 136.677C280.748 136.189 280.995 135.146 281.074 134.272C281.089 134.089 281.098 133.909 281.086 133.746C281.086 133.813 281.08 133.88 281.077 133.95C281.071 131.576 281.441 129.238 281.643 126.882C281.64 126.957 281.637 127.033 281.632 127.108C283.187 106.692 286.288 86.4204 289.02 66.1316C290.168 61.01 291.283 55.842 292.633 50.7756C292.812 50.0987 292.997 49.4248 293.184 48.7537C293.536 48.6055 293.718 48.7798 293.789 49.1459C294.027 50.3398 293.076 53.5673 293.008 54.1541Z" fill="#262626"/>
<path d="M283.004 41.157C282.989 41.1916 282.975 41.2232 282.96 41.2578C282.951 41.275 282.942 41.2894 282.934 41.3067C282.957 41.2578 282.98 41.206 283.004 41.157Z" fill="#262626"/>
<path d="M301.378 35.8381C300.189 40.8434 295.835 44.4428 293.789 49.146C293.657 49.4481 293.534 49.759 293.422 50.0727C293.422 50.0814 293.414 50.0931 293.414 50.1018C293.135 50.4446 293.276 52.0423 292.742 51.7199C292.686 51.4003 292.651 51.0866 292.633 50.7757C292.258 44.8088 298.159 40.46 300.016 35.1321C298.17 33.7174 296.735 37.247 295.77 37.2267C295.738 37.2267 295.702 37.2209 295.67 37.2092C295.576 37.0553 295.518 36.9013 295.482 36.7415C295.21 35.5156 296.515 34.1764 296.301 32.8546C294.376 32.2126 293.252 34.0369 292.287 35.3093C292.246 35.3674 292.202 35.4197 292.161 35.4749C292.084 35.4517 292.017 35.4255 291.958 35.3936C290.805 34.83 292.404 33.2642 292.143 32.3549C286.706 31.7303 280.986 51.5165 278.909 56.1384C271.285 78.8878 267.28 102.552 263.946 126.237C263.943 126.246 263.943 126.257 263.94 126.266C263.565 126.995 263.442 134.121 262.717 136.338C262.541 136.878 262.33 137.128 262.068 136.922C262.013 136.875 261.951 136.808 261.889 136.715C261.687 131.8 262.626 126.687 263.307 121.769C263.307 121.763 263.31 121.757 263.31 121.752C266.57 94.3106 271.805 66.7128 282.958 41.2589C284.352 38.7111 285.344 35.8962 287.175 33.6128C288.408 31.9715 292.627 28.1281 293.243 32.0673C295.242 30.4056 297.924 30.8559 297.164 33.9149C299.036 31.8988 301.985 32.965 301.378 35.8381Z" fill="#262626"/>
<path d="M287.798 44.0186C286.213 42.3482 290.224 40.428 291.26 39.356C288.247 32.8052 299.016 34.5104 295.401 41.7788C295.233 41.8863 295.172 41.5958 295.239 41.4564C295.216 40.6429 295.239 39.8266 295.186 39.0161C294.928 37.6508 292.892 36.3784 291.659 37.337C291.68 37.3138 291.697 37.2934 291.718 37.2702C291.319 37.95 292.842 38.2027 293.15 38.7169C294.28 40.6604 291.433 40.9567 290.412 42.0257C290.43 42.0141 290.447 41.9996 290.465 41.9851C289.523 42.5574 288.763 43.5974 287.798 44.0215V44.0186Z" fill="#262626"/>
<path d="M350.996 254.398C339.003 252.701 328.797 245.628 319.413 238.49C318.779 237.976 318.204 237.514 317.685 237.081C313.638 233.743 312.984 232.497 314.604 226.057C314.97 224.558 317.878 217.896 318.949 222.048C320.026 219.744 321.813 219.741 321.916 222.483C323.868 219.279 324.859 219.866 325.329 221.594C325.763 223.195 325.749 225.769 325.631 227.219C325.558 227.602 325.631 228.113 325.643 228.601C325.666 229.147 325.616 229.667 325.226 229.955C325.156 230.007 325.074 230.054 324.977 230.089C323.624 229.255 324.736 225.519 324.654 223.14C324.639 222.661 324.575 222.239 324.434 221.905C324.047 222.068 323.721 222.277 323.442 222.521C321.323 224.377 321.969 228.325 320.484 230.533C318.77 229.848 321.118 225.333 321.124 223.07C321.127 222.541 321.001 222.135 320.663 221.928C320.147 222.347 319.774 222.826 319.498 223.352C318.383 225.446 318.776 228.229 317.623 230.368C315.754 230.379 318.16 224.43 317.843 223.027C317.016 223.747 316.643 224.883 316.121 225.821C315.22 227.675 315.07 229.769 314.988 231.794C316.291 232.953 317.509 234.205 318.908 235.257C319.023 235.347 319.14 235.434 319.255 235.524C319.246 235.515 319.237 235.507 319.228 235.501C328.856 242.545 339.03 249.794 351.034 252.045C374.724 253.785 368.911 232.747 363.514 218.117C363.503 218.085 363.491 218.053 363.482 218.021C363.365 217.542 363.139 217.074 362.922 216.601C362.534 215.77 362.179 214.936 362.511 214.038C362.634 213.632 363.147 213.312 363.464 213.722C363.532 213.809 363.596 213.896 363.658 213.986C365.093 215.967 365.68 218.44 366.469 220.72C372.059 235.684 372.752 256.15 350.996 254.398Z" fill="#262626"/>
<path d="M355.627 236.68C354.054 236.558 352.502 236.256 350.944 236.032C350.961 236.032 350.976 236.035 350.993 236.038C345.917 235.434 340.923 234.292 335.925 233.232C332.712 232.294 328.98 232.276 326.242 230.208C325.793 229.862 325.42 229.002 325.992 228.622C327.031 228.752 327.991 229.403 329.071 229.476C329.068 229.476 329.062 229.476 329.059 229.476C329.17 229.493 329.288 229.511 329.399 229.525C329.367 229.519 329.335 229.513 329.302 229.511C335.617 230.179 341.785 231.779 348.021 232.921C347.98 232.915 347.939 232.909 347.898 232.904C350.377 233.229 352.848 233.615 355.316 234.01C355.028 233.287 354.89 232.331 355.463 231.707C356.801 230.571 357.81 237.604 355.621 236.68H355.627Z" fill="#262626"/>
<path d="M325.821 230.463C325.307 230.004 324.536 229.508 324.48 228.77C324.389 228.107 325.187 227.971 325.41 228.561C325.436 228.566 325.466 228.572 325.495 228.575C325.495 228.575 325.492 228.575 325.489 228.575C325.689 228.549 325.786 228.712 325.712 228.921C326.375 229.083 326.64 230.51 325.821 230.463Z" fill="#262626"/>
<path d="M316.986 238.708C316.986 238.781 316.983 238.853 316.977 238.929C316.323 248.213 312.455 257.158 310.125 266.163C305.788 281.31 300.16 296.088 292.525 309.925C282.351 328.354 269.563 345.268 256.382 361.684C245.75 375.216 235.049 388.767 223.408 401.468C225.735 424.136 221.063 420.833 216.732 401.727C215.438 401.866 213.663 404.24 212.644 403.043C211.06 400.89 207.178 397.889 208.577 395.005C212.879 386.528 219.728 379.715 225.333 372.101C235.964 357.925 246.722 343.809 255.827 328.598C263.647 315.096 269.229 300.486 274.531 285.86C275.247 283.893 275.954 281.929 276.661 279.965C276.776 279.678 276.887 279.387 276.993 279.094C278.704 274.437 279.434 269.507 280.899 264.769C282.759 258.047 285.121 251.464 286.239 244.559C284.306 244.3 282.381 243.998 280.432 243.835C278.217 249.677 275.059 255.11 272.386 260.746C270.071 265.858 268.134 271.122 265.496 276.093C258.274 290.714 251.789 306.41 239.327 317.524C231.354 324.604 222.748 331.088 211.846 325.664C198.14 318.239 189.298 275.988 186.426 260.664C184.991 262.227 177.247 267.97 176.264 264.359C178.82 258.477 184.806 254.633 189.677 250.683C188.5 248.73 188.635 247.699 190.716 246.665C190.695 246.682 190.675 246.7 190.651 246.717C191.335 246.322 192.233 245.128 193.04 245.593C197.961 251.47 200.575 258.735 204.126 265.42C209.147 275.614 214.543 285.642 220.494 295.289C220.852 295.426 220.987 295.821 221.151 296.135C221.867 294.427 222.877 292.872 223.886 291.321C235.776 269.975 245.401 247.414 254.017 224.607C253.867 223.939 253.832 223.393 253.905 222.966C254.116 221.719 255.237 221.452 257.063 222.007C260.331 223.366 263.729 224.363 267.26 224.752C272.09 225.327 276.934 225.862 281.626 227.201C286.275 228.529 290.711 230.577 295.547 231.129C300.26 232.166 304.932 233.313 309.43 235.068C311.537 236.143 316.983 235.8 316.986 238.708Z" fill="#262626"/>
<path d="M320.129 168.441C316.883 170.1 313.917 172.29 310.847 174.286C310.354 174.606 309.858 174.922 309.359 175.23C308.99 175.39 308.593 175.715 308.189 175.988C307.701 176.317 307.2 176.569 306.704 176.363C306.011 175.68 305.374 174.951 304.752 174.208C304.485 173.888 304.221 173.568 303.954 173.246C303.538 172.738 303.118 172.226 302.684 171.73C302.684 171.73 302.684 171.728 302.684 171.724C299.368 168.014 295.582 164.743 292.821 160.583C292.193 160.42 290.77 160.554 289.491 160.522C289.27 160.516 289.053 160.507 288.848 160.49C288.214 160.432 287.665 160.307 287.34 160.043C287.026 159.784 286.923 159.398 287.158 158.814C287.345 158.715 287.539 158.634 287.742 158.564C289.332 158.026 291.304 158.378 292.968 158.169C293.343 157.864 293.901 158.573 294.456 159.473C294.731 159.918 295.007 160.412 295.263 160.85C295.576 161.393 295.855 161.855 296.061 162.041C296.037 162.003 296.011 161.966 295.987 161.925C299.652 166.149 303.602 170.152 306.994 174.632C310.108 172.758 313.004 170.53 316.1 168.627C316.1 168.627 316.109 168.621 316.111 168.618C316.153 168.589 316.188 168.56 316.223 168.534C317.004 167.991 317.787 167.142 318.617 166.524C318.905 166.315 319.196 166.129 319.495 165.992C319.615 165.937 319.738 165.888 319.862 165.85C319.988 165.809 320.117 165.78 320.246 165.763C320.531 165.992 320.71 166.376 320.765 166.785C320.856 167.43 320.654 168.145 320.129 168.441Z" fill="#262626"/>
<path d="M327.025 170.396C320.98 173.112 314.721 175.346 308.319 177.107C308.233 177.357 307.996 177.699 307.691 177.592C304.765 176.677 288.464 164.2 287.337 160.043C287.247 159.709 287.252 159.427 287.376 159.209C287.531 159.093 287.701 159.232 287.816 159.331C288.15 159.723 288.494 160.109 288.846 160.49C290.656 162.445 292.669 164.226 294.776 165.861C294.858 165.919 294.938 165.978 295.02 166.041C298.121 168.284 300.868 170.997 303.955 173.246C305.044 174.036 306.173 174.771 307.377 175.407C308.527 175.024 309.686 174.652 310.848 174.286C312.221 173.85 313.597 173.42 314.974 172.976C318.516 171.837 322.04 170.626 325.42 169.089C325.133 168.938 324.742 168.769 324.302 168.58C323.19 168.107 321.749 167.511 320.766 166.785C320.373 166.495 320.056 166.184 319.862 165.85C319.698 165.571 319.619 165.277 319.654 164.967C319.689 164.618 320.027 164.078 320.405 164.412C321.429 165.19 322.647 165.696 323.777 166.3C325.109 167.154 327.451 167.148 328.205 168.595C328.226 168.636 328.246 168.676 328.264 168.72C328.513 169.655 327.856 170.181 327.025 170.396Z" fill="#262626"/>
<path d="M283.341 270.864C280.6 275.985 277.633 280.965 274.532 285.86C268.428 295.496 261.808 304.8 255.364 314.233C255.358 314.242 255.352 314.25 255.347 314.259C250.018 322.896 243.239 330.542 237.335 338.792C231.678 346.38 226.179 354.113 219.652 361.013C217 363.386 211.806 371.578 208.44 371.212C194.006 370.788 179.651 368.342 165.504 365.62C159.045 364.348 152.458 363.764 146.228 361.501C138.977 359.351 131.377 358.125 124.607 354.619C115.898 350.778 108.459 344.742 101.349 338.554C94.6322 330.995 88.3643 323.029 81.1896 315.869C73.9798 309.539 66.456 303.548 59.0642 297.448C56.9074 294.868 53.4008 293.166 51.9219 290.174C51.963 288.216 55.1879 287.893 56.4203 286.627C65.9395 280.628 75.2651 274.335 84.8312 268.409C94.6145 262.645 104.932 257.896 115.012 252.693C130.96 245.247 147.95 240.166 164.063 233.055C164.075 233.049 164.09 233.043 164.101 233.037C182.221 224.802 199.699 215.044 215.77 203.339C224.72 196.727 233.227 189.564 242.174 182.955C242.171 182.955 242.165 182.963 242.162 182.966C246.32 180.023 249.98 176.398 254.22 173.589C256.497 172.613 258.692 170.684 261.069 170.1C261.28 170.045 261.494 170.004 261.711 169.975C262.501 170.704 261.908 171.904 261.095 172.354C260.948 172.435 260.802 172.514 260.655 172.601C254.698 175.901 249.454 180.099 244.125 184.305C235.381 190.667 227.109 197.631 218.385 204.019C202.469 216.159 184.85 226.01 166.692 234.455C151.055 241.436 134.748 246.816 118.873 253.204C107.62 258.799 96.2373 264.127 85.3536 270.428C74.6342 276.805 64.3608 283.907 53.5417 290.11C66.9049 301.637 82.0612 311.354 92.9273 325.467C101.722 337.046 112.913 347.005 126.456 352.797C132.181 355.461 138.452 356.574 144.511 358.221C149.018 359.508 153.476 360.995 158.141 361.591C158.153 361.594 158.165 361.594 158.177 361.597C167.452 363.177 176.669 365.013 186.004 366.285C193.894 367.558 201.844 368.255 209.816 368.685C214.805 364.42 218.687 358.988 223.244 354.276C223.262 354.256 223.279 354.235 223.297 354.215C233.55 341.442 243.48 328.352 253.16 315.163C258.677 306.747 264.505 298.528 270.245 290.261C270.259 290.237 270.271 290.217 270.286 290.197C272.548 286.528 274.79 282.824 276.994 279.094C282.728 269.394 288.209 259.505 293.162 249.518C297.552 248.844 284.118 268.612 283.341 270.864Z" fill="#262626"/>
<path d="M370.907 346.188C370.851 346.186 370.799 346.183 370.743 346.177C360.508 345.535 350.372 343.35 340.709 339.882C337.255 339.452 339.051 335.402 339.345 333.159C339.333 333.209 339.321 333.255 339.309 333.302C339.309 332.668 351.854 283.021 355.094 275.105C355.698 273.624 355.98 273.603 355.795 275.634C355.745 276.16 355.663 276.822 355.551 277.635C355.551 277.638 355.551 277.641 355.548 277.644C355.516 277.76 355.484 277.877 355.452 277.993C355.34 278.405 355.226 278.815 355.111 279.227C351.54 292.073 347.649 304.832 344.274 317.748C344.274 317.748 344.274 317.745 344.277 317.745C344.272 317.771 344.266 317.792 344.26 317.815C344.245 317.885 344.227 317.957 344.21 318.027C343.312 322.129 342.264 326.199 341.311 330.286C341.014 331.614 340.627 332.915 340.304 334.24C340.301 334.257 340.295 334.272 340.292 334.289C340.24 334.51 340.193 334.731 340.146 334.955C340.011 335.605 339.905 336.259 339.852 336.924C346.329 338.717 352.599 341.384 359.299 342.36C359.334 342.365 359.372 342.368 359.41 342.374C363.301 342.679 367.116 343.83 371.01 343.882C371.177 343.87 371.315 343.923 371.426 344.018C372.054 344.559 371.867 346.467 370.907 346.188Z" fill="#262626"/>
<path d="M388.332 290.304C387.22 297.779 384.793 304.934 382.634 312.153C380.876 318.082 380.266 324.279 378.074 330.086C377.677 331.233 377.334 332.401 376.944 333.554C376.897 333.688 376.85 333.827 376.803 333.964C376.113 335.992 375.556 338.057 374.813 340.073C374.796 340.123 374.778 340.172 374.764 340.221C374.746 340.274 374.725 340.329 374.708 340.384C374.702 340.407 374.693 340.428 374.684 340.451C374.118 341.424 372.393 348.568 370.864 346.485C370.817 346.395 370.776 346.29 370.74 346.177C370.503 345.401 370.582 344.178 371.424 344.018C371.451 344.012 371.48 344.01 371.509 344.007C371.735 343.501 371.955 342.993 372.17 342.482C372.463 341.79 372.748 341.096 373.023 340.399C373.839 338.348 374.585 336.268 375.259 334.162C375.905 332.398 376.436 330.603 377.002 328.813C377.017 328.767 377.032 328.72 377.049 328.674C377.082 328.572 377.12 328.468 377.155 328.363C377.161 328.346 377.164 328.334 377.17 328.32C379.089 322.69 379.664 316.752 381.387 311.069C383.989 303.307 385.844 295.368 387.722 287.422C387.863 286.839 388.001 286.252 388.139 285.665C388.294 285.02 388.447 284.372 388.602 283.727C381.146 280.7 373.123 278.893 365.277 277.06C362.697 276.947 358.146 274.042 356.11 275.247C356.001 275.369 355.892 275.5 355.793 275.634C355.787 275.64 355.784 275.645 355.778 275.651C355.787 275.785 355.74 276.02 355.575 276.014C355.226 276.279 355.03 275.794 355.091 275.105C355.206 273.772 356.28 271.671 359.047 272.714C365.062 274.417 371.113 276.035 377.164 277.65C387.895 282.391 392.162 278.228 388.332 290.304Z" fill="#262626"/>
<path d="M388.031 287.536C377.427 283.567 366.003 282.002 355.06 279.219C353.344 274.945 371.687 281.482 373.756 281.546C373.75 281.546 373.741 281.546 373.735 281.546C373.776 281.551 373.817 281.557 373.858 281.563C373.829 281.557 373.8 281.554 373.77 281.551C373.841 281.563 373.911 281.572 373.982 281.58C373.952 281.575 373.923 281.572 373.893 281.569C378.894 282.51 384.176 283.46 388.589 285.906C388.879 286.374 388.824 287.762 388.034 287.539L388.031 287.536Z" fill="#262626"/>
<path d="M372.514 342.563C368.611 341.596 364.538 341.241 360.603 340.364C360.609 340.364 360.615 340.364 360.618 340.364C360.583 340.358 360.55 340.352 360.515 340.349C360.53 340.349 360.548 340.352 360.562 340.355C360.533 340.349 360.501 340.346 360.471 340.341C360.48 340.341 360.489 340.341 360.495 340.344C358.857 339.951 335.899 336.471 340.731 333.944C349.089 335.536 357.326 337.685 365.73 339.039C368.098 339.394 370.448 340.192 372.822 340.28C373.03 340.326 373.168 340.567 373.242 340.747C373.523 341.293 373.374 342.853 372.514 342.56V342.563Z" fill="#262626"/>
<path d="M525.531 252.138C524.9 243.772 515.672 242.871 509.571 240.018C506.044 236.846 509.392 230.864 505.369 227.82C498.658 221.095 484.992 219.026 478.199 226.585C474.464 224.866 471.083 222.239 467.01 221.191C458.483 219.079 448.796 221.362 442.64 227.683C438.64 225.743 434.826 223.015 430.318 222.3C422.249 221.58 412.571 223.448 407.911 230.615C402.732 233.38 399.067 227.843 390.56 235.051C384.022 240.46 385.12 252.693 393.75 255.302C396.546 256.103 399.504 256.318 402.368 255.761C404.487 255.4 406.45 253.997 408.663 254.477C411.591 263.046 427.889 260.699 431.706 254.108C435.307 255.151 438.72 257.117 442.608 256.83C447.675 256.664 453.579 254.308 455.833 249.544C461.048 254.703 466.552 260.197 474.311 260.984C483.971 261.919 492.293 254.032 502.074 256.252C508.007 257.231 526.089 262.23 525.531 252.138ZM524.442 253.727C524.451 253.704 524.46 253.681 524.466 253.657C519.712 259.697 506.237 254.067 499.749 253.893C491.295 253.111 484.138 259.372 475.723 258.898C473.043 258.785 470.49 257.829 468.04 256.818C468.055 256.827 468.073 256.835 468.09 256.841C464.058 255.316 461.224 251.999 458.098 249.204C453.45 244.28 457.312 251.423 446.898 254.282C439.949 257.042 431.278 250.186 430.926 252.681C429.362 255.572 425.852 256.769 422.762 257.262C418.085 257.878 411.177 258.468 409.874 252.649C409.728 252.074 409 251.827 408.704 252.437C406.277 251.606 404.032 253.323 401.658 253.582C397.054 254.108 391.793 253.332 388.979 249.314C389.008 249.346 389.034 249.375 389.061 249.407C384.313 243.135 390.32 234.815 397.01 233.035C400.437 231.695 404.076 233.525 407.539 232.544C412.292 226.89 419.056 223.692 426.636 223.828C431.742 223.399 436.451 225.967 440.665 228.532C441.39 228.927 442.212 229.862 443.098 229.482C447.077 225.882 452.042 223.457 457.394 222.661C466.462 221.278 470.928 224.929 478.419 228.378C480.808 226.222 483.775 224.688 487.011 224.148C487.032 224.148 487.052 224.142 487.073 224.139C493.989 222.995 502.332 225.144 506.293 231.219C506.631 231.931 506.669 232.727 506.71 233.499V233.508C505.131 247.6 522.074 240.672 524.507 252.193C524.575 252.707 524.642 253.236 524.442 253.727Z" fill="#262626"/>
<path d="M445.318 172.357C445.271 173.505 447.634 180.465 447.502 183.202C447.46 184.076 447.161 184.518 446.451 184.204C446.348 183.98 446.251 183.756 446.163 183.527C444.723 179.942 444.547 175.782 443.517 172.038C441.612 163.078 439.585 152.707 445.574 144.812C447.698 141.137 451.061 137.909 452.252 133.813C431.163 119.294 434.411 119.91 429.713 95.9489C429.713 95.9257 429.704 95.9053 429.701 95.885C429.581 95.365 429.525 94.4499 430.191 94.4586C430.197 94.4644 430.2 94.4673 430.203 94.4731C430.391 94.7433 430.558 95.0251 430.711 95.3185C430.799 95.4899 430.881 95.6642 430.96 95.8443C431.045 96.0361 431.125 96.2336 431.198 96.434C431.911 98.3746 432.149 100.6 432.645 102.555C432.645 102.564 432.645 102.572 432.651 102.584C434.15 108.266 433.86 114.898 437.803 119.625C448.766 131.181 461.114 128.352 447.144 146.072C447.173 146.026 447.202 145.979 447.235 145.933C440.82 153.376 443.402 163.195 445.201 171.852C445.239 172.02 445.28 172.192 445.318 172.357Z" fill="#262626"/>
<path d="M483.829 175.645C483.629 175.927 483.318 175.945 482.878 175.645C482.81 175.236 482.74 174.823 482.67 174.414C481.499 167.691 479.806 161.001 477.889 154.43C477.913 154.491 477.933 154.555 477.957 154.616C475.87 148.233 474.524 145.773 468.834 142.057C465.644 139.141 459.831 137.435 459.227 132.686C461.333 125.513 466.891 119.599 469.227 112.417C469.227 112.417 469.228 112.415 469.23 112.411C469.239 112.382 469.25 112.356 469.256 112.33C470.451 108.638 469.462 104.675 469.18 100.902V100.896C469.174 100.849 469.165 100.803 469.16 100.756C468.693 97.1107 468.37 93.4561 467.898 89.8103C467.801 89.0637 467.698 88.3171 467.587 87.5735C467.578 87.5154 467.566 87.4514 467.557 87.3788C467.496 86.946 467.463 86.3069 467.953 86.2749C469.497 89.5053 469.952 93.4619 470.436 97.0526C470.43 97.0206 470.427 96.9887 470.421 96.9567C470.427 96.9887 470.43 97.0235 470.436 97.0555C474.051 115.404 467.877 117.893 460.477 132.825C461.48 134.664 463.59 135.437 465.128 136.747C465.128 136.744 465.125 136.744 465.125 136.741C465.142 136.756 465.163 136.773 465.18 136.785C468.485 139.393 472.622 141.305 475.275 144.564C475.427 144.808 475.583 145.052 475.738 145.294C477.59 146.235 485.739 172.964 483.829 175.648V175.645Z" fill="#262626"/>
<path d="M483.176 179.524C480.644 180.134 478.058 180.659 475.47 181.011C469.378 181.766 463.454 183.466 457.356 184.189C457.371 184.186 457.385 184.183 457.397 184.18C457.356 184.189 457.312 184.195 457.268 184.201C454.304 184.607 451.326 185.241 448.324 185.072C447.332 185.081 445.093 184.91 446.164 183.527C446.179 183.506 446.197 183.483 446.214 183.463C446.64 183.361 447.068 183.277 447.502 183.201C449.16 182.914 450.859 182.777 452.491 182.333C460.91 180.68 469.246 178.574 477.777 177.539C477.753 177.545 477.73 177.548 477.709 177.551C477.739 177.548 477.768 177.542 477.797 177.537C479.047 177.339 480.277 177.046 481.533 176.889C481.533 176.889 481.53 176.889 481.527 176.889C481.756 176.854 481.982 176.825 482.208 176.796C481.844 175.889 482.19 174.791 482.668 174.408C483.079 174.082 483.59 174.286 483.827 175.593V175.642C483.789 176.892 484.221 178.614 483.176 179.521V179.524Z" fill="#262626"/>
<path d="M467.968 89.7989C467.944 89.7989 467.921 89.8047 467.897 89.8076C461.459 90.528 455.188 92.579 448.797 93.7207C443.615 94.2784 438.515 95.2487 433.397 96.2364C433.391 96.2393 433.386 96.2393 433.38 96.2393C432.661 96.3119 431.933 96.5444 431.214 96.4514C431.208 96.4456 431.202 96.4398 431.199 96.434C431.059 96.2742 430.95 96.126 430.871 95.9895C430.724 95.7339 430.677 95.5131 430.712 95.3184C430.745 95.1267 430.856 94.9611 431.026 94.8188C432.003 93.9908 434.92 93.8921 435.856 93.4418C440.449 91.7917 445.314 91.6348 450.038 90.6646C455.875 89.6739 461.62 87.4051 467.557 87.3761H467.783C468.907 87.1466 468.951 89.6391 467.968 89.7989Z" fill="#262626"/>
<path d="M431.084 95.2748C431.081 95.4346 431.048 95.6641 430.96 95.8442C430.937 95.8965 430.905 95.9488 430.869 95.9895C430.784 96.0882 430.673 96.1434 430.526 96.1173C429.889 95.9691 429.716 95.1121 430.048 94.6154C430.092 94.5573 430.145 94.5108 430.203 94.473C430.294 94.4178 430.4 94.3888 430.503 94.3888C430.74 94.3888 430.972 94.5399 431.025 94.8187C431.028 94.8275 431.031 94.8362 431.031 94.8478C431.353 94.7723 431.424 95.3649 431.084 95.2748Z" fill="#262626"/>
<path d="M226.207 110.122C224.431 106.418 224.707 99.3128 220.543 97.5668C218.68 97.5407 216.884 98.2205 215.097 98.6737C206.188 100.995 197.335 103.763 188.89 107.392C183.212 109.666 173.211 111.912 175.964 119.988C177.774 126.126 179.6 135.768 188.244 133.238C193.594 132.753 198.867 131.007 204.281 131.582C205.725 133.517 206.945 135.414 209.043 136.759C212.257 138.124 208.389 129.348 208.439 127.991C213.533 126.437 218.322 123.994 222.911 121.336C228.234 118.553 228.413 115.25 226.207 110.122ZM210.47 125.217C207.497 126.08 206.76 126.725 207.697 129.85C207.887 130.664 208.11 131.471 208.304 132.282C208.307 132.299 208.31 132.317 208.316 132.331C208.316 132.349 208.322 132.369 208.327 132.387C208.41 132.753 208.483 133.116 208.562 133.482C208.521 133.441 208.483 133.4 208.445 133.357C207.893 132.831 207.447 132.154 206.843 131.698C205.789 130.594 205.839 128.229 204.178 127.907C199.668 127.57 195.178 128.59 190.789 129.49C187.25 129.836 182.698 132.032 180.483 128.061C178.98 124.252 176.507 120.081 176.929 115.918C176.912 115.938 176.894 115.962 176.876 115.982C176.894 115.941 176.915 115.901 176.935 115.86C176.935 115.88 176.935 115.898 176.929 115.918C180.85 111.189 187.807 110.427 193.057 107.604C193.051 107.604 193.042 107.604 193.036 107.61C193.066 107.595 193.092 107.583 193.121 107.569C193.101 107.58 193.077 107.592 193.057 107.604C200.264 105.175 207.518 102.683 214.989 101.143C221.383 99.243 221.92 99.8298 223.211 106.212C223.196 106.14 223.178 106.07 223.161 106C223.801 109.358 225.133 112.528 225.925 115.837C221.811 120.241 215.845 122.637 210.47 125.217Z" fill="#262626"/>
<path d="M181.99 116.357C181.453 116.363 181.342 115.369 181.802 115.203C181.796 115.198 181.791 115.189 181.785 115.183C190.605 111.671 199.687 108.868 208.749 106.047C211.319 105.201 213.831 104.173 216.334 103.159C216.772 102.947 216.974 103.577 217 103.891C217.033 104.275 216.954 104.891 216.496 104.972C213.473 105.689 210.645 107.101 207.628 107.868C199.045 110.532 190.632 113.963 181.987 116.36L181.99 116.357Z" fill="#262626"/>
<path d="M183.213 121.316C183.213 121.316 183.19 121.31 183.178 121.307C183.178 121.307 183.181 121.307 183.184 121.304C182.254 120.322 184.044 119.828 184.783 119.602C194.241 115.973 203.801 112.621 213.605 110.018C215.239 109.954 216.976 108.673 218.441 108.838C219.488 110.863 215.609 111.096 214.341 111.622C207.422 113.646 200.517 115.79 193.692 118.12C190.288 119.39 186.846 120.932 183.21 121.313L183.213 121.316Z" fill="#262626"/>
<path d="M186.712 127.096C185.726 125.932 187.531 125.214 188.414 124.839C188.414 124.839 188.414 124.839 188.411 124.839C188.449 124.822 188.488 124.804 188.529 124.787C188.529 124.787 188.529 124.787 188.526 124.787C188.552 124.775 188.576 124.764 188.602 124.752C188.599 124.752 188.596 124.755 188.59 124.758C194.263 122.175 200.437 121.002 206.235 118.765C210.129 116.795 214.513 116.235 218.486 114.541C219.554 114.282 219.586 116.473 218.791 116.789C207.905 119.509 197.461 124.11 186.712 127.096Z" fill="#262626"/>
<path d="M119.844 84.2184C119.609 67.1426 94.479 72.5459 86.1923 80.4796C86.1277 80.4099 86.0749 80.3314 86.0221 80.253C82.3775 73.1008 74.8449 68.3947 66.6785 68.8478C59.9059 69.3562 52.1972 70.7303 48.0538 76.613C41.9854 68.7171 25.142 68.7055 23.4752 80.0961C14.8569 79.0096 6.13582 81.2146 2.3651 89.6827C-3.31591 99.0486 4.4368 112.072 15.7548 109.87C17.5448 112.42 20.7374 113.248 23.6718 113.736C30.7584 114.041 38.4113 110.448 43.1005 105.268C55.962 120.311 63.436 102.154 73.2339 102.456C77.8879 108.804 88.1613 108.821 94.9544 106.154C99.4646 103.787 103.673 100.431 109.098 100.716C113.453 100.516 117.077 103.409 121.323 103.746C137.97 105.164 133.689 83.4485 119.844 84.2184ZM127.157 101.036C120.026 103.976 113.655 96.7739 106.49 98.5867C101.325 99.1212 97.6834 103.139 92.8857 104.583C87.4893 106.018 76.6408 105.846 74.3666 99.952C65.3756 96.62 57.7579 116.182 46.2814 105.594C44.2244 103.877 43.573 101.007 41.5893 104.618C37.3902 108.432 31.8119 110.948 26.1807 111.752C22.6976 111.854 18.3312 111.09 16.2214 108.086C14.8422 107.334 12.973 108.016 11.4354 107.653C6.82247 106.689 2.79646 102.898 2.03058 98.2264C2.03058 98.2468 2.03352 98.27 2.03645 98.2904C2.03058 98.2497 2.02471 98.209 2.01884 98.1684C2.02178 98.1887 2.02471 98.2061 2.03058 98.2264C1.37621 92.7969 5.32005 87.196 9.74807 84.3084C13.9795 82.2662 18.9122 81.8827 23.5515 82.304C23.8684 82.4027 24.2499 82.3737 24.4377 82.0628C25.3885 74.0188 35.5298 71.3868 42.2202 74.3093C44.2626 75.1721 45.9322 76.6275 47.508 78.1439C47.9071 78.7104 48.5468 78.4606 48.8872 77.9755C55.2108 70.8291 68.4714 69.24 76.9518 73.1763C80.4086 74.9019 83.0877 77.9958 85.0743 81.232C85.3706 81.659 85.6465 82.301 86.2158 82.394C93.9626 75.7357 119.061 68.874 118.779 85.2932C118.779 85.2874 118.779 85.2816 118.782 85.2758C118.626 87.6696 120.352 86.0253 121.74 86.4465C128.867 86.4175 135.652 97.7471 127.157 101.036Z" fill="#262626"/>
<path d="M24.5158 230.1C23.6032 225.65 18.6675 223.75 14.7208 222.661C10.0961 222.007 6.78318 226.611 5.58888 230.507C3.37047 236.831 7.5696 244.806 14.6679 245.143C22.315 246.04 27.0775 236.535 24.5158 230.1ZM17.6053 241.235C6.95925 241.793 3.93388 229.694 14.2718 226.495C14.4185 226.911 14.665 227.468 15.1374 227.588C16.8922 227.776 18.5384 228.418 20.1641 229.06C25.8275 231.695 23.0985 240.192 17.6053 241.235Z" fill="#262626"/>
<path d="M15.102 238.679C9.74668 238.226 11.3606 227.889 15.6536 228.067C20.9972 229.217 21.3523 239.21 15.102 238.679ZM16.2112 235.376C16.9506 235.233 17.649 234.716 17.8867 233.993C15.3338 231.134 15.3631 233.194 13.5057 232.787C13.4059 233.255 13.3002 233.732 13.3941 234.208C13.3912 234.191 13.3853 234.173 13.3824 234.156C13.8578 235.085 15.2252 235.414 16.2141 235.379L16.2112 235.376Z" fill="#262626"/>
<path d="M15.3644 236.271C15.2441 236.224 15.1355 236.163 15.0328 236.093C11.7639 237.572 11.9341 229.973 15.0328 230.946C15.3057 230.771 15.6755 230.771 15.9542 230.928C19.8541 229.238 18.783 237.526 15.3644 236.271Z" fill="#262626"/>
<path d="M16.1354 221.452C14.8149 219.7 15.4076 217.138 15.1465 215.058C16.0063 215.105 16.866 215.18 17.7288 215.232C17.8432 216.792 19.375 222.713 16.1354 221.452Z" fill="#262626"/>
<path d="M17.9737 212.046C17.1491 212.06 16.3216 212.086 15.5 212.15C15.588 211.828 15.6907 211.505 15.811 211.191C16.4038 209.457 16.5124 207.551 17.3956 205.884C17.8387 206.349 18.3434 206.747 18.8599 207.124C18.8071 207.246 18.7543 207.366 18.7014 207.488C19.2472 209.016 18.4491 210.599 17.9737 212.046Z" fill="#262626"/>
<path d="M24.5732 198.499C22.9564 200.553 21.3894 202.651 20.066 204.899C19.796 204.78 19.5349 204.658 19.2737 204.527C19.0624 204.405 18.857 204.275 18.6546 204.141C18.6546 203.99 18.5959 203.845 18.4961 203.737C19.7432 201.5 21.2632 199.426 22.8214 197.396C23.3877 197.788 23.9834 198.145 24.5732 198.499Z" fill="#262626"/>
<path d="M30.0399 192.468C28.9689 193.439 27.9829 194.499 27.0263 195.58C26.8913 195.556 26.7593 195.533 26.6243 195.513C25.9611 195.397 25.3038 195.272 24.6465 195.138C25.8408 193.726 27.0586 192.312 28.382 191.016C28.9454 191.487 29.4971 191.975 30.0399 192.468Z" fill="#262626"/>
<path d="M37.3251 186.179C35.5968 187.606 33.9095 189.081 32.2134 190.548C32.0579 190.441 31.8994 190.336 31.7351 190.24C31.2069 189.921 30.6435 189.654 30.0742 189.41C31.9904 187.687 33.9564 186.011 35.9166 184.337C36.3949 184.945 36.8674 185.558 37.3251 186.179Z" fill="#262626"/>
<path d="M44.8283 180.834C43.2055 181.822 41.6415 182.902 40.1097 184.021C39.6373 183.64 39.1267 183.3 38.6367 182.966C38.4459 182.835 38.2523 182.705 38.0586 182.574C39.6989 181.261 41.4244 180.038 43.1762 178.879C43.7455 179.515 44.2854 180.174 44.8283 180.834Z" fill="#262626"/>
<path d="M53.3999 176.186C51.3928 177.179 49.4238 178.248 47.4636 179.329C47.3961 179.28 47.3286 179.23 47.2611 179.181C46.5774 178.652 45.9054 178.109 45.207 177.606C47.4665 176.258 49.773 174.977 52.1088 173.76C52.5254 174.576 52.9891 175.37 53.3999 176.186Z" fill="#262626"/>
<path d="M62.882 172.671C60.5374 173.33 58.2046 174.03 55.9744 175.018C55.7984 174.765 55.6223 174.516 55.4433 174.266C55.0677 173.734 54.6657 173.22 54.2578 172.712C56.6582 171.593 59.1289 170.614 61.6643 169.836C62.0575 170.786 62.4741 171.727 62.882 172.671Z" fill="#262626"/>
<path d="M71.6135 170.196C69.7238 170.623 67.8692 171.218 66.0117 171.77C65.7916 171.442 65.5686 171.117 65.3486 170.788C64.9612 170.213 64.5797 169.635 64.1836 169.066C66.3815 168.435 68.5529 167.718 70.7684 167.154C70.9826 168.185 71.2673 169.199 71.6135 170.196Z" fill="#262626"/>
<path d="M83.0828 168.342C79.9664 168.749 76.8383 169.112 73.7543 169.716C73.5489 169.382 73.3464 169.048 73.1586 168.705C72.8241 168.092 72.557 167.447 72.3105 166.8C75.6528 166.039 79.0714 165.707 82.4607 165.225C82.6309 166.271 82.8597 167.305 83.0828 168.342Z" fill="#262626"/>
<path d="M94.0148 166.791C91.5969 167.177 89.1672 167.505 86.7434 167.848C86.5673 167.5 86.3971 167.148 86.2269 166.797C85.9306 166.134 85.6547 165.469 85.3965 164.798C87.8291 164.429 90.2617 164.054 92.6914 163.671C93.0142 164.757 93.5219 165.774 94.0148 166.791Z" fill="#262626"/>
<path d="M104.087 164.815C101.947 165.289 99.8081 165.765 97.6543 166.16C97.4841 165.957 97.3139 165.757 97.1349 165.556C96.4688 164.818 95.7939 164.075 95.2305 163.253C97.8245 162.811 100.407 162.291 102.974 161.707C103.306 162.756 103.699 163.787 104.087 164.815Z" fill="#262626"/>
<path d="M118.034 160.304C114.753 161.989 111.206 163.046 107.646 163.964C107.591 163.892 107.532 163.819 107.473 163.743C106.745 162.892 105.985 162.07 105.34 161.155C109.16 160.22 112.996 159.188 116.558 157.506C117.048 158.442 117.532 159.377 118.034 160.304Z" fill="#262626"/>
<path d="M126.43 155.249C124.696 156.495 122.9 157.655 121.033 158.7C120.813 158.552 120.587 158.407 120.367 158.259C119.684 157.756 119.056 157.184 118.475 156.568C120.587 155.514 122.597 154.273 124.531 152.928C125.215 153.657 125.896 154.401 126.43 155.249Z" fill="#262626"/>
<path d="M136.251 147.022C133.818 149.431 131.277 151.746 128.495 153.756C128.381 153.672 128.269 153.591 128.158 153.503C127.448 152.963 126.735 152.423 126.016 151.891C126.949 151.226 127.87 150.543 128.783 149.849C128.8 149.834 128.818 149.823 128.836 149.808C130.529 148.466 132.134 147.034 133.718 145.57C134.537 146.096 135.373 146.595 136.251 147.022Z" fill="#262626"/>
<path d="M142.428 140.082C141.251 141.523 140.104 143.002 138.839 144.367C138.839 144.364 138.839 144.361 138.833 144.361C138.355 143.594 137.697 142.929 136.961 142.403C137.469 141.875 137.97 141.337 138.463 140.791H138.46C139.27 139.847 140.071 138.891 140.864 137.93C141.33 138.679 141.797 139.472 142.428 140.082Z" fill="#262626"/>
<path d="M148.555 132.227C147.478 133.79 146.299 135.286 145.11 136.765C144.735 136.512 144.321 136.314 143.91 136.099C143.555 135.91 143.191 135.678 142.812 135.536C144.25 133.737 145.706 131.951 147.053 130.086C147.701 130.693 148.127 131.46 148.555 132.227Z" fill="#262626"/>
<path d="M154.148 123.526C153.212 125.08 152.25 126.617 151.267 128.145C150.551 127.855 149.782 127.683 149.031 127.535C148.975 127.521 148.922 127.509 148.869 127.494C150.063 125.731 151.234 123.945 152.364 122.141C152.968 122.588 153.517 123.114 154.148 123.526Z" fill="#262626"/>
<path d="M159.3 114.178C158.4 115.834 157.56 117.522 156.656 119.175C156.023 118.843 155.368 118.515 154.688 118.297C155.823 116.348 156.835 114.332 157.915 112.354C158.455 112.906 158.84 113.568 159.3 114.178Z" fill="#262626"/>
<path d="M165.632 101.631C164.352 104.385 163.064 107.142 161.632 109.826C161.304 109.759 160.972 109.704 160.646 109.626C160.277 109.539 159.916 109.46 159.543 109.39C161.11 106.546 162.601 103.662 163.992 100.728C164.106 100.486 164.22 100.245 164.332 100.004C164.754 100.55 165.203 101.094 165.632 101.631Z" fill="#262626"/>
<path d="M169.465 94.0954C168.746 95.3998 168.042 96.7129 167.364 98.0434C167.194 98.0143 167.027 97.9853 166.86 97.9533C166.419 97.8168 165.979 97.6744 165.557 97.4827C166.405 95.7745 167.308 94.0925 168.25 92.4366C168.652 92.9886 168.984 93.6074 169.465 94.0954Z" fill="#262626"/>
<path d="M173.939 86.3389C173.159 87.6346 172.393 88.9389 171.639 90.252C171.489 90.2229 171.34 90.1997 171.184 90.1823C170.676 90.1474 170.169 90.0806 169.676 89.9586C170.656 88.262 171.648 86.5655 172.678 84.898C173.047 85.418 173.482 85.8944 173.939 86.3389Z" fill="#262626"/>
<path d="M179.336 78.414C178.374 79.7735 177.411 81.1389 176.463 82.5072C175.909 82.3445 175.316 82.2922 174.732 82.298C174.606 82.298 174.477 82.2893 174.348 82.2864C175.56 80.4649 176.865 78.7074 178.115 76.9092C178.559 77.3827 179.025 77.8359 179.336 78.414Z" fill="#262626"/>
<path d="M186.041 69.577C184.711 71.1602 183.406 72.7638 182.194 74.4342C181.812 74.3296 181.422 74.2744 181.026 74.2105C180.729 74.164 180.436 74.1147 180.143 74.0682C181.569 72.1073 183.027 70.1696 184.585 68.3075C185.069 68.7316 185.554 69.1558 186.041 69.577Z" fill="#262626"/>
<path d="M193.968 60.6003C192.092 62.5322 190.326 64.5657 188.571 66.605C188.36 66.3232 188.152 66.0414 187.949 65.7538C187.767 65.4837 187.594 65.2077 187.424 64.9317C189.014 63.0725 190.616 61.2249 192.298 59.447C192.858 59.8218 193.419 60.2023 193.968 60.6003Z" fill="#262626"/>
<path d="M362.364 66.3581C361.982 66.1896 361.689 65.9253 361.393 65.6347C361.668 65.0189 361.985 64.4117 362.329 63.8278C362.428 64.0196 362.534 64.2084 362.649 64.3972C362.693 64.4669 362.742 64.5366 362.792 64.6035C363.951 64.3798 363.529 66.9856 362.364 66.3581Z" fill="#262626"/>
<path d="M361.466 62.1545C360.852 62.6862 360.292 63.2846 359.696 63.8366C359.227 63.334 358.763 62.8198 358.332 62.2824C357.962 61.8205 357.607 61.3411 357.264 60.8589C357.809 59.9264 358.385 59.0084 358.972 58.0991C359.825 59.4383 360.735 60.7427 361.466 62.1545Z" fill="#262626"/>
<path d="M356.322 53.9013C355.756 54.9296 354.993 55.8389 354.339 56.8121C354.163 56.5913 353.984 56.3734 353.799 56.1585C353.007 55.2695 352.176 54.4213 351.369 53.5439C351.894 52.3151 352.481 51.1124 353.112 49.933C354.254 51.1967 355.375 52.4836 356.322 53.9013Z" fill="#262626"/>
<path d="M350.409 46.5951C349.704 47.5857 348.982 48.5647 348.272 49.5495C348.252 49.5785 348.231 49.6076 348.211 49.6337C347.879 49.1863 347.548 48.7361 347.216 48.2887C346.611 47.4753 345.975 46.6938 345.314 45.924C345.884 44.7329 346.532 43.5767 347.157 42.4118C348.308 43.7539 349.352 45.1803 350.409 46.5951Z" fill="#262626"/>
<path d="M344.266 39.4168C343.439 40.4162 342.617 41.4184 341.834 42.4497C341.749 42.3741 341.664 42.2957 341.579 42.2202C340.695 41.4184 339.794 40.634 338.908 39.8322C339.665 38.7399 340.308 37.5634 340.769 36.3113C341.954 37.3252 343.131 38.3478 344.266 39.4168Z" fill="#262626"/>
<path d="M337.507 33.4266C336.829 34.4899 336.152 35.5473 335.518 36.6309C334.96 36.0964 334.403 35.5589 333.842 35.0273C332.416 33.6997 330.914 32.4564 329.332 31.3176C329.804 30.1207 330.204 28.8919 330.638 27.6805C333.088 29.4003 335.321 31.3902 337.507 33.4266Z" fill="#262626"/>
<path d="M328.351 26.1439C327.656 27.1868 327.007 28.2559 326.271 29.2698C325.065 28.5261 323.826 27.8434 322.579 27.1665C321.951 26.8237 321.32 26.4896 320.684 26.1585C321.191 25.0052 321.62 23.817 321.978 22.6143C324.155 23.695 326.306 24.8338 328.351 26.1439Z" fill="#262626"/>
<path d="M318.911 21.1327C318.374 22.2395 317.778 23.3173 317.212 24.4095C316.343 23.9883 315.472 23.5729 314.597 23.1691C313.623 22.745 312.652 22.3266 311.666 21.9315C312.118 20.8247 312.491 19.654 312.546 18.4688C314.712 19.2473 316.822 20.1653 318.911 21.1327Z" fill="#262626"/>
<path d="M308.015 17.1032C307.66 18.2188 307.355 19.3459 307.132 20.4963C305.926 20.2029 304.72 19.9066 303.499 19.6916C302.457 19.5086 301.416 19.3343 300.371 19.1687C300.691 18.088 300.873 16.9667 300.838 15.8337C303.244 16.1649 305.659 16.5048 308.015 17.1032Z" fill="#262626"/>
<path d="M296.082 15.3048C295.912 16.3797 295.774 17.4604 295.657 18.544C294.53 18.4103 293.4 18.2912 292.268 18.1895C291.854 18.1518 291.437 18.1169 291.023 18.0821C291.109 17.0275 291.164 15.9672 291.141 14.9069C292.79 15.0056 294.436 15.1538 296.082 15.3048Z" fill="#262626"/>
<path d="M287.531 14.7531C287.337 15.767 287.205 16.7925 287.137 17.8208C286.225 17.7715 285.309 17.7279 284.394 17.6872C283.367 17.6436 282.334 17.632 281.304 17.6262C281.327 16.6472 281.316 15.6595 281.23 14.6863C283.332 14.6805 285.433 14.695 287.531 14.7531Z" fill="#262626"/>
<path d="M277.234 14.8608C277.173 15.8078 277.105 16.7578 277.093 17.7077C275.054 17.8413 273.02 18.004 270.996 18.2742C270.984 18.1725 270.972 18.0679 270.963 17.9604C270.884 17.1732 270.811 16.3859 270.693 15.6016C272.859 15.2384 275.045 15.0409 277.234 14.8608Z" fill="#262626"/>
<path d="M267.363 18.8432C265.071 19.2586 262.8 19.7699 260.537 20.3189C260.476 20.0865 260.414 19.8541 260.352 19.6217C260.203 19.0523 260.047 18.4829 259.889 17.9107C262.298 17.2599 264.73 16.708 267.175 16.1996C267.207 17.0827 267.242 17.9688 267.363 18.8432Z" fill="#262626"/>
<path d="M256.326 21.4084C253.952 22.0592 251.59 22.7709 249.254 23.5494C249.181 23.3199 249.107 23.0905 249.031 22.861C248.864 22.3555 248.694 21.8442 248.5 21.3445C250.915 20.5079 253.348 19.7177 255.81 19.0263C255.968 19.8223 256.138 20.6183 256.326 21.4084Z" fill="#262626"/>
<path d="M245.734 24.8218C243.87 25.5161 242.03 26.2801 240.199 27.0528C240.17 27.0674 240.138 27.079 240.111 27.0935C239.838 26.4602 239.469 25.8472 239.058 25.2924C239.028 25.2517 238.999 25.2139 238.973 25.1762C240.839 24.3018 242.755 23.529 244.671 22.7708C245.12 23.4099 245.505 24.0694 245.734 24.8218Z" fill="#262626"/>
<path d="M235.607 29.1854C233.843 30.0453 232.088 30.9226 230.378 31.8755C230.169 31.707 229.964 31.5385 229.761 31.3613C229.401 31.0301 229.046 30.6902 228.682 30.3619C230.46 29.3626 232.253 28.3836 234.087 27.486C234.559 28.0844 235.067 28.6451 235.607 29.1854Z" fill="#262626"/>
<path d="M227.258 33.6387C225.764 34.487 224.285 35.3672 222.836 36.291C222.733 36.2096 222.63 36.1283 222.53 36.047C222.202 35.7535 221.891 35.4485 221.588 35.129C221.483 35.0099 221.377 34.8937 221.271 34.7746C222.918 33.7142 224.59 32.6945 226.286 31.7126C226.586 32.3663 226.938 32.9938 227.258 33.6387Z" fill="#262626"/>
<path d="M220.632 37.7176C218.765 38.9261 216.946 40.2014 215.168 41.5348C215.13 41.5087 215.091 41.4854 215.056 41.4593C214.513 41.0642 214.003 40.6314 213.498 40.1898C215.593 38.6036 217.741 37.0959 219.936 35.6492C220.221 36.3203 220.473 37.0059 220.632 37.7176Z" fill="#262626"/>
<path d="M212.927 43.2283C211.531 44.3293 210.146 45.439 208.778 46.572C208.221 46.1653 207.684 45.7353 207.144 45.3054C207.135 45.2938 207.123 45.2851 207.111 45.2734C208.649 43.9749 210.219 42.717 211.812 41.4824C212.191 42.0605 212.593 42.624 212.927 43.2283Z" fill="#262626"/>
<path d="M206.653 48.3672C204.945 49.843 203.282 51.3681 201.635 52.9049C201.615 52.8933 201.591 52.8758 201.571 52.8584C201.562 52.8555 201.556 52.8497 201.547 52.8439C201.527 52.8293 201.506 52.8119 201.486 52.7974C201.462 52.78 201.436 52.7625 201.412 52.7451C200.931 52.3878 200.465 52.0101 200.004 51.6296C201.782 49.9446 203.61 48.3091 205.456 46.6939C205.852 47.2517 206.257 47.8065 206.653 48.3672Z" fill="#262626"/>
<path d="M199.2 55.2521C198.287 56.1556 197.384 57.0707 196.489 57.9945C196.307 57.9102 196.125 57.8289 195.943 57.7447C195.464 57.5326 194.992 57.3176 194.502 57.1317C195.693 55.9116 196.879 54.6828 198.091 53.483C198.484 54.0582 198.862 54.6421 199.2 55.2521Z" fill="#262626"/>
<path d="M201.324 52.6841C201.354 52.7043 201.383 52.7246 201.413 52.7477C201.383 52.7275 201.354 52.7072 201.324 52.6841Z" fill="#262626"/>
<path d="M79.4683 408.161C71.0818 402.543 60.4974 403.043 51.7411 407.493C51.7793 407.479 51.8145 407.461 51.8497 407.444C46.1687 410.108 41.5793 414.881 37.832 419.79C33.7767 424.11 31.9896 429.65 30.9626 435.347C27.7436 451.455 39.5047 470.027 56.9438 470.262C72.4698 470.463 90.5105 461.478 92.5969 444.861C94.5042 431.811 91.6843 415.514 79.4683 408.161ZM90.3902 446.276C86.5461 460.385 70.1927 467.299 56.4743 467.049C43.783 466.573 33.2925 455.4 32.5178 443.054C31.7666 431.602 38.9941 421.223 48.0086 414.683C47.9469 414.733 47.8853 414.779 47.8237 414.829C56.668 408.414 68.7577 406.941 78.4736 412.33C78.4354 412.313 78.3943 412.295 78.3562 412.275C90.3667 418.254 92.7847 434.356 90.3902 446.276Z" fill="#262626"/>
<path d="M386.728 22.347C387.145 26.7452 385.44 31.9598 381.124 33.8916C376.977 35.4632 370.683 34.5511 369.509 29.6241C368.84 26.0974 368.664 21.9345 370.31 18.6605C375.041 12.3798 385.622 14.4308 386.728 22.347Z" fill="#262626"/>
<path d="M360.5 313.391C359.998 311.189 358.373 308.995 358.666 306.721C359.405 305.074 361.049 309.106 361.468 309.716C363.346 307.743 365.415 305.971 367.32 304.022C367.857 303.322 369.01 301.814 369.564 303.316C370.562 305.971 367.176 307.313 365.852 309.129C364.579 310.721 363.059 312.104 361.753 313.672C361.369 314.137 360.714 313.887 360.5 313.394V313.391Z" fill="#262626"/>
<path d="M220.659 211.47C220.401 209.547 223.195 209.167 224.354 208.077C229.51 204.498 234.448 200.55 239.199 196.46C243.328 192.431 247.351 188.306 251.726 184.526C252.046 184.186 252.659 183.745 252.944 184.361C253.539 184.212 253.542 185.398 252.947 185.252C245.593 193.686 237.136 201.14 228.119 207.804C225.988 209.414 223.667 210.741 221.396 212.141C220.997 212.397 220.709 211.781 220.656 211.47H220.659Z" fill="#262626"/>
<path d="M211.07 230.989C209.861 228.892 215.395 226.762 216.742 225.539C219.272 223.837 221.772 222.013 223.905 219.837C223.89 219.854 223.876 219.872 223.861 219.889C223.949 219.79 224.04 219.689 224.128 219.587C224.11 219.604 224.096 219.622 224.081 219.639C225.158 218.28 226.566 217.275 227.957 216.261C227.975 216.249 227.993 216.235 228.007 216.223C227.998 216.229 227.99 216.235 227.981 216.243C229.407 215.049 230.792 213.704 231.796 212.136C231.978 211.723 232.447 211.9 232.529 212.278C233.101 212.133 233.245 212.821 232.608 212.696C231.725 214.997 229.125 216.606 227.241 218.187C223.248 222.524 218.523 226.048 213.755 229.496C213.764 229.49 213.772 229.482 213.781 229.476C212.957 229.935 212.044 231.233 211.07 230.989Z" fill="#262626"/>
<path d="M75.1057 289.41C72.4383 287.437 89.6926 278.914 91.6205 277.505C93.9886 276.227 96.2892 274.829 98.6249 273.507C99.4348 273.313 99.4524 274.884 98.9389 275.21C90.9045 279.759 82.9493 284.689 75.1057 289.41Z" fill="#262626"/>
<path d="M99.179 283.495C98.9002 283.541 98.9002 282.931 99.1408 282.923C99.4695 282.841 99.6778 282.449 99.9771 282.278C106.668 277.232 114.059 273.022 121.712 269.589C125.081 268.368 128.218 266.663 131.319 264.903C132.185 264.702 134.362 262.59 134.63 264.014C135.642 265.434 122.328 271.212 120.685 271.825C113.226 275.126 106.157 279.495 99.1731 283.495H99.179Z" fill="#262626"/>
<path d="M155.961 344.707C155.914 344.143 156.301 343.69 156.653 343.295C156.648 343.304 156.639 343.31 156.633 343.315C159.192 340.855 161.56 337.903 164.051 335.556C166.196 337.409 158.215 342.888 156.953 344.576C157.097 345.221 155.899 345.491 155.961 344.704V344.707Z" fill="#262626"/>
<path d="M166.125 344.283C165.732 343.745 166.762 343.414 167.041 343.054C171.83 338.876 174.984 333.188 179.283 328.529C181.581 326.35 184.131 323.703 186.845 322.295C188.063 323.552 186.484 324.726 185.443 325.397C185.446 325.397 185.449 325.391 185.451 325.391C185.293 325.513 185.135 325.632 184.979 325.754C185.005 325.734 185.032 325.714 185.061 325.691C181.98 327.91 179.269 330.527 176.865 333.447C176.865 333.447 176.865 333.444 176.868 333.441C176.716 333.615 176.56 333.787 176.408 333.961C176.425 333.938 176.446 333.918 176.466 333.894C173.007 337.282 170.627 342.168 166.128 344.283H166.125Z" fill="#262626"/>
<path d="M206.509 355.792C203.059 354.511 210.453 350.038 211.316 348.457C212.331 347.728 212.906 345.602 214.206 345.66C216.959 348.117 208.775 352.992 207.105 354.773C207.129 355.127 207.005 355.877 206.509 355.795V355.792Z" fill="#262626"/>
<path d="M271.239 241.32C270.678 241.035 270.115 240.762 269.54 240.506C269.557 240.515 269.572 240.521 269.59 240.529C269.525 240.5 269.463 240.474 269.399 240.445C269.408 240.445 269.414 240.451 269.422 240.454C269.305 240.402 269.185 240.349 269.067 240.297C269.07 240.297 269.076 240.3 269.079 240.303C268.627 240.088 268.155 239.925 267.682 239.771C267.682 239.771 267.685 239.765 267.688 239.762C266.649 237.839 270.84 239.803 271.456 240.149C271.82 240.373 271.788 241.462 271.242 241.322L271.239 241.32Z" fill="white"/>
<path d="M276.779 240.219C273.331 239.943 271.388 236.919 268.386 235.664C268.398 235.669 268.407 235.672 268.418 235.678C268.313 235.632 268.207 235.582 268.102 235.539C268.034 235.998 267.653 235.44 267.535 235.28C267.679 233.438 272.553 237.357 273.389 237.787C274.437 238.696 276.159 238.394 277.131 239.17C277.266 239.484 277.242 240.245 276.776 240.219H276.779Z" fill="white"/>
<path d="M296.835 247.484C296.195 247.301 290.405 246.418 291.735 245.552C292.809 245.488 293.853 245.82 294.907 245.968C294.889 245.968 294.875 245.962 294.857 245.962C294.98 245.979 295.103 245.997 295.227 246.014C295.227 246.014 295.224 246.014 295.221 246.014C295.899 246.238 297.304 245.779 297.254 246.836C297.254 247.072 297.155 247.545 296.832 247.484H296.835Z" fill="white"/>
<path d="M220.142 307.894C219.631 307.482 219.898 306.755 220.03 306.224C220.03 306.232 220.025 306.244 220.025 306.253C220.033 306.215 220.042 306.18 220.051 306.142C220.045 306.16 220.042 306.18 220.036 306.198C220.435 305.55 220.629 297.892 221.856 300.454C221.856 300.6 221.791 300.945 221.58 300.91C221.21 302.261 221.404 307.627 220.145 307.891L220.142 307.894Z" fill="white"/>
<path d="M214.64 304.385C213.393 303.025 215.374 301.791 216.501 301.245C217.146 301.006 218.15 299.978 218.716 300.748C218.992 300.742 218.98 301.494 218.681 301.399C218.329 301.506 218.044 301.814 217.733 302.014L217.786 301.974C216.668 302.59 215.817 304.138 214.64 304.385Z" fill="white"/>
<path d="M277.546 306.677C277.232 306.57 277.067 306.262 277.088 305.942C277.029 304.934 278.373 305.198 279.039 305.239C279.444 305.445 279.429 306.082 279.25 306.442C278.96 306.88 278.262 306.488 277.807 306.584C277.739 306.66 277.645 306.712 277.546 306.677Z" fill="white"/>
<path d="M278.785 313.704C278.553 312.609 275.184 309.077 276.053 308.899C276.769 309.016 280.827 314.32 278.785 313.704Z" fill="white"/>
<path d="M286.195 171.918C286.189 171.561 285.068 164.548 286.072 166.297C286.283 166.402 286.327 166.678 286.204 166.867C286.215 166.925 286.23 166.983 286.242 167.041C286.242 167.038 286.242 167.035 286.242 167.032L286.251 167.067C286.251 167.067 286.251 167.061 286.251 167.058C286.265 167.116 286.277 167.177 286.292 167.235C286.292 167.224 286.286 167.215 286.286 167.206C286.391 167.886 287.741 172.918 286.201 171.918H286.195Z" fill="white"/>
<path d="M290.359 178.591C289.059 176.616 289.567 173.972 289.206 171.715C289.206 171.715 289.206 171.718 289.206 171.721C289.27 169.571 288.783 167.538 288.105 165.545C288.144 164.935 288.848 165.397 288.657 165.812C290.251 168.851 290.028 172.47 290.726 175.773C290.717 175.721 290.711 175.666 290.702 175.611C290.717 175.727 290.735 175.846 290.749 175.962C290.741 175.907 290.735 175.852 290.726 175.797C290.711 176.444 291.345 176.842 291.351 177.484C291.471 178.028 291.008 179.315 290.359 178.588V178.591Z" fill="white"/>
<path d="M295.47 181.825C295.482 180.532 292.747 175.529 293.983 175.288C294.185 175.343 294.194 175.628 294.165 175.799C294.71 177.089 295.544 178.246 295.916 179.611C295.902 179.576 295.89 179.538 295.878 179.501C296.098 180.288 296.747 181.116 296.286 181.938C296.101 182.376 295.579 182.237 295.473 181.825H295.47Z" fill="white"/>
</svg>
