<svg width="106" height="50" viewBox="0 0 106 50" fill="none" xmlns="http://www.w3.org/2000/svg">
<g clip-path="url(#clip0_5789_15356)">
<path d="M72.2942 37.1124C72.2942 37.1124 73.2278 39.8809 74.5458 40.1093C79.3581 40.9468 86.4906 41.5005 90.2732 41.3344C91.8795 41.2652 94.1587 38.8704 94.5431 38.3375C95.4287 37.1124 100.262 30.5786 100.653 30.4471C101.044 30.3156 104.813 23.235 105.293 21.6846C105.506 20.9787 105.472 16.8812 104.847 15.8499C104.12 14.6456 101.847 13.4344 99.1494 13.8773C97.5568 14.1403 95.6346 14.874 94.0351 15.8499C93.1221 16.4036 91.1381 17.7048 90.383 19.1445C89.4906 20.8471 89.5043 22.4529 89.5043 22.4529C89.5043 22.4529 85.8797 16.4175 81.3008 12.9775C77.4565 10.0844 73.2827 9.15003 71.285 8.59632C70.5024 8.38175 69.507 8.33331 68.3057 8.30562C67.1043 8.27793 63.363 9.55147 62.5873 10.4789C60.7955 12.6315 60.7681 18.57 62.3058 19.3521C63.8435 20.1342 64.736 20.1827 66.8435 20.771C68.951 21.3524 67.7222 27.4155 68.1615 29.4919C68.3812 30.5301 68.9784 31.5061 69.459 32.0667C69.9395 32.6273 72.2942 37.1124 72.2942 37.1124Z" fill="white"/>
<path d="M77.5527 10.3755C78.182 10.3755 78.6922 9.74645 78.6922 8.97047C78.6922 8.19449 78.182 7.56543 77.5527 7.56543C76.9233 7.56543 76.4131 8.19449 76.4131 8.97047C76.4131 9.74645 76.9233 10.3755 77.5527 10.3755Z" fill="white"/>
<path d="M76.3168 7.8281C76.3168 8.41641 75.8843 9.0601 75.4107 9.0601C74.937 9.0601 74.5938 8.40949 74.5938 7.8281C74.5938 7.2467 74.9782 6.76221 75.4587 6.76221C75.9393 6.76221 76.3237 7.23978 76.3237 7.8281H76.3168Z" fill="white"/>
<path d="M83.9918 40.4278C81.9324 40.5316 81.1154 39.964 80.2779 39.8741C79.2551 39.7633 77.2437 39.8395 76.2345 39.6387C75.4176 39.4795 74.5458 40.1094 72.3628 35.4721C71.5115 33.6656 68.5253 29.4782 68.6008 29.4782C69.2118 29.5058 72.2049 22.7506 72.047 21.2833C72.0127 20.9718 71.9921 20.6534 71.8754 20.3489C71.793 20.1205 71.6488 20.0374 71.3948 20.0443C70.2278 20.0859 69.0677 20.0651 67.9006 20.0928C67.3308 20.1066 67.2416 19.9959 67.2073 19.4283C67.0425 16.7774 66.8778 14.1266 66.665 11.4826C66.6238 10.922 66.6444 10.8804 67.1935 10.8735C67.7908 10.8735 68.2301 10.5551 68.6558 10.1952C68.7931 10.1329 68.9372 10.1329 69.0745 10.1745C70.7083 10.6866 72.3971 11.0535 73.928 11.891C75.1705 12.5692 76.2757 13.4344 77.3398 14.3619C78.2322 15.1371 79.0697 15.9815 79.8798 16.8467C81.239 18.2932 82.3511 19.9197 83.374 21.6224C84.184 22.9721 84.8568 24.391 85.5501 25.796C85.7012 26.0659 85.7355 26.3774 85.8728 26.6612C86.9643 29.2636 87.5203 31.9975 87.8224 34.7938C87.9254 35.7489 87.9254 36.7179 88.0215 37.6731C88.0695 38.1714 88.1725 38.6628 88.2617 39.1542C88.3098 39.438 88.3853 39.7287 88.1794 39.9917C88.1313 40.0194 85.9346 40.3586 83.9987 40.4209L83.9918 40.4278Z" fill="#F1911B"/>
<path d="M100.289 28.6203C100.021 27.6305 99.7603 26.6339 99.4994 25.6441C99.4582 25.4988 99.472 25.3603 99.5681 25.2357C100.172 24.4398 100.776 23.6438 101.38 22.8409C101.525 22.9655 101.504 23.1386 101.545 23.277C101.628 23.5262 101.689 23.7823 101.765 24.0383C101.84 24.3014 101.964 24.6267 102.259 24.5367C102.554 24.4467 102.472 24.1006 102.403 23.8376C102.28 23.3393 102.156 22.8409 102.019 22.3426C101.957 22.1211 101.985 21.9481 102.129 21.7543C102.781 20.8614 103.433 19.9686 104.174 19.1519C104.325 20.7576 103.852 22.2319 103.158 23.6369C102.335 25.3188 101.353 26.9107 100.392 28.5096C100.364 28.5511 100.323 28.5857 100.289 28.6272" fill="#F1911B"/>
<path d="M102.259 15.6357C101.668 16.2517 101.078 16.8677 100.46 17.5114C100.007 16.667 99.9453 15.6841 99.4441 14.7913C99.3411 15.165 99.3137 15.4696 99.3892 15.7741C99.554 16.4247 99.7256 17.0753 99.9041 17.726C99.9453 17.8782 100.014 18.0166 99.8835 18.1689C99.3549 18.7849 98.8263 19.4078 98.2702 20.0723C97.9201 19.041 97.6387 18.0236 97.3709 17.0061C97.2611 16.5908 97.316 16.2863 97.6387 15.9818C98.0849 15.5596 98.4625 15.0612 98.9224 14.6459C99.5883 14.6321 100.247 14.7221 100.899 14.8397C101.442 14.9366 101.909 15.1858 102.252 15.6357" fill="#EE7D1B"/>
<path d="M104.168 18.7569C103.351 19.6567 102.61 20.6188 101.848 21.65C101.497 20.4388 101.106 19.3037 100.667 18.1963C100.591 18.0094 100.715 17.8987 100.825 17.7879C101.422 17.1442 102.026 16.5005 102.63 15.8638C103.474 16.6528 103.921 17.6564 104.175 18.7638" fill="#F1911B"/>
<path d="M97.6252 32.6346C97.5978 31.5549 97.2751 30.5236 97.0966 29.4715C97.076 29.34 97.028 29.2154 97.1035 29.0908C97.6939 28.108 98.2568 27.1113 98.9433 26.1216C99.2934 27.229 99.4581 28.3364 99.8563 29.3746C99.1149 30.4682 98.4147 31.5825 97.6252 32.6346Z" fill="#F1911B"/>
<path d="M91.4746 38.3029C91.6806 38.1922 91.7835 37.9914 91.9003 37.8046C92.7446 36.4895 93.4654 35.0983 94.2618 33.7556C94.3716 33.5756 94.4746 33.3957 94.6256 33.1465C94.7698 33.8871 94.9071 34.5446 95.0238 35.2021C95.0649 35.4236 95.1611 35.5413 95.3945 35.4859C94.6462 36.4065 93.946 37.3547 93.0879 38.1783C92.8888 38.3721 92.6691 38.5382 92.4288 38.6697C92.0101 38.8981 91.6325 38.7459 91.4678 38.3029" fill="#F1911B"/>
<path d="M95.477 35.3131C95.3534 34.4687 95.2298 33.6174 95.1063 32.766C95.0788 32.5999 95.0513 32.4338 95.1543 32.2677C95.6143 31.534 96.0605 30.7865 96.5685 29.9629C96.692 30.5789 96.795 31.1049 96.9117 31.6379C96.9735 31.9216 97.0559 32.1985 97.1314 32.4753C97.1726 32.6345 97.2412 32.7799 97.4403 32.7799C97.1108 33.4651 96.5753 34.0119 96.1154 34.6002C95.9232 34.8494 95.7653 35.1401 95.4701 35.3062" fill="#F1911B"/>
<path d="M72.6026 38.3445C72.2388 38.3445 72.1427 37.5831 71.9642 37.2232C70.9413 35.0984 69.8841 32.9873 68.4974 31.0701C68.4356 30.9871 68.3739 30.8832 68.3807 30.7863C68.3807 30.6341 68.2228 30.4334 68.3807 30.3572C68.5661 30.2672 68.7102 30.4403 68.8269 30.5995C69.3967 31.3747 69.9184 32.1845 70.3921 33.0219C71.0923 34.2747 71.8131 35.5206 72.3761 36.8425C72.5683 37.2924 73.0557 38.2061 72.6095 38.3445H72.6026Z" fill="#010101"/>
<path d="M76.4339 4.96973C76.6261 5.00433 76.6811 5.16353 76.585 5.29503C76.5232 5.37809 76.4271 5.41269 76.3378 5.4473C75.72 5.71031 75.0816 5.92488 74.4843 6.23634C74.4294 6.26402 74.3607 6.31247 74.3058 6.25018C74.244 6.17405 74.299 6.11175 74.347 6.05638C74.4637 5.92488 74.601 5.82106 74.752 5.738C75.2463 5.45422 75.768 5.23274 76.2829 5.01125C76.3378 4.98357 76.4065 4.97665 76.4408 4.96973" fill="#020303"/>
<path d="M80.2293 9.36457C80.0989 9.31612 80.0989 9.23306 80.092 9.13616C80.0096 8.07719 79.5428 7.14973 79.028 6.24995C78.9799 6.17382 78.9113 6.11152 78.8564 6.03539C78.7534 5.8762 78.5543 5.71008 78.774 5.52321C78.9662 5.35709 79.1447 5.52321 79.2957 5.64087C79.3849 5.71008 79.4742 5.80006 79.536 5.89696C80.1058 6.81751 80.4353 7.8211 80.4765 8.90776C80.4765 9.08772 80.4559 9.3092 80.2293 9.36457Z" fill="#020303"/>
<path d="M60.9399 13.5799C60.9537 13.4691 60.9743 13.3515 60.988 13.2407C60.9743 13.3445 60.9262 13.483 60.9399 13.5799Z" fill="#050606"/>
<path d="M98.4216 14.7358C97.9891 14.9296 97.5566 15.1026 97.0761 15.1026C97.0486 15.1026 97.028 15.1026 97.0143 15.1303C96.6161 15.4625 96.1425 15.6494 95.71 15.9124C94.9205 16.39 94.2409 16.9922 93.5613 17.6082C93.1562 17.9127 92.9434 18.418 92.4698 18.6602C92.456 18.681 92.4492 18.7087 92.4423 18.7294C92.1334 19.4008 91.7009 20.003 91.3645 20.6605C90.8222 21.7056 90.5888 22.7646 91.1243 23.8858C91.1654 23.9758 91.1723 24.0658 91.1586 24.1558C91.0831 24.3011 91.0076 24.4465 90.8977 24.6541C90.5476 23.5813 90.1838 22.5985 89.6895 21.671C89.6071 21.5187 89.6826 21.3941 89.7238 21.2557C90.376 18.8194 92.0373 17.2275 94.0761 15.9747C95.4903 15.1026 97.0212 14.4866 98.6756 14.2444C98.7648 14.2444 98.8815 14.1336 98.9021 14.3205C98.7374 14.4589 98.5795 14.5904 98.4216 14.7289M66.8021 19.2693C66.8296 19.5877 66.6511 19.7676 66.3559 19.733C65.388 19.6015 64.3994 19.5461 63.4521 19.2762C63.3285 19.2485 63.205 19.2208 63.0883 19.1862C62.5528 19.1447 62.237 18.8678 62.1546 18.3211C62.1203 18.0996 62.0585 17.885 61.9967 17.6704C61.6947 16.5976 61.5162 15.5179 61.5643 14.3966C61.5643 14.2859 61.5711 14.1821 61.5643 14.0713C61.5711 13.8429 61.5437 13.6145 61.6123 13.393C61.88 12.2302 62.4292 11.2336 63.3011 10.4168C63.6786 10.0639 64.1248 9.82161 64.5093 9.48939C64.6397 9.64166 65.3536 10.4099 65.5802 10.6037C65.7587 10.7352 65.9578 10.846 66.1637 10.929C66.3422 11.0052 66.4383 11.1298 66.4246 11.3236C66.3902 11.8427 66.4795 12.3479 66.4863 12.867C66.5001 13.8568 66.5687 14.8465 66.6099 15.8294C66.658 16.9783 66.706 18.1273 66.8021 19.2693ZM105.932 18.1273C105.705 16.3069 104.895 14.8673 103.172 14.0852C102.232 13.6561 101.236 13.4899 100.22 13.5315C96.6642 13.6699 93.6437 15.0611 91.1792 17.6358C90.3279 18.5218 89.7376 19.5807 89.4973 20.8058C89.4561 20.9166 89.4492 21.0342 89.4424 21.1035C89.4424 21.0688 89.3943 21.0204 89.3394 20.9789C86.5935 16.3346 82.6393 13.0262 77.9369 10.493C78.3488 10.2231 78.6302 9.90467 78.8225 9.50323C79.0971 8.92183 79.0971 8.34736 78.7264 7.81441C78.3694 7.30915 77.8545 7.30223 77.3122 7.39221C77.0101 7.44758 76.8042 7.67599 76.5365 7.84902C76.5159 7.69675 76.509 7.57909 76.4884 7.46142C76.3786 6.74852 75.7676 6.40245 75.1223 6.68623C74.7173 6.86618 74.4015 7.14996 74.1887 7.5514C74.1544 7.59293 74.1544 7.63446 74.2024 7.66906C74.4221 7.46834 74.6074 7.2261 74.8683 7.05998C75.3832 6.73468 75.9118 6.9354 76.0559 7.52372C76.1314 7.83518 76.104 8.15356 75.9667 8.45118C75.85 8.70035 75.6578 8.89415 75.3694 8.88723C75.0811 8.88723 74.9301 8.66574 74.834 8.43042C74.7379 8.19509 74.683 7.94592 74.6075 7.66906C74.4702 8.2297 74.628 8.72111 75.0399 9.09487C75.136 9.21945 75.2665 9.24022 75.4106 9.24022C75.898 9.26098 76.1314 8.90107 76.3992 8.58269C76.6669 8.31275 77.0101 8.18817 77.374 8.11203C77.8339 8.02205 78.2389 8.31275 78.3213 8.77648C78.3694 9.04642 78.3076 9.30251 78.1909 9.54476C78.0055 9.93235 77.7447 10.14 77.4632 10.1054C77.0513 10.0569 76.6806 9.7524 76.5708 9.38557C76.5159 9.19869 76.5365 8.98413 76.3717 8.8457C76.3305 8.8457 76.2962 8.85954 76.2687 8.89415C76.1864 9.0395 76.2138 9.19869 76.1932 9.35788C76.1864 9.51015 76.104 9.52399 75.9804 9.47554C75.8019 9.40633 75.6303 9.30943 75.445 9.26098C75.2802 9.24714 75.1223 9.21253 74.9713 9.16408C74.834 9.12255 74.6967 9.08102 74.5594 9.0395C72.9393 8.47887 71.278 8.1328 69.5687 8.0359C69.2872 8.02205 69.1774 7.939 69.1019 7.66214C68.738 6.37477 68.0035 5.38501 66.7129 4.9282C65.4703 4.49215 64.3033 5.16353 64.0013 6.4509C63.8159 7.23994 63.9258 7.99437 64.2553 8.72111C64.2759 8.82493 64.3582 8.92183 64.2553 9.02565C64.1523 9.0741 64.0356 9.10871 63.9395 9.171C62.3743 10.0915 61.3652 11.4204 61.0357 13.2408C61.0151 13.3515 61.0013 13.4692 60.9807 13.5799C60.864 14.4243 60.8572 15.2687 60.9807 16.1201C60.9807 16.4315 61.0151 16.7291 61.1112 17.0268C61.1936 17.6981 61.3789 18.3418 61.6192 18.9717C61.8183 19.4977 61.9212 20.0376 61.9212 20.5913C61.9212 22.5362 65.6214 29.7136 66.7266 29.7552C66.8914 29.7552 67.0149 29.7829 67.0287 29.5337C67.1316 27.9418 67.166 26.3499 67.0561 24.751C67.0149 24.1281 67.0699 23.4982 67.0836 22.8476C67.3376 22.9099 67.2964 23.0345 67.2964 23.1314C67.2964 25.0832 67.7838 27.9418 68.1202 29.8451C68.2781 30.7518 72.5823 26.6544 72.143 20.7574C72.1224 20.4667 72.1018 20.0929 71.8478 19.9545C71.2437 19.6292 68.9096 19.9614 67.7975 19.9891C67.4406 19.996 67.3719 19.8576 67.3582 19.5323C67.3101 18.3972 67.2277 17.2621 67.1522 16.127C67.0355 14.4243 66.912 12.7217 66.7953 10.9844C67.6053 11.1159 68.2712 10.846 68.7929 10.2231C69.1499 9.91851 69.246 9.49631 69.3215 9.06026C69.3009 8.76264 69.452 8.65882 69.7334 8.68651C69.8364 8.70035 69.9462 8.70035 70.0492 8.71419C71.1201 8.85262 72.1636 9.08102 73.2002 9.38557C75.5411 10.0846 77.7378 11.1021 79.7904 12.4379C81.8018 13.746 83.6073 15.3103 85.2617 17.0683C87.0054 18.9163 88.447 20.9581 89.4973 23.2768C90.3211 25.0971 90.6986 26.9935 90.5133 28.9869C90.4927 29.686 90.6506 30.3712 90.6369 31.0772C90.6163 32.9528 90.424 34.8147 90.4309 36.6904C90.4309 36.898 90.4172 37.1126 90.4652 37.3202C90.5201 37.5694 90.63 37.784 90.9252 37.7632C91.2066 37.7355 91.2616 37.514 91.2821 37.2787C91.3096 36.898 91.392 32.8006 91.4126 31.1394C91.4194 30.4127 91.3027 29.686 91.392 28.9661C91.5499 27.7341 91.5293 26.516 91.2135 25.3116C91.1517 25.0694 91.186 24.8964 91.4057 24.7787C91.8931 24.052 92.3325 23.2906 92.8679 22.5708C92.9572 23.2837 93.0739 23.962 93.1768 24.6403C93.2798 25.3324 93.4102 26.0245 93.5132 26.7167C93.5613 27.0074 93.5132 27.2566 93.3553 27.5057C92.8611 28.2394 92.408 28.9938 91.948 29.7552C91.8382 29.9767 91.6803 30.1705 91.5842 30.4058C91.5087 30.5927 91.4263 30.828 91.6117 30.9526C91.8245 31.1048 91.948 30.8626 92.0716 30.7242C92.6208 29.8036 93.17 28.8762 93.7466 27.9695C93.8084 28.447 93.8908 28.9108 93.9663 29.3814C94.1036 30.3158 94.234 31.2571 94.3988 32.1915C94.4537 32.5168 94.3782 32.7729 94.2134 33.0428C93.5956 34.0464 92.9846 35.0639 92.3942 36.0882C92.1334 36.6281 91.797 37.1264 91.4606 37.6178C91.3645 37.7563 91.2684 37.9016 91.2341 38.0747C91.2135 38.1923 91.1449 38.3584 91.3577 38.393C91.3989 38.3654 91.44 38.3377 91.4881 38.31C91.7764 38.31 91.8725 38.0608 91.9961 37.867C92.6894 36.7804 93.3141 35.6522 93.9457 34.5309C94.1448 34.1779 94.337 33.8042 94.5979 33.465C94.742 34.0672 94.7969 34.6486 94.9411 35.2092C95.0029 35.4445 95.1059 35.6453 95.4079 35.4999C95.4354 35.4376 95.456 35.3822 95.4834 35.3269C95.607 35.14 95.5589 34.9393 95.5246 34.7524C95.4148 34.1295 95.3667 33.4927 95.2432 32.8698C95.2088 32.6968 95.1814 32.5168 95.2638 32.3645C95.6345 31.6585 96.1013 31.0149 96.5063 30.2743C96.6161 30.558 96.6367 30.7865 96.6848 31.001C96.7877 31.4786 96.8495 31.97 97.0143 32.4268C97.0829 32.6137 97.1173 32.8975 97.4468 32.8006C97.5017 32.7452 97.6047 32.7452 97.6253 32.6483C97.7214 32.4199 97.7214 32.1915 97.6802 31.9492C97.5429 31.181 97.3918 30.4127 97.2408 29.6513C97.1996 29.4576 97.1516 29.2568 97.2614 29.07C97.7763 28.1563 98.3255 27.2635 98.9158 26.3568C99.1698 27.2496 99.3483 28.1217 99.6023 28.9661C99.6504 29.1322 99.6847 29.3053 99.8563 29.3883C99.9662 29.4229 100.042 29.6167 100.179 29.5198C100.303 29.4299 100.364 29.2707 100.344 29.1046C100.33 28.9523 100.309 28.7931 100.289 28.6408C100.316 28.4678 100.289 28.3017 100.241 28.1356C100.042 27.3673 99.8289 26.6059 99.6504 25.8307C99.6092 25.6508 99.568 25.457 99.6847 25.2909C100.213 24.5434 100.79 23.8305 101.36 23.0414C101.497 23.436 101.566 23.7889 101.682 24.1212C101.82 24.5018 102.053 24.7026 102.28 24.6334C102.492 24.5641 102.589 24.2665 102.52 23.9066C102.506 23.8305 102.486 23.7543 102.465 23.6713C102.369 23.2975 102.286 22.9238 102.17 22.5569C102.067 22.2109 102.108 21.9202 102.335 21.6295C102.726 21.1311 103.09 20.612 103.488 20.1206C103.735 19.8161 104.016 19.5323 104.167 19.1585C104.291 18.9025 104.552 18.7363 104.662 18.411C104.408 18.4733 104.318 18.674 104.161 18.764C103.756 18.9232 103.577 19.3177 103.309 19.6154C102.801 20.176 102.376 20.8058 101.875 21.4426C101.579 20.4113 101.25 19.4562 100.872 18.5149C100.728 18.1619 100.797 17.9058 101.051 17.6635C101.449 17.2829 101.785 16.8399 102.19 16.4661C102.369 16.3 102.554 16.1201 102.616 15.864C102.705 15.684 102.801 15.511 102.939 15.241C102.643 15.4141 102.444 15.5317 102.245 15.6494C101.84 15.8086 101.593 16.1685 101.319 16.4731C101.058 16.7637 100.783 17.0406 100.467 17.3175C100.227 16.7845 100.069 16.2516 99.9319 15.7186C99.8701 15.4764 99.7945 15.2341 99.6641 15.0196C99.6023 14.9227 99.5611 14.7773 99.4101 14.8188C99.2728 14.8604 99.2797 15.0057 99.2728 15.1165C99.2522 15.3795 99.2591 15.6425 99.314 15.9055C99.4444 16.4731 99.568 17.0406 99.7465 17.5943C99.8426 17.885 99.8151 18.1134 99.5955 18.3487C99.2385 18.7363 98.9021 19.1378 98.5795 19.5531C98.5108 19.643 98.4628 19.7953 98.3323 19.7815C98.195 19.7607 98.2019 19.6015 98.1676 19.4908C97.9067 18.6325 97.6527 17.7743 97.4536 16.8953C97.3781 16.563 97.4605 16.3346 97.687 16.0785C98.0989 15.6079 98.6138 15.2203 98.9158 14.6527C99.0943 14.2513 99.4101 14.1267 99.8289 14.1336C100.419 14.1405 101.01 14.1475 101.593 14.2374C103.522 14.5212 104.909 15.8709 105.238 17.8158C105.403 18.764 105.369 19.7123 105.197 20.6605C104.847 22.6054 103.996 24.3496 103.028 26.0315C101.531 28.6477 99.6092 30.9733 97.8724 33.4235C96.8358 34.8908 95.6001 36.199 94.4949 37.6109C94.3439 37.8047 94.1928 38.0124 94.0624 38.2269C93.9594 38.4 93.9526 38.5938 94.1379 38.7253C94.3095 38.8499 94.4606 38.7737 94.5979 38.6491C94.6528 38.5938 94.7008 38.5315 94.7558 38.4692C97.0898 35.6107 99.3758 32.7106 101.476 29.6721C102.932 27.5611 104.318 25.4155 105.232 22.9999C105.822 21.4288 106.124 19.8161 105.918 18.1411" fill="#010101"/>
<path d="M91.1931 36.2061C91.2961 37.0989 91.2068 37.9987 91.1931 38.8916C91.1931 39.293 90.946 39.6114 90.6302 39.8467C90.1153 40.2274 89.5318 40.3935 88.8934 40.3589C88.5845 40.3382 88.351 40.1928 88.1794 39.9367C88.2618 39.3346 88.0147 38.767 87.9597 38.1856C87.9048 37.5834 87.795 36.9882 87.7881 36.386C87.7744 35.0433 87.5479 33.7213 87.3625 32.3993C87.081 30.406 86.4289 28.5234 85.763 26.6408C85.8042 26.2393 85.7218 25.8586 85.5639 25.4918C85.5502 25.6095 85.5776 25.7479 85.4609 25.8309C85.1658 25.3741 84.9804 24.862 84.747 24.3775C83.6829 22.2111 82.4747 20.1277 80.9645 18.2451C79.9347 16.9647 78.7815 15.795 77.5526 14.7014C76.5778 13.8362 75.5687 13.0264 74.4772 12.3343C73.4681 11.6975 72.3834 11.2615 71.2439 10.9362C70.4132 10.7008 69.6169 10.3686 68.7588 10.2302C68.9647 9.87026 69.205 9.46882 69.2874 9.06738C69.3698 8.90819 69.8503 9.01893 69.9601 9.03278C70.7908 9.12968 71.2164 9.06046 72.0333 9.28887C73.2621 9.62802 74.4429 10.0917 75.603 10.6178C78.0469 11.7113 80.2574 13.1579 82.2551 14.9367C83.0514 15.6427 83.9301 16.2656 84.6234 17.0754C85.8728 18.5358 87.1634 19.9616 88.1314 21.6435C89.422 23.893 90.184 26.3224 90.589 28.8694C90.8842 31.4649 90.5135 34.0535 90.5409 36.6491C90.5409 36.8844 90.5409 37.1266 90.5547 37.362C90.5684 37.5419 90.6302 37.708 90.8567 37.708C91.0695 37.708 91.1382 37.5419 91.1519 37.355C91.1725 36.9744 91.1794 36.5937 91.1931 36.213" fill="#EE7D1B"/>
<path d="M68.9375 19.4077C69.9329 19.027 70.7018 18.2172 71.7933 18.0442C72.9946 17.8573 73.7978 18.5563 73.7223 19.7814C73.6948 20.1829 73.6468 20.5774 73.3859 20.9304C73.2418 20.7781 73.2967 20.6397 73.3104 20.522C73.331 20.3144 73.3722 20.1067 73.3928 19.8922C73.5026 18.7086 72.8093 18.1065 71.6491 18.3625C71.0244 18.501 70.4958 18.854 69.9329 19.1239C69.6171 19.2762 69.3151 19.4769 68.9375 19.4077Z" fill="#030304"/>
<path d="M83.9782 30.6271C83.9782 30.904 83.9508 31.1324 83.8203 31.34C83.7654 31.43 83.6968 31.5269 83.5801 31.4992C83.4702 31.4785 83.4428 31.3747 83.4428 31.2847C83.4084 30.7379 83.381 30.1842 83.3535 29.6374C83.3535 29.5336 83.4016 29.4159 83.5183 29.4021C83.6281 29.3882 83.6556 29.499 83.6968 29.5751C83.8821 29.9142 84.0263 30.2603 83.9782 30.6271Z" fill="#020404"/>
<path d="M75.8224 35.735C75.5547 35.4235 75.5135 35.0013 75.383 34.6345C75.3007 34.3923 75.3075 34.1154 75.2938 33.8524C75.2869 33.7347 75.3213 33.6101 75.4654 33.5824C75.589 33.5548 75.6439 33.6517 75.7125 33.7416C75.8636 33.9285 75.8773 34.1569 75.891 34.3784C75.9185 34.8283 75.9254 35.2782 75.946 35.7281C75.9048 35.7281 75.8636 35.7419 75.8224 35.7419" fill="#020404"/>
<path d="M85.2136 34.9321C85.1724 35.1121 85.3166 35.4166 85.1175 35.4581C84.8841 35.4997 84.8841 35.1744 84.788 35.0013C84.6438 34.7176 84.5958 34.4061 84.5546 34.0946C84.5271 33.9078 84.5546 33.707 84.788 33.6655C85.0351 33.624 85.0969 33.8109 85.1244 34.0047C85.1724 34.3161 85.2754 34.6207 85.2136 34.939" fill="#010202"/>
<path d="M80.4085 30.6965C80.4085 30.6965 80.4223 30.828 80.3056 30.8627C80.1683 30.9042 80.1545 30.745 80.1133 30.6619C79.9143 30.3089 79.7221 29.949 79.6053 29.5545C79.5573 29.3884 79.5573 29.2223 79.7358 29.1531C79.9143 29.0839 79.9417 29.2569 80.0035 29.3676C80.2232 29.7414 80.4154 30.129 80.4154 30.6896" fill="#050506"/>
<path d="M80.2431 36.974C80.1195 36.3164 80.0165 35.7766 79.9273 35.2367C79.9067 35.1052 79.941 34.9529 80.0989 34.9252C80.2843 34.8906 80.2843 35.0706 80.3186 35.1883C80.4559 35.7489 80.5383 36.3095 80.2499 36.974" fill="#050506"/>
<path d="M77.9779 36.8979C78.4036 37.8531 78.4516 38.123 78.2937 38.739C77.82 38.1576 77.9162 37.5278 77.9779 36.8979Z" fill="#060707"/>
<path d="M78.3352 25.7892C78.246 25.367 78.1568 24.9447 78.0744 24.5225C78.0401 24.3426 78.0538 24.1557 78.1087 23.9758C78.1362 23.8996 78.1979 23.8442 78.2872 23.8512C78.3558 23.8581 78.4039 23.9135 78.4108 23.9827C78.5 24.5779 78.5206 25.1732 78.3284 25.7822" fill="#030304"/>
<path d="M73.0077 33.6309C72.7262 33.2849 72.6301 32.9457 72.6438 32.565C72.6438 32.4543 72.6576 32.3366 72.8017 32.3436C72.9116 32.3436 72.9528 32.4474 72.9596 32.5374C72.9734 32.8765 73.1106 33.2087 73.0077 33.624" fill="#080708"/>
<path d="M76.6188 28.8692C76.406 28.3916 76.3785 27.9763 76.1794 27.6164C76.1314 27.5334 76.1794 27.4572 76.2549 27.4226C76.3648 27.3673 76.4266 27.4503 76.4609 27.5403C76.6188 27.9279 76.7492 28.3224 76.6119 28.8692" fill="#090909"/>
<path d="M85.4677 25.8306C85.4814 25.6576 85.3853 25.4638 85.5501 25.3115C85.8933 25.8791 85.9688 26.3428 85.7629 26.6335C85.6599 26.3636 85.5638 26.0936 85.4608 25.8237" fill="#050706"/>
<path d="M82.4611 24.6059C82.3513 24.3706 82.2346 24.1422 82.1385 23.9068C82.0836 23.7823 82.0904 23.6507 82.1797 23.5331C82.2209 23.4777 82.2758 23.4431 82.3513 23.4846C82.468 23.5538 82.4749 23.6784 82.4817 23.7961C82.5023 24.066 82.5092 24.336 82.5229 24.6059C82.5023 24.6059 82.4886 24.6059 82.468 24.6059" fill="#060707"/>
<path d="M62.608 19.7397C63.1435 19.8643 63.6721 19.9889 64.2075 20.1135C64.9489 20.2796 65.7041 20.3765 66.4661 20.4111C66.6651 20.418 66.7475 20.4734 66.7818 20.7018C66.9329 21.7608 66.7956 22.8128 66.7612 23.8718C66.6995 25.6021 66.6171 27.3325 66.5622 29.0628C66.5553 29.3328 64.0565 25.0208 63.322 23.1243C63.0268 22.3629 62.4913 19.8574 62.6149 19.7467" fill="#F8F6F6"/>
<path d="M71.4082 20.6329C71.0718 20.1969 68.3053 20.3907 67.8248 20.9029C67.0971 21.6781 68.2298 29.077 68.6005 29.4854C68.7584 29.6584 70.6805 26.966 71.0238 24.9588C71.367 22.9516 71.7995 21.1313 71.4082 20.6329Z" fill="#F8F6F6"/>
<path d="M65.5457 10.4792C65.8272 10.6176 66.1018 10.7699 66.3901 10.8876C66.5411 10.9429 66.5411 11.026 66.548 11.1575C66.6166 13.8638 66.7471 16.5631 66.9187 19.2624C66.953 19.7815 66.7745 19.9269 66.2596 19.8508C65.3466 19.7192 64.4199 19.657 63.5137 19.4216C63.4657 19.4078 63.4245 19.3732 63.3764 19.3524C63.2597 19.2694 63.2185 19.1517 63.1911 19.0133C62.9577 17.8366 62.6556 16.6738 62.5183 15.4695C62.2918 13.4623 63.3215 11.4828 65.1201 10.5761C65.2505 10.5069 65.3878 10.4654 65.532 10.4792" fill="#F1911B"/>
<path d="M98.003 21.1866C98.1677 22.0795 98.3188 22.8823 98.4698 23.6783C98.5796 24.2735 98.6963 24.8688 98.8199 25.464C98.8405 25.5817 98.8748 25.6924 98.7993 25.8032C98.1471 26.7168 97.5911 27.6858 96.9595 28.7517C96.8291 28.0872 96.7193 27.5335 96.6094 26.9798C96.4378 26.1146 96.2662 25.2495 96.0877 24.3774C96.0602 24.232 96.0259 24.0936 96.1151 23.9552C96.6849 23.0277 97.3096 22.1348 98.0098 21.1797" fill="#F1911B"/>
<path d="M99.369 25.0488C99.1288 23.8999 98.916 22.8409 98.6963 21.7889C98.6894 21.7473 98.6963 21.7058 98.6757 21.6712C98.2981 20.8822 98.5453 20.2523 99.1425 19.6778C99.4995 19.3387 99.7947 18.9373 100.158 18.522C100.605 19.7747 100.975 20.986 101.277 22.2111C101.298 22.301 101.312 22.3979 101.257 22.481C100.646 23.3185 100.035 24.149 99.369 25.0488Z" fill="#F1911B"/>
<path d="M95.8955 23.4911C95.5935 22.093 95.312 20.7987 95.0306 19.4975C95.01 19.3937 95.01 19.2899 95.0786 19.1999C95.669 18.4108 96.2388 17.608 96.9458 16.812C97.1449 17.9125 97.4332 18.93 97.7147 19.9474C97.8657 20.4803 97.7422 20.8541 97.4264 21.2763C96.9047 21.9684 96.4378 22.7021 95.8955 23.4981" fill="#EE7D1B"/>
<path d="M91.5293 37.6177C91.5293 35.7628 91.7696 33.9286 91.9961 32.0875C92.0579 31.5892 92.0854 31.0839 92.0305 30.5856C92.5453 29.6235 93.1494 28.7168 93.7741 27.6855C93.8702 28.3085 93.9458 28.8207 94.0281 29.3328C93.7192 30.7102 93.3485 32.0668 93.0945 33.458C92.9915 34.0186 92.8542 34.5654 92.7856 35.1329C92.7444 35.5136 92.4973 35.8112 92.4218 36.1712C92.1678 36.6833 91.8726 37.1678 91.5225 37.6177" fill="#EE7D1B"/>
<path d="M92.0233 29.7551C91.9958 28.2601 91.735 26.7997 91.5222 25.3254C91.4878 25.1039 91.4192 24.8894 91.3643 24.6748C91.7899 23.8581 92.3391 23.1313 92.8814 22.3008C93.1423 23.8996 93.3825 25.4016 93.6297 26.9035C93.6571 27.0696 93.6297 27.208 93.5404 27.3534C93.0324 28.1493 92.5244 28.9522 92.0164 29.7482" fill="#EE7D1B"/>
<path d="M93.5068 17.5737C94.509 16.5147 95.6761 15.6911 97.0147 15.1235C96.9735 15.3589 96.8705 15.5942 96.9049 15.8157C96.9735 16.2656 96.7607 16.5493 96.493 16.8608C95.9575 17.4837 95.4495 18.1413 94.9072 18.8126C94.7081 18.2174 94.6944 17.5945 94.3306 17.0338C94.2001 17.6568 94.3443 18.2174 94.4678 18.7711C94.5571 19.1656 94.509 19.4702 94.2482 19.7816C93.8706 20.2315 93.5411 20.716 93.1498 21.249C92.9713 20.3561 92.8958 19.5325 92.5938 18.7573C92.834 18.3143 93.191 17.9613 93.5068 17.5737Z" fill="#EE7D1B"/>
<path d="M94.8244 20.8542C95.0166 21.9063 95.2156 22.9583 95.4079 24.0034C95.4285 24.1349 95.4353 24.2664 95.3598 24.3841C94.9411 25.0693 94.5292 25.7545 94.0555 26.5367C93.9182 25.7753 93.8015 25.1247 93.6848 24.4741C93.5475 23.7058 93.4239 22.9375 93.2798 22.1762C93.2317 21.927 93.2729 21.7194 93.4239 21.5117C93.8152 20.9719 94.1928 20.4112 94.6047 19.8091C94.742 20.1482 94.7694 20.4597 94.8038 20.7573C94.7832 20.785 94.742 20.8196 94.742 20.8404C94.7488 20.8819 94.79 20.8196 94.8175 20.8404" fill="#EE7D1B"/>
<path d="M95.6278 25.2354C95.9093 26.6128 96.1908 27.9971 96.4722 29.3744C96.4997 29.4921 96.4516 29.5821 96.3967 29.672C95.9436 30.3919 95.4837 31.1186 94.9825 31.9146C94.7972 30.7033 94.5157 29.5959 94.3853 28.4539C94.3167 28.2393 94.3716 28.0386 94.4334 27.8379C94.7079 27.0281 95.0649 26.2529 95.3944 25.4638C95.4356 25.36 95.4699 25.2285 95.621 25.2285" fill="#F1911B"/>
<path d="M65.5456 10.4794C64.6051 10.9223 63.8362 11.5591 63.2733 12.4589C62.7241 13.3379 62.5594 14.3 62.628 15.2966C62.7241 16.674 63.1154 18.0029 63.39 19.3526C63.2802 19.3387 61.9072 18.432 61.9072 14.2377C61.9072 12.3066 63.1978 10.7839 64.8454 9.85645C64.8454 9.85645 65.1543 10.2302 65.5456 10.4794Z" fill="#EE7D1B"/>
<path d="M91.1656 24.149C90.6919 23.3461 90.5683 22.4948 90.8704 21.6089C91.2342 20.5568 91.7765 19.6086 92.4424 18.7227C92.3738 19.6501 92.614 20.5499 92.7445 21.4566C92.7651 21.6019 92.7994 21.7335 92.7033 21.8719C92.1884 22.6263 91.6736 23.3877 91.1587 24.149" fill="#EE7D1B"/>
<path d="M92.4287 36.1712C92.4424 35.7075 92.6484 35.2922 92.7308 34.8354C92.9642 33.4788 93.2662 32.1361 93.5614 30.7933C93.6712 30.295 93.8017 29.7967 94.0282 29.3398C94.193 30.378 94.3577 31.4232 94.5362 32.4614C94.5705 32.6552 94.4676 32.7867 94.3852 32.932C93.733 34.0118 93.0877 35.0915 92.4356 36.1712" fill="#F1911B"/>
<path d="M95.628 25.2357C95.1818 26.1701 94.8111 27.146 94.4335 28.1081C94.3923 28.2119 94.3992 28.3434 94.3854 28.4611C94.3168 28.0735 94.2481 27.6928 94.1795 27.3052C94.1589 27.1875 94.1795 27.0768 94.2481 26.966C94.6738 26.2947 95.0925 25.6164 95.5113 24.9312C95.6623 25.0004 95.628 25.118 95.628 25.2357Z" fill="#EE7D1B"/>
<path d="M97.0762 15.0958C97.5087 14.9159 97.9549 14.7775 98.4217 14.729C98.0441 15.1374 97.6597 15.5526 97.2341 16.0095C97.1723 15.6565 97.1242 15.3796 97.0762 15.0958Z" fill="#EE7D1B"/>
<path d="M93.5063 17.5733C93.2386 17.9955 92.9846 18.4316 92.5933 18.7569C92.5521 18.7223 92.5109 18.6877 92.4697 18.6531C92.7924 18.2724 93.1013 17.8779 93.5063 17.5664" fill="#F1911B"/>
<path d="M61.6469 18.0718C61.6743 18.1894 61.7087 18.3071 61.7361 18.4317C61.5851 18.3556 61.5851 18.2171 61.5508 18.0925C61.5851 18.0856 61.6126 18.0787 61.6469 18.0718Z" fill="#141414"/>
<path d="M94.8243 20.8541C94.7488 20.9164 94.7488 21.0618 94.5703 21.0549C94.639 20.9303 94.6733 20.8126 94.8106 20.7642C94.8106 20.7918 94.8243 20.8265 94.8243 20.8541Z" fill="#F1911B"/>
<path d="M88.928 34.3785C88.8456 35.0291 88.9074 35.7005 88.5161 36.2819C88.4543 36.3719 88.4062 36.5034 88.2964 36.4688C88.1728 36.4272 88.2209 36.2957 88.2415 36.1919C88.4337 35.2852 88.5092 34.3647 88.4749 33.4372C88.4749 33.3126 88.4749 33.1742 88.6122 33.1396C88.7838 33.105 88.825 33.2642 88.8593 33.3887C88.9486 33.7141 88.9417 34.0394 88.9348 34.3716" fill="#030304"/>
<path d="M87.2666 29.8451C87.2803 29.679 87.2735 29.6098 87.2872 29.5475C87.3078 29.4229 87.3078 29.243 87.4657 29.236C87.6167 29.2291 87.6098 29.4022 87.6304 29.5129C87.706 29.9005 87.7883 30.2881 87.8501 30.6826C87.8707 30.8003 87.8707 30.9179 87.8501 31.0356C87.8227 31.1463 87.7883 31.2848 87.6373 31.2778C87.5069 31.2709 87.4794 31.1394 87.4588 31.0425C87.3833 30.6134 87.3215 30.1843 87.2666 29.852" fill="#030304"/>
<path d="M85.9478 21.6919C85.7624 21.2766 85.5771 20.8682 85.3917 20.4599C85.3437 20.3561 85.3231 20.2453 85.4398 20.183C85.5771 20.1069 85.6114 20.2245 85.6594 20.3284C85.8517 20.7575 86.0301 21.1866 85.9478 21.6988" fill="#080707"/>
<path d="M88.7831 25.9832C88.6458 25.5887 88.5977 25.215 88.5771 24.8412C88.5771 24.7236 88.6183 24.5851 88.7694 24.592C88.9204 24.599 88.8792 24.7443 88.8861 24.8412C88.9204 25.208 89.0165 25.5749 88.7831 25.9832Z" fill="#0C0A09"/>
<path d="M89.3739 36.0673C89.1199 35.3613 89.2983 34.6692 89.1816 33.984C89.216 33.984 89.2434 33.984 89.2777 33.9771C89.3121 34.6761 89.3395 35.3682 89.3739 36.0673Z" fill="#EE7D1B"/>
<path d="M89.7098 38.0956C89.449 37.7288 89.6824 37.3827 89.5039 37.1128C89.7991 37.362 89.7098 37.6803 89.7098 38.0956Z" fill="#EE7D1B"/>
<path d="M89.3467 36.0259C89.4497 36.192 89.4497 36.2889 89.3947 36.3996C89.3124 36.2889 89.3741 36.1781 89.3467 36.0259Z" fill="#EE7D1B"/>
<path d="M77.3054 9.54475C77.2299 9.54475 77.1406 9.53783 77.1406 9.42709C77.1406 9.35787 77.1955 9.3025 77.2642 9.32327C77.3328 9.34403 77.4221 9.3648 77.4358 9.45477C77.4495 9.55167 77.3672 9.53783 77.3054 9.54475Z" fill="#1D1D1D"/>
<path d="M75.2732 8.02229C75.1976 8.02229 75.1084 8.01537 75.1084 7.90463C75.1084 7.83541 75.1633 7.78004 75.232 7.80081C75.3006 7.82157 75.3967 7.84233 75.4036 7.93231C75.4173 8.02921 75.3349 8.01537 75.2732 8.02229Z" fill="#1D1D1D"/>
<path d="M66.3494 9.42708C66.6034 9.74547 66.5691 10.3615 66.5691 10.3615C66.4661 10.403 65.9993 10.2507 65.7385 9.92542C65.4776 9.60012 65.409 9.23329 65.5806 9.09486C65.7522 8.95643 66.0954 9.10178 66.3494 9.42016V9.42708Z" fill="white"/>
<path d="M67.6259 9.78685C67.4475 10.1398 67.0012 10.3959 66.8777 10.3336C66.7884 10.2852 66.7404 9.77301 66.9189 9.42694C67.0973 9.08087 67.3994 8.87323 67.5916 8.97013C67.7838 9.06703 67.7976 9.43386 67.6191 9.78685H67.6259Z" fill="white"/>
<path d="M11.2583 13.7184C9.85787 12.1681 8.68398 11.7597 7.1188 12.1819C5.25156 12.6872 4.366 13.1301 4.46897 15.1235C6.68631 12.7702 10.0775 13.4624 11.3407 16.5216C11.9654 18.0374 11.6633 19.3801 10.4551 20.4806C9.67938 21.1866 8.80068 21.7126 7.80528 22.0518C5.18291 22.9377 4.77789 22.6124 4.66118 19.9062C4.51016 16.3693 3.59713 12.9156 3.47357 9.3649C3.42551 7.86297 3.56967 7.10854 5.35453 7.12238C7.03642 7.13622 8.71144 6.62404 10.4002 6.4164C12.1988 6.19492 11.4917 4.5061 10.8876 4.46457C7.7435 4.25693 4.76416 5.12902 1.80541 6.00804C1.15325 6.20184 0.267686 6.67249 0.686442 7.5515C1.01595 8.25056 0.906117 8.86657 0.837468 9.49641C0.336335 13.9745 1.3386 18.4319 0.961035 22.9031C0.95417 23.0069 0.98163 23.1108 0.99536 23.2146C1.27682 24.8342 2.32714 25.4086 3.76875 24.675C4.10513 24.5089 4.3454 24.3774 4.75043 24.4743C7.82588 25.1595 10.8464 23.8929 12.3018 21.3596C13.8875 18.6049 13.5786 16.3624 11.2514 13.7184" fill="#664D47"/>
<path d="M32.1762 19.5322C30.659 19.8713 29.9039 19.193 29.4234 18.0718C28.8261 16.6736 28.3181 15.5039 28.1122 14.0089C27.8239 11.9879 29.8147 10.5621 31.7917 11.268C34.4896 12.237 34.6338 14.4657 34.5445 16.902C34.4622 18.1064 33.6864 19.193 32.1762 19.5322ZM36.0411 14.438C35.3203 11.0535 34.3592 7.77275 31.8878 5.18416C31.3249 4.59584 31.524 4.23593 32.0801 3.8068C33.1098 3.01777 34.1189 2.1872 35.1075 1.3428C35.382 1.10055 35.7116 0.7614 35.5056 0.346117C35.2997 -0.0760865 34.8329 -0.0414796 34.4828 0.0761838C32.4164 0.782164 30.4531 1.69579 28.9016 3.28078C28.0229 4.18056 28.0985 5.17724 29.1419 5.8763C30.5835 6.83837 31.2563 8.31262 32.1899 9.84224C31.2151 9.70382 30.4119 9.6346 29.6019 9.82148C27.9131 10.216 26.4372 11.5241 26.4989 12.7838C26.5882 14.528 26.7667 16.2653 27.4188 17.9126C27.9268 19.193 28.7781 20.1343 30.0687 20.6257C31.7162 21.2487 33.2059 20.8957 34.4896 19.7398C36.0617 18.314 36.4736 16.4868 36.0411 14.438Z" fill="#664D47"/>
<path d="M39.4041 37.9847C38.4705 38.3238 37.5437 38.1923 36.665 37.7078C35.855 37.2579 35.3127 36.6835 35.7246 35.6522C35.7589 35.5691 35.752 35.4722 35.7726 35.3822C35.958 34.5448 35.4637 33.1951 36.0403 32.9528C36.9396 32.5722 38.141 32.9113 38.752 32.9251C40.8251 33.3543 42.1432 34.4479 42.0128 35.5345C41.8343 37.0226 40.6123 37.5486 39.4041 37.9847ZM35.9992 30.3919C36.1227 28.9523 36.3012 27.5126 36.3699 26.0661C36.411 25.2424 36.7886 25.2493 37.4065 25.3947C39.2325 25.8169 40.2828 27.7272 39.8229 29.859C39.5826 30.9802 37.022 31.8731 36.1227 31.1394C35.8619 30.9249 35.9854 30.6411 36.006 30.3919M41.6421 32.5652C40.6878 31.9977 40.5025 31.5201 40.9418 30.7657C40.983 30.5788 40.9899 30.5373 41.0036 30.4957C42.0334 26.7374 39.4178 24.4672 35.8413 24.225C35.5186 24.2042 35.3745 24.4257 35.2783 24.7026C34.5301 26.9036 33.7544 34.5724 33.8917 36.1159C33.974 37.0226 33.1434 38.5522 35.2166 38.1439C35.2921 38.13 35.4019 38.3238 35.498 38.4138C37.5849 40.248 39.9396 40.158 42.0745 38.1646C43.9624 36.4066 43.8457 33.8665 41.6421 32.5583" fill="#664D47"/>
<path d="M45.7474 24.3566C48.9739 23.8305 46.0152 27.0697 46.2211 28.364C46.4202 29.6237 46.3859 30.918 46.8115 32.1569C47.4568 31.9216 47.5597 31.3056 47.8069 30.828C48.7886 28.9316 50.1066 27.2912 51.507 25.7062C51.9121 25.2494 52.4132 25.0002 53.0173 25.2425C53.6351 25.4917 53.7862 26.0661 53.7312 26.6544C53.388 30.392 53.6695 34.0811 54.3147 37.7633C54.4383 38.4485 54.6168 39.3275 53.7175 39.632C52.7496 39.9642 52.3583 39.1337 52.015 38.4485C51.2256 36.8912 51.1157 35.1677 51.0265 33.472C50.9372 31.8801 51.0677 30.2743 50.9098 28.6201C48.8915 30.8696 47.4911 33.3474 47.7451 36.5243C47.7726 36.8289 47.8275 37.1473 47.9236 37.438C48.205 38.2893 48.3629 39.196 47.2989 39.4798C46.1799 39.7774 45.9808 38.7253 45.7818 37.964C45.2326 35.8737 44.7726 33.7558 44.5118 31.5963C44.3195 30.0459 44.2578 28.5094 44.3745 26.959C44.45 25.9554 44.6971 25.0279 45.7543 24.3496" fill="#664D47"/>
<path d="M43.1729 11.9323C44.0585 12.0777 44.0035 13.4135 43.1042 13.4758C42.4795 13.5242 41.8686 13.4965 41.2713 13.5104C40.0974 13.5312 39.8366 13.9049 39.9945 14.9708C40.1455 15.9536 40.372 16.9434 40.118 17.9678C39.967 18.5907 40.5505 18.3554 40.7771 18.3554C41.6695 18.3346 42.5551 18.1962 43.4475 18.1685C44.5047 18.1339 45.555 18.2446 46.5023 18.7776C46.928 19.0198 47.7723 18.9714 47.7106 19.5251C47.635 20.2103 46.8387 20.2864 46.2071 20.3972C43.9349 20.8055 41.7175 20.5079 39.5139 19.9057C38.4362 19.615 38.2165 18.6807 38.1272 17.857C37.8046 15.0123 37.7565 12.1469 37.3035 9.30912C37.1593 8.41626 37.3241 7.68259 38.8412 7.64107C40.6123 7.59262 42.3422 6.63747 44.1958 6.51288C44.7312 6.47828 45.2529 6.4229 45.7197 6.72052C46.0767 6.94893 46.4062 7.22578 46.4131 7.7172C46.4337 8.54084 45.7953 8.4301 45.301 8.47163C44.388 8.54777 39.1158 8.08403 39.411 11.1018C39.5002 11.9946 39.9258 11.9116 40.5848 11.8354C41.4498 11.7385 42.3011 11.787 43.1729 11.9323Z" fill="#664D47"/>
<path d="M52.8731 14.8742C52.7495 14.7635 52.7015 14.4797 52.7426 14.2928C53.2095 12.0711 52.4475 10.8183 52.6053 8.75575C52.6671 7.95979 54.2117 7.48222 54.8364 7.79368C56.0927 8.40968 57.2872 12.2372 56.889 13.5315C56.6556 14.2928 53.4154 15.3933 52.8731 14.8742ZM58.5709 14.0644C58.9897 11.7804 57.7197 10.0293 56.6899 8.2228C56.1133 7.21228 54.9394 6.09794 53.6488 6.43709C52.3239 6.79008 51.2187 7.50298 51.102 8.75575C50.9715 10.1331 50.9097 16.2031 50.8274 16.8468C50.6283 18.3626 50.3743 19.8715 50.2027 21.3942C50.1203 22.1348 50.388 22.7646 51.2392 22.8269C52.015 22.8823 52.3239 22.3216 52.4269 21.6572C52.6191 20.3352 52.8113 19.0063 52.9349 17.6774C53.0172 16.7292 53.1545 16.0855 54.3971 16.127C55.3582 16.1547 56.3467 15.7671 57.3078 15.5041C58.008 15.3172 58.4267 14.812 58.5709 14.0714" fill="#664D47"/>
<path d="M24.8921 36.379C24.7205 36.2129 24.6656 35.7976 24.7136 35.5277C25.2697 32.4961 25.1324 29.4299 25.3795 26.3845C25.4756 25.2148 25.9493 25.111 26.8417 25.554C28.6197 26.4399 31.2284 32.42 30.638 34.3372C30.2947 35.4584 25.6541 37.1265 24.8921 36.379ZM32.5052 35.5207C33.2123 31.7694 31.2215 28.9247 29.6151 25.9762C28.7227 24.3358 27.4527 23.1246 25.407 23.706C23.2926 24.3081 22.8052 26.0039 22.6061 28.0595C22.3796 30.3159 21.5901 32.5445 21.5352 34.7871C21.5009 36.0745 19.4071 45.183 19.1119 47.6747C18.9678 48.8859 19.3865 49.9172 20.7389 50.0003C21.9608 50.0764 22.4757 49.1558 22.6404 48.0553C22.9631 45.882 23.2926 43.7087 23.5123 41.5216C23.6633 39.9712 23.883 38.9122 25.8532 38.9537C27.3841 38.9814 28.9492 38.3308 30.4801 37.8879C31.5922 37.5695 32.265 36.732 32.5121 35.5138" fill="#664D47"/>
<path d="M13.3042 28.4467C13.5857 29.0904 12.9953 30.2324 14.4301 30.2117C15.8374 30.1909 17.2447 30.2324 18.6588 30.3293C19.1737 30.3709 19.3041 31.063 18.8373 31.2845C17.7115 31.8105 16.5101 32.1012 15.295 32.2812C14.5811 32.3919 14.0594 33.091 14.1555 33.8039C14.3202 34.9528 14.334 36.1225 14.4095 37.2853C14.4575 38.1367 15.5284 37.6937 16.4003 37.6245C17.0662 37.5829 19.0089 37.2922 19.6679 37.1884C20.2171 37.0984 20.4574 37.8529 19.97 38.1159C18.9471 38.6627 15.906 40.0262 14.6909 40.1092C13.723 40.1854 13.1395 39.8047 13.0159 38.5865C12.707 35.5757 11.5812 32.7034 11.3272 29.6787C11.2585 28.8966 11.1555 28.1214 11.1349 27.3324C11.1006 26.398 10.8398 25.5259 12.048 25.602C12.2402 25.602 12.4873 25.6505 12.7825 25.7197C14.1417 26.0381 15.8511 25.1452 17.4643 25.0207C17.9311 24.986 18.3911 24.993 18.8373 25.0414C19.2835 25.0899 19.3934 25.6851 18.9952 25.8858C17.787 26.4949 15.7481 27.3393 14.4507 27.4777C14.2516 27.4985 14.0456 27.5123 13.8397 27.5193C13.1944 27.5331 13.0571 27.9276 13.3042 28.4675V28.4467Z" fill="#664D47"/>
<path d="M9.19925 39.7285C9.83768 39.7285 10.023 40.6006 9.43266 40.8498C8.65693 41.1751 7.77823 41.2512 6.85834 41.189C3.78976 40.9744 0.824148 38.6211 0.171989 35.9079C-0.528225 33.0217 1.05069 29.3672 3.67306 27.803C4.74397 27.1662 5.89726 26.8479 7.14667 26.9378C7.80569 26.9863 8.34801 27.1524 8.7599 27.4362C9.6386 28.0383 8.71185 29.4019 7.80569 28.8343C7.21531 28.4605 6.50137 28.3429 5.56775 28.6682C3.57695 29.3603 2.01863 31.3952 1.8882 33.5339C1.75777 35.7834 2.85614 37.6798 4.8744 38.635C6.26797 39.2925 7.68899 39.7355 9.19239 39.7216L9.19925 39.7285Z" fill="#664D47"/>
<path d="M68.1202 35.9289C68.5664 35.6105 69.1499 36.0881 68.9508 36.6003C68.7517 37.1125 68.484 37.5831 67.976 37.9707C65.6145 39.7703 61.9898 39.9433 59.8206 38.3929C57.5071 36.7387 56.3675 33.0842 57.2943 30.288C57.6719 29.139 58.3172 28.1839 59.2782 27.4502C59.7862 27.0626 60.2874 26.8411 60.761 26.7858C61.777 26.6612 61.9555 28.2462 60.9464 28.4054C60.2874 28.5092 59.6901 28.876 59.2165 29.7066C58.2005 31.4785 58.3446 33.9425 59.5872 35.5759C60.8983 37.2924 62.8823 37.9707 64.9486 37.3824C66.1019 37.0502 67.1797 36.6072 68.127 35.9358L68.1202 35.9289Z" fill="#664D47"/>
<path d="M22.8531 16.8189C22.1529 18.7707 20.725 20.0443 19.2491 19.8574C17.2857 19.6152 16.661 18.0855 16.2766 16.4313C16.1256 15.7669 16.1393 15.0609 16.1118 14.701C16.1667 12.8599 16.2903 11.4687 18.2331 11.178C20.1621 10.8942 22.2696 11.8701 22.9149 13.5036C23.3542 14.6179 23.2581 15.7115 22.86 16.8189M25.1391 14.0642C24.7753 11.0465 22.5099 8.79012 19.9424 8.7832C16.8395 8.7832 12.2263 10.0775 14.5192 16.8051C15.6931 20.2381 17.2033 22.0238 19.6266 21.9615C22.098 21.8992 24.5418 19.4906 25.0636 16.5075C25.2009 15.7115 25.2283 14.8602 25.1322 14.0642" fill="#664D47"/>
<path d="M46.5372 2.17334C46.7637 2.22179 47.2168 2.20795 47.3541 2.60246C47.5188 3.07312 47.1825 3.47456 46.7912 3.5853C46.2077 3.74449 45.9536 4.24283 45.5486 4.57506C45.0887 4.94881 44.6081 4.93497 44.1894 4.57506C43.75 4.2013 43.9628 3.71681 44.1894 3.32921C44.6905 2.51249 45.4731 2.18718 46.5303 2.18026" fill="#664D47"/>
<path d="M42.3287 4.29818C42.212 5.018 41.8207 5.56479 41.1137 5.45405C40.434 5.34331 40.0908 4.72038 40.1938 4.0144C40.2762 3.43993 40.688 3.0108 41.2578 3.04541C41.9718 3.08002 42.3699 3.55759 42.3356 4.3051" fill="#664D47"/>
</g>
<defs>
<clipPath id="clip0_5789_15356">
<rect width="106" height="50" fill="white"/>
</clipPath>
</defs>
</svg>
