<svg width="109" height="74" viewBox="0 0 109 74" fill="none" xmlns="http://www.w3.org/2000/svg">
<g opacity="0.5">
<path d="M106.635 32.2443C103.442 29.0631 98.3034 29.0631 95.111 32.2443L67.625 60.0114C67.1967 60.4434 66.8853 60.9932 66.8074 61.5824L65.289 70.5762C64.9776 72.5792 66.6517 74.3073 68.6372 73.9538L77.5526 72.4221C78.1366 72.3436 78.6817 72.0686 79.1099 71.6366L106.635 43.8696C109.788 40.6883 109.788 35.4648 106.635 32.2443Z" fill="url(#paint0_radial_6483_6318)"/>
<path d="M92.3468 0H9.42156C4.20466 0 0 4.24164 0 9.46514V52.7456C0 57.9691 4.20466 62.2107 9.42156 62.2107H59.5933L59.9008 60.3923C60.1422 58.5425 61.1467 56.5395 62.6923 54.9921L82.0726 35.402L83.1316 34.3337L87.0248 30.3984L87.0287 30.4024L90.1588 27.2447C93.0554 24.3619 96.8474 22.787 100.877 22.787C101.169 22.787 101.445 22.8538 101.733 22.8695V9.46514C101.729 4.24164 97.5248 0 92.3468 0ZM40.8787 39.6908C40.8787 41.7841 39.1968 43.4808 37.1217 43.4808H19.2208C17.1457 43.4808 15.4638 41.7841 15.4638 39.6908V28.6625C15.4638 27.4096 16.0789 26.2353 17.1067 25.5284L26.0572 19.3741C27.3342 18.4943 29.0122 18.4943 30.2891 19.3741L39.2396 25.5284C40.2674 26.2353 40.8825 27.4057 40.8825 28.6625V39.6908H40.8787ZM63.2256 41.7841H54.1934C52.2585 41.7841 50.6895 40.2013 50.6895 38.2494C50.6895 36.2975 52.2585 34.7147 54.1934 34.7147H63.2256C65.1606 34.7147 66.7295 36.2975 66.7295 38.2494C66.7295 40.2013 65.1606 41.7841 63.2256 41.7841ZM77.4203 27.5039H54.2012C52.2663 27.5039 50.6973 25.9211 50.6973 23.9692C50.6973 22.0173 52.2663 20.4345 54.2012 20.4345H77.4203C79.3552 20.4345 80.9242 22.0173 80.9242 23.9692C80.9242 25.9211 79.3552 27.5039 77.4203 27.5039Z" fill="url(#paint1_radial_6483_6318)"/>
</g>
<defs>
<radialGradient id="paint0_radial_6483_6318" cx="0" cy="0" r="1" gradientUnits="userSpaceOnUse" gradientTransform="translate(54.5 92.9022) rotate(-90) scale(74 127.883)">
<stop stop-color="#FF8C53" stop-opacity="0"/>
<stop offset="1" stop-color="#FFB966"/>
</radialGradient>
<radialGradient id="paint1_radial_6483_6318" cx="0" cy="0" r="1" gradientUnits="userSpaceOnUse" gradientTransform="translate(54.5 92.9022) rotate(-90) scale(74 127.883)">
<stop stop-color="#FF8C53" stop-opacity="0"/>
<stop offset="1" stop-color="#FFB966"/>
</radialGradient>
</defs>
</svg>
