<svg width="131" height="90" viewBox="0 0 131 90" fill="none" xmlns="http://www.w3.org/2000/svg">
<g opacity="0.5">
<path d="M80.8683 27.4937L75.7372 32.625C71.3405 37.0217 65.3777 39.4916 59.16 39.4916C52.8978 39.4916 47.01 37.0527 42.582 32.6245L41.2564 31.2985C39.7323 29.7739 39.7323 27.3022 41.2569 25.7778L58.9057 8.12908C53.4866 4.74819 46.5469 4.63211 40.9171 8.11707C37.6544 10.1372 33.4688 9.62406 30.739 6.86934L25.0512 1.12977C23.5634 -0.371849 21.1381 -0.377217 19.6433 1.1175L1.11747 19.643C-0.372661 21.1331 -0.372406 23.5488 1.11773 25.0389L63.9029 87.8182C66.6903 90.1462 70.2229 90.6458 73.3756 89.1503C75.8828 87.9616 78.5292 85.1959 78.4473 80.9953C78.4353 80.3801 78.5553 79.7624 78.824 79.2088C79.557 77.6982 81.1011 76.8727 82.6685 77C85.0882 77.1984 87.5386 76.2708 89.3943 74.4559C91.2056 72.6848 92.1633 70.3011 92.0215 67.9161C91.8946 65.7806 93.5889 63.9372 95.7225 63.7848C98.8067 63.5646 101.322 62.0991 103.199 59.4279C104.589 57.4508 105.512 54.9144 105.786 52.4118L80.8683 27.4937Z" fill="url(#paint0_radial_6483_6324)"/>
<path d="M129.883 20.0605L111.331 1.5087C109.841 0.0188346 107.425 0.0188346 105.935 1.5087L99.2588 8.18559C96.3719 11.0725 91.902 11.4312 88.6301 9.03829C82.1729 4.31583 73.0466 5.01896 67.4018 10.6739L49.6292 28.4466C52.3493 30.5463 55.6668 31.6836 59.1598 31.6836C63.3364 31.6836 67.2634 30.0572 70.2168 27.1035L78.1083 19.2122C78.8705 18.45 79.8697 18.0687 80.8688 18.0687C81.8679 18.0687 82.8671 18.45 83.6293 19.2122L109.798 45.3818L129.883 25.4562C131.372 23.9661 131.372 21.5504 129.883 20.0605Z" fill="url(#paint1_radial_6483_6324)"/>
</g>
<defs>
<radialGradient id="paint0_radial_6483_6324" cx="0" cy="0" r="1" gradientUnits="userSpaceOnUse" gradientTransform="translate(65.5 112.989) rotate(-90) scale(90 153.695)">
<stop stop-color="#FF8C53" stop-opacity="0"/>
<stop offset="1" stop-color="#EBAE8F"/>
</radialGradient>
<radialGradient id="paint1_radial_6483_6324" cx="0" cy="0" r="1" gradientUnits="userSpaceOnUse" gradientTransform="translate(65.5 112.989) rotate(-90) scale(90 153.695)">
<stop stop-color="#FF8C53" stop-opacity="0"/>
<stop offset="1" stop-color="#EBAE8F"/>
</radialGradient>
</defs>
</svg>
