<svg width="82" height="80" viewBox="0 0 82 80" fill="none" xmlns="http://www.w3.org/2000/svg">
<g opacity="0.5">
<path d="M38.0272 59.6364H43.8776C45.9837 59.6364 47.9684 60.1382 49.7279 61.0225V44.2007C55.1161 41.1098 58.5034 35.3716 58.5034 29.0909C58.5034 22.1527 54.3701 15.8764 47.9728 13.1011C47.0689 12.7098 46.0261 12.7971 45.1997 13.3338C44.3748 13.8705 43.8776 14.7855 43.8776 15.7673V26.1818C43.8776 27.7862 42.5656 29.0909 40.9524 29.0909C39.3391 29.0909 38.0272 27.7862 38.0272 26.1818V15.7673C38.0272 14.7855 37.5299 13.8705 36.705 13.3338C35.8787 12.7971 34.8373 12.7098 33.932 13.1011C27.5346 15.8764 23.4014 22.1527 23.4014 29.0909C23.4014 35.3716 26.7887 41.1098 32.1769 44.2007V61.0225C33.9364 60.1382 35.9211 59.6364 38.0272 59.6364Z" fill="url(#paint0_radial_6483_6311)"/>
<path d="M73.1293 26.1818H70.0564C68.5835 11.5025 56.0945 0 40.9524 0C25.8102 0 13.3212 11.5025 11.8484 26.1818H8.77551C3.93582 26.1818 0 30.096 0 34.9091V40.7273C0 45.5404 3.93582 49.4545 8.77551 49.4545H14.6259C16.2405 49.4545 17.551 48.1513 17.551 46.5455V29.0909C17.551 16.2589 28.0495 5.81818 40.9524 5.81818C53.8553 5.81818 64.3537 16.2589 64.3537 29.0909V55.2727C64.3537 63.0182 58.2314 69.3498 50.5484 69.7775C49.4061 67.2364 46.8525 65.4545 43.8776 65.4545H38.0272C33.9949 65.4545 30.7143 68.7171 30.7143 72.7273C30.7143 76.7375 33.9949 80 38.0272 80H43.8776C46.8861 80 49.4734 78.1804 50.5937 75.5927C61.4812 75.136 70.2041 66.2109 70.2041 55.2727V49.4545H73.1293C77.9689 49.4545 81.9048 45.5404 81.9048 40.7273V34.9091C81.9048 30.096 77.9689 26.1818 73.1293 26.1818Z" fill="url(#paint1_radial_6483_6311)"/>
</g>
<defs>
<radialGradient id="paint0_radial_6483_6311" cx="0" cy="0" r="1" gradientUnits="userSpaceOnUse" gradientTransform="translate(40.9524 100.435) rotate(-90) scale(80 96.094)">
<stop stop-color="#FF8C53" stop-opacity="0"/>
<stop offset="1" stop-color="#FFB966"/>
</radialGradient>
<radialGradient id="paint1_radial_6483_6311" cx="0" cy="0" r="1" gradientUnits="userSpaceOnUse" gradientTransform="translate(40.9524 100.435) rotate(-90) scale(80 96.094)">
<stop stop-color="#FF8C53" stop-opacity="0"/>
<stop offset="1" stop-color="#FFB966"/>
</radialGradient>
</defs>
</svg>
