<svg width="68" height="80" viewBox="0 0 68 80" fill="none" xmlns="http://www.w3.org/2000/svg">
<g opacity="0.5">
<path d="M15.368 58.4615H0.213615C0.765521 62.7994 2.45981 66.9124 5.12279 70.3787C7.78577 73.8451 11.3217 76.5402 15.368 78.1877V58.4615Z" fill="url(#paint0_radial_6483_6298)"/>
<path d="M58.3983 0H9.22078C6.7761 0.00268763 4.43232 0.976075 2.70367 2.7066C0.975019 4.43712 0.00268472 6.78344 0 9.23077V52.3077H15.368C16.9977 52.3096 18.5602 52.9585 19.7126 54.1122C20.865 55.2658 21.5133 56.83 21.5152 58.4615V79.7862C22.5342 79.9216 23.5608 79.993 24.5887 80H58.3983C60.8429 79.9973 63.1867 79.0239 64.9154 77.2934C66.644 75.5629 67.6164 73.2166 67.619 70.7692V9.23077C67.6164 6.78344 66.644 4.43712 64.9154 2.7066C63.1867 0.976075 60.8429 0.00268763 58.3983 0ZM36.8831 67.6923C36.2752 67.6923 35.681 67.5119 35.1755 67.1738C34.6701 66.8357 34.2761 66.3551 34.0435 65.7929C33.8109 65.2306 33.75 64.612 33.8686 64.0151C33.9872 63.4182 34.2799 62.87 34.7098 62.4397C35.1396 62.0094 35.6873 61.7163 36.2835 61.5976C36.8797 61.4789 37.4977 61.5398 38.0593 61.7727C38.621 62.0056 39.101 62.3999 39.4387 62.9059C39.7765 63.4119 39.9567 64.0068 39.9567 64.6154C39.9567 65.4314 39.6329 66.2141 39.0565 66.7911C38.4801 67.3681 37.6983 67.6923 36.8831 67.6923ZM49.1775 67.6923C48.5696 67.6923 47.9753 67.5119 47.4699 67.1738C46.9644 66.8357 46.5705 66.3551 46.3379 65.7929C46.1052 65.2306 46.0444 64.612 46.163 64.0151C46.2816 63.4182 46.5743 62.87 47.0041 62.4397C47.434 62.0094 47.9816 61.7163 48.5779 61.5976C49.1741 61.4789 49.7921 61.5398 50.3537 61.7727C50.9153 62.0056 51.3954 62.3999 51.7331 62.9059C52.0708 63.4119 52.2511 64.0068 52.2511 64.6154C52.2511 65.4314 51.9273 66.2141 51.3509 66.7911C50.7744 67.3681 49.9927 67.6923 49.1775 67.6923ZM49.1775 33.8462H18.4416C17.6264 33.8462 16.8446 33.522 16.2682 32.9449C15.6918 32.3679 15.368 31.5853 15.368 30.7692C15.368 29.9532 15.6918 29.1706 16.2682 28.5935C16.8446 28.0165 17.6264 27.6923 18.4416 27.6923H49.1775C49.9927 27.6923 50.7744 28.0165 51.3509 28.5935C51.9273 29.1706 52.2511 29.9532 52.2511 30.7692C52.2511 31.5853 51.9273 32.3679 51.3509 32.9449C50.7744 33.522 49.9927 33.8462 49.1775 33.8462ZM49.1775 21.5385H18.4416C17.6264 21.5385 16.8446 21.2143 16.2682 20.6373C15.6918 20.0602 15.368 19.2776 15.368 18.4615C15.368 17.6455 15.6918 16.8629 16.2682 16.2858C16.8446 15.7088 17.6264 15.3846 18.4416 15.3846H49.1775C49.9927 15.3846 50.7744 15.7088 51.3509 16.2858C51.9273 16.8629 52.2511 17.6455 52.2511 18.4615C52.2511 19.2776 51.9273 20.0602 51.3509 20.6373C50.7744 21.2143 49.9927 21.5385 49.1775 21.5385Z" fill="url(#paint1_radial_6483_6298)"/>
</g>
<defs>
<radialGradient id="paint0_radial_6483_6298" cx="0" cy="0" r="1" gradientUnits="userSpaceOnUse" gradientTransform="translate(33.8095 100.435) rotate(-90) scale(80 79.3335)">
<stop stop-color="#FF8C53" stop-opacity="0"/>
<stop offset="1" stop-color="#EBAE8F"/>
</radialGradient>
<radialGradient id="paint1_radial_6483_6298" cx="0" cy="0" r="1" gradientUnits="userSpaceOnUse" gradientTransform="translate(33.8095 100.435) rotate(-90) scale(80 79.3335)">
<stop stop-color="#FF8C53" stop-opacity="0"/>
<stop offset="1" stop-color="#EBAE8F"/>
</radialGradient>
</defs>
</svg>
