<svg width="342" height="301" viewBox="0 0 342 301" fill="none" xmlns="http://www.w3.org/2000/svg">
<path d="M13.204 148C9.236 148 6.26 147.69 4.276 147.07C3.036 146.698 2.168 146.016 1.672 145.024C1.3 144.032 1.114 142.668 1.114 140.932C0.99 138.328 0.928 134.67 0.928 129.958C0.928 126.238 1.052 121.154 1.3 114.706L1.486 99.826C1.61 97.098 1.672 93.068 1.672 87.736C1.672 83.768 1.61 80.792 1.486 78.808L1.114 55.744C1.114 43.84 0.99 34.912 0.742 28.96C0.618001 25.612 0.556001 20.652 0.556001 14.08C0.556001 11.724 0.928001 10.174 1.672 9.42999C2.54 8.68599 4.214 8.25199 6.694 8.12799L13.204 7.942C18.412 7.56999 23.496 7.38399 28.456 7.38399C30.316 7.38399 32.052 8.00399 33.664 9.24399C34.532 9.988 34.966 10.98 34.966 12.22C34.966 13.584 34.284 14.638 32.92 15.382C30.688 16.498 28.518 17.056 26.41 17.056C18.35 17.056 13.576 17.304 12.088 17.8C10.724 18.296 10.042 19.536 10.042 21.52C10.042 23.38 10.042 24.868 10.042 25.984L10.228 33.796C10.476 40.74 10.6 45.948 10.6 49.42C10.6 53.76 10.538 57.046 10.414 59.278C10.29 60.022 10.228 60.704 10.228 61.324C10.352 61.944 10.414 62.502 10.414 62.998C10.538 63.866 10.6 65.478 10.6 67.834C17.172 67.462 22.38 68.826 26.224 71.926C29.944 75.026 33.168 80.172 35.896 87.364C38.624 94.556 39.988 102.058 39.988 109.87C39.988 112.226 39.926 113.962 39.802 115.078C38.934 122.394 36.702 128.842 33.106 134.422C30.254 138.514 27.154 141.552 23.806 143.536C23.186 143.908 22.194 144.528 20.83 145.396C19.466 146.14 18.164 146.76 16.924 147.256C15.684 147.752 14.444 148 13.204 148ZM12.088 137.026C16.18 136.406 19.652 134.67 22.504 131.818C25.48 128.966 27.402 125.308 28.27 120.844C29.386 116.876 29.944 112.412 29.944 107.452C29.944 101.872 29.262 96.354 27.898 90.898C27.402 88.914 26.596 86.992 25.48 85.132C24.364 83.272 23.186 81.536 21.946 79.924C20.83 78.312 20.024 77.134 19.528 76.39C18.164 75.894 16.8 75.646 15.436 75.646L10.786 75.832C11.034 83.52 11.282 95.176 11.53 110.8L12.088 137.026ZM77.6021 151.534C74.3781 151.534 71.4021 150.48 68.6741 148.372C65.9461 146.388 63.7141 143.66 61.9781 140.188C58.3821 132.624 56.1501 124.378 55.2821 115.45C54.1661 107.018 53.6081 98.896 53.6081 91.084C53.6081 89.596 53.6701 88.356 53.7941 87.364V84.016C53.7941 83.396 53.7321 83.086 53.6081 83.086V79.738L53.7941 66.718C53.9181 62.75 54.4141 56.426 55.2821 47.746C55.9021 41.794 57.3281 36.028 59.5601 30.448C60.4281 27.968 61.5441 26.108 62.9081 24.868C64.2721 23.504 65.8221 22.822 67.5581 22.822C72.5181 22.822 76.9821 23.752 80.9501 25.612C84.9181 27.348 88.2661 29.828 90.9941 33.052C93.4741 36.152 95.5821 39.996 97.3181 44.584C99.0541 49.048 100.294 53.822 101.038 58.906C101.782 64.114 102.154 69.632 102.154 75.46V76.948C102.154 80.792 102.216 84.264 102.34 87.364L102.526 97.966C102.526 133.678 94.2181 151.534 77.6021 151.534ZM76.8581 143.722C79.0901 143.722 81.1361 142.854 82.9961 141.118C84.8561 139.258 86.2821 136.778 87.2741 133.678C89.6301 127.354 91.0561 120.534 91.5521 113.218C92.1721 106.894 92.4821 101.438 92.4821 96.85C92.4821 91.27 92.0481 83.954 91.1801 74.902C90.4361 65.354 90.0641 58.224 90.0641 53.512V50.164C89.8161 45.452 88.2041 41.36 85.2281 37.888C82.3761 34.416 78.8421 32.68 74.6261 32.68C70.4101 32.68 67.6201 35.098 66.2561 39.934C65.0161 43.778 64.3961 48.738 64.3961 54.814C64.3961 57.17 64.4581 59.154 64.5821 60.766V65.788L64.2101 74.344C63.9621 76.948 63.8381 79.8 63.8381 82.9C63.8381 89.596 64.0241 96.23 64.3961 102.802C64.8921 112.102 66.1321 121.154 68.1161 129.958C70.1001 139.134 73.0141 143.722 76.8581 143.722ZM130.12 148C126.152 148.248 124.292 146.264 124.54 142.048L124.726 129.214C124.85 126.486 124.912 122.27 124.912 116.566V102.802C124.912 96.726 124.85 92.138 124.726 89.038C124.602 85.07 124.54 79.18 124.54 71.368V53.884V49.234C124.54 45.886 124.416 43.096 124.168 40.864C124.044 38.632 123.61 36.276 122.866 33.796C122.618 32.804 122.494 32.06 122.494 31.564C122.494 29.456 123.238 27.596 124.726 25.984C126.338 24.372 128.322 23.504 130.678 23.38C134.026 23.256 137.25 23.07 140.35 22.822C143.574 22.574 146.674 22.14 149.65 21.52C150.766 21.024 152.006 21.334 153.37 22.45C154.734 23.442 155.54 24.558 155.788 25.798C156.036 26.79 155.788 27.782 155.044 28.774C154.3 29.642 153.308 30.262 152.068 30.634C149.464 31.378 143.822 32.246 135.142 33.238L133.468 79.18C139.172 79.8 143.574 81.412 146.674 84.016C149.774 86.62 151.882 91.146 152.998 97.594C154.362 102.678 155.044 108.134 155.044 113.962C155.044 117.682 154.672 121.526 153.928 125.494C152.192 133.554 148.038 139.506 141.466 143.35C140.722 143.846 139.606 144.528 138.118 145.396C136.754 146.264 135.39 146.946 134.026 147.442C132.786 147.814 131.484 148 130.12 148ZM133.84 137.956C136.32 137.212 138.552 135.724 140.536 133.492C142.52 131.26 143.822 128.842 144.442 126.238C145.558 121.402 146.116 116.69 146.116 112.102C146.116 107.266 145.558 102.554 144.442 97.966C143.698 94.99 142.52 92.696 140.908 91.084C139.42 89.348 137.064 88.418 133.84 88.294V137.956ZM181.918 150.418C180.306 150.418 178.818 149.86 177.454 148.744C176.214 147.628 175.532 146.264 175.408 144.652V139.816V136.096C175.284 134.98 175.222 133.678 175.222 132.19C175.222 129.586 175.036 125.618 174.664 120.286L174.292 108.382C174.292 102.306 174.478 93.254 174.85 81.226C175.346 70.438 175.594 61.386 175.594 54.07C175.594 52.334 175.408 49.73 175.036 46.258C174.664 42.662 174.478 40.058 174.478 38.446C174.478 29.642 177.082 25.24 182.29 25.24C186.382 25.24 191.094 26.046 196.426 27.658C201.882 29.27 204.61 31.192 204.61 33.424C204.61 34.664 204.052 35.842 202.936 36.958C201.944 37.95 200.704 38.756 199.216 39.376C194.008 37.516 189.296 36.276 185.08 35.656C185.204 37.516 185.266 40.182 185.266 43.654C185.266 48.614 185.204 53.078 185.08 57.046C184.708 62.998 184.522 67.462 184.522 70.438L185.08 73.414L188.056 73.228C189.048 73.104 190.288 73.042 191.776 73.042C197.728 73.042 200.704 74.778 200.704 78.25C200.704 79.614 200.146 80.792 199.03 81.784C197.914 82.652 196.488 83.086 194.752 83.086C192.52 83.086 190.784 82.962 189.544 82.714H184.894C185.142 85.938 185.266 90.65 185.266 96.85C185.266 103.05 185.204 108.63 185.08 113.59C184.708 121.154 184.522 126.796 184.522 130.516C184.522 137.46 184.646 140.932 184.894 140.932L191.032 140.746C193.14 140.622 195.682 140.56 198.658 140.56C203.37 140.56 205.726 142.048 205.726 145.024C205.726 146.76 204.92 148.062 203.308 148.93C201.82 149.922 199.96 150.418 197.728 150.418H181.918ZM172.99 14.452C171.378 14.452 169.89 13.77 168.526 12.406C167.286 11.042 166.666 9.492 166.666 7.756C166.666 5.89599 167.348 4.28399 168.712 2.91999C170.2 1.43199 171.874 0.68799 173.734 0.68799C175.47 0.68799 176.958 1.43199 178.198 2.91999C179.562 4.28399 180.244 5.83399 180.244 7.56999C180.244 9.55399 179.562 11.228 178.198 12.592C176.834 13.832 175.098 14.452 172.99 14.452ZM202.936 15.382C201.324 15.382 199.836 14.7 198.472 13.336C197.232 11.972 196.612 10.422 196.612 8.686C196.612 6.82599 197.294 5.21399 198.658 3.84999C200.146 2.36199 201.82 1.61799 203.68 1.61799C205.416 1.61799 206.966 2.36199 208.33 3.84999C209.694 5.21399 210.376 6.76399 210.376 8.49999C210.376 10.484 209.632 12.158 208.144 13.522C206.78 14.762 205.044 15.382 202.936 15.382ZM230.311 149.302C228.699 142.73 227.893 133.616 227.893 121.96L228.265 105.406C228.513 100.446 228.637 94.928 228.637 88.852C227.893 87.116 227.521 85.566 227.521 84.202V83.644C228.761 81.288 229.381 75.956 229.381 67.648L229.567 59.092C229.691 56.364 229.753 53.326 229.753 49.978C229.753 42.662 229.257 36.896 228.265 32.68C228.637 30.944 229.257 29.456 230.125 28.216C230.993 26.852 232.047 26.17 233.287 26.17H241.471C244.943 26.17 247.981 26.976 250.585 28.588C253.189 30.076 255.173 32.246 256.537 35.098C259.017 40.182 260.257 46.196 260.257 53.14C260.257 58.1 260.195 62.006 260.071 64.858C259.823 68.454 259.203 71.74 258.211 74.716C257.839 76.328 257.281 77.692 256.537 78.808C255.917 79.8 254.987 81.04 253.747 82.528C252.011 84.636 249.159 86.62 245.191 88.48C243.579 89.348 241.471 90.154 238.867 90.898V110.8L239.239 122.704L239.611 128.47C240.107 135.414 240.355 141.304 240.355 146.14C240.355 147.628 239.735 148.868 238.495 149.86C237.255 150.976 235.829 151.534 234.217 151.534L230.311 149.302ZM239.053 83.272C246.369 82.156 250.027 71.678 250.027 51.838C250.027 48.242 249.841 45.452 249.469 43.468C249.097 41.98 248.601 40.802 247.981 39.934C247.361 38.942 246.431 38.136 245.191 37.516C243.827 36.772 242.339 36.4 240.727 36.4C240.727 36.276 240.045 36.214 238.681 36.214V46.816C238.681 54.132 238.743 60.642 238.867 66.346C238.867 72.794 238.929 77.01 239.053 78.994V82.9V83.272ZM28.828 299.976C25.356 299.976 22.132 299.17 19.156 297.558C16.304 295.946 13.824 293.776 11.716 291.048C9.856 288.444 8.182 285.158 6.694 281.19C5.206 277.098 4.09 272.882 3.346 268.542C1.858 261.226 0.866 251.616 0.37 239.712C0.246001 236.86 0.184001 231.962 0.184001 225.018V213.3C0.308 209.952 0.37 206.48 0.37 202.884C0.37 195.568 0.804 189.802 1.672 185.586C1.3 183.726 1.114 181.804 1.114 179.82C1.114 172.38 3.904 166.366 9.484 161.778C15.064 157.19 22.132 154.896 30.688 154.896C33.912 154.896 36.888 155.764 39.616 157.5C42.344 159.236 43.708 161.406 43.708 164.01C43.708 165.25 43.212 166.242 42.22 166.986C41.228 167.73 39.988 168.102 38.5 168.102C37.26 168.102 35.896 167.916 34.408 167.544C33.044 167.172 32.176 166.614 31.804 165.87H29.386V165.498C24.798 165.498 20.954 166.49 17.854 168.474C15.622 170.086 13.886 172.752 12.646 176.472C12.15 177.836 11.778 179.572 11.53 181.68C11.282 183.788 11.158 185.71 11.158 187.446C11.034 188.438 10.972 190.422 10.972 193.398L11.344 199.908L11.53 206.232C11.53 208.092 11.282 210.262 10.786 212.742C10.166 215.842 9.856 218.012 9.856 219.252V223.716C9.856 228.552 10.042 235.186 10.414 243.618C10.538 250.686 11.344 257.754 12.832 264.822C13.948 271.394 16.056 276.974 19.156 281.562C22.132 286.274 26.162 288.63 31.246 288.63C33.354 288.63 35.958 287.514 39.058 285.282C42.406 283.05 44.762 281.934 46.126 281.934C47.862 281.934 49.66 282.864 51.52 284.724C51.52 289.312 49.784 292.846 46.312 295.326C43.088 297.558 39.244 298.984 34.78 299.604C32.3 299.852 30.316 299.976 28.828 299.976ZM74.568 299.418C72.956 299.418 71.468 298.86 70.104 297.744C68.864 296.628 68.182 295.264 68.058 293.652V288.816V285.096C67.934 283.98 67.872 282.678 67.872 281.19C67.872 278.586 67.686 274.618 67.314 269.286L66.942 257.382C66.942 251.306 67.128 242.254 67.5 230.226C67.996 219.438 68.244 210.386 68.244 203.07C68.244 201.334 68.058 198.73 67.686 195.258C67.314 191.662 67.128 189.058 67.128 187.446C67.128 178.642 69.732 174.24 74.94 174.24C79.032 174.24 83.744 175.046 89.076 176.658C94.532 178.27 97.26 180.192 97.26 182.424C97.26 183.664 96.702 184.842 95.586 185.958C94.594 186.95 93.354 187.756 91.866 188.376C86.658 186.516 81.946 185.276 77.73 184.656C77.854 186.516 77.916 189.182 77.916 192.654C77.916 197.614 77.854 202.078 77.73 206.046C77.358 211.998 77.172 216.462 77.172 219.438L77.73 222.414L80.706 222.228C81.698 222.104 82.938 222.042 84.426 222.042C90.378 222.042 93.354 223.778 93.354 227.25C93.354 228.614 92.796 229.792 91.68 230.784C90.564 231.652 89.138 232.086 87.402 232.086C85.17 232.086 83.434 231.962 82.194 231.714H77.544C77.792 234.938 77.916 239.65 77.916 245.85C77.916 252.05 77.854 257.63 77.73 262.59C77.358 270.154 77.172 275.796 77.172 279.516C77.172 286.46 77.296 289.932 77.544 289.932L83.682 289.746C85.79 289.622 88.332 289.56 91.308 289.56C96.02 289.56 98.376 291.048 98.376 294.024C98.376 295.76 97.57 297.062 95.958 297.93C94.47 298.922 92.61 299.418 90.378 299.418H74.568ZM122.961 298.302C121.349 291.73 120.543 282.616 120.543 270.96L120.915 254.406C121.163 249.446 121.287 243.928 121.287 237.852C120.543 236.116 120.171 234.566 120.171 233.202V232.644C121.411 230.288 122.031 224.956 122.031 216.648L122.217 208.092C122.341 205.364 122.403 202.326 122.403 198.978C122.403 191.662 121.907 185.896 120.915 181.68C121.287 179.944 121.907 178.456 122.775 177.216C123.643 175.852 124.697 175.17 125.937 175.17H134.121C137.593 175.17 140.631 175.976 143.235 177.588C145.839 179.076 147.823 181.246 149.187 184.098C151.667 189.182 152.907 195.196 152.907 202.14C152.907 207.1 152.845 211.006 152.721 213.858C152.473 217.454 151.853 220.74 150.861 223.716C150.489 225.328 149.931 226.692 149.187 227.808C148.567 228.8 147.637 230.04 146.397 231.528C144.661 233.636 141.809 235.62 137.841 237.48C136.229 238.348 134.121 239.154 131.517 239.898V259.8L131.889 271.704L132.261 277.47C132.757 284.414 133.005 290.304 133.005 295.14C133.005 296.628 132.385 297.868 131.145 298.86C129.905 299.976 128.479 300.534 126.867 300.534L122.961 298.302ZM131.703 232.272C139.019 231.156 142.677 220.678 142.677 200.838C142.677 197.242 142.491 194.452 142.119 192.468C141.747 190.98 141.251 189.802 140.631 188.934C140.011 187.942 139.081 187.136 137.841 186.516C136.477 185.772 134.989 185.4 133.377 185.4C133.377 185.276 132.695 185.214 131.331 185.214V195.816C131.331 203.132 131.393 209.642 131.517 215.346C131.517 221.794 131.579 226.01 131.703 227.994V231.9V232.272ZM176.576 298.86C173.848 298.86 172.174 297.682 171.554 295.326C171.058 293.838 170.81 291.73 170.81 289.002C170.81 283.67 171.058 277.098 171.554 269.286C172.174 261.846 172.484 255.212 172.484 249.384C172.484 242.812 172.67 232.954 173.042 219.81L173.414 190.422C173.414 189.306 173.228 187.632 172.856 185.4L172.298 180.75V179.82C172.298 176.968 172.732 174.86 173.6 173.496C174.468 172.132 176.08 171.45 178.436 171.45C181.66 171.45 185.194 172.38 189.038 174.24C192.882 176.1 195.672 178.456 197.408 181.308C201.004 187.26 202.802 194.7 202.802 203.628C202.802 210.324 202.244 215.966 201.128 220.554C200.012 225.018 198.09 229.172 195.362 233.016C198.71 236.24 200.942 240.394 202.058 245.478C203.298 250.438 203.918 256.7 203.918 264.264C203.918 271.828 202.616 278.4 200.012 283.98C197.036 290.304 192.696 294.644 186.992 297C183.52 298.24 180.048 298.86 176.576 298.86ZM182.528 227.622C188.976 227.498 192.2 219.996 192.2 205.116C192.2 189.12 189.658 180.75 184.574 180.006C183.21 182.858 182.528 189.554 182.528 200.094V227.622ZM181.412 289.374C185.38 288.506 188.48 286.15 190.712 282.306C192.944 278.462 194.06 274.06 194.06 269.1C194.06 263.892 193.75 259.304 193.13 255.336C192.634 252.236 191.952 249.694 191.084 247.71C190.34 245.602 189.286 243.68 187.922 241.944C186.434 240.084 184.698 238.968 182.714 238.596C182.218 245.664 181.97 255.026 181.97 266.682C181.97 267.426 181.846 269.782 181.598 273.75L181.226 280.074C181.226 280.322 181.288 280.508 181.412 280.632V281.004V289.374ZM230.173 296.628C228.561 296.132 227.693 295.078 227.569 293.466V290.676C227.321 285.468 227.073 277.656 226.825 267.24C226.329 258.188 226.019 251.244 225.895 246.408C225.523 238.844 225.089 227.498 224.593 212.37C224.469 209.766 224.345 206.17 224.221 201.582C224.097 196.994 224.035 193.522 224.035 191.166C223.911 189.802 223.849 187.88 223.849 185.4C223.849 182.548 223.973 180.44 224.221 179.076C224.717 175.232 226.825 173.434 230.545 173.682C234.017 173.682 235.877 175.666 236.125 179.634V181.866L235.939 228.738V250.872V262.032C235.939 263.768 236.063 265.814 236.311 268.17C236.559 270.402 236.745 272.014 236.869 273.006C237.489 269.41 238.481 265.752 239.845 262.032C241.333 258.188 242.263 255.832 242.635 254.964C244.495 250.5 245.859 246.842 246.727 243.99C249.703 234.442 253.547 222.724 258.259 208.836C259.251 205.984 260.367 202.512 261.607 198.42C264.955 187.88 267.249 181.06 268.489 177.96C269.605 174.984 271.279 173.124 273.511 172.38C274.627 172.008 275.743 171.822 276.859 171.822C278.595 171.822 280.393 172.38 282.253 173.496V182.424C282.253 191.724 282.439 201.334 282.811 211.254C282.935 213.362 282.997 216.524 282.997 220.74V226.134C282.997 227.25 282.935 228.738 282.811 230.598C282.811 232.458 282.873 234.628 282.997 237.108L283.555 287.328C283.555 289.188 283.121 291.234 282.253 293.466C281.881 294.458 281.261 295.264 280.393 295.884C279.525 296.38 278.595 296.628 277.603 296.628C274.131 296.628 272.395 295.016 272.395 291.792C272.395 288.072 272.581 284.476 272.953 281.004C273.201 276.292 273.325 272.696 273.325 270.216C273.077 245.664 272.767 227.312 272.395 215.16C272.395 213.3 272.147 210.262 271.651 206.046L271.093 199.35C269.977 200.59 269.357 201.396 269.233 201.768L266.257 210.882C264.273 217.33 262.723 222.104 261.607 225.204L245.425 270.216L237.055 293.094C236.063 295.698 234.575 297 232.591 297C232.219 297 231.413 296.876 230.173 296.628ZM330.883 299.604C328.155 299.604 325.241 299.17 322.141 298.302C319.165 297.558 316.871 296.69 315.259 295.698C306.951 290.366 302.797 275.796 302.797 251.988V246.966V241.2V236.736C302.797 231.776 302.859 227.374 302.983 223.53C303.107 219.562 303.355 215.284 303.727 210.696C304.099 205.86 304.657 201.954 305.401 198.978C306.145 195.878 307.385 192.406 309.121 188.562C310.609 184.966 312.407 182.176 314.515 180.192C316.747 178.208 319.599 176.534 323.071 175.17C326.171 173.806 330.015 173.124 334.603 173.124C336.463 173.124 337.889 173.558 338.881 174.426C339.873 175.294 340.369 176.41 340.369 177.774C340.369 179.014 339.935 180.13 339.067 181.122C338.323 182.114 337.393 182.672 336.277 182.796H327.535C325.055 182.796 322.885 184.346 321.025 187.446C319.165 190.546 317.863 194.576 317.119 199.536C315.507 208.712 314.701 216.152 314.701 221.856V222.786L314.329 240.642C314.081 245.974 313.957 251.988 313.957 258.684C313.957 263.396 314.143 267.24 314.515 270.216C315.135 274.68 316.189 278.4 317.677 281.376C319.165 284.724 321.707 287.142 325.303 288.63C327.163 289.374 329.209 289.746 331.441 289.746C332.805 289.746 334.169 289.25 335.533 288.258C337.145 288.258 338.447 288.63 339.439 289.374C340.555 289.994 341.113 290.986 341.113 292.35C341.113 297.186 337.703 299.604 330.883 299.604Z" fill="#EB6025"/>
</svg>
