<svg width="71" height="28" viewBox="0 0 71 28" fill="none" xmlns="http://www.w3.org/2000/svg">
<path d="M27.879 22.9948L27.9292 16.68H26.8251V25.8526H27.9292L29.8175 19.5379L29.7674 25.8526H30.8714V16.68H29.7674L27.879 22.9948Z" fill="#323030"/>
<path d="M36.0783 20.7048C36.5551 20.4177 37.3076 19.8062 37.3076 18.7704C37.3076 17.3851 36.2914 16.6177 34.9616 16.6177C34.2777 16.6177 33.8573 16.7736 33.4997 16.9671V18.0029C33.4997 18.0029 34.033 17.6098 34.8046 17.6098C35.6893 17.6098 36.1284 18.1215 36.1284 18.7954C36.1284 19.4755 35.6641 20.087 34.516 20.2181V21.2102C34.516 21.2102 36.4422 21.4348 36.4422 23.3006C36.4422 24.2927 35.7145 24.8605 34.654 24.8605C33.9453 24.8605 33.462 24.5735 33.462 24.5735L33.2425 25.5844C33.2425 25.5844 33.7506 25.9587 34.7669 25.9587C36.3355 25.9587 37.6214 25.1039 37.6214 23.2319C37.6152 21.6158 36.6303 20.9543 36.0783 20.7048Z" fill="#323030"/>
<path d="M44.002 16.68H40.7336V16.6925C40.5893 16.68 40.4888 16.68 40.4888 16.68C40.4888 18.6144 40.4888 22.2523 39.9682 24.8168H39.3407V27.5H40.4011V25.8526H43.6067V27.5H44.6669V24.8168H44.002V16.68ZM41.1036 24.8168C41.2417 23.7935 41.5427 21.1415 41.5679 17.7159H42.898V24.8168H41.1036Z" fill="#323030"/>
<path d="M48.9956 16.68H47.9793L46.323 25.8526H47.3835L47.7912 23.5189H49.4975L49.899 25.8526H51.003L49.347 16.6863H48.9956V16.68ZM47.9731 22.4893L48.6507 18.6456L49.3156 22.4893H47.9731Z" fill="#323030"/>
<path d="M69.7172 16.68C69.052 16.6925 66.9756 17.148 66.9756 19.5629C66.9756 21.1727 67.8666 22.0089 68.519 22.4083L66.9504 25.8464H68.1237L69.6733 22.3895V25.8464H70.7773V16.68H69.7172ZM69.6668 17.6659V21.8467C69.4787 21.7905 68.1175 21.3287 68.1175 19.5878C68.1237 18.0154 69.2277 17.7221 69.6668 17.6659Z" fill="#323030"/>
<path d="M61.5177 23.0135L61.5743 16.68H60.47V25.8526H61.5743L63.4688 19.5129L63.4125 25.8526H64.5165V16.68H63.4125L61.5177 23.0135Z" fill="#323030"/>
<path d="M53.7068 13.8908C53.7068 13.8908 51.5738 14.4274 50.9841 13.3541C52.7782 12.2746 54.3278 10.7084 54.3278 9.33567C54.3278 8.89887 53.9515 8.48079 53.2425 8.48079C51.1847 8.48079 49.7041 10.5025 49.7041 12.6366C49.7041 12.8612 49.7231 13.0609 49.767 13.2356C48.7821 13.7535 47.8597 14.0842 47.4959 14.0842C47.3205 14.0842 47.3329 13.6474 47.7157 12.7676C48.5625 10.8145 49.2402 9.60399 49.2402 9.22959C49.2402 8.94255 49.0393 8.63679 48.4873 8.63679C47.383 8.63679 44.7732 10.7896 44.8423 10.9705C45.2375 12.1124 44.6417 14.0281 43.914 14.0281C43.2301 14.0281 44.7546 10.5337 45.8399 8.93007L44.7984 8.58063C44.7984 8.58063 43.9012 10.203 43.3054 11.7318C42.8473 12.4494 41.5863 13.8097 40.9528 13.8097C40.4008 13.8097 42.9226 8.86143 42.9226 8.86143L41.7934 8.61807C41.7934 8.61807 41.2224 9.82236 40.658 11.1016H39.2651L40.1309 8.81775L39.0017 8.55567L38.042 11.0953H36.8811C36.8811 11.0953 35.7519 13.7972 34.4032 13.7972C33.0355 13.7972 34.4722 7.6197 37.6091 5.81638L37.3016 5.1799C35.5324 5.71654 33.525 8.44335 32.8977 11.2825C32.1825 12.1374 30.7019 13.8034 30.0306 13.8034C29.3217 13.8034 32.1511 9.07359 32.1511 9.07359L31.0029 8.76783C31.0029 8.76783 30.1435 10.178 29.4723 11.582C28.9704 12.4182 27.8474 13.8221 27.1574 13.8221C26.5802 13.8221 29.259 8.96127 29.259 8.96127L28.1297 8.54319C27.9792 8.79903 27.1574 10.384 26.5551 11.8129C26.0093 12.3308 24.3719 13.8409 23.8638 13.8409C23.3305 13.8409 24.5915 11.9252 25.3882 10.4526C26.0281 9.28575 26.1159 8.53695 25.3004 8.53695C24.5162 8.53695 23.2552 9.41679 22.3456 10.4152L23.0419 8.82399C23.0419 8.82399 21.4861 8.82399 19.8488 8.11263C19.855 7.9629 19.8613 7.81314 19.8613 7.66338C19.8613 3.66361 17.7158 0.5 15.9278 0.5C13.8701 0.5 14.2277 4.16905 16.2791 6.61507C17.0696 7.5261 18.042 8.1189 18.9391 8.50575C18.6693 11.869 16.8312 13.8533 15.9906 13.8533C15.3946 13.8533 15.4134 11.9377 18.0043 9.21711L16.9629 8.54943C16.9504 8.55567 16.9378 8.56815 16.919 8.58063C16.4548 8.93007 14.6919 9.74127 13.7886 9.59151C13.6568 8.39343 12.3833 8.63679 12.3833 9.31695C12.3833 9.79743 12.6342 10.072 13.0169 10.1968C12.8413 11.6007 11.3795 13.8471 10.2127 13.8471C9.57278 13.8471 9.41593 12.0687 12.2014 8.94255L11.1851 8.13138C11.1851 8.13138 9.45359 10.072 8.81368 11.9065C8.23025 12.5679 6.39212 13.8471 5.6393 13.8471C4.71083 13.8471 7.3645 9.67263 9.06461 6.98947C9.74843 5.90998 10.037 5.25478 10.037 4.8367C10.037 4.35001 9.64179 4.21897 9.28419 4.21897C8.24278 4.21897 6.19135 5.71654 4.26541 8.83647C4.26541 8.83647 6.25411 4.61209 6.54267 3.93193C6.98181 2.96475 5.73968 2.45932 5.30052 3.27051C4.71083 4.36873 0.777344 14.5272 0.777344 14.5272H1.97558C1.97558 14.5272 4.84884 7.42627 8.60666 5.29222C8.14242 6.01606 3.96429 12.1498 3.96429 13.7597C3.96429 14.6146 4.69199 14.6832 4.96176 14.6832C5.75222 14.6832 7.25159 14.1217 8.61919 12.6927C8.59409 12.8425 8.58156 12.986 8.58156 13.1233C8.58156 14.4399 9.46612 14.6832 9.93035 14.6832C11.7622 14.6832 13.5188 12.1873 13.7697 10.2779C14.4912 10.2404 15.3632 9.94716 16.0219 9.56655C15.3193 10.4651 14.4849 11.8378 14.4849 13.2605C14.4849 14.3588 15.2126 14.6895 15.7647 14.6895C17.584 14.6895 19.4221 12.0438 19.786 8.82399C20.7521 9.12975 21.4799 9.19215 21.53 9.19215L19.3218 14.5335H20.5388L21.7935 11.6694C22.7094 10.6835 24.0269 9.57279 24.3594 9.72255C24.7107 9.87852 22.4334 12.8238 22.4334 14.053C22.4334 14.3588 22.5902 14.6895 23.2051 14.6895C24.1963 14.6895 25.4008 13.6973 26.2163 12.649C26.0156 13.1981 25.8838 13.6724 25.8838 13.9657C25.8838 14.2527 26.0407 14.6895 26.6806 14.6895C27.4648 14.6895 28.2238 13.9969 28.8073 13.2481C28.7383 13.5039 28.6944 13.7348 28.6944 13.922C28.6944 14.3588 29.0269 14.6895 29.5977 14.6895C30.6015 14.6895 31.9502 13.3167 32.7345 12.206C32.7031 12.4681 32.6906 12.7364 32.6906 12.9922C32.6906 14.0031 33.0669 14.6832 34.0142 14.6832C36.0029 14.6832 37.2201 11.5633 37.2201 11.5633H37.8536L36.7368 14.5335H37.954L39.077 11.5633H40.4447C39.9866 12.6366 39.5913 13.6661 39.5913 14.0031C39.5913 14.3338 39.6793 14.6832 40.3881 14.6832C41.1848 14.6832 42.2011 13.897 42.8787 12.9798C42.8097 13.2543 42.772 13.5039 42.772 13.7161C42.772 14.2028 42.9729 14.6832 43.6754 14.6832C45.8399 14.6832 46.191 11.7692 45.7205 10.7584C45.7205 10.7584 46.7934 9.77871 48.0292 9.38559C48.0292 9.38559 46.26 12.8175 46.26 13.8721C46.26 14.5959 46.8811 14.6832 47.1448 14.6832C47.9539 14.6832 48.9827 14.3713 50.0117 13.8721C50.9714 15.2947 53.7068 14.4399 53.7068 14.4399V13.8908ZM17.5652 6.47779C15.6831 4.30009 15.4197 1.19887 16.0407 1.19887C16.6618 1.19887 18.983 3.26427 18.983 7.66338C18.4749 7.35763 17.9855 6.97075 17.5652 6.47779ZM53.5501 9.11727C53.7945 9.11727 53.4745 10.2966 52.132 11.6007C51.7681 11.9564 51.3104 12.2996 50.8271 12.6116C50.8775 10.8832 52.1824 9.11727 53.5501 9.11727Z" fill="#323030"/>
<path d="M56.2733 16.68V20.8171H54.3222V16.68H53.2179V25.8526H54.3222V21.8467H56.2733V25.8526H57.3773V16.68H56.2733Z" fill="#323030"/>
</svg>
