<svg width="72" height="24" viewBox="0 0 72 24" fill="none" xmlns="http://www.w3.org/2000/svg">
<path d="M13.1747 18.8096C12.9484 18.6909 12.7787 18.5128 12.609 18.2753C12.4958 18.0378 12.4392 17.8003 12.4392 17.5035C12.4392 17.2066 12.4958 16.9691 12.609 16.7317C12.7221 16.4942 12.8918 16.3161 13.1747 16.1973C13.401 16.0786 13.6839 16.0192 13.9667 16.0192C14.193 16.0192 14.4193 16.0786 14.6456 16.1379C14.8154 16.2567 14.9851 16.3754 15.1548 16.4942L14.7588 16.9098C14.5891 16.6723 14.3628 16.5535 14.0799 16.5535C13.9102 16.5535 13.7404 16.6129 13.6273 16.6723C13.5141 16.7317 13.401 16.8504 13.2879 17.0285C13.2313 17.1473 13.1747 17.3254 13.1747 17.5035C13.1747 17.6816 13.2313 17.8597 13.2879 17.9785C13.3444 18.0972 13.4576 18.2159 13.6273 18.3347C13.7404 18.3941 13.9102 18.4534 14.0799 18.4534C14.3628 18.4534 14.5891 18.3347 14.7588 18.0972L15.1548 18.5128C15.0416 18.6909 14.8719 18.8096 14.6456 18.9284C14.4759 18.9878 14.2496 19.0471 13.9667 19.0471C13.6273 19.0471 13.401 18.9878 13.1747 18.8096Z" fill="#323030"/>
<path d="M16.3427 18.8096C16.1164 18.6909 15.9466 18.5128 15.7769 18.2753C15.6638 18.0378 15.6072 17.8003 15.6072 17.5035C15.6072 17.2066 15.6638 16.9691 15.7769 16.7316C15.8901 16.4942 16.0598 16.316 16.3427 16.1973C16.569 16.0786 16.8518 16.0192 17.1347 16.0192C17.4176 16.0192 17.7004 16.0786 17.9267 16.1973C18.153 16.316 18.3228 16.4942 18.4925 16.7316C18.6056 16.9691 18.7188 17.2066 18.7188 17.5035C18.7188 17.8003 18.6622 18.0378 18.4925 18.2753C18.3793 18.5128 18.153 18.6909 17.9267 18.8096C17.7004 18.9878 17.4176 19.0471 17.1347 19.0471C16.8518 19.0471 16.569 18.9878 16.3427 18.8096ZM17.5873 18.3347C17.7004 18.2753 17.8136 18.1565 17.8702 17.9784C17.9833 17.8597 17.9833 17.6816 17.9833 17.5035C17.9833 17.3254 17.9267 17.1472 17.8702 17.0285C17.8136 16.9098 17.7004 16.791 17.5873 16.6723C17.4741 16.6129 17.3044 16.5535 17.1347 16.5535C16.965 16.5535 16.7953 16.6129 16.6821 16.6723C16.569 16.7316 16.4558 16.8504 16.3992 17.0285C16.2861 17.2066 16.2861 17.3254 16.2861 17.5035C16.2861 17.6816 16.3427 17.8597 16.3992 17.9784C16.4558 18.0972 16.569 18.2159 16.6821 18.3347C16.7953 18.394 16.965 18.4534 17.1347 18.4534C17.3044 18.4534 17.4176 18.394 17.5873 18.3347Z" fill="#323030"/>
<path d="M20.1898 16.6129V17.3848H21.4344V17.9191H20.1898V18.9878H19.5109V16.0786H21.6041V16.6129H20.1898Z" fill="#323030"/>
<path d="M23.0749 16.6129V17.3848H24.3761V17.9191H23.0749V18.9878H22.4526V16.0786H24.5459V16.6129H23.0749Z" fill="#323030"/>
<path d="M27.5439 18.4534V18.9878H25.3941V16.0786H27.4873V16.6129H26.0164V17.266H27.3176V17.741H26.0164V18.4534H27.5439Z" fill="#323030"/>
<path d="M30.5988 18.4534V18.9878H28.449V16.0786H30.5422V16.6129H29.0713V17.266H30.3725V17.741H29.0713V18.4534H30.5988Z" fill="#323030"/>
<path d="M36.313 18.9878L35.8038 18.1566H35.1815V18.9878H34.5592V16.0786H35.7472C35.9735 16.0786 36.1998 16.1379 36.3695 16.1973C36.5393 16.2567 36.709 16.4348 36.7656 16.5535C36.8787 16.7317 36.9353 16.9098 36.9353 17.0879C36.9353 17.266 36.8787 17.5035 36.7656 17.6222C36.6524 17.8003 36.5393 17.9191 36.3695 17.9785L36.9919 18.9284H36.313V18.9878ZM36.1433 16.7317C36.0301 16.6723 35.917 16.6129 35.6907 16.6129H35.1815V17.6222H35.6907C35.8604 17.6222 36.0301 17.5629 36.1433 17.5035C36.2564 17.3847 36.313 17.266 36.313 17.1473C36.2564 16.9691 36.1998 16.8504 36.1433 16.7317Z" fill="#323030"/>
<path d="M38.4061 18.8096C38.1798 18.6909 38.0101 18.5128 37.8403 18.2753C37.7272 18.0378 37.6706 17.8003 37.6706 17.5035C37.6706 17.2066 37.7272 16.9691 37.8403 16.7316C37.9535 16.4942 38.1798 16.316 38.4061 16.1973C38.6324 16.0786 38.9152 16.0192 39.1981 16.0192C39.481 16.0192 39.7638 16.0786 39.9901 16.1973C40.2164 16.316 40.3862 16.4942 40.5559 16.7316C40.669 16.9691 40.7256 17.2066 40.7256 17.5035C40.7256 17.8003 40.669 18.0378 40.5559 18.2753C40.4427 18.5128 40.2164 18.6909 39.9901 18.8096C39.7073 18.9877 39.481 19.0471 39.1415 19.0471C38.8021 19.0471 38.6324 18.9877 38.4061 18.8096ZM39.5941 18.3347C39.7073 18.2753 39.8204 18.1565 39.877 17.9784C39.9336 17.8597 39.9901 17.6816 39.9901 17.5035C39.9901 17.3253 39.9336 17.1472 39.877 17.0285C39.8204 16.9098 39.7073 16.791 39.5941 16.6723C39.481 16.6129 39.3113 16.5535 39.1415 16.5535C38.9718 16.5535 38.8021 16.6129 38.6889 16.6723C38.5758 16.7316 38.4626 16.8504 38.4061 17.0285C38.3495 17.1472 38.2929 17.3253 38.2929 17.5035C38.2929 17.6816 38.3495 17.8597 38.4061 17.9784C38.4626 18.0972 38.5758 18.2159 38.6889 18.3347C38.8021 18.394 38.9718 18.4534 39.1415 18.4534C39.3113 18.4534 39.481 18.394 39.5941 18.3347Z" fill="#323030"/>
<path d="M43.3286 18.3347H42.0274L41.8011 18.9878H41.1788L42.4234 16.0786H43.0458L44.2904 18.9878H43.6115L43.3286 18.3347ZM43.1589 17.8597L42.7063 16.7317L42.2537 17.8597H43.1589Z" fill="#323030"/>
<path d="M45.2517 18.9284C45.0254 18.869 44.8557 18.8096 44.7425 18.6909L44.9688 18.1566C45.0819 18.2753 45.2517 18.3347 45.3648 18.394C45.5345 18.4534 45.7043 18.4534 45.874 18.4534C46.0437 18.4534 46.2134 18.4534 46.27 18.394C46.3831 18.3347 46.3831 18.2753 46.3831 18.1566C46.3831 18.0972 46.3831 18.0378 46.3266 17.9784C46.27 17.9191 46.2134 17.9191 46.1569 17.8597C46.1003 17.8597 45.9871 17.8003 45.8174 17.741C45.5911 17.6816 45.4214 17.6222 45.3082 17.5628C45.1951 17.5035 45.0819 17.4441 44.9688 17.3254C44.8557 17.2066 44.7991 17.0285 44.7991 16.8504C44.7991 16.6723 44.8557 16.5535 44.9122 16.3754C45.0254 16.2567 45.1385 16.1379 45.3082 16.0192C45.478 15.9598 45.7043 15.9004 45.9306 15.9004C46.1003 15.9004 46.27 15.9004 46.4397 15.9598C46.6094 16.0192 46.7792 16.0786 46.8923 16.1379L46.7226 16.6723C46.4397 16.4942 46.2134 16.4348 45.9306 16.4348C45.7608 16.4348 45.5911 16.4942 45.5345 16.5535C45.4214 16.6129 45.4214 16.6723 45.4214 16.791C45.4214 16.9098 45.478 16.9691 45.5911 17.0285C45.7043 17.0879 45.8174 17.1472 46.0437 17.1472C46.27 17.2066 46.4397 17.266 46.5529 17.3254C46.666 17.3847 46.7792 17.4441 46.8923 17.5628C47.0055 17.6816 47.062 17.8597 47.062 18.0378C47.062 18.2159 47.0055 18.3347 46.9489 18.5128C46.8357 18.6315 46.7226 18.7503 46.5529 18.8096C46.3831 18.869 46.1568 18.9284 45.9306 18.9284C45.6477 19.0471 45.4214 18.9878 45.2517 18.9284Z" fill="#323030"/>
<path d="M48.4199 16.6129H47.5147V16.0786H49.9474V16.6129H49.0422V18.9878H48.4199V16.6129Z" fill="#323030"/>
<path d="M52.8328 18.4534V18.9878H50.683V16.0786H52.7762V16.6129H51.3053V17.266H52.6065V17.741H51.3053V18.4534H52.8328Z" fill="#323030"/>
<path d="M55.4917 18.9878L54.9826 18.1566H54.3602V18.9878H53.7379V16.0786H54.926C55.1523 16.0786 55.3786 16.1379 55.5483 16.1973C55.718 16.2567 55.8877 16.4348 55.9443 16.5535C56.0575 16.7317 56.114 16.9098 56.114 17.0879C56.114 17.266 56.0575 17.5035 55.9443 17.6222C55.8312 17.8003 55.718 17.9191 55.5483 17.9785L56.1706 18.9284H55.4917V18.9878ZM55.322 16.7317C55.2089 16.6723 55.0957 16.6129 54.8694 16.6129H54.3602V17.6222H54.8694C55.0391 17.6222 55.2089 17.5629 55.322 17.5035C55.4351 17.3847 55.4917 17.266 55.4917 17.1473C55.4917 16.9691 55.4351 16.8504 55.322 16.7317Z" fill="#323030"/>
<path d="M57.302 18.9284C57.0757 18.869 56.9059 18.8096 56.7928 18.6909L57.0191 18.1566C57.1322 18.2753 57.302 18.3347 57.4151 18.394C57.5848 18.4534 57.7546 18.4534 57.9243 18.4534C58.094 18.4534 58.2637 18.4534 58.3203 18.394C58.4334 18.3347 58.4334 18.2753 58.4334 18.1566C58.4334 18.0972 58.4334 18.0378 58.3769 17.9784C58.3203 17.9191 58.2637 17.9191 58.2071 17.8597C58.1506 17.8597 58.0374 17.8003 57.8677 17.741C57.6414 17.6816 57.4717 17.6222 57.3585 17.5628C57.2454 17.5035 57.1322 17.4441 57.0191 17.3254C56.9059 17.2066 56.8494 17.0285 56.8494 16.8504C56.8494 16.6723 56.906 16.5535 56.9625 16.3754C57.0757 16.2567 57.1888 16.1379 57.3585 16.0192C57.5283 15.9598 57.7546 15.9004 57.9809 15.9004C58.1506 15.9004 58.3203 15.9004 58.49 15.9598C58.6597 16.0192 58.8295 16.0786 58.9426 16.1379L58.7729 16.6723C58.49 16.4942 58.2637 16.4348 57.9809 16.4348C57.8111 16.4348 57.6414 16.4942 57.5848 16.5535C57.4717 16.6129 57.4717 16.6723 57.4717 16.791C57.4717 16.9098 57.5283 16.9691 57.6414 17.0285C57.7546 17.0879 57.8677 17.1472 58.094 17.1472C58.3203 17.2066 58.49 17.266 58.6032 17.3254C58.7163 17.3847 58.8295 17.4441 58.9426 17.5628C59.0558 17.6816 59.1123 17.8597 59.1123 18.0378C59.1123 18.2159 59.0558 18.3347 58.9992 18.5128C58.886 18.6315 58.7729 18.7503 58.6032 18.8096C58.4334 18.869 58.2071 18.9284 57.9809 18.9284C57.7546 19.0471 57.5283 18.9877 57.302 18.9284Z" fill="#323030"/>
<path d="M16.8517 0.760777C16.8517 0.701406 16.7386 0.642034 16.682 0.642034H12.4955C12.3824 0.642034 12.2692 0.760777 12.2692 0.879519V12.4569C12.2692 12.5757 12.3824 12.6944 12.4955 12.6944H16.682C16.7386 12.6944 16.7951 12.635 16.8517 12.635L18.2095 10.9132C18.266 10.8539 18.266 10.7945 18.266 10.7352V7.46974C18.266 7.35101 18.2095 7.17287 18.1529 7.11353L17.5306 6.57918C17.4174 6.46045 17.4174 6.28231 17.5306 6.22294L18.1529 5.6886C18.2095 5.56985 18.266 5.45111 18.266 5.33237V2.60128C18.266 2.54192 18.266 2.48255 18.2095 2.42317L16.8517 0.760777ZM16.4557 9.96334C16.4557 10.0821 16.3991 10.1414 16.3425 10.2008L16.0596 10.557C16.003 10.6164 15.8899 10.6758 15.7768 10.6758H14.419C14.3058 10.6758 14.1927 10.557 14.1927 10.4383V7.52908C14.1927 7.41035 14.3058 7.29161 14.419 7.29161H15.7768C15.8899 7.29161 16.003 7.35101 16.0596 7.41035L16.3425 7.76662C16.3991 7.82596 16.4557 7.94469 16.4557 8.00409V9.96334ZM16.4557 4.61991C16.4557 4.73866 16.3991 4.79802 16.3425 4.8574L16.0596 5.21362C16.003 5.33237 15.8899 5.39174 15.7768 5.39174H14.419C14.3058 5.39174 14.1927 5.273 14.1927 5.15425V2.83877C14.1927 2.72003 14.3058 2.60128 14.419 2.60128H15.7768C15.8899 2.60128 16.003 2.66066 16.0596 2.72003L16.3425 3.07626C16.3991 3.13563 16.4557 3.25437 16.4557 3.31374V4.61991ZM9.94965 0.523292C10.0628 0.46392 10.1759 0.523292 10.1759 0.642034V12.6944C10.1759 12.8132 10.0628 12.8725 10.0063 12.8132H8.53528C8.42214 12.8725 8.3656 12.7538 8.3656 12.6944V0.642034C8.3656 0.523292 8.47874 0.46392 8.53528 0.523292H9.94965ZM6.38552 2.42317C6.44206 2.48255 6.44206 2.54192 6.44206 2.60128V4.97614C6.44206 5.09488 6.32892 5.15425 6.27237 5.09488H4.80143C4.68829 5.15425 4.63171 5.03551 4.63171 4.97614V3.31374C4.63171 3.25437 4.63171 3.195 4.57514 3.13563L4.17912 2.66066C4.12255 2.60128 4.06597 2.60128 4.0094 2.60128H2.93449C2.87792 2.60128 2.82135 2.66066 2.76478 2.66066L2.31218 3.13563C2.31218 3.195 2.25561 3.25437 2.25561 3.31374V4.32306C2.25561 4.4418 2.31218 4.50117 2.36876 4.56054L6.32892 7.70722C6.38552 7.76662 6.38552 7.82596 6.38552 7.88535V10.7352C6.38552 10.7945 6.38552 10.8539 6.32892 10.9132L4.97115 12.5757C4.91458 12.635 4.85801 12.635 4.80143 12.635H1.97274C1.91617 12.635 1.85959 12.5757 1.80302 12.5757L0.445246 10.9132C0.445246 10.8539 0.388672 10.7945 0.388672 10.7352V8.00409C0.388672 7.88535 0.50182 7.82596 0.558393 7.88535H2.02931C2.14246 7.82596 2.19903 7.94469 2.19903 8.00409V10.0227C2.19903 10.0821 2.19903 10.1414 2.25561 10.2008L2.65163 10.6758C2.7082 10.7352 2.76478 10.7352 2.82135 10.7352H3.89625C3.95282 10.7352 4.0094 10.6758 4.06597 10.6758L4.46199 10.2008C4.51857 10.1414 4.51857 10.0821 4.51857 10.0227V8.77591C4.51857 8.71652 4.46199 8.59778 4.40542 8.59778L0.445246 5.45111C0.445246 5.39174 0.388672 5.33237 0.388672 5.273V2.60128C0.445246 2.54192 0.445246 2.48255 0.445246 2.42317L1.80302 0.701406C1.85959 0.701406 1.91617 0.642034 2.02931 0.642034H4.85801C4.91458 0.642034 4.97115 0.701406 4.97115 0.760777L6.38552 2.42317ZM41.8573 12.6944C41.8008 12.6944 41.7442 12.635 41.6876 12.635L40.3298 10.9132C40.2732 10.8539 40.2732 10.7945 40.2732 10.7352V8.00409C40.2732 7.88535 40.3864 7.82596 40.443 7.88535H41.9139C42.027 7.82596 42.0836 7.94469 42.0836 8.00409V10.0227C42.0836 10.0821 42.0836 10.1414 42.1402 10.2008L42.5362 10.6758C42.5928 10.7352 42.6493 10.7352 42.706 10.7352H43.7808C43.8374 10.7352 43.894 10.6758 43.9506 10.6758L44.3465 10.2008C44.4031 10.1414 44.4031 10.0821 44.4031 10.0227V8.77591C44.4031 8.71652 44.3465 8.59778 44.29 8.59778L40.3298 5.45111C40.2732 5.39174 40.2732 5.33237 40.2732 5.273V2.60128C40.2732 2.54192 40.3298 2.48255 40.3298 2.42317L41.6876 0.701406C41.7442 0.701406 41.8008 0.642034 41.8573 0.642034H44.686C44.7426 0.642034 44.7992 0.701406 44.8557 0.701406L46.2135 2.42317C46.2701 2.48255 46.2701 2.54192 46.2701 2.60128V4.97614C46.2701 5.09488 46.1569 5.15425 46.1003 5.09488H44.6294C44.5163 5.15425 44.4597 5.03551 44.4597 4.97614V3.31374C44.4597 3.25437 44.4597 3.195 44.4031 3.13563L44.0071 2.72003C43.9506 2.66066 43.894 2.66066 43.8374 2.66066H42.7625C42.706 2.66066 42.6494 2.72003 42.5928 2.72003L42.1968 3.195C42.1402 3.25437 42.1402 3.31374 42.1402 3.37311V4.38243C42.1402 4.50117 42.1968 4.56054 42.2533 4.61991L46.2135 7.76662C46.2701 7.76662 46.2701 7.82596 46.2701 7.88535V10.7352C46.2701 10.7945 46.2701 10.8539 46.2135 10.9132L44.8557 12.635C44.7992 12.6944 44.7426 12.6944 44.686 12.6944H41.8573ZM63.6385 2.42317C63.695 2.48255 63.695 2.54192 63.695 2.60128V4.97614C63.695 5.09488 63.5815 5.15425 63.5251 5.09488H62.054C61.9411 5.15425 61.8847 5.03551 61.8847 4.97614V3.31374C61.8847 3.25437 61.8847 3.195 61.8277 3.13563L61.4321 2.66066C61.3751 2.60128 61.3187 2.60128 61.2622 2.60128H60.3007C60.2437 2.60128 60.1873 2.66066 60.1308 2.66066L59.7347 3.13563C59.6783 3.195 59.6782 3.25437 59.6782 3.31374V10.0227C59.6782 10.0821 59.6783 10.1414 59.7347 10.2008L60.0738 10.6758C60.1308 10.7352 60.1873 10.7352 60.2437 10.7352H61.2058C61.2622 10.7352 61.3187 10.6758 61.3751 10.6758L61.7713 10.2008C61.8277 10.1414 61.8277 10.0821 61.8277 10.0227V8.00409C61.8277 7.88535 61.9411 7.82596 61.9975 7.88535H63.4687C63.5815 7.82596 63.6385 7.94469 63.6385 8.00409V10.7352C63.6385 10.7945 63.6385 10.8539 63.5815 10.9132L62.2238 12.635C62.1674 12.6944 62.111 12.6944 62.054 12.6944H59.395C59.3386 12.6944 59.2821 12.635 59.2257 12.635L57.868 10.9132C57.811 10.8539 57.811 10.7945 57.811 10.7352V2.60128C57.811 2.54192 57.868 2.48255 57.868 2.42317L59.2257 0.701406C59.2821 0.642034 59.3386 0.642034 59.395 0.642034H62.054C62.111 0.642034 62.1674 0.701406 62.2238 0.701406L63.6385 2.42317ZM26.1298 12.6944V2.60128C26.1298 2.54192 26.1298 2.48255 26.0732 2.42317L24.7154 0.701406C24.6589 0.701406 24.6023 0.642034 24.5457 0.642034H21.8867C21.8302 0.642034 21.7736 0.701406 21.717 0.701406L20.3592 2.42317C20.3027 2.48255 20.3027 2.54192 20.3027 2.60128V12.6944C20.3027 12.8132 20.4158 12.8725 20.4724 12.8132H21.9433C22.0565 12.8725 22.113 12.7538 22.113 12.6944V9.72587C22.113 9.60707 22.2262 9.48834 22.3393 9.48834H24.0366C24.1497 9.48834 24.2628 9.60707 24.2628 9.72587V12.6944C24.2628 12.8132 24.376 12.8725 24.4326 12.8132H25.9035C26.0732 12.8725 26.1298 12.8132 26.1298 12.6944ZM24.2628 7.29161C24.2628 7.41035 24.1497 7.52908 24.0366 7.52908H22.3393C22.2262 7.52908 22.113 7.41035 22.113 7.29161V3.37311C22.113 3.25437 22.1696 3.195 22.2262 3.13563L22.5091 2.7794C22.5657 2.72003 22.6788 2.66066 22.7919 2.66066H23.6405C23.7537 2.66066 23.8668 2.72003 23.9234 2.7794L24.2063 3.13563C24.2628 3.195 24.3194 3.31374 24.3194 3.37311V7.29161H24.2628ZM29.9202 12.8725C30.0334 12.9319 30.09 12.8132 30.09 12.7538V7.64782C30.09 7.52908 30.2031 7.41035 30.3162 7.41035H31.7871C31.8437 7.41035 31.9003 7.46974 31.9569 7.46974L32.3529 7.94469C32.4095 8.00409 32.4095 8.06343 32.4095 8.12283V12.7538C32.4095 12.8725 32.5227 12.9319 32.5792 12.8725H34.0501C34.1633 12.9319 34.2199 12.8132 34.2199 12.7538V7.41035C34.2199 7.35101 34.1633 7.29161 34.1633 7.23227L33.4844 6.57918C33.3713 6.46045 33.3713 6.34165 33.4844 6.22294L34.1633 5.56985C34.2199 5.51048 34.2199 5.45111 34.2199 5.39174V2.60128C34.2199 2.54192 34.2199 2.48255 34.1633 2.42317L32.8055 0.701406C32.8055 0.701406 32.7489 0.642034 32.6923 0.642034H28.5059C28.3928 0.642034 28.2796 0.760777 28.2796 0.879519V12.6944C28.2796 12.8132 28.3928 12.8725 28.4493 12.8132L29.9202 12.8725ZM30.1466 2.83877C30.1466 2.72003 30.2597 2.60128 30.3728 2.60128H31.8437C31.9003 2.60128 31.9569 2.66066 32.0135 2.66066L32.4095 3.13563C32.4661 3.195 32.4661 3.25437 32.4661 3.31374V4.67928C32.4661 4.73866 32.4661 4.79802 32.4095 4.8574L32.0135 5.33237C31.9569 5.39174 31.9003 5.39174 31.7871 5.39174H30.3162C30.2031 5.39174 30.09 5.273 30.09 5.15425V2.83877H30.1466ZM36.596 12.8725C36.4828 12.9319 36.4262 12.8132 36.4262 12.7538V0.642034C36.4262 0.523292 36.5394 0.46392 36.596 0.523292H38.0669C38.18 0.46392 38.2366 0.582663 38.2366 0.642034V12.6944C38.2366 12.8132 38.1234 12.8725 38.0669 12.8132L36.596 12.8725ZM54.1904 12.8725C54.0773 12.9319 54.0207 12.8132 54.0207 12.7538V0.642034C54.0207 0.523292 54.1339 0.46392 54.1904 0.523292H55.6615C55.7744 0.46392 55.8309 0.582663 55.8309 0.642034V12.6944C55.8309 12.8132 55.718 12.8725 55.6615 12.8132H54.1904V12.8725ZM52.9458 2.42317C53.0024 2.54192 52.8892 2.66066 52.7761 2.66066H51.1355C51.0223 2.66066 50.9092 2.7794 50.9092 2.89815V12.7538C50.9092 12.8725 50.796 12.9319 50.7394 12.8725H49.2685C49.1554 12.9319 49.0988 12.8132 49.0988 12.7538V2.83877C49.0988 2.72003 48.9856 2.60128 48.8725 2.60128H47.2884C47.1753 2.60128 47.1187 2.48255 47.1187 2.3638V0.879519C47.1187 0.760777 47.1753 0.642034 47.2884 0.642034H52.8326C52.9458 0.642034 53.0024 0.760777 53.0024 0.879519V2.42317H52.9458ZM70.031 0.760777C69.9745 0.701406 69.9181 0.701406 69.8617 0.701406H67.2027C67.1457 0.701406 67.0892 0.760777 67.0328 0.760777L65.6751 2.42317C65.6751 2.48255 65.6181 2.54192 65.6181 2.60128V12.6944C65.6181 12.8132 65.7315 12.8725 65.788 12.8132H67.2591C67.372 12.8725 67.4289 12.7538 67.4289 12.6944V9.72587C67.4289 9.60707 67.5418 9.48834 67.6552 9.48834H69.3521C69.4655 9.48834 69.5784 9.60707 69.5784 9.72587V12.6944C69.5784 12.8132 69.6918 12.8725 69.7482 12.8132H71.2194C71.3322 12.8725 71.3887 12.7538 71.3887 12.6944V2.60128C71.3887 2.54192 71.3322 2.48255 71.3322 2.42317L70.031 0.760777ZM69.5784 7.29161C69.5784 7.41035 69.4655 7.52908 69.3521 7.52908H67.6552C67.5418 7.52908 67.4289 7.41035 67.4289 7.29161V3.37311C67.4289 3.31374 67.4854 3.195 67.4854 3.13563L67.8245 2.72003C67.8815 2.66066 67.938 2.66066 67.9944 2.66066H68.956C69.0129 2.66066 69.0694 2.72003 69.1258 2.72003L69.4655 3.13563C69.5219 3.195 69.5219 3.31374 69.5219 3.37311V7.29161H69.5784Z" fill="#323030"/>
<path d="M30.2032 22.9656V23.3219H28.902V21.6595H30.1467V22.0157H29.3546V22.3126H30.0901V22.6688H29.3546V22.9656H30.2032Z" fill="#323030"/>
<path d="M30.8258 23.3219C30.7126 23.2625 30.5995 23.2625 30.5429 23.2031L30.7126 22.8469C30.7692 22.9063 30.8823 22.9657 30.9389 22.9657C31.0521 22.9657 31.1086 23.025 31.2218 23.025C31.3915 23.025 31.5046 22.9657 31.5046 22.9063C31.5046 22.8469 31.5046 22.8469 31.4481 22.7875C31.3915 22.7875 31.3349 22.7282 31.2218 22.7282C31.1086 22.7282 30.9955 22.6688 30.9389 22.6688C30.8823 22.6094 30.7692 22.6094 30.7126 22.5501C30.656 22.4907 30.5995 22.3719 30.5995 22.2532C30.5995 22.1345 30.5995 22.0751 30.656 21.9563C30.7126 21.897 30.7692 21.8376 30.8823 21.7782C30.9955 21.7189 31.1086 21.7189 31.2784 21.7189C31.3915 21.7189 31.5046 21.7189 31.5612 21.7782C31.6178 21.8376 31.7309 21.8376 31.8441 21.897L31.7309 22.2532C31.5612 22.1938 31.4481 22.1345 31.2784 22.1345C31.1652 22.1345 31.1086 22.1345 31.1086 22.1938C31.0521 22.1938 31.0521 22.2532 31.0521 22.3126C31.0521 22.3719 31.0521 22.3719 31.1086 22.4313C31.1652 22.4313 31.2218 22.4907 31.3349 22.4907C31.4481 22.4907 31.5612 22.5501 31.6178 22.5501C31.6744 22.6094 31.7875 22.6094 31.8441 22.6688C31.9007 22.7282 31.9572 22.8469 31.9572 22.9657C31.9572 23.0844 31.9572 23.1438 31.9007 23.2625C31.8441 23.3219 31.7875 23.3813 31.6744 23.4406C31.5612 23.5 31.4481 23.5 31.2784 23.5C31.1086 23.3219 30.9955 23.3219 30.8258 23.3219Z" fill="#323030"/>
<path d="M32.6926 22.0157H32.1834V21.6595H33.5978V22.0157H33.1452V23.3219H32.6926V22.0157Z" fill="#323030"/>
<path d="M33.9935 21.6595H34.729C34.8987 21.6595 35.0684 21.7188 35.1816 21.7782C35.2947 21.8376 35.4079 21.9563 35.521 22.0751C35.5776 22.1938 35.6342 22.3719 35.6342 22.4907C35.6342 22.6688 35.5776 22.7875 35.521 22.9063C35.4644 23.025 35.3513 23.1438 35.1816 23.2031C35.0684 23.2625 34.8987 23.3219 34.729 23.3219H33.9935V21.6595ZM34.729 22.9656C34.8421 22.9656 34.9553 22.9063 35.0684 22.8469C35.125 22.7875 35.1816 22.6688 35.1816 22.4907C35.1816 22.3719 35.125 22.2532 35.0684 22.1344C34.9553 22.0751 34.8421 22.0157 34.729 22.0157H34.4461V22.9063H34.729V22.9656Z" fill="#323030"/>
<path d="M38.1235 22.9656V23.3219H36.8789V23.025L37.4446 22.4313C37.5012 22.3719 37.5578 22.3126 37.5578 22.3126C37.5578 22.2532 37.6143 22.2532 37.6143 22.1938C37.6143 22.1344 37.6143 22.0751 37.5578 22.0751C37.5012 22.0751 37.4446 22.0157 37.3881 22.0157C37.3315 22.0157 37.2749 22.0157 37.2183 22.0751C37.1618 22.0751 37.1052 22.1344 37.1052 22.1938L36.7657 22.0157C36.8223 21.897 36.9355 21.8376 37.0486 21.7782C37.1618 21.7188 37.2749 21.6595 37.4446 21.6595C37.5578 21.6595 37.6709 21.6595 37.7841 21.7188C37.8972 21.7782 37.9538 21.8376 38.0104 21.897C38.0669 21.9563 38.0669 22.0751 38.0669 22.1938C38.0669 22.3126 38.0669 22.3719 38.0104 22.4313C37.9538 22.4907 37.8972 22.6094 37.7841 22.7282L37.5012 23.025H38.1235V22.9656Z" fill="#323030"/>
<path d="M38.8026 23.2625C38.6894 23.2031 38.6329 23.0844 38.5763 22.9657C38.5197 22.8469 38.4631 22.6688 38.4631 22.4907C38.4631 22.3126 38.5197 22.1345 38.5763 22.0157C38.6329 21.897 38.746 21.7782 38.8026 21.7189C38.9157 21.6595 39.0289 21.6001 39.142 21.6001C39.2552 21.6001 39.3683 21.6595 39.4815 21.7189C39.5946 21.7782 39.6512 21.897 39.7078 22.0157C39.7643 22.1345 39.8209 22.3126 39.8209 22.4907C39.8209 22.6688 39.7643 22.8469 39.7078 22.9657C39.6512 23.0844 39.538 23.2031 39.4815 23.2625C39.3683 23.3219 39.2552 23.3813 39.142 23.3813C39.0289 23.3219 38.9157 23.3219 38.8026 23.2625ZM39.3683 22.8469C39.4249 22.7876 39.4249 22.6688 39.4249 22.4907C39.4249 22.3126 39.4249 22.1938 39.3683 22.1345C39.3117 22.0157 39.2552 22.0157 39.1986 22.0157C39.142 22.0157 39.0854 22.0751 39.0289 22.1345C38.9723 22.1938 38.9723 22.3126 38.9723 22.4907C38.9723 22.6688 38.9723 22.7876 39.0289 22.8469C39.0854 22.9063 39.142 22.9657 39.1986 22.9657C39.2552 22.9657 39.3117 22.9063 39.3683 22.8469Z" fill="#323030"/>
<path d="M40.8956 21.6595V23.3219H40.443V22.0157H40.1602V21.6595H40.8956Z" fill="#323030"/>
<path d="M42.8756 22.9656H42.6493V23.3219H42.1967V22.9656H41.3481V22.6688L42.0835 21.6595H42.5361L41.9138 22.6094H42.1967V22.3126H42.6493V22.6094H42.8756V22.9656Z" fill="#323030"/>
</svg>
