<svg width="39" height="38" viewBox="0 0 39 38" fill="none" xmlns="http://www.w3.org/2000/svg">
<rect x="0.222656" width="38" height="38" rx="19" fill="#FEEEE6"/>
<path d="M11.2698 23.7031V16.0158L9.50641 17.0935V15.3562L11.2698 14.2981H12.8765V23.7031H11.2698ZM18.1535 23.8991C17.6745 23.8991 17.2282 23.8011 16.8146 23.6052C16.4009 23.4049 16.0439 23.1306 15.7434 22.7822C15.4474 22.4339 15.234 22.0289 15.1034 21.5674L16.6186 21.1625C16.6796 21.415 16.7906 21.6327 16.9517 21.8156C17.1172 21.9985 17.3088 22.14 17.5265 22.2401C17.7485 22.3403 17.9771 22.3903 18.2123 22.3903C18.517 22.3903 18.7957 22.3163 19.0483 22.1683C19.3008 22.0202 19.5011 21.8221 19.6491 21.5739C19.7972 21.3214 19.8712 21.0427 19.8712 20.7379C19.8712 20.4331 19.795 20.1567 19.6426 19.9085C19.4946 19.6559 19.2943 19.4578 19.0417 19.3141C18.7892 19.1661 18.5127 19.0921 18.2123 19.0921C17.8509 19.0921 17.5504 19.1574 17.3109 19.288C17.0758 19.4186 16.8951 19.558 16.7689 19.706L15.4234 19.2749L15.7108 14.2981H20.8182V15.7742H16.5533L17.1411 15.219L16.9321 18.6806L16.6448 18.3279C16.8886 18.1058 17.1716 17.9404 17.4938 17.8315C17.816 17.7227 18.1274 17.6682 18.4278 17.6682C19.0156 17.6682 19.5359 17.8032 19.9888 18.0732C20.4459 18.3388 20.803 18.7024 21.0599 19.1639C21.3211 19.6254 21.4518 20.1501 21.4518 20.7379C21.4518 21.3257 21.2994 21.8591 20.9946 22.3381C20.6898 22.8127 20.287 23.1915 19.7863 23.4745C19.2899 23.7576 18.7456 23.8991 18.1535 23.8991ZM25.226 21.9527V19.6146H22.8878V18.3802H25.226V16.0485H26.4604V18.3802H28.7855V19.6146H26.4604V21.9527H25.226Z" fill="#262626"/>
</svg>
