<svg width="152" height="57" viewBox="0 0 152 57" fill="none" xmlns="http://www.w3.org/2000/svg">
<path d="M120.506 34.1579V42.8916H116.269V34.1579H113.871V53.5223H116.269V45.0652H120.506V53.5223H122.903V34.1579H120.506Z" fill="#323030"/>
<path d="M114.933 28.2694C114.933 28.2694 110.301 29.4023 109.02 27.1365C112.916 24.8576 116.281 21.5511 116.281 18.6531C116.281 17.731 115.464 16.8483 113.924 16.8483C109.456 16.8483 106.241 21.1164 106.241 25.6216C106.241 26.0959 106.282 26.5174 106.377 26.8862C104.239 27.9796 102.236 28.6778 101.446 28.6778C101.065 28.6778 101.092 27.7557 101.923 25.8983C103.762 21.7751 105.234 19.2195 105.234 18.4291C105.234 17.8232 104.797 17.1777 103.599 17.1777C101.201 17.1777 95.5339 21.7224 95.6838 22.1044C96.5421 24.5151 95.2482 28.5592 93.6681 28.5592C92.1832 28.5592 95.4934 21.1823 97.8501 17.7968L95.5886 17.0591C95.5886 17.0591 93.6404 20.4841 92.3466 23.7115C91.3519 25.2264 88.6137 28.0982 87.2381 28.0982C86.0395 28.0982 91.5153 17.6519 91.5153 17.6519L89.0634 17.1382C89.0634 17.1382 87.8236 19.6805 86.598 22.3811H83.5734L85.4534 17.5597L83.0014 17.0064L80.9175 22.3679H78.3968C78.3968 22.3679 75.9448 28.0718 73.0162 28.0718C70.0463 28.0718 73.1661 15.0305 79.9776 11.2235L79.3097 9.87979C75.4681 11.0127 71.1092 16.7693 69.7471 22.7631C68.194 24.5678 64.979 28.085 63.5214 28.085C61.982 28.085 68.1258 18.0998 68.1258 18.0998L65.6327 17.4543C65.6327 17.4543 63.7666 20.4314 62.309 23.3953C61.2192 25.1606 58.7807 28.1245 57.2823 28.1245C56.0291 28.1245 61.8458 17.8627 61.8458 17.8627L59.3938 16.9801C59.0669 17.5202 57.2823 20.8661 55.9746 23.8828C54.7894 24.9761 51.2339 28.164 50.1305 28.164C48.9726 28.164 51.7108 24.1199 53.4408 21.011C54.8303 18.5477 55.021 16.9669 53.25 16.9669C51.5473 16.9669 48.8092 18.8243 46.8339 20.932L48.346 17.5729C48.346 17.5729 44.9677 17.5729 41.4122 16.0711C41.4258 15.755 41.4394 15.4389 41.4394 15.1227C41.4394 6.67874 36.7806 0 32.8982 0C28.43 0 29.2065 7.74578 33.661 12.9096C35.3775 14.8329 37.4889 16.0844 39.4369 16.901C38.8511 24.0013 34.8598 28.1904 33.0344 28.1904C31.7402 28.1904 31.7812 24.1462 37.4072 18.4028L35.1458 16.9932C35.1186 17.0064 35.0914 17.0328 35.0505 17.0591C34.0424 17.7968 30.2145 19.5094 28.2529 19.1932C27.9669 16.6639 25.2015 17.1777 25.2015 18.6136C25.2015 19.6279 25.7464 20.2075 26.5773 20.4709C26.196 23.4349 23.0219 28.1772 20.4881 28.1772C19.0987 28.1772 18.7581 24.4229 24.8064 17.8232L22.5996 16.1107C22.5996 16.1107 18.8398 20.2075 17.4503 24.0804C16.1834 25.4767 12.1921 28.1772 10.5574 28.1772C8.54129 28.1772 14.3035 19.3644 17.9952 13.7C19.4801 11.4211 20.1067 10.0379 20.1067 9.15526C20.1067 8.1278 19.2485 7.85116 18.472 7.85116C16.2107 7.85116 11.7561 11.0127 7.57409 17.5992C7.57409 17.5992 11.8924 8.68108 12.519 7.24519C13.4726 5.20336 10.7754 4.13634 9.82174 5.84885C8.54129 8.16732 0 29.6131 0 29.6131H2.60188C2.60188 29.6131 8.84097 14.6221 17.0008 10.1169C15.9927 11.645 6.92022 24.5941 6.92022 27.9928C6.92022 29.7975 8.50037 29.9424 9.08617 29.9424C10.8026 29.9424 14.0584 28.7568 17.028 25.7402C16.9735 26.0564 16.9463 26.3593 16.9463 26.6492C16.9463 29.4287 18.8671 29.9424 19.8751 29.9424C23.8529 29.9424 27.6672 24.6732 28.2121 20.6422C29.7786 20.5632 31.6722 19.944 33.1025 19.1405C31.5768 21.0374 29.765 23.9355 29.765 26.9389C29.765 29.2574 31.3452 29.9556 32.544 29.9556C36.4945 29.9556 40.4859 24.3702 41.2759 17.5729C43.3738 18.2184 44.954 18.3501 45.063 18.3501L40.2679 29.6263H42.9106L45.6352 23.5798C47.624 21.4985 50.4847 19.1537 51.2067 19.4698C51.9696 19.7991 47.0246 26.0168 47.0246 28.6119C47.0246 29.2574 47.3652 29.9556 48.7002 29.9556C50.8525 29.9556 53.468 27.861 55.2389 25.648C54.803 26.8072 54.5169 27.8083 54.5169 28.4275C54.5169 29.0335 54.8575 29.9556 56.247 29.9556C57.9498 29.9556 59.5981 28.4934 60.865 26.9126C60.7151 27.4527 60.6198 27.9401 60.6198 28.3353C60.6198 29.2574 61.3418 29.9556 62.5814 29.9556C64.7609 29.9556 67.6896 27.0575 69.3926 24.7127C69.3244 25.266 69.2974 25.8324 69.2974 26.3725C69.2974 28.5065 70.1145 29.9424 72.1714 29.9424C76.4898 29.9424 79.1328 23.3558 79.1328 23.3558H80.5084L78.0834 29.6263H80.7265L83.1649 23.3558H86.1347C85.1401 25.6216 84.2818 27.7952 84.2818 28.5065C84.2818 29.2047 84.4729 29.9424 86.0118 29.9424C87.7419 29.9424 89.9487 28.2826 91.4201 26.3462C91.2702 26.9257 91.1885 27.4527 91.1885 27.9006C91.1885 28.9281 91.6247 29.9424 93.1502 29.9424C97.8501 29.9424 98.6125 23.7905 97.5908 21.6565C97.5908 21.6565 99.9205 19.5884 102.604 18.7585C102.604 18.7585 98.7624 26.0037 98.7624 28.2299C98.7624 29.758 100.111 29.9424 100.684 29.9424C102.441 29.9424 104.674 29.2838 106.909 28.2299C108.993 31.2333 114.933 29.4287 114.933 29.4287V28.2694ZM36.4536 12.6198C32.3669 8.02242 31.7947 1.47539 33.1434 1.47539C34.492 1.47539 39.5323 5.83567 39.5323 15.1227C38.4289 14.4772 37.3663 13.6605 36.4536 12.6198ZM114.592 18.192C115.123 18.192 114.428 20.6817 111.513 23.4349C110.723 24.1857 109.729 24.9103 108.679 25.5689C108.789 21.92 111.622 18.192 114.592 18.192Z" fill="#323030"/>
<path d="M131.893 47.5285L132.016 34.1579H129.618V53.5223H132.016L136.13 40.1384L136.008 53.5223H138.405V34.1579H136.008L131.893 47.5285Z" fill="#323030"/>
<path d="M149.698 34.1579C148.254 34.1842 143.745 35.1459 143.745 40.2438C143.745 43.6425 145.679 45.4077 147.096 46.2508L143.69 53.5091H146.238L149.603 46.2113V53.5091H152V34.1579H149.698ZM149.589 36.2392V45.0652C149.18 44.9466 146.224 43.9718 146.224 40.2965C146.238 36.9769 148.635 36.3577 149.589 36.2392Z" fill="#323030"/>
<path d="M104.703 34.1579H102.496L98.8994 53.5223H101.202L102.087 48.5956H105.793L106.664 53.5223H109.062L105.466 34.171H104.703V34.1579ZM102.482 46.422L103.954 38.3074L105.398 46.422H102.482Z" fill="#323030"/>
<path d="M93.8593 34.1579H86.7622V34.1842C86.4489 34.1579 86.2308 34.1579 86.2308 34.1579C86.2308 38.2415 86.2308 45.9214 85.1003 51.3355H83.7376V57H86.0403V53.5223H93.0011V57H95.3031V51.3355H93.8593V34.1579ZM87.5658 51.3355C87.8656 49.1752 88.5193 43.5766 88.574 36.3446H91.4621V51.3355H87.5658Z" fill="#323030"/>
<path d="M76.6535 42.6545C77.6888 42.0486 79.3229 40.7576 79.3229 38.5709C79.3229 35.6464 77.1161 34.0262 74.2286 34.0262C72.7437 34.0262 71.8308 34.3555 71.0542 34.7639V36.9506C71.0542 36.9506 72.2123 36.1207 73.8877 36.1207C75.8088 36.1207 76.7623 37.2009 76.7623 38.6236C76.7623 40.0594 75.7541 41.3504 73.261 41.627V43.7215C73.261 43.7215 77.4436 44.1958 77.4436 48.1345C77.4436 50.229 75.8635 51.4278 73.5608 51.4278C72.0218 51.4278 70.9725 50.8218 70.9725 50.8218L70.4957 52.9559C70.4957 52.9559 71.5991 53.7462 73.8059 53.7462C77.212 53.7462 80.0043 51.9416 80.0043 47.9896C79.9908 44.5778 77.8522 43.1814 76.6535 42.6545Z" fill="#323030"/>
<path d="M58.8493 47.489L58.9583 34.1579H56.5608V53.5223H58.9583L63.0587 40.1911L62.9497 53.5223H65.347V34.1579H62.9497L58.8493 47.489Z" fill="#323030"/>
</svg>
