<svg width="177" height="59" viewBox="0 0 177 59" fill="none" xmlns="http://www.w3.org/2000/svg">
<path d="M128.967 45.9101L127.068 46.8865L131.152 55.0979L133.052 54.1215L128.967 45.9101ZM120.144 46.5024H118.016V59H120.144V46.5024ZM110.47 42.2752L105.272 54.1932L107.218 55.0701L112.416 43.151L110.47 42.2752Z" fill="#B9664A"/>
<path d="M130.002 36.1092C129.954 36.6737 129.521 42.5818 131.803 48.2736C131.919 48.5628 131.918 48.8867 131.8 49.1759C131.683 49.4651 131.458 49.6954 131.174 49.8157L128.608 50.9193C128.341 51.0402 128.037 51.0527 127.761 50.954C127.482 50.8542 127.253 50.6513 127.12 50.3872C124.527 45.2252 124.954 36.5395 124.954 36.5395V1.19388C124.954 0.878059 125.078 0.573804 125.298 0.349373C125.519 0.126098 125.817 3.4742e-07 126.129 3.4742e-07H128.833C128.988 -0.000119652 129.141 0.0308476 129.283 0.091063C129.426 0.151278 129.555 0.239514 129.662 0.35053C129.772 0.461644 129.859 0.593503 129.918 0.738467C129.977 0.883432 130.006 1.03862 130.005 1.19504V36.012C130.005 36.0467 130.005 36.0745 130.002 36.1092Z" fill="#FF0C00"/>
<path d="M115.805 7.04412C115.816 6.17313 116.164 5.34026 116.775 4.71998C117.229 4.2599 117.81 3.94517 118.443 3.81581C119.076 3.68645 119.734 3.74829 120.332 3.99347C120.732 4.16237 121.094 4.41226 121.395 4.72808C121.707 5.02886 121.954 5.39212 122.119 5.79586C122.284 6.19961 122.365 6.63343 122.357 7.06957C122.364 7.50918 122.282 7.94647 122.117 8.35253C121.952 8.75808 121.706 9.12576 121.395 9.43304C121.113 9.7338 120.775 9.97564 120.399 10.1445C120.024 10.3123 119.62 10.4028 119.209 10.4106C118.742 10.4235 118.278 10.3375 117.847 10.1582C117.415 9.979 117.026 9.71057 116.706 9.37057C116.109 8.74526 115.785 7.90842 115.805 7.04412ZM121.596 16.9735V53.8381C121.596 54.0445 121.515 54.2427 121.37 54.3899C121.3 54.4619 121.215 54.5191 121.122 54.5582C121.029 54.5973 120.929 54.6176 120.828 54.6178H117.409C117.298 54.6175 117.189 54.5952 117.086 54.5521C116.984 54.509 116.891 54.446 116.814 54.3667C116.655 54.2054 116.565 53.9882 116.565 53.7617V16.9885C116.565 16.7918 116.642 16.6033 116.779 16.4645C116.846 16.396 116.926 16.3416 117.015 16.3045C117.103 16.2673 117.198 16.2482 117.294 16.2481H120.888C120.982 16.2488 121.074 16.2681 121.16 16.3048C121.246 16.3416 121.324 16.3951 121.389 16.4621C121.522 16.599 121.596 16.7825 121.596 16.9735Z" fill="#86BF17"/>
<path d="M29.8514 3.29359H25.7041C25.634 3.29346 25.5646 3.30742 25.5 3.33465C25.4354 3.36188 25.377 3.40181 25.3281 3.45208C25.2283 3.5544 25.173 3.69205 25.1743 3.835V26.336C25.1739 26.4429 25.1421 26.5474 25.0829 26.6365C25.0237 26.7255 24.9396 26.7952 24.8411 26.8369C24.7429 26.8771 24.6348 26.8864 24.5312 26.8634C24.4276 26.8405 24.3335 26.7864 24.2615 26.7085L0.915076 1.8799C0.842111 1.80341 0.747974 1.75043 0.644719 1.72776C0.541465 1.70509 0.433793 1.71375 0.335493 1.75265C0.236031 1.79254 0.150859 1.86142 0.0910337 1.95033C0.0312087 2.03925 -0.000506263 2.14409 6.11166e-06 2.25126V37.8456C6.11166e-06 37.9879 0.0578487 38.1256 0.157338 38.2262C0.20648 38.276 0.265017 38.3156 0.329556 38.3426C0.394095 38.3696 0.463353 38.3835 0.533315 38.3835H4.67947C4.74927 38.3835 4.81837 38.3696 4.88272 38.3426C4.94708 38.3156 5.00541 38.276 5.05429 38.2262C5.15405 38.1242 5.20972 37.9871 5.20931 37.8445V15.1514C5.20906 15.0443 5.24044 14.9396 5.29951 14.8503C5.35857 14.7609 5.4427 14.691 5.54133 14.6494C5.63975 14.6088 5.74819 14.5993 5.85217 14.622C5.95615 14.6448 6.05071 14.6987 6.12323 14.7766L29.4697 39.545C29.5425 39.6224 29.6371 39.6759 29.7409 39.6987C29.8448 39.7214 29.953 39.7122 30.0516 39.6723C30.1511 39.6316 30.236 39.5618 30.295 39.472C30.3541 39.3822 30.3846 39.2765 30.3824 39.1691V3.835C30.3818 3.69232 30.3258 3.55545 30.2262 3.45324C30.1772 3.40317 30.1187 3.3633 30.0542 3.3359C29.9897 3.3085 29.9215 3.29412 29.8514 3.29359ZM54.1719 16.2481H50.5741C50.4782 16.2484 50.3833 16.2678 50.2949 16.3051C50.2065 16.3425 50.1264 16.397 50.0593 16.4656C49.9227 16.6054 49.8463 16.7931 49.8465 16.9885V17.1435C49.845 17.282 49.8054 17.4174 49.7319 17.5348C49.6584 17.6522 49.5539 17.747 49.43 17.8087C49.3061 17.8687 49.1676 17.8917 49.031 17.8751C48.8944 17.8585 48.7654 17.8029 48.6595 17.715C47.0883 16.3764 45.0932 15.6386 43.0291 15.6327C41.6406 15.6048 40.2634 15.8882 38.9987 16.4622C37.7273 17.0393 36.5997 17.8912 35.697 18.9564C33.7419 21.166 32.7632 23.9297 32.7632 27.2476C32.7632 30.6256 33.7396 33.4437 35.6912 35.7019C37.6579 37.9115 40.1451 39.0175 43.1564 39.0187C45.1688 38.9964 47.1159 38.3021 48.6885 37.0462C48.7686 36.9864 48.8603 36.944 48.9578 36.9217C49.0552 36.8994 49.1563 36.8977 49.2544 36.9168C49.3526 36.9358 49.4457 36.9752 49.5277 37.0324C49.6097 37.0895 49.6789 37.1632 49.7308 37.2487C49.8013 37.3644 49.8395 37.4962 49.8407 37.6304C49.8407 37.8271 49.917 38.0168 50.0535 38.1556C50.1912 38.2945 50.3763 38.372 50.5695 38.372H54.1673C54.2631 38.372 54.358 38.3528 54.4462 38.3154C54.5345 38.278 54.6143 38.2233 54.681 38.1545C54.8173 38.0148 54.893 37.8268 54.8915 37.6316V16.9885C54.8927 16.7945 54.8179 16.6077 54.6833 16.4679C54.6169 16.3992 54.5375 16.3443 54.4497 16.3066C54.3619 16.2689 54.2675 16.249 54.1719 16.2481ZM48.4386 32.4963C47.2864 33.7977 45.7813 34.4502 43.9222 34.4514C43.0948 34.467 42.2749 34.2929 41.5252 33.9424C40.7721 33.5892 40.1088 33.0698 39.5852 32.4234C38.4677 31.093 37.9089 29.3646 37.9089 27.2406C37.9089 25.2566 38.485 23.5896 39.6372 22.2407C40.1669 21.6034 40.832 21.0924 41.5842 20.7449C42.3329 20.3994 43.1499 20.2274 43.9743 20.2416C44.8177 20.214 45.6565 20.3773 46.428 20.7194C47.2038 21.0632 47.8927 21.5762 48.4444 22.221C49.5954 23.5676 50.1715 25.2786 50.1715 27.3552C50.1715 29.4317 49.5931 31.1462 48.4386 32.4963ZM62.455 3.4742e-07H59.5744C59.2887 3.4742e-07 59.0157 0.115687 58.8132 0.320451C58.6103 0.527329 58.4968 0.805738 58.4974 1.09555V37.2892C58.4974 37.5784 58.6131 37.856 58.8144 38.0619C59.0157 38.2679 59.2887 38.3835 59.5744 38.3835H62.455C62.5967 38.3832 62.737 38.3546 62.8675 38.2994C62.998 38.2442 63.1162 38.1635 63.2151 38.0619C63.4175 37.8555 63.5312 37.5782 63.532 37.2892V1.09786C63.5322 0.80836 63.4193 0.530243 63.2174 0.322765C63.1178 0.221148 62.999 0.140298 62.8679 0.0848952C62.7369 0.0294923 62.5973 0.000637129 62.455 3.4742e-07ZM87.5286 16.2481H83.9308C83.835 16.2482 83.7402 16.2675 83.6519 16.3048C83.5637 16.3422 83.4839 16.3969 83.4172 16.4656C83.2803 16.6051 83.2041 16.7931 83.2055 16.9885V17.1435C83.2043 17.2821 83.1647 17.4176 83.0912 17.535C83.0177 17.6524 82.9131 17.7472 82.789 17.8087C82.6653 17.8684 82.527 17.8914 82.3906 17.8747C82.2542 17.8581 82.1255 17.8027 82.0197 17.715C80.4471 16.3765 78.4509 15.6387 76.3858 15.6327C74.9976 15.6038 73.6209 15.8872 72.3519 16.461C71.0796 17.0383 69.9512 17.8905 69.0479 18.9564C67.0963 21.1671 66.1199 23.932 66.1199 27.2511C66.1199 30.6291 67.0963 33.4472 69.0479 35.7054C71.0169 37.915 73.5053 39.0198 76.5154 39.0221C78.5282 38.9994 80.4757 38.3047 82.0486 37.0485C82.1289 36.9892 82.2207 36.9472 82.3181 36.9253C82.4155 36.9034 82.5164 36.902 82.6144 36.9213C82.7123 36.9405 82.8052 36.98 82.8871 37.0372C82.9689 37.0943 83.038 37.168 83.0898 37.2533C83.1606 37.3682 83.199 37.5001 83.2008 37.6351C83.201 37.7799 83.2433 37.9215 83.3226 38.0427C83.4019 38.1639 83.5147 38.2595 83.6474 38.3176C83.7352 38.3552 83.8295 38.3749 83.925 38.3755H87.5228C87.6188 38.3752 87.7137 38.3559 87.8021 38.3185C87.8905 38.2812 87.9706 38.2266 88.0376 38.158C88.175 38.0182 88.2519 37.8299 88.2517 37.6339V16.9885C88.2515 16.7941 88.1756 16.6073 88.04 16.4679C87.9735 16.3993 87.8941 16.3445 87.8063 16.3068C87.7186 16.269 87.6242 16.2491 87.5286 16.2481ZM81.7987 32.4963C80.6465 33.7977 79.1414 34.4502 77.2835 34.4514C76.4558 34.4683 75.6352 34.2946 74.8854 33.9435C74.1322 33.5904 73.4691 33.0706 72.9465 32.4234C71.829 31.093 71.2691 29.3646 71.2667 27.2406C71.2667 25.2566 71.8429 23.5896 72.9951 22.2407C73.5253 21.6039 74.1908 21.0933 74.9432 20.746C75.6916 20.4006 76.5081 20.2282 77.3321 20.2416C78.1763 20.2138 79.0159 20.3772 79.7881 20.7194C80.564 21.063 81.253 21.5762 81.8045 22.221C82.9567 23.5676 83.5329 25.2786 83.5329 27.3552C83.5329 29.4317 82.9544 31.1462 81.7987 32.4963ZM112.962 0.992589C112.963 0.730099 112.86 0.477908 112.676 0.290373C112.586 0.198523 112.479 0.125539 112.36 0.0756832C112.242 0.0258272 112.114 9.86708e-05 111.986 3.4742e-07H108.888C108.759 9.86708e-05 108.632 0.0258272 108.513 0.0756832C108.394 0.125539 108.287 0.198523 108.197 0.290373C108.013 0.477908 107.911 0.730099 107.911 0.992589V16.6345C107.911 16.8168 107.861 16.9956 107.767 17.1516C107.673 17.3069 107.538 17.433 107.377 17.5161C107.217 17.5987 107.036 17.6345 106.857 17.6194C106.677 17.6042 106.505 17.5388 106.361 17.4305C104.844 16.2652 102.984 15.6336 101.071 15.6338C99.6832 15.6049 98.307 15.8896 97.0449 16.4668C95.7764 17.0483 94.6538 17.906 93.7594 18.9772C91.8067 21.1868 90.8314 23.9424 90.8326 27.2476C90.8326 30.6256 91.8078 33.4437 93.7594 35.7019C94.6789 36.77 95.8224 37.6223 97.1085 38.1985C98.3889 38.7712 99.7807 39.0518 101.183 39.0198C103.092 39.0247 104.952 38.416 106.488 37.2834C106.596 37.2026 106.718 37.1452 106.849 37.1148C106.98 37.0843 107.116 37.0815 107.248 37.1066C107.38 37.1316 107.505 37.184 107.615 37.2602C107.726 37.3365 107.819 37.435 107.889 37.5494C107.985 37.7035 108.037 37.8806 108.04 38.0619C108.104 41.6202 107.433 45.1534 106.068 48.4402C105.991 48.621 105.969 48.8204 106.005 49.0137C106.04 49.207 106.131 49.3857 106.267 49.5276C106.357 49.6208 106.464 49.6951 106.583 49.7463L109.48 50.9899C109.704 51.0873 109.956 51.096 110.186 51.0142C110.415 50.932 110.606 50.767 110.721 50.5514C113.414 45.4103 112.968 36.5395 112.968 36.5395L112.962 0.992589ZM106.502 32.4963C105.351 33.7977 103.845 34.4502 101.987 34.4514C101.16 34.4671 100.34 34.293 99.59 33.9424C98.8368 33.5892 98.1735 33.0699 97.6499 32.4234C96.5324 31.093 95.9736 29.3646 95.9736 27.2406C95.9736 25.2566 96.5498 23.5896 97.702 22.2407C98.2296 21.6056 98.8919 21.0958 99.6409 20.7483C100.386 20.403 101.2 20.2299 102.022 20.2416C102.866 20.214 103.705 20.3773 104.477 20.7194C105.252 21.0607 105.94 21.5743 106.494 22.221C107.646 23.5676 108.222 25.2786 108.222 27.3552C108.222 29.4317 107.649 31.1462 106.502 32.4963ZM156.552 16.6357C155.434 15.9842 154.169 15.6261 152.875 15.5945C151.977 15.5712 151.088 15.7665 150.283 16.1637C149.742 16.4558 149.239 16.8158 148.789 17.2349C148.706 17.311 148.603 17.3613 148.492 17.3796C148.381 17.3978 148.268 17.3834 148.165 17.3379C148.062 17.2908 147.975 17.2148 147.914 17.1191C147.854 17.0233 147.822 16.9121 147.824 16.7988C147.824 16.644 147.763 16.4953 147.655 16.3846C147.602 16.3306 147.538 16.2876 147.468 16.2582C147.399 16.2288 147.324 16.2136 147.248 16.2134H143.373C143.298 16.2136 143.222 16.2288 143.153 16.2582C143.083 16.2876 143.019 16.3306 142.966 16.3846C142.858 16.4954 142.798 16.6441 142.798 16.7988V37.7519C142.798 37.9069 142.859 38.0562 142.966 38.1649C143.075 38.2748 143.221 38.3373 143.373 38.3373H147.244C147.32 38.3371 147.395 38.3218 147.465 38.2922C147.535 38.2626 147.598 38.2193 147.651 38.1649C147.76 38.0548 147.82 37.9064 147.82 37.7519V26.8612C147.82 22.6491 149.191 20.5424 151.933 20.5424C152.742 20.5621 153.53 20.8043 154.211 21.2423C154.279 21.2833 154.354 21.3095 154.433 21.3194C154.512 21.3293 154.592 21.3226 154.668 21.2997C154.744 21.2768 154.814 21.2382 154.874 21.1865C154.934 21.1348 154.983 21.071 155.017 20.9994L156.786 17.4073C156.854 17.2731 156.867 17.118 156.824 16.9742C156.78 16.8303 156.683 16.7087 156.552 16.6345V16.6357ZM175.948 16.2076H173.014C172.737 16.2076 172.471 16.321 172.275 16.52C172.078 16.7208 171.968 16.9908 171.968 17.272V28.91C171.968 32.5773 170.544 34.4109 167.697 34.4109C164.85 34.4109 163.426 32.5773 163.426 28.91V17.272C163.426 16.9908 163.316 16.7208 163.12 16.52C163.023 16.4212 162.908 16.3427 162.78 16.2891C162.653 16.2355 162.516 16.2078 162.378 16.2076H159.443C159.166 16.2076 158.899 16.3199 158.703 16.52C158.506 16.7208 158.395 16.9907 158.395 17.272V29.0257C158.395 31.0571 158.604 32.5877 159.023 33.6161C159.492 34.8207 160.252 35.8906 161.235 36.7304C162.935 38.2297 165.087 38.9793 167.695 38.9793C170.301 38.9793 172.464 38.2297 174.18 36.7304C175.152 35.8899 175.896 34.8191 176.346 33.6161C176.808 32.1319 177.027 30.5817 176.997 29.0257V17.272C176.998 16.9899 176.887 16.7191 176.69 16.5177C176.593 16.4189 176.478 16.3404 176.35 16.2868C176.223 16.2332 176.086 16.2055 175.948 16.2053V16.2076ZM136.206 32.6605C135.384 32.6668 134.599 32.9984 134.023 33.5826C133.44 34.173 133.109 34.9662 133.098 35.7956C133.088 36.2167 133.161 36.6367 133.315 37.0277C133.468 37.4187 133.7 37.7739 133.994 38.07C134.587 38.6543 135.388 38.9793 136.221 38.9735C137.053 38.9655 137.849 38.6272 138.432 38.033C138.989 37.4433 139.303 36.6656 139.313 35.8546C139.318 35.0152 138.994 34.2071 138.409 33.6045C138.123 33.3089 137.781 33.0732 137.402 32.9111C137.024 32.749 136.617 32.6638 136.206 32.6605Z" fill="#323030"/>
</svg>
