<svg width="87" height="105" viewBox="0 0 87 105" fill="none" xmlns="http://www.w3.org/2000/svg">
<path d="M71.1305 9.78548C66.1162 5.73134 60.2532 2.82659 53.9645 1.28073C47.6757 -0.265125 41.1178 -0.413553 34.7639 0.846153C26.5941 2.50009 19.078 6.43813 13.1109 12.1912C7.14376 17.9442 2.97715 25.2697 1.10739 33.2951C-0.762368 41.3205 -0.256463 49.7075 2.56484 57.4569C5.38615 65.2064 10.4039 71.9917 17.0205 77.0047C24.5748 82.4643 31.0067 89.2949 35.9723 97.1313L39.3557 102.687C39.7854 103.392 40.3927 103.976 41.1185 104.382C41.8443 104.787 42.664 105 43.4979 105C44.3318 105 45.1515 104.787 45.8773 104.382C46.6031 103.976 47.2104 103.392 47.6401 102.687L50.8833 97.3508C55.2074 89.8451 61.1032 83.3366 68.1773 78.2599C73.7241 74.4915 78.3082 69.5018 81.5679 63.6846C84.8276 57.8673 86.6737 51.3817 86.9605 44.7394C87.2474 38.0971 85.9671 31.4798 83.2208 25.4097C80.4744 19.3395 76.3371 13.9826 71.1353 9.76162L71.1305 9.78548ZM43.4931 62.0517C39.6692 62.0517 35.9313 60.932 32.7519 58.8343C29.5725 56.7365 27.0944 53.7549 25.6311 50.2665C24.1678 46.7781 23.7849 42.9396 24.5309 39.2363C25.2769 35.533 27.1182 32.1313 29.8221 29.4614C32.526 26.7915 35.9709 24.9733 39.7212 24.2366C43.4716 23.5 47.359 23.8781 50.8917 25.323C54.4245 26.768 57.444 29.2149 59.5684 32.3544C61.6928 35.4939 62.8267 39.1849 62.8267 42.9608C62.8267 48.024 60.7898 52.8798 57.164 56.4601C53.5382 60.0403 48.6207 62.0517 43.4931 62.0517Z" fill="#EB6025"/>
</svg>
